G04*
G04 #@! TF.GenerationSoftware,Altium Limited,Altium Designer,20.2.8 (258)*
G04*
G04 Layer_Physical_Order=2*
G04 Layer_Color=128*
%FSLAX43Y43*%
%MOMM*%
G71*
G04*
G04 #@! TF.SameCoordinates,2C7AC1C0-F562-43BB-A571-7E62E4670D11*
G04*
G04*
G04 #@! TF.FilePolarity,Negative*
G04*
G01*
G75*
%ADD84C,0.813*%
%ADD97C,1.620*%
G04:AMPARAMS|DCode=98|XSize=2.544mm|YSize=2.544mm|CornerRadius=0mm|HoleSize=0mm|Usage=FLASHONLY|Rotation=0.000|XOffset=0mm|YOffset=0mm|HoleType=Round|Shape=Relief|Width=0.381mm|Gap=0.254mm|Entries=4|*
%AMTHD98*
7,0,0,2.544,2.036,0.381,45*
%
%ADD98THD98*%
G04:AMPARAMS|DCode=99|XSize=2.424mm|YSize=2.424mm|CornerRadius=0mm|HoleSize=0mm|Usage=FLASHONLY|Rotation=0.000|XOffset=0mm|YOffset=0mm|HoleType=Round|Shape=Relief|Width=0.381mm|Gap=0.254mm|Entries=4|*
%AMTHD99*
7,0,0,2.424,1.916,0.381,45*
%
%ADD99THD99*%
%ADD100C,1.500*%
%ADD101C,0.900*%
D84*
X-0Y3175D02*
G03*
X3175Y0I3175J0D01*
G01*
X3175Y107950D02*
G03*
X0Y104775I0J-3175D01*
G01*
X74930Y104775D02*
G03*
X71755Y107950I-3175J0D01*
G01*
X74168Y98933D02*
G03*
X74930Y99695I0J762D01*
G01*
X70485Y98933D02*
G03*
X69723Y98171I0J-762D01*
G01*
Y92710D02*
G03*
X72123Y92710I1200J0D01*
G01*
X72885Y96533D02*
G03*
X72123Y95771I0J-762D01*
G01*
X74930Y95771D02*
G03*
X74168Y96533I-762J0D01*
G01*
X71755Y0D02*
G03*
X74930Y3175I0J3175D01*
G01*
X74930Y95771D02*
X74930Y3175D01*
X72885Y96533D02*
X74168D01*
X72885D02*
Y96533D01*
X72123Y92710D02*
Y95771D01*
X69723Y92710D02*
Y98171D01*
X70485Y98933D02*
Y98933D01*
X74168D01*
X71755Y0D02*
X71755Y0D01*
X74930Y3175D02*
X74930D01*
X74930Y99695D02*
Y104775D01*
X71755Y107950D02*
Y107950D01*
X3175Y107950D02*
X71755Y107950D01*
X3175Y107950D02*
Y107950D01*
X-0Y104775D02*
X0Y104775D01*
X-0Y104775D02*
X0Y3175D01*
X-0D02*
X0D01*
X3175Y0D02*
X71755D01*
D97*
X6147Y43815D02*
D03*
X31547Y61595D02*
D03*
Y66675D02*
D03*
X31953Y69215D02*
D03*
X31547Y71755D02*
D03*
X31953Y74295D02*
D03*
X31547Y76835D02*
D03*
X31953Y79375D02*
D03*
X31547Y81915D02*
D03*
X31953Y84455D02*
D03*
X31547Y86995D02*
D03*
Y92075D02*
D03*
X31953Y94615D02*
D03*
Y59055D02*
D03*
X31547Y56515D02*
D03*
X31953Y53975D02*
D03*
X31547Y51435D02*
D03*
X31953Y48895D02*
D03*
X31547Y46355D02*
D03*
X31953Y43815D02*
D03*
Y38735D02*
D03*
X31547Y36195D02*
D03*
X31953Y33655D02*
D03*
X31547Y31115D02*
D03*
X31953Y99695D02*
D03*
X31547Y97155D02*
D03*
X6553D02*
D03*
X6147Y94615D02*
D03*
X6553Y92075D02*
D03*
X6147Y89535D02*
D03*
X6553Y86995D02*
D03*
X6147Y84455D02*
D03*
X6553Y81915D02*
D03*
X6147Y79375D02*
D03*
X6553Y76835D02*
D03*
X6147Y74295D02*
D03*
X6553Y71755D02*
D03*
X6147Y69215D02*
D03*
X6553Y66675D02*
D03*
Y61595D02*
D03*
X6147Y59055D02*
D03*
X6553Y56515D02*
D03*
X6147Y33655D02*
D03*
X6553Y36195D02*
D03*
X6147Y38735D02*
D03*
X6553Y46355D02*
D03*
X6147Y48895D02*
D03*
X6553Y51435D02*
D03*
X6147Y53975D02*
D03*
X6553Y31115D02*
D03*
X6147Y99695D02*
D03*
X26670Y97155D02*
D03*
Y99695D02*
D03*
X11430Y31115D02*
D03*
X26670D02*
D03*
Y33655D02*
D03*
Y36195D02*
D03*
Y38735D02*
D03*
Y43815D02*
D03*
Y46355D02*
D03*
Y48895D02*
D03*
X11430Y53975D02*
D03*
Y51435D02*
D03*
Y48895D02*
D03*
Y46355D02*
D03*
Y43815D02*
D03*
Y38735D02*
D03*
Y36195D02*
D03*
Y33655D02*
D03*
X26670Y51435D02*
D03*
Y53975D02*
D03*
Y56515D02*
D03*
Y59055D02*
D03*
X11430Y56515D02*
D03*
Y59055D02*
D03*
Y61595D02*
D03*
Y99695D02*
D03*
X26670Y94615D02*
D03*
Y92075D02*
D03*
Y86995D02*
D03*
Y84455D02*
D03*
Y81915D02*
D03*
Y79375D02*
D03*
Y76835D02*
D03*
Y74295D02*
D03*
Y71755D02*
D03*
Y69215D02*
D03*
Y66675D02*
D03*
Y61595D02*
D03*
X11430Y66675D02*
D03*
Y69215D02*
D03*
Y71755D02*
D03*
Y74295D02*
D03*
Y76835D02*
D03*
Y79375D02*
D03*
Y81915D02*
D03*
Y84455D02*
D03*
Y86995D02*
D03*
Y89535D02*
D03*
Y92075D02*
D03*
Y94615D02*
D03*
Y97155D02*
D03*
X26670Y33655D02*
D03*
Y31115D02*
D03*
Y36195D02*
D03*
Y46355D02*
D03*
Y43815D02*
D03*
Y38735D02*
D03*
Y56515D02*
D03*
Y53975D02*
D03*
Y48895D02*
D03*
Y51435D02*
D03*
Y66675D02*
D03*
Y59055D02*
D03*
Y61595D02*
D03*
Y76835D02*
D03*
Y74295D02*
D03*
Y69215D02*
D03*
Y71755D02*
D03*
Y86995D02*
D03*
Y84455D02*
D03*
Y79375D02*
D03*
Y81915D02*
D03*
Y92075D02*
D03*
Y94615D02*
D03*
Y97155D02*
D03*
Y99695D02*
D03*
X11430Y33655D02*
D03*
Y31115D02*
D03*
Y36195D02*
D03*
Y46355D02*
D03*
Y43815D02*
D03*
Y38735D02*
D03*
Y56515D02*
D03*
Y53975D02*
D03*
Y48895D02*
D03*
Y51435D02*
D03*
Y66675D02*
D03*
Y59055D02*
D03*
Y61595D02*
D03*
Y76835D02*
D03*
Y74295D02*
D03*
Y69215D02*
D03*
Y71755D02*
D03*
Y86995D02*
D03*
Y84455D02*
D03*
Y79375D02*
D03*
Y81915D02*
D03*
Y92075D02*
D03*
Y89535D02*
D03*
Y94615D02*
D03*
Y97155D02*
D03*
Y99695D02*
D03*
X27140Y2025D02*
D03*
X45720Y55880D02*
D03*
X48260D02*
D03*
X50800D02*
D03*
X58420D02*
D03*
X60960D02*
D03*
X53340D02*
D03*
X55880D02*
D03*
X68072Y35560D02*
D03*
Y43180D02*
D03*
Y38100D02*
D03*
Y40640D02*
D03*
X70612Y33020D02*
D03*
X68072Y45720D02*
D03*
Y48260D02*
D03*
Y50800D02*
D03*
Y53340D02*
D03*
Y55880D02*
D03*
X70612Y35560D02*
D03*
Y38100D02*
D03*
Y40640D02*
D03*
Y43180D02*
D03*
Y45720D02*
D03*
Y48260D02*
D03*
Y50800D02*
D03*
Y53340D02*
D03*
X13440Y2000D02*
D03*
X45720Y85090D02*
D03*
X48260D02*
D03*
X50800D02*
D03*
X58420D02*
D03*
X60960D02*
D03*
X53340D02*
D03*
X55880D02*
D03*
X45720Y3810D02*
D03*
X48260D02*
D03*
X50800D02*
D03*
X58420D02*
D03*
X60960D02*
D03*
X53340D02*
D03*
X55880D02*
D03*
X45720Y62230D02*
D03*
X48260D02*
D03*
X50800D02*
D03*
X58420D02*
D03*
X60960D02*
D03*
X53340D02*
D03*
X55880D02*
D03*
X45720Y26670D02*
D03*
X48260D02*
D03*
X50800D02*
D03*
X58420D02*
D03*
X60960D02*
D03*
X53340D02*
D03*
X55880D02*
D03*
X45720Y33020D02*
D03*
X48260D02*
D03*
X50800D02*
D03*
X58420D02*
D03*
X60960D02*
D03*
X53340D02*
D03*
X55880D02*
D03*
X36795Y104775D02*
D03*
D98*
X31953Y64135D02*
D03*
Y89535D02*
D03*
X31547Y41275D02*
D03*
X6147Y64135D02*
D03*
X6553Y41275D02*
D03*
X26670D02*
D03*
X11430D02*
D03*
Y64135D02*
D03*
X26670Y89535D02*
D03*
Y64135D02*
D03*
Y41275D02*
D03*
Y64135D02*
D03*
Y89535D02*
D03*
X11430Y41275D02*
D03*
Y64135D02*
D03*
X24600Y2025D02*
D03*
X43180Y55880D02*
D03*
X68072Y33020D02*
D03*
X70612Y55880D02*
D03*
X10900Y2000D02*
D03*
X43180Y85090D02*
D03*
Y3810D02*
D03*
Y62230D02*
D03*
Y26670D02*
D03*
Y33020D02*
D03*
X34255Y104775D02*
D03*
D99*
X63373Y91075D02*
D03*
D100*
Y93075D02*
D03*
D101*
X71501Y85471D02*
D03*
X39331Y87725D02*
D03*
X41301Y95784D02*
D03*
X37336Y95855D02*
D03*
X51943Y94234D02*
D03*
X55245Y94107D02*
D03*
X52735Y98530D02*
D03*
X44923Y95979D02*
D03*
X64389Y80010D02*
D03*
X62230Y71755D02*
D03*
X35941Y46355D02*
D03*
Y21971D02*
D03*
X34798Y20955D02*
D03*
X21971Y81915D02*
D03*
X20828Y90805D02*
D03*
X23114Y84455D02*
D03*
X24257Y83185D02*
D03*
Y66675D02*
D03*
X23114Y65405D02*
D03*
X21971Y62865D02*
D03*
X19685Y45085D02*
D03*
X18542Y42545D02*
D03*
X17399Y34925D02*
D03*
X16256Y32385D02*
D03*
X15113Y29718D02*
D03*
X13970Y47625D02*
D03*
X20828Y61595D02*
D03*
X46990Y45085D02*
D03*
X35300Y7487D02*
D03*
X65975Y90100D02*
D03*
X50125Y98800D02*
D03*
X68551Y68575D02*
D03*
X67000Y60875D02*
D03*
X66900Y65250D02*
D03*
X60960Y48260D02*
D03*
X35825Y65225D02*
D03*
X56642Y98044D02*
D03*
X34671Y50165D02*
D03*
X66675Y78613D02*
D03*
X70485Y79502D02*
D03*
X68961D02*
D03*
X49530Y36830D02*
D03*
X52070Y35941D02*
D03*
X54610Y35052D02*
D03*
X62230Y81915D02*
D03*
X59690Y76835D02*
D03*
X62611Y69215D02*
D03*
X52070Y52832D02*
D03*
X54610D02*
D03*
X49530Y42545D02*
D03*
X58420Y50800D02*
D03*
X55880Y41402D02*
D03*
X53340Y39380D02*
D03*
X48260Y73013D02*
D03*
X50800D02*
D03*
X67183Y85471D02*
D03*
X60960Y74295D02*
D03*
X65024Y46990D02*
D03*
X64008Y52070D02*
D03*
X57658Y38100D02*
D03*
X59055Y45720D02*
D03*
X57404Y66675D02*
D03*
X42418Y104740D02*
D03*
M02*
