G04*
G04 #@! TF.GenerationSoftware,Altium Limited,Altium Designer,20.2.8 (258)*
G04*
G04 Layer_Color=16711935*
%FSLAX43Y43*%
%MOMM*%
G71*
G04*
G04 #@! TF.SameCoordinates,2C7AC1C0-F562-43BB-A571-7E62E4670D11*
G04*
G04*
G04 #@! TF.FilePolarity,Negative*
G04*
G01*
G75*
%ADD44R,0.900X0.510*%
%ADD56R,1.120X1.070*%
%ADD70C,1.898*%
%ADD71C,3.720*%
%ADD72C,1.820*%
%ADD73R,1.820X1.820*%
%ADD74R,1.820X1.820*%
%ADD75C,1.520*%
G04:AMPARAMS|DCode=76|XSize=1.52mm|YSize=1.52mm|CornerRadius=0.41mm|HoleSize=0mm|Usage=FLASHONLY|Rotation=270.000|XOffset=0mm|YOffset=0mm|HoleType=Round|Shape=RoundedRectangle|*
%AMROUNDEDRECTD76*
21,1,1.520,0.700,0,0,270.0*
21,1,0.700,1.520,0,0,270.0*
1,1,0.820,-0.350,-0.350*
1,1,0.820,-0.350,0.350*
1,1,0.820,0.350,0.350*
1,1,0.820,0.350,-0.350*
%
%ADD76ROUNDEDRECTD76*%
%ADD104R,1.212X1.720*%
D44*
X35900Y99690D02*
D03*
D56*
X35050Y99695D02*
D03*
X36750D02*
D03*
D70*
X6147Y43815D02*
D03*
X31547Y61595D02*
D03*
X31953Y64135D02*
D03*
X31547Y66675D02*
D03*
X31953Y69215D02*
D03*
X31547Y71755D02*
D03*
X31953Y74295D02*
D03*
X31547Y76835D02*
D03*
X31953Y79375D02*
D03*
X31547Y81915D02*
D03*
X31953Y84455D02*
D03*
X31547Y86995D02*
D03*
X31953Y89535D02*
D03*
X31547Y92075D02*
D03*
X31953Y94615D02*
D03*
Y59055D02*
D03*
X31547Y56515D02*
D03*
X31953Y53975D02*
D03*
X31547Y51435D02*
D03*
X31953Y48895D02*
D03*
X31547Y46355D02*
D03*
X31953Y43815D02*
D03*
X31547Y41275D02*
D03*
X31953Y38735D02*
D03*
X31547Y36195D02*
D03*
X31953Y33655D02*
D03*
X31547Y31115D02*
D03*
X31953Y99695D02*
D03*
X31547Y97155D02*
D03*
X6553D02*
D03*
X6147Y94615D02*
D03*
X6553Y92075D02*
D03*
X6147Y89535D02*
D03*
X6553Y86995D02*
D03*
X6147Y84455D02*
D03*
X6553Y81915D02*
D03*
X6147Y79375D02*
D03*
X6553Y76835D02*
D03*
X6147Y74295D02*
D03*
X6553Y71755D02*
D03*
X6147Y69215D02*
D03*
X6553Y66675D02*
D03*
X6147Y64135D02*
D03*
X6553Y61595D02*
D03*
X6147Y59055D02*
D03*
X6553Y56515D02*
D03*
X6147Y33655D02*
D03*
X6553Y36195D02*
D03*
X6147Y38735D02*
D03*
X6553Y41275D02*
D03*
Y46355D02*
D03*
X6147Y48895D02*
D03*
X6553Y51435D02*
D03*
X6147Y53975D02*
D03*
X6553Y31115D02*
D03*
X6147Y99695D02*
D03*
X26670Y97155D02*
D03*
Y99695D02*
D03*
X11430Y31115D02*
D03*
X26670D02*
D03*
Y33655D02*
D03*
Y36195D02*
D03*
Y38735D02*
D03*
Y41275D02*
D03*
Y43815D02*
D03*
Y46355D02*
D03*
Y48895D02*
D03*
X11430Y53975D02*
D03*
Y51435D02*
D03*
Y48895D02*
D03*
Y46355D02*
D03*
Y43815D02*
D03*
Y41275D02*
D03*
Y38735D02*
D03*
Y36195D02*
D03*
Y33655D02*
D03*
X26670Y51435D02*
D03*
Y53975D02*
D03*
Y56515D02*
D03*
Y59055D02*
D03*
X11430Y56515D02*
D03*
Y59055D02*
D03*
Y61595D02*
D03*
Y64135D02*
D03*
Y99695D02*
D03*
X26670Y94615D02*
D03*
Y92075D02*
D03*
Y89535D02*
D03*
Y86995D02*
D03*
Y84455D02*
D03*
Y81915D02*
D03*
Y79375D02*
D03*
Y76835D02*
D03*
Y74295D02*
D03*
Y71755D02*
D03*
Y69215D02*
D03*
Y66675D02*
D03*
Y64135D02*
D03*
Y61595D02*
D03*
X11430Y66675D02*
D03*
Y69215D02*
D03*
Y71755D02*
D03*
Y74295D02*
D03*
Y76835D02*
D03*
Y79375D02*
D03*
Y81915D02*
D03*
Y84455D02*
D03*
Y86995D02*
D03*
Y89535D02*
D03*
Y92075D02*
D03*
Y94615D02*
D03*
Y97155D02*
D03*
D71*
Y104775D02*
D03*
X26670D02*
D03*
X3175D02*
D03*
X71755Y104775D02*
D03*
X3175Y3175D02*
D03*
X71755Y3175D02*
D03*
D72*
X26670Y33655D02*
D03*
Y31115D02*
D03*
Y36195D02*
D03*
Y46355D02*
D03*
Y43815D02*
D03*
Y38735D02*
D03*
Y41275D02*
D03*
Y56515D02*
D03*
Y53975D02*
D03*
Y48895D02*
D03*
Y51435D02*
D03*
Y66675D02*
D03*
Y64135D02*
D03*
Y59055D02*
D03*
Y61595D02*
D03*
Y76835D02*
D03*
Y74295D02*
D03*
Y69215D02*
D03*
Y71755D02*
D03*
Y86995D02*
D03*
Y84455D02*
D03*
Y79375D02*
D03*
Y81915D02*
D03*
Y92075D02*
D03*
Y89535D02*
D03*
Y94615D02*
D03*
Y97155D02*
D03*
X11430Y33655D02*
D03*
Y31115D02*
D03*
Y36195D02*
D03*
Y46355D02*
D03*
Y43815D02*
D03*
Y38735D02*
D03*
Y41275D02*
D03*
Y56515D02*
D03*
Y53975D02*
D03*
Y48895D02*
D03*
Y51435D02*
D03*
Y66675D02*
D03*
Y64135D02*
D03*
Y59055D02*
D03*
Y61595D02*
D03*
Y76835D02*
D03*
Y74295D02*
D03*
Y69215D02*
D03*
Y71755D02*
D03*
Y86995D02*
D03*
Y84455D02*
D03*
Y79375D02*
D03*
Y81915D02*
D03*
Y92075D02*
D03*
Y89535D02*
D03*
Y94615D02*
D03*
Y97155D02*
D03*
X24600Y2025D02*
D03*
X43180Y55880D02*
D03*
X45720D02*
D03*
X48260D02*
D03*
X50800D02*
D03*
X58420D02*
D03*
X53340D02*
D03*
X55880D02*
D03*
X68072Y35560D02*
D03*
Y43180D02*
D03*
Y38100D02*
D03*
Y40640D02*
D03*
X70612Y33020D02*
D03*
X68072D02*
D03*
Y45720D02*
D03*
Y48260D02*
D03*
Y50800D02*
D03*
Y53340D02*
D03*
X70612Y55880D02*
D03*
Y35560D02*
D03*
Y38100D02*
D03*
Y40640D02*
D03*
Y43180D02*
D03*
Y45720D02*
D03*
Y48260D02*
D03*
Y50800D02*
D03*
Y53340D02*
D03*
X10900Y2000D02*
D03*
X43180Y85090D02*
D03*
X45720D02*
D03*
X48260D02*
D03*
X50800D02*
D03*
X58420D02*
D03*
X53340D02*
D03*
X55880D02*
D03*
X43180Y3810D02*
D03*
X45720D02*
D03*
X48260D02*
D03*
X50800D02*
D03*
X58420D02*
D03*
X53340D02*
D03*
X55880D02*
D03*
X43180Y62230D02*
D03*
X45720D02*
D03*
X48260D02*
D03*
X50800D02*
D03*
X58420D02*
D03*
X53340D02*
D03*
X55880D02*
D03*
X43180Y26670D02*
D03*
X45720D02*
D03*
X48260D02*
D03*
X50800D02*
D03*
X58420D02*
D03*
X53340D02*
D03*
X55880D02*
D03*
X43180Y33020D02*
D03*
X45720D02*
D03*
X48260D02*
D03*
X50800D02*
D03*
X58420D02*
D03*
X53340D02*
D03*
X55880D02*
D03*
X34255Y104775D02*
D03*
D73*
X26670Y99695D02*
D03*
X11430D02*
D03*
X68072Y55880D02*
D03*
D74*
X27140Y2025D02*
D03*
X60960Y55880D02*
D03*
X13440Y2000D02*
D03*
X60960Y85090D02*
D03*
Y3810D02*
D03*
Y62230D02*
D03*
Y26670D02*
D03*
Y33020D02*
D03*
X36795Y104775D02*
D03*
D75*
X63373Y91075D02*
D03*
D76*
Y93075D02*
D03*
D104*
X18034Y60325D02*
D03*
X20066D02*
D03*
M02*
