G04*
G04 #@! TF.GenerationSoftware,Altium Limited,Altium Designer,20.2.8 (258)*
G04*
G04 Layer_Physical_Order=1*
G04 Layer_Color=255*
%FSLAX43Y43*%
%MOMM*%
G71*
G04*
G04 #@! TF.SameCoordinates,2C7AC1C0-F562-43BB-A571-7E62E4670D11*
G04*
G04*
G04 #@! TF.FilePolarity,Positive*
G04*
G01*
G75*
%ADD10C,0.400*%
%ADD11C,0.254*%
%ADD16C,0.200*%
%ADD20R,0.762X0.762*%
%ADD21R,1.600X1.092*%
%ADD22O,0.730X0.300*%
%ADD23O,0.300X0.730*%
%ADD24R,0.762X0.762*%
%ADD25R,0.550X0.600*%
%ADD26R,0.900X2.500*%
%ADD27R,0.700X0.250*%
%ADD29R,1.200X2.500*%
%ADD30R,0.260X1.200*%
%ADD31R,1.200X0.775*%
%ADD32R,0.260X0.800*%
%ADD34R,0.300X0.700*%
%ADD36R,0.800X0.800*%
%ADD37R,1.000X0.950*%
%ADD38R,0.800X0.650*%
%ADD39R,1.350X0.900*%
%ADD40R,0.950X1.000*%
%ADD41R,0.650X0.800*%
%ADD42R,0.900X1.350*%
%ADD43R,0.800X0.800*%
%ADD77R,2.500X2.500*%
%ADD78R,1.700X2.350*%
%ADD79R,1.125X1.650*%
%ADD80R,1.600X1.400*%
%ADD81C,0.508*%
%ADD82C,0.635*%
%ADD83C,0.500*%
%ADD84C,0.813*%
%ADD85C,0.559*%
%ADD86C,0.279*%
%ADD87C,0.381*%
%ADD88R,0.900X0.300*%
%ADD89C,1.778*%
%ADD90C,3.600*%
%ADD91C,1.700*%
%ADD92R,1.700X1.700*%
%ADD93R,1.700X1.700*%
%ADD94C,1.400*%
G04:AMPARAMS|DCode=95|XSize=1.4mm|YSize=1.4mm|CornerRadius=0.35mm|HoleSize=0mm|Usage=FLASHONLY|Rotation=270.000|XOffset=0mm|YOffset=0mm|HoleType=Round|Shape=RoundedRectangle|*
%AMROUNDEDRECTD95*
21,1,1.400,0.700,0,0,270.0*
21,1,0.700,1.400,0,0,270.0*
1,1,0.700,-0.350,-0.350*
1,1,0.700,-0.350,0.350*
1,1,0.700,0.350,0.350*
1,1,0.700,0.350,-0.350*
%
%ADD95ROUNDEDRECTD95*%
%ADD96C,0.600*%
G36*
X71755Y107695D02*
X71946D01*
X72326Y107645D01*
X72696Y107546D01*
X73049Y107400D01*
X73381Y107208D01*
X73684Y106975D01*
X73955Y106704D01*
X74188Y106401D01*
X74380Y106069D01*
X74526Y105716D01*
X74625Y105346D01*
X74675Y104966D01*
Y104775D01*
Y99645D01*
X74656Y99547D01*
X74617Y99455D01*
X74562Y99372D01*
X74491Y99301D01*
X74408Y99246D01*
X74316Y99207D01*
X74218Y99188D01*
X70485Y99188D01*
X70479Y99187D01*
X70472Y99188D01*
X70398Y99184D01*
X70379Y99179D01*
X70361D01*
X70214Y99150D01*
X70191Y99141D01*
X70166Y99136D01*
X70028Y99079D01*
X70007Y99065D01*
X69984Y99055D01*
X69860Y98972D01*
X69842Y98954D01*
X69821Y98940D01*
X69716Y98835D01*
X69702Y98814D01*
X69684Y98796D01*
X69601Y98672D01*
X69591Y98649D01*
X69577Y98628D01*
X69520Y98490D01*
X69515Y98465D01*
X69506Y98442D01*
X69477Y98295D01*
Y98277D01*
X69472Y98258D01*
X69468Y98184D01*
X69469Y98177D01*
X69468Y98171D01*
Y92710D01*
X69470Y92702D01*
X69469Y92693D01*
X69479Y92537D01*
X69485Y92512D01*
X69487Y92487D01*
X69568Y92185D01*
X69583Y92155D01*
X69594Y92123D01*
X69750Y91852D01*
X69772Y91827D01*
X69791Y91799D01*
X70012Y91578D01*
X70040Y91559D01*
X70065Y91537D01*
X70336Y91381D01*
X70368Y91370D01*
X70398Y91355D01*
X70700Y91274D01*
X70734Y91272D01*
X70766Y91265D01*
X71080D01*
X71112Y91272D01*
X71146Y91274D01*
X71448Y91355D01*
X71478Y91370D01*
X71510Y91381D01*
X71781Y91537D01*
X71806Y91559D01*
X71834Y91578D01*
X72055Y91799D01*
X72074Y91827D01*
X72096Y91852D01*
X72252Y92123D01*
X72263Y92155D01*
X72278Y92185D01*
X72359Y92487D01*
X72361Y92512D01*
X72367Y92537D01*
X72377Y92693D01*
X72376Y92702D01*
X72378Y92710D01*
Y95821D01*
X72397Y95919D01*
X72436Y96011D01*
X72491Y96094D01*
X72562Y96165D01*
X72645Y96220D01*
X72737Y96259D01*
X72835Y96278D01*
X72885Y96278D01*
X72885Y96278D01*
X72885Y96278D01*
X74218D01*
X74316Y96259D01*
X74408Y96220D01*
X74491Y96165D01*
X74562Y96094D01*
X74617Y96011D01*
X74656Y95919D01*
X74675Y95821D01*
Y95771D01*
X74675Y3175D01*
X74675Y2984D01*
X74625Y2604D01*
X74526Y2234D01*
X74380Y1881D01*
X74188Y1549D01*
X73955Y1245D01*
X73684Y975D01*
X73381Y742D01*
X73049Y550D01*
X72696Y404D01*
X72326Y305D01*
X71946Y255D01*
X71755Y255D01*
X2984D01*
X2604Y305D01*
X2234Y404D01*
X1881Y550D01*
X1549Y742D01*
X1245Y975D01*
X975Y1246D01*
X742Y1549D01*
X550Y1881D01*
X404Y2234D01*
X305Y2604D01*
X255Y2984D01*
X255Y3175D01*
Y104775D01*
Y104966D01*
X305Y105346D01*
X404Y105716D01*
X550Y106069D01*
X742Y106401D01*
X975Y106704D01*
X1246Y106975D01*
X1549Y107208D01*
X1881Y107400D01*
X2234Y107546D01*
X2604Y107645D01*
X2984Y107695D01*
X3175Y107695D01*
X71755Y107695D01*
D02*
G37*
%LPC*%
G36*
X51235Y106405D02*
X50662D01*
Y105857D01*
X51235D01*
Y106405D01*
D02*
G37*
G36*
X48658Y105340D02*
X47608D01*
Y105229D01*
X46372D01*
Y105340D01*
X45322D01*
Y105229D01*
X44086D01*
Y105340D01*
X43036D01*
Y105229D01*
X42524D01*
X42418Y105250D01*
X42223Y105211D01*
X42058Y105100D01*
X41947Y104935D01*
X41908Y104740D01*
X41947Y104545D01*
X42058Y104380D01*
X42223Y104269D01*
X42418Y104230D01*
X42524Y104251D01*
X42998D01*
X43036Y104140D01*
X43036Y104013D01*
Y102940D01*
X43228D01*
Y102330D01*
X42961D01*
Y101130D01*
X44161D01*
Y102330D01*
X43894D01*
Y102940D01*
X44086D01*
Y104013D01*
X44086Y104140D01*
X44124Y104251D01*
X45284D01*
X45322Y104140D01*
X45322Y104013D01*
Y102940D01*
X45514D01*
Y102330D01*
X45247D01*
Y101130D01*
X46447D01*
Y102330D01*
X46180D01*
Y102940D01*
X46372D01*
Y104013D01*
X46372Y104140D01*
X46410Y104251D01*
X47570D01*
X47608Y104140D01*
X47608Y104013D01*
Y102940D01*
X47800D01*
Y102330D01*
X47533D01*
Y101130D01*
X48733D01*
Y102330D01*
X48466D01*
Y102940D01*
X48658D01*
Y104013D01*
X48658Y104140D01*
X48658Y104267D01*
Y105340D01*
D02*
G37*
G36*
X34445Y105809D02*
Y104965D01*
X35289D01*
X35278Y105049D01*
X35172Y105305D01*
X35004Y105524D01*
X34785Y105692D01*
X34529Y105798D01*
X34445Y105809D01*
D02*
G37*
G36*
X34064Y105809D02*
X33981Y105798D01*
X33725Y105692D01*
X33506Y105524D01*
X33338Y105305D01*
X33232Y105049D01*
X33221Y104965D01*
X34064D01*
Y105809D01*
D02*
G37*
G36*
X66461Y107153D02*
X64861D01*
Y104253D01*
X66461D01*
Y107153D01*
D02*
G37*
G36*
X35289Y104584D02*
X34445D01*
Y103741D01*
X34529Y103752D01*
X34785Y103858D01*
X35004Y104026D01*
X35172Y104245D01*
X35278Y104501D01*
X35289Y104584D01*
D02*
G37*
G36*
X34064D02*
X33221D01*
X33232Y104501D01*
X33338Y104245D01*
X33506Y104026D01*
X33725Y103858D01*
X33981Y103752D01*
X34064Y103741D01*
Y104584D01*
D02*
G37*
G36*
X37845Y105825D02*
X35745D01*
Y103725D01*
X37845D01*
Y105825D01*
D02*
G37*
G36*
X51347Y102910D02*
Y102362D01*
X51920D01*
Y102910D01*
X51347D01*
D02*
G37*
G36*
X51920Y102108D02*
X51347D01*
Y101560D01*
X51920D01*
Y102108D01*
D02*
G37*
G36*
X31953Y100793D02*
X31669Y100756D01*
X31404Y100646D01*
X31177Y100472D01*
X31002Y100244D01*
X30993Y100223D01*
X27720D01*
Y100745D01*
X26981D01*
X26954Y100756D01*
X26670Y100793D01*
X26386Y100756D01*
X26359Y100745D01*
X25620D01*
Y100006D01*
X25609Y99979D01*
X25572Y99695D01*
X25609Y99411D01*
X25620Y99384D01*
Y98645D01*
X26359D01*
X26386Y98634D01*
X26670Y98597D01*
X26954Y98634D01*
X26981Y98645D01*
X27720D01*
Y99167D01*
X30993D01*
X31002Y99146D01*
X31177Y98918D01*
X31404Y98744D01*
X31669Y98634D01*
X31953Y98597D01*
X32237Y98634D01*
X32502Y98744D01*
X32730Y98918D01*
X32904Y99146D01*
X33014Y99411D01*
X33052Y99695D01*
X33014Y99979D01*
X32904Y100244D01*
X32730Y100472D01*
X32502Y100646D01*
X32237Y100756D01*
X31953Y100793D01*
D02*
G37*
G36*
X11430D02*
X11146Y100756D01*
X11119Y100745D01*
X10380D01*
Y100223D01*
X7107D01*
X7098Y100244D01*
X6923Y100472D01*
X6696Y100646D01*
X6431Y100756D01*
X6147Y100793D01*
X5863Y100756D01*
X5598Y100646D01*
X5370Y100472D01*
X5196Y100244D01*
X5086Y99979D01*
X5048Y99695D01*
X5086Y99411D01*
X5196Y99146D01*
X5370Y98918D01*
X5598Y98744D01*
X5863Y98634D01*
X6147Y98597D01*
X6431Y98634D01*
X6696Y98744D01*
X6923Y98918D01*
X7098Y99146D01*
X7107Y99167D01*
X10380D01*
Y98645D01*
X11119D01*
X11146Y98634D01*
X11430Y98597D01*
X11714Y98634D01*
X11741Y98645D01*
X12480D01*
Y99384D01*
X12491Y99411D01*
X12528Y99695D01*
X12491Y99979D01*
X12480Y100006D01*
Y100745D01*
X11741D01*
X11714Y100756D01*
X11430Y100793D01*
D02*
G37*
G36*
X40097Y100347D02*
Y99949D01*
X40570D01*
Y100347D01*
X40097D01*
D02*
G37*
G36*
X40570Y99695D02*
X40097D01*
Y99297D01*
X40570D01*
Y99695D01*
D02*
G37*
G36*
X39370Y100347D02*
X39243Y100347D01*
X38170D01*
Y100155D01*
X37211D01*
X37083Y100130D01*
X36975Y100058D01*
X34406Y97488D01*
X32587D01*
X32498Y97704D01*
X32323Y97932D01*
X32096Y98106D01*
X31831Y98216D01*
X31547Y98253D01*
X31263Y98216D01*
X30998Y98106D01*
X30770Y97932D01*
X30596Y97704D01*
X30587Y97683D01*
X27630D01*
X27621Y97704D01*
X27447Y97932D01*
X27219Y98106D01*
X26954Y98216D01*
X26670Y98253D01*
X26386Y98216D01*
X26121Y98106D01*
X25893Y97932D01*
X25719Y97704D01*
X25609Y97439D01*
X25572Y97155D01*
X25609Y96871D01*
X25719Y96606D01*
X25893Y96378D01*
X26121Y96204D01*
X26386Y96094D01*
X26670Y96057D01*
X26954Y96094D01*
X27219Y96204D01*
X27447Y96378D01*
X27621Y96606D01*
X27630Y96627D01*
X30587D01*
X30596Y96606D01*
X30770Y96378D01*
X30998Y96204D01*
X31263Y96094D01*
X31547Y96057D01*
X31831Y96094D01*
X32096Y96204D01*
X32323Y96378D01*
X32498Y96606D01*
X32587Y96822D01*
X34544D01*
X34672Y96847D01*
X34780Y96919D01*
X37349Y99489D01*
X38170D01*
Y99297D01*
X39243D01*
X39370Y99297D01*
X39497Y99297D01*
X39843D01*
Y99822D01*
Y100347D01*
X39370D01*
D02*
G37*
G36*
X66461Y101653D02*
X64861D01*
Y98753D01*
X66461D01*
Y101653D01*
D02*
G37*
G36*
X11430Y98253D02*
X11146Y98216D01*
X10881Y98106D01*
X10653Y97932D01*
X10479Y97704D01*
X10470Y97683D01*
X7513D01*
X7504Y97704D01*
X7330Y97932D01*
X7102Y98106D01*
X6837Y98216D01*
X6553Y98253D01*
X6269Y98216D01*
X6004Y98106D01*
X5777Y97932D01*
X5602Y97704D01*
X5492Y97439D01*
X5455Y97155D01*
X5492Y96871D01*
X5602Y96606D01*
X5777Y96378D01*
X6004Y96204D01*
X6269Y96094D01*
X6553Y96057D01*
X6837Y96094D01*
X7102Y96204D01*
X7330Y96378D01*
X7504Y96606D01*
X7513Y96627D01*
X10470D01*
X10479Y96606D01*
X10653Y96378D01*
X10881Y96204D01*
X11146Y96094D01*
X11430Y96057D01*
X11714Y96094D01*
X11979Y96204D01*
X12207Y96378D01*
X12381Y96606D01*
X12491Y96871D01*
X12528Y97155D01*
X12491Y97439D01*
X12381Y97704D01*
X12207Y97932D01*
X11979Y98106D01*
X11714Y98216D01*
X11430Y98253D01*
D02*
G37*
G36*
X51452Y97304D02*
X51054D01*
Y96831D01*
X51452D01*
Y97304D01*
D02*
G37*
G36*
X50800D02*
X50402D01*
Y96831D01*
X50800D01*
Y97304D01*
D02*
G37*
G36*
X44137Y96725D02*
X42137D01*
Y95233D01*
X44137D01*
Y95520D01*
X44709D01*
X44728Y95508D01*
X44923Y95469D01*
X45118Y95508D01*
X45283Y95618D01*
X45394Y95784D01*
X45433Y95979D01*
X45394Y96174D01*
X45283Y96339D01*
X45118Y96450D01*
X44923Y96488D01*
X44728Y96450D01*
X44709Y96437D01*
X44137D01*
Y96725D01*
D02*
G37*
G36*
X31953Y95713D02*
X31669Y95676D01*
X31404Y95566D01*
X31177Y95392D01*
X31002Y95164D01*
X30993Y95143D01*
X27630D01*
X27621Y95164D01*
X27447Y95392D01*
X27219Y95566D01*
X26954Y95676D01*
X26670Y95713D01*
X26386Y95676D01*
X26121Y95566D01*
X25893Y95392D01*
X25719Y95164D01*
X25609Y94899D01*
X25572Y94615D01*
X25609Y94331D01*
X25719Y94066D01*
X25893Y93838D01*
X26121Y93664D01*
X26386Y93554D01*
X26670Y93517D01*
X26954Y93554D01*
X27219Y93664D01*
X27447Y93838D01*
X27621Y94066D01*
X27630Y94087D01*
X30993D01*
X31002Y94066D01*
X31177Y93838D01*
X31404Y93664D01*
X31669Y93554D01*
X31953Y93517D01*
X32237Y93554D01*
X32502Y93664D01*
X32730Y93838D01*
X32904Y94066D01*
X33014Y94331D01*
X33052Y94615D01*
X33014Y94899D01*
X32904Y95164D01*
X32730Y95392D01*
X32502Y95566D01*
X32237Y95676D01*
X31953Y95713D01*
D02*
G37*
G36*
X11430D02*
X11146Y95676D01*
X10881Y95566D01*
X10653Y95392D01*
X10479Y95164D01*
X10470Y95143D01*
X7107D01*
X7098Y95164D01*
X6923Y95392D01*
X6696Y95566D01*
X6431Y95676D01*
X6147Y95713D01*
X5863Y95676D01*
X5598Y95566D01*
X5370Y95392D01*
X5196Y95164D01*
X5086Y94899D01*
X5048Y94615D01*
X5086Y94331D01*
X5196Y94066D01*
X5370Y93838D01*
X5598Y93664D01*
X5863Y93554D01*
X6147Y93517D01*
X6431Y93554D01*
X6696Y93664D01*
X6923Y93838D01*
X7098Y94066D01*
X7107Y94087D01*
X10470D01*
X10479Y94066D01*
X10653Y93838D01*
X10881Y93664D01*
X11146Y93554D01*
X11430Y93517D01*
X11714Y93554D01*
X11979Y93664D01*
X12207Y93838D01*
X12381Y94066D01*
X12491Y94331D01*
X12528Y94615D01*
X12491Y94899D01*
X12381Y95164D01*
X12207Y95392D01*
X11979Y95566D01*
X11714Y95676D01*
X11430Y95713D01*
D02*
G37*
G36*
X31547Y93173D02*
X31263Y93136D01*
X30998Y93026D01*
X30770Y92852D01*
X30596Y92624D01*
X30587Y92603D01*
X27630D01*
X27621Y92624D01*
X27447Y92852D01*
X27219Y93026D01*
X26954Y93136D01*
X26670Y93173D01*
X26386Y93136D01*
X26121Y93026D01*
X25893Y92852D01*
X25719Y92624D01*
X25609Y92359D01*
X25572Y92075D01*
X25609Y91791D01*
X25719Y91526D01*
X25893Y91298D01*
X26121Y91124D01*
X26386Y91014D01*
X26670Y90977D01*
X26954Y91014D01*
X27219Y91124D01*
X27447Y91298D01*
X27621Y91526D01*
X27630Y91547D01*
X30587D01*
X30596Y91526D01*
X30770Y91298D01*
X30998Y91124D01*
X31263Y91014D01*
X31547Y90977D01*
X31831Y91014D01*
X32096Y91124D01*
X32323Y91298D01*
X32498Y91526D01*
X32608Y91791D01*
X32645Y92075D01*
X32608Y92359D01*
X32498Y92624D01*
X32323Y92852D01*
X32096Y93026D01*
X31831Y93136D01*
X31547Y93173D01*
D02*
G37*
G36*
X11430D02*
X11146Y93136D01*
X10881Y93026D01*
X10653Y92852D01*
X10479Y92624D01*
X10470Y92603D01*
X7513D01*
X7504Y92624D01*
X7330Y92852D01*
X7102Y93026D01*
X6837Y93136D01*
X6553Y93173D01*
X6269Y93136D01*
X6004Y93026D01*
X5777Y92852D01*
X5602Y92624D01*
X5492Y92359D01*
X5455Y92075D01*
X5492Y91791D01*
X5602Y91526D01*
X5777Y91298D01*
X6004Y91124D01*
X6269Y91014D01*
X6553Y90977D01*
X6837Y91014D01*
X7102Y91124D01*
X7330Y91298D01*
X7504Y91526D01*
X7513Y91547D01*
X10470D01*
X10479Y91526D01*
X10653Y91298D01*
X10881Y91124D01*
X11146Y91014D01*
X11430Y90977D01*
X11714Y91014D01*
X11979Y91124D01*
X12207Y91298D01*
X12381Y91526D01*
X12491Y91791D01*
X12528Y92075D01*
X12491Y92359D01*
X12381Y92624D01*
X12207Y92852D01*
X11979Y93026D01*
X11714Y93136D01*
X11430Y93173D01*
D02*
G37*
G36*
X63961Y107153D02*
X62361D01*
Y104253D01*
X62703D01*
Y101653D01*
X62361D01*
Y98753D01*
X62367D01*
Y97282D01*
Y97005D01*
X62150D01*
Y95655D01*
X62367D01*
Y93622D01*
X62402Y93446D01*
X62462Y93356D01*
Y92725D01*
X62505Y92510D01*
X62626Y92328D01*
X62808Y92207D01*
X63023Y92164D01*
X63723D01*
X63938Y92207D01*
X64120Y92328D01*
X64241Y92510D01*
X64284Y92725D01*
Y93425D01*
X64241Y93640D01*
X64120Y93822D01*
X63938Y93943D01*
X63723Y93986D01*
X63285D01*
Y95655D01*
X63550D01*
Y97005D01*
X63285D01*
Y97282D01*
Y98753D01*
X63961D01*
Y101653D01*
X63620D01*
Y104253D01*
X63961D01*
Y107153D01*
D02*
G37*
G36*
X61461D02*
X59861D01*
Y104253D01*
X60203D01*
Y101653D01*
X59861D01*
Y98753D01*
X60667D01*
Y97282D01*
Y97005D01*
X60450D01*
Y95655D01*
X60667D01*
Y92447D01*
X59683Y91463D01*
X58660D01*
Y91654D01*
X56910D01*
Y91461D01*
X56746Y91428D01*
X56597Y91329D01*
X56593Y91324D01*
X56466Y91376D01*
Y91625D01*
X56966Y92125D01*
X57066Y92274D01*
X57101Y92450D01*
Y97831D01*
X57113Y97849D01*
X57152Y98044D01*
X57113Y98239D01*
X57040Y98348D01*
Y99656D01*
X57010Y99808D01*
X57001Y99821D01*
Y100488D01*
X57012Y100498D01*
X57098Y100628D01*
X57128Y100780D01*
Y101560D01*
X57430D01*
Y102910D01*
X57128D01*
Y105055D01*
X57430D01*
Y106405D01*
X56030D01*
Y106084D01*
X55730D01*
Y106405D01*
X54330D01*
Y106083D01*
X53762D01*
Y106425D01*
X51500D01*
Y106405D01*
X51489D01*
Y105730D01*
X51362D01*
Y105603D01*
X50662D01*
Y105055D01*
X50954D01*
X51006Y104928D01*
X49889Y103811D01*
X49817Y103703D01*
X49792Y103575D01*
Y99179D01*
X49765Y99160D01*
X49654Y98995D01*
X49615Y98800D01*
X49654Y98605D01*
X49765Y98440D01*
X49930Y98329D01*
X50125Y98290D01*
X50320Y98329D01*
X50485Y98440D01*
X50596Y98605D01*
X50635Y98800D01*
X50596Y98995D01*
X50485Y99160D01*
X50458Y99179D01*
Y101459D01*
X50520Y101560D01*
X50585Y101560D01*
X51093D01*
Y102235D01*
Y102910D01*
X50585D01*
X50520Y102910D01*
X50458Y103011D01*
Y103437D01*
X51428Y104407D01*
X52826D01*
X52954Y104432D01*
X53062Y104504D01*
X53298Y104740D01*
X53370Y104849D01*
X53396Y104976D01*
Y105055D01*
X53762D01*
Y105417D01*
X54330D01*
Y105055D01*
X55730D01*
Y105376D01*
X56030D01*
Y105055D01*
X56332D01*
Y102910D01*
X54330D01*
Y102568D01*
X53620D01*
Y102910D01*
X52220D01*
Y101560D01*
X52587D01*
Y101318D01*
X52559Y101290D01*
X52120D01*
X51992Y101265D01*
X51884Y101193D01*
X51326Y100635D01*
X51254Y100527D01*
X51229Y100399D01*
Y98933D01*
X51254Y98805D01*
X51326Y98697D01*
X51737Y98287D01*
Y95377D01*
X51762Y95249D01*
X51834Y95141D01*
X52142Y94834D01*
X52079Y94717D01*
X51943Y94744D01*
X51911Y94737D01*
X51452Y95197D01*
Y95977D01*
X51452Y96104D01*
X51452Y96231D01*
Y96577D01*
X50927D01*
X50402D01*
Y96231D01*
X50402Y96104D01*
X50402Y95977D01*
Y95235D01*
X50285Y95186D01*
X48466Y97005D01*
Y99630D01*
X48733D01*
Y100830D01*
X47533D01*
Y99630D01*
X47800D01*
Y96866D01*
X47811Y96809D01*
X47694Y96747D01*
X46180Y98260D01*
Y99630D01*
X46447D01*
Y100830D01*
X45247D01*
Y99630D01*
X45514D01*
Y98140D01*
X45472Y98108D01*
X45392Y98081D01*
X43970Y99503D01*
X44023Y99630D01*
X44161D01*
Y100830D01*
X42961D01*
Y99630D01*
X43228D01*
Y99441D01*
X43253Y99313D01*
X43325Y99205D01*
X49705Y92826D01*
Y91948D01*
X49730Y91820D01*
X49802Y91712D01*
X50124Y91391D01*
X50075Y91273D01*
X49196D01*
X49068Y91248D01*
X49061Y91243D01*
X48624D01*
Y90170D01*
X48624Y90043D01*
X48624Y89916D01*
Y89570D01*
X49674D01*
Y89916D01*
X49674Y90043D01*
X49674Y90170D01*
Y90607D01*
X50709D01*
X50741Y90567D01*
X51375D01*
Y90440D01*
X51502D01*
Y90083D01*
X51590D01*
X51640Y90042D01*
Y89840D01*
X51740Y89740D01*
X51942D01*
X51983Y89690D01*
Y89602D01*
X52340D01*
Y89348D01*
X51983D01*
Y89260D01*
X52010Y89123D01*
X52088Y89008D01*
X52203Y88930D01*
X52273Y88916D01*
X52315Y88779D01*
X51881Y88344D01*
X48437D01*
X47642Y89140D01*
Y89916D01*
X47642Y90043D01*
X47642Y90170D01*
Y90516D01*
X47117D01*
X46592D01*
Y90170D01*
X46592Y90043D01*
X46592Y89916D01*
Y88843D01*
X46995D01*
X48002Y87836D01*
X47949Y87709D01*
X47040D01*
X45610Y89140D01*
Y89916D01*
X45610Y90043D01*
X45610Y90170D01*
Y90516D01*
X45085D01*
X44560D01*
Y90170D01*
X44560Y90043D01*
X44560Y89916D01*
Y88843D01*
X44963D01*
X46666Y87140D01*
X46774Y87068D01*
X46902Y87043D01*
X52324D01*
X52452Y87068D01*
X52560Y87140D01*
X53576Y88156D01*
X53648Y88264D01*
X53672Y88384D01*
X53673Y88392D01*
X53718Y88496D01*
X55900D01*
X55900Y88496D01*
X55978Y88512D01*
X56044Y88556D01*
X56044Y88556D01*
X56793Y89304D01*
X56910Y89256D01*
Y89031D01*
X58660D01*
Y89554D01*
X58650D01*
Y90064D01*
X58688Y90122D01*
X58704Y90200D01*
Y90354D01*
X58691Y90418D01*
X58698Y90446D01*
X58765Y90545D01*
X59873D01*
X60049Y90580D01*
X60198Y90680D01*
X61450Y91933D01*
X61550Y92081D01*
X61585Y92257D01*
Y95655D01*
X61850D01*
Y97005D01*
X61585D01*
Y97282D01*
Y98988D01*
X61550Y99164D01*
X61461Y99296D01*
Y101653D01*
X61120D01*
Y104253D01*
X61461D01*
Y107153D01*
D02*
G37*
G36*
X63564Y91958D02*
Y91265D01*
X64256D01*
X64250Y91310D01*
X64159Y91529D01*
X64015Y91717D01*
X63827Y91861D01*
X63608Y91952D01*
X63564Y91958D01*
D02*
G37*
G36*
X63183Y91958D02*
X63138Y91952D01*
X62919Y91861D01*
X62731Y91717D01*
X62587Y91529D01*
X62496Y91310D01*
X62490Y91265D01*
X63183D01*
Y91958D01*
D02*
G37*
G36*
X47642Y91243D02*
X47244D01*
Y90770D01*
X47642D01*
Y91243D01*
D02*
G37*
G36*
X45610D02*
X45212D01*
Y90770D01*
X45610D01*
Y91243D01*
D02*
G37*
G36*
X46990D02*
X46592D01*
Y90770D01*
X46990D01*
Y91243D01*
D02*
G37*
G36*
X44958D02*
X44560D01*
Y90770D01*
X44958D01*
Y91243D01*
D02*
G37*
G36*
X64256Y90884D02*
X63564D01*
Y90192D01*
X63608Y90198D01*
X63827Y90289D01*
X64015Y90433D01*
X64159Y90621D01*
X64250Y90840D01*
X64256Y90884D01*
D02*
G37*
G36*
X63183D02*
X62490D01*
X62496Y90840D01*
X62587Y90621D01*
X62731Y90433D01*
X62919Y90289D01*
X63138Y90198D01*
X63183Y90192D01*
Y90884D01*
D02*
G37*
G36*
X51248Y90313D02*
X50828D01*
X50830Y90303D01*
X50908Y90188D01*
X51023Y90110D01*
X51160Y90083D01*
X51248D01*
Y90313D01*
D02*
G37*
G36*
X11430Y90633D02*
X11146Y90596D01*
X10881Y90486D01*
X10653Y90312D01*
X10479Y90084D01*
X10470Y90063D01*
X7107D01*
X7098Y90084D01*
X6923Y90312D01*
X6696Y90486D01*
X6431Y90596D01*
X6147Y90633D01*
X5863Y90596D01*
X5598Y90486D01*
X5370Y90312D01*
X5196Y90084D01*
X5086Y89819D01*
X5048Y89535D01*
X5086Y89251D01*
X5196Y88986D01*
X5370Y88758D01*
X5598Y88584D01*
X5863Y88474D01*
X6147Y88437D01*
X6431Y88474D01*
X6696Y88584D01*
X6923Y88758D01*
X7098Y88986D01*
X7107Y89007D01*
X10470D01*
X10479Y88986D01*
X10653Y88758D01*
X10881Y88584D01*
X11146Y88474D01*
X11430Y88437D01*
X11714Y88474D01*
X11979Y88584D01*
X12207Y88758D01*
X12381Y88986D01*
X12491Y89251D01*
X12528Y89535D01*
X12491Y89819D01*
X12381Y90084D01*
X12207Y90312D01*
X11979Y90486D01*
X11714Y90596D01*
X11430Y90633D01*
D02*
G37*
G36*
X32144Y90608D02*
Y89726D01*
X33027D01*
X33014Y89819D01*
X32904Y90084D01*
X32730Y90312D01*
X32502Y90486D01*
X32237Y90596D01*
X32144Y90608D01*
D02*
G37*
G36*
X31763D02*
X31669Y90596D01*
X31404Y90486D01*
X31177Y90312D01*
X31002Y90084D01*
X30892Y89819D01*
X30880Y89726D01*
X31763D01*
Y90608D01*
D02*
G37*
G36*
X26861D02*
Y89726D01*
X27743D01*
X27731Y89819D01*
X27621Y90084D01*
X27447Y90312D01*
X27219Y90486D01*
X26954Y90596D01*
X26861Y90608D01*
D02*
G37*
G36*
X26479D02*
X26386Y90596D01*
X26121Y90486D01*
X25893Y90312D01*
X25719Y90084D01*
X25609Y89819D01*
X25597Y89726D01*
X26479D01*
Y90608D01*
D02*
G37*
G36*
X40176Y97450D02*
X35926Y97450D01*
X35676Y97200D01*
Y95325D01*
X35676D01*
X35760Y95241D01*
X35760Y95152D01*
X35760Y95025D01*
Y94184D01*
X35737D01*
Y93311D01*
X35737Y93184D01*
X35737D01*
Y93184D01*
X35737D01*
Y92231D01*
X35727Y92184D01*
Y90987D01*
X35743Y90908D01*
X35787Y90842D01*
X35787Y90842D01*
X35792Y90837D01*
X35859Y90793D01*
X35937Y90777D01*
X36870D01*
Y90503D01*
X36625D01*
Y89011D01*
X38625D01*
Y90503D01*
X37787D01*
Y90775D01*
X39600D01*
Y89372D01*
X39600Y89372D01*
X39604Y89352D01*
Y89076D01*
X39806D01*
Y89076D01*
X42980Y89076D01*
X42999Y89072D01*
X43561Y89072D01*
X43561Y89072D01*
X43639Y89088D01*
X43705Y89132D01*
X43705Y89132D01*
X44081Y89508D01*
X44125Y89574D01*
X44141Y89652D01*
X44141Y94493D01*
X44137Y94512D01*
Y94693D01*
X44025D01*
X43915Y94803D01*
X43848Y94847D01*
X43770Y94863D01*
X41634D01*
Y95405D01*
X41661Y95423D01*
X41772Y95588D01*
X41811Y95784D01*
X41772Y95979D01*
X41661Y96144D01*
X41496Y96255D01*
X41301Y96293D01*
X41106Y96255D01*
X40940Y96144D01*
X40830Y95979D01*
X40791Y95784D01*
X40830Y95588D01*
X40940Y95423D01*
X40968Y95405D01*
Y94863D01*
X40770D01*
Y95325D01*
X40550D01*
X40423Y95325D01*
X40423Y95452D01*
X40422Y97203D01*
X40176Y97450D01*
D02*
G37*
G36*
X49674Y89316D02*
X49276D01*
Y88843D01*
X49674D01*
Y89316D01*
D02*
G37*
G36*
X49022D02*
X48624D01*
Y88843D01*
X49022D01*
Y89316D01*
D02*
G37*
G36*
X33027Y89344D02*
X32144D01*
Y88462D01*
X32237Y88474D01*
X32502Y88584D01*
X32730Y88758D01*
X32904Y88986D01*
X33014Y89251D01*
X33027Y89344D01*
D02*
G37*
G36*
X31763D02*
X30880D01*
X30892Y89251D01*
X31002Y88986D01*
X31177Y88758D01*
X31404Y88584D01*
X31669Y88474D01*
X31763Y88462D01*
Y89344D01*
D02*
G37*
G36*
X27743D02*
X26861D01*
Y88462D01*
X26954Y88474D01*
X27219Y88584D01*
X27447Y88758D01*
X27621Y88986D01*
X27731Y89251D01*
X27743Y89344D01*
D02*
G37*
G36*
X26479D02*
X25597D01*
X25609Y89251D01*
X25719Y88986D01*
X25893Y88758D01*
X26121Y88584D01*
X26386Y88474D01*
X26479Y88462D01*
Y89344D01*
D02*
G37*
G36*
X58660Y88777D02*
X57912D01*
Y88254D01*
X58660D01*
Y88777D01*
D02*
G37*
G36*
X57658D02*
X56910D01*
Y88254D01*
X57658D01*
Y88777D01*
D02*
G37*
G36*
X70683Y87981D02*
X70229D01*
Y87527D01*
X70683D01*
Y87981D01*
D02*
G37*
G36*
X69975D02*
X69521D01*
Y87527D01*
X69975D01*
Y87981D01*
D02*
G37*
G36*
X31547Y88093D02*
X31263Y88056D01*
X30998Y87946D01*
X30770Y87772D01*
X30596Y87544D01*
X30587Y87523D01*
X27630D01*
X27621Y87544D01*
X27447Y87772D01*
X27219Y87946D01*
X26954Y88056D01*
X26670Y88093D01*
X26386Y88056D01*
X26121Y87946D01*
X25893Y87772D01*
X25719Y87544D01*
X25609Y87279D01*
X25572Y86995D01*
X25609Y86711D01*
X25719Y86446D01*
X25893Y86218D01*
X26121Y86044D01*
X26386Y85934D01*
X26670Y85897D01*
X26954Y85934D01*
X27219Y86044D01*
X27447Y86218D01*
X27621Y86446D01*
X27630Y86467D01*
X30587D01*
X30596Y86446D01*
X30770Y86218D01*
X30998Y86044D01*
X31263Y85934D01*
X31547Y85897D01*
X31831Y85934D01*
X32096Y86044D01*
X32323Y86218D01*
X32498Y86446D01*
X32535Y86536D01*
X33973D01*
X35366Y85143D01*
Y65438D01*
X35354Y65420D01*
X35315Y65225D01*
X35354Y65030D01*
X35465Y64865D01*
X35630Y64754D01*
X35825Y64715D01*
X36020Y64754D01*
X36186Y64865D01*
X36296Y65030D01*
X36335Y65225D01*
X36296Y65420D01*
X36284Y65438D01*
Y85333D01*
X36249Y85508D01*
X36150Y85657D01*
X34487Y87319D01*
X34339Y87419D01*
X34163Y87454D01*
X32535D01*
X32498Y87544D01*
X32323Y87772D01*
X32096Y87946D01*
X31831Y88056D01*
X31547Y88093D01*
D02*
G37*
G36*
X11430D02*
X11146Y88056D01*
X10881Y87946D01*
X10653Y87772D01*
X10479Y87544D01*
X10470Y87523D01*
X7513D01*
X7504Y87544D01*
X7330Y87772D01*
X7102Y87946D01*
X6837Y88056D01*
X6553Y88093D01*
X6269Y88056D01*
X6004Y87946D01*
X5777Y87772D01*
X5602Y87544D01*
X5492Y87279D01*
X5455Y86995D01*
X5492Y86711D01*
X5602Y86446D01*
X5777Y86218D01*
X6004Y86044D01*
X6269Y85934D01*
X6553Y85897D01*
X6837Y85934D01*
X7102Y86044D01*
X7330Y86218D01*
X7504Y86446D01*
X7513Y86467D01*
X10470D01*
X10479Y86446D01*
X10653Y86218D01*
X10881Y86044D01*
X11146Y85934D01*
X11430Y85897D01*
X11714Y85934D01*
X11979Y86044D01*
X12207Y86218D01*
X12381Y86446D01*
X12491Y86711D01*
X12528Y86995D01*
X12491Y87279D01*
X12381Y87544D01*
X12207Y87772D01*
X11979Y87946D01*
X11714Y88056D01*
X11430Y88093D01*
D02*
G37*
G36*
X70683Y87273D02*
X70229D01*
Y86819D01*
X70683D01*
Y87273D01*
D02*
G37*
G36*
X69975D02*
X69521D01*
Y86819D01*
X69975D01*
Y87273D01*
D02*
G37*
G36*
X43370Y86124D02*
Y85280D01*
X44214D01*
X44203Y85364D01*
X44097Y85620D01*
X43929Y85839D01*
X43710Y86007D01*
X43454Y86113D01*
X43370Y86124D01*
D02*
G37*
G36*
X42989Y86124D02*
X42906Y86113D01*
X42650Y86007D01*
X42431Y85839D01*
X42263Y85620D01*
X42157Y85364D01*
X42146Y85280D01*
X42989D01*
Y86124D01*
D02*
G37*
G36*
X31953Y85553D02*
X31669Y85516D01*
X31404Y85406D01*
X31177Y85232D01*
X31002Y85004D01*
X30993Y84983D01*
X27630D01*
X27621Y85004D01*
X27447Y85232D01*
X27219Y85406D01*
X26954Y85516D01*
X26670Y85553D01*
X26386Y85516D01*
X26121Y85406D01*
X25893Y85232D01*
X25719Y85004D01*
X25609Y84739D01*
X25572Y84455D01*
X25609Y84171D01*
X25719Y83906D01*
X25893Y83678D01*
X26121Y83504D01*
X26386Y83394D01*
X26670Y83357D01*
X26954Y83394D01*
X27219Y83504D01*
X27447Y83678D01*
X27621Y83906D01*
X27630Y83927D01*
X30993D01*
X31002Y83906D01*
X31177Y83678D01*
X31404Y83504D01*
X31669Y83394D01*
X31953Y83357D01*
X32237Y83394D01*
X32502Y83504D01*
X32730Y83678D01*
X32904Y83906D01*
X33014Y84171D01*
X33052Y84455D01*
X33014Y84739D01*
X32904Y85004D01*
X32730Y85232D01*
X32502Y85406D01*
X32237Y85516D01*
X31953Y85553D01*
D02*
G37*
G36*
X11430D02*
X11146Y85516D01*
X10881Y85406D01*
X10653Y85232D01*
X10479Y85004D01*
X10470Y84983D01*
X7107D01*
X7098Y85004D01*
X6923Y85232D01*
X6696Y85406D01*
X6431Y85516D01*
X6147Y85553D01*
X5863Y85516D01*
X5598Y85406D01*
X5370Y85232D01*
X5196Y85004D01*
X5086Y84739D01*
X5048Y84455D01*
X5086Y84171D01*
X5196Y83906D01*
X5370Y83678D01*
X5598Y83504D01*
X5863Y83394D01*
X6147Y83357D01*
X6431Y83394D01*
X6696Y83504D01*
X6923Y83678D01*
X7098Y83906D01*
X7107Y83927D01*
X10470D01*
X10479Y83906D01*
X10653Y83678D01*
X10881Y83504D01*
X11146Y83394D01*
X11430Y83357D01*
X11714Y83394D01*
X11979Y83504D01*
X12207Y83678D01*
X12381Y83906D01*
X12491Y84171D01*
X12528Y84455D01*
X12491Y84739D01*
X12381Y85004D01*
X12207Y85232D01*
X11979Y85406D01*
X11714Y85516D01*
X11430Y85553D01*
D02*
G37*
G36*
X42989Y84899D02*
X42146D01*
X42157Y84816D01*
X42263Y84560D01*
X42431Y84341D01*
X42650Y84173D01*
X42906Y84067D01*
X42989Y84056D01*
Y84899D01*
D02*
G37*
G36*
X44214D02*
X43370D01*
Y84056D01*
X43454Y84067D01*
X43710Y84173D01*
X43929Y84341D01*
X44097Y84560D01*
X44203Y84816D01*
X44214Y84899D01*
D02*
G37*
G36*
X58420Y86149D02*
X58146Y86113D01*
X57890Y86007D01*
X57671Y85839D01*
X57503Y85620D01*
X57397Y85364D01*
X57361Y85090D01*
X57397Y84816D01*
X57503Y84560D01*
X57671Y84341D01*
X57890Y84173D01*
X58146Y84067D01*
X58420Y84031D01*
X58694Y84067D01*
X58950Y84173D01*
X59169Y84341D01*
X59337Y84560D01*
X59443Y84816D01*
X59479Y85090D01*
X59443Y85364D01*
X59337Y85620D01*
X59169Y85839D01*
X58950Y86007D01*
X58694Y86113D01*
X58420Y86149D01*
D02*
G37*
G36*
X55880D02*
X55606Y86113D01*
X55350Y86007D01*
X55131Y85839D01*
X54963Y85620D01*
X54857Y85364D01*
X54821Y85090D01*
X54857Y84816D01*
X54963Y84560D01*
X55131Y84341D01*
X55350Y84173D01*
X55606Y84067D01*
X55880Y84031D01*
X56154Y84067D01*
X56410Y84173D01*
X56629Y84341D01*
X56797Y84560D01*
X56903Y84816D01*
X56939Y85090D01*
X56903Y85364D01*
X56797Y85620D01*
X56629Y85839D01*
X56410Y86007D01*
X56154Y86113D01*
X55880Y86149D01*
D02*
G37*
G36*
X45720D02*
X45446Y86113D01*
X45190Y86007D01*
X44971Y85839D01*
X44803Y85620D01*
X44697Y85364D01*
X44661Y85090D01*
X44697Y84816D01*
X44803Y84560D01*
X44971Y84341D01*
X45190Y84173D01*
X45446Y84067D01*
X45720Y84031D01*
X45994Y84067D01*
X46250Y84173D01*
X46469Y84341D01*
X46637Y84560D01*
X46743Y84816D01*
X46779Y85090D01*
X46743Y85364D01*
X46637Y85620D01*
X46469Y85839D01*
X46250Y86007D01*
X45994Y86113D01*
X45720Y86149D01*
D02*
G37*
G36*
X31547Y83013D02*
X31263Y82976D01*
X30998Y82866D01*
X30770Y82692D01*
X30596Y82464D01*
X30587Y82443D01*
X27630D01*
X27621Y82464D01*
X27447Y82692D01*
X27219Y82866D01*
X26954Y82976D01*
X26670Y83013D01*
X26386Y82976D01*
X26121Y82866D01*
X25893Y82692D01*
X25719Y82464D01*
X25609Y82199D01*
X25572Y81915D01*
X25609Y81631D01*
X25719Y81366D01*
X25893Y81138D01*
X26121Y80964D01*
X26386Y80854D01*
X26670Y80817D01*
X26954Y80854D01*
X27219Y80964D01*
X27447Y81138D01*
X27621Y81366D01*
X27630Y81387D01*
X30587D01*
X30596Y81366D01*
X30770Y81138D01*
X30998Y80964D01*
X31263Y80854D01*
X31547Y80817D01*
X31831Y80854D01*
X32096Y80964D01*
X32323Y81138D01*
X32498Y81366D01*
X32608Y81631D01*
X32645Y81915D01*
X32608Y82199D01*
X32498Y82464D01*
X32323Y82692D01*
X32096Y82866D01*
X31831Y82976D01*
X31547Y83013D01*
D02*
G37*
G36*
X11430D02*
X11146Y82976D01*
X10881Y82866D01*
X10653Y82692D01*
X10479Y82464D01*
X10470Y82443D01*
X7513D01*
X7504Y82464D01*
X7330Y82692D01*
X7102Y82866D01*
X6837Y82976D01*
X6553Y83013D01*
X6269Y82976D01*
X6004Y82866D01*
X5777Y82692D01*
X5602Y82464D01*
X5492Y82199D01*
X5455Y81915D01*
X5492Y81631D01*
X5602Y81366D01*
X5777Y81138D01*
X6004Y80964D01*
X6269Y80854D01*
X6553Y80817D01*
X6837Y80854D01*
X7102Y80964D01*
X7330Y81138D01*
X7504Y81366D01*
X7513Y81387D01*
X10470D01*
X10479Y81366D01*
X10653Y81138D01*
X10881Y80964D01*
X11146Y80854D01*
X11430Y80817D01*
X11714Y80854D01*
X11979Y80964D01*
X12207Y81138D01*
X12381Y81366D01*
X12491Y81631D01*
X12528Y81915D01*
X12491Y82199D01*
X12381Y82464D01*
X12207Y82692D01*
X11979Y82866D01*
X11714Y82976D01*
X11430Y83013D01*
D02*
G37*
G36*
X31953Y80473D02*
X31669Y80436D01*
X31404Y80326D01*
X31177Y80152D01*
X31002Y79924D01*
X30993Y79903D01*
X27630D01*
X27621Y79924D01*
X27447Y80152D01*
X27219Y80326D01*
X26954Y80436D01*
X26670Y80473D01*
X26386Y80436D01*
X26121Y80326D01*
X25893Y80152D01*
X25719Y79924D01*
X25609Y79659D01*
X25572Y79375D01*
X25609Y79091D01*
X25719Y78826D01*
X25893Y78598D01*
X26121Y78424D01*
X26386Y78314D01*
X26670Y78277D01*
X26954Y78314D01*
X27219Y78424D01*
X27447Y78598D01*
X27621Y78826D01*
X27630Y78847D01*
X30993D01*
X31002Y78826D01*
X31177Y78598D01*
X31404Y78424D01*
X31669Y78314D01*
X31953Y78277D01*
X32237Y78314D01*
X32502Y78424D01*
X32730Y78598D01*
X32904Y78826D01*
X33014Y79091D01*
X33052Y79375D01*
X33014Y79659D01*
X32904Y79924D01*
X32730Y80152D01*
X32502Y80326D01*
X32237Y80436D01*
X31953Y80473D01*
D02*
G37*
G36*
X11430D02*
X11146Y80436D01*
X10881Y80326D01*
X10653Y80152D01*
X10479Y79924D01*
X10470Y79903D01*
X7107D01*
X7098Y79924D01*
X6923Y80152D01*
X6696Y80326D01*
X6431Y80436D01*
X6147Y80473D01*
X5863Y80436D01*
X5598Y80326D01*
X5370Y80152D01*
X5196Y79924D01*
X5086Y79659D01*
X5048Y79375D01*
X5086Y79091D01*
X5196Y78826D01*
X5370Y78598D01*
X5598Y78424D01*
X5863Y78314D01*
X6147Y78277D01*
X6431Y78314D01*
X6696Y78424D01*
X6923Y78598D01*
X7098Y78826D01*
X7107Y78847D01*
X10470D01*
X10479Y78826D01*
X10653Y78598D01*
X10881Y78424D01*
X11146Y78314D01*
X11430Y78277D01*
X11714Y78314D01*
X11979Y78424D01*
X12207Y78598D01*
X12381Y78826D01*
X12471Y79042D01*
X13324D01*
X19352Y73014D01*
Y45464D01*
X19325Y45445D01*
X19214Y45280D01*
X19175Y45085D01*
X19214Y44890D01*
X19325Y44725D01*
X19490Y44614D01*
X19685Y44575D01*
X19880Y44614D01*
X20045Y44725D01*
X20156Y44890D01*
X20195Y45085D01*
X20156Y45280D01*
X20045Y45445D01*
X20018Y45464D01*
Y73152D01*
X19993Y73280D01*
X19921Y73388D01*
X13698Y79611D01*
X13590Y79683D01*
X13462Y79708D01*
X12471D01*
X12381Y79924D01*
X12207Y80152D01*
X11979Y80326D01*
X11714Y80436D01*
X11430Y80473D01*
D02*
G37*
G36*
X65975Y90610D02*
X65780Y90571D01*
X65615Y90460D01*
X65504Y90295D01*
X65465Y90100D01*
X65486Y89994D01*
Y81764D01*
X65523Y81577D01*
X65619Y81434D01*
Y80745D01*
X66969D01*
Y80882D01*
X67086Y80931D01*
X67231Y80786D01*
X67233Y80784D01*
X67234Y80783D01*
X67287Y80748D01*
X67339Y80713D01*
X67341Y80713D01*
X67343Y80712D01*
X67405Y80700D01*
X67467Y80688D01*
X67469Y80688D01*
X67471Y80688D01*
X67694Y80691D01*
X67784Y80601D01*
Y80343D01*
X67494Y80053D01*
X67394Y79904D01*
X67359Y79728D01*
Y78613D01*
Y77606D01*
X67245D01*
Y76444D01*
X67359D01*
Y73787D01*
X67394Y73611D01*
X67494Y73463D01*
X68121Y72835D01*
Y71558D01*
X68055D01*
Y70485D01*
X68055Y70358D01*
X68055Y70231D01*
Y69158D01*
X68172D01*
Y68908D01*
X68080Y68770D01*
X68041Y68575D01*
X68080Y68380D01*
X68172Y68242D01*
Y67975D01*
X68075D01*
X68075Y66724D01*
X67985Y66634D01*
X67825D01*
X67649Y66599D01*
X67501Y66499D01*
X66726Y65725D01*
X66705Y65721D01*
X66540Y65610D01*
X66429Y65445D01*
X66390Y65250D01*
X66429Y65055D01*
X66540Y64890D01*
X66705Y64779D01*
X66900Y64740D01*
X67095Y64779D01*
X67260Y64890D01*
X67371Y65055D01*
X67375Y65076D01*
X67948Y65649D01*
X68075Y65597D01*
Y65575D01*
X69125D01*
Y66648D01*
X69125Y66775D01*
X69125Y66902D01*
Y67975D01*
X68988D01*
Y68329D01*
X69022Y68380D01*
X69061Y68575D01*
X69022Y68770D01*
X68988Y68821D01*
Y69158D01*
X69105D01*
Y70231D01*
X69105Y70358D01*
X69105Y70485D01*
Y71558D01*
X69039D01*
Y73025D01*
X69004Y73201D01*
X68904Y73349D01*
X68277Y73977D01*
Y76444D01*
X68408D01*
Y77606D01*
X68277D01*
Y78280D01*
X69342D01*
X69470Y78305D01*
X69578Y78377D01*
X69959Y78758D01*
X70031Y78866D01*
X70056Y78994D01*
Y79034D01*
X70183Y79102D01*
X70290Y79031D01*
X70485Y78992D01*
X70680Y79031D01*
X70845Y79142D01*
X70956Y79307D01*
X70995Y79502D01*
X70956Y79697D01*
X70845Y79862D01*
X70813Y79884D01*
X70793Y79985D01*
X70721Y80093D01*
X70710Y80104D01*
X70759Y80221D01*
X70934D01*
X70714Y80442D01*
X70612D01*
X70612Y82194D01*
X70067D01*
Y82448D01*
X70612D01*
Y83139D01*
X70830D01*
Y83221D01*
X70947D01*
Y83341D01*
X72517D01*
X72595Y83357D01*
X72661Y83401D01*
X72705Y83467D01*
X72721Y83545D01*
Y85979D01*
X72705Y86057D01*
X72661Y86123D01*
X72595Y86167D01*
X72517Y86183D01*
X71964D01*
Y86819D01*
X72079D01*
Y87981D01*
X70918D01*
Y86819D01*
X71038D01*
Y86183D01*
X69571D01*
X69493Y86167D01*
X69426Y86123D01*
X69382Y86057D01*
X69370Y85996D01*
X69215Y85996D01*
X69088Y85996D01*
X68015D01*
Y85804D01*
X67562D01*
X67543Y85831D01*
X67378Y85942D01*
X67183Y85981D01*
X66988Y85942D01*
X66823Y85831D01*
X66712Y85666D01*
X66673Y85471D01*
X66712Y85276D01*
X66823Y85111D01*
X66988Y85000D01*
X67183Y84961D01*
X67378Y85000D01*
X67543Y85111D01*
X67562Y85138D01*
X68015D01*
Y84946D01*
X69088D01*
X69215Y84946D01*
X69370Y84946D01*
X69382Y84885D01*
X69426Y84819D01*
X69493Y84775D01*
X69571Y84759D01*
X70184D01*
X70281Y84662D01*
Y84421D01*
X70244D01*
Y83821D01*
X69990D01*
Y84421D01*
X67787D01*
Y83221D01*
X67863D01*
X67863Y82971D01*
X67871Y82933D01*
X67879Y82893D01*
X67879Y82893D01*
X67879Y82893D01*
X67899Y82863D01*
X67923Y82827D01*
X67923Y82827D01*
X67923Y82827D01*
X67959Y82803D01*
X67989Y82783D01*
X67989Y82783D01*
X67989Y82783D01*
X68029Y82775D01*
X68067Y82767D01*
X69267D01*
X69305Y82737D01*
Y82471D01*
X67867D01*
Y81821D01*
X67787D01*
Y81359D01*
X67603Y81356D01*
X67279Y81681D01*
X67171Y81753D01*
X67043Y81778D01*
X66969D01*
Y82145D01*
X66464D01*
Y89994D01*
X66485Y90100D01*
X66446Y90295D01*
X66335Y90460D01*
X66170Y90571D01*
X65975Y90610D01*
D02*
G37*
G36*
X66969Y80545D02*
X65619D01*
Y79145D01*
X65961D01*
Y78994D01*
X65986Y78866D01*
X66058Y78758D01*
X66172Y78645D01*
X66165Y78613D01*
X66204Y78418D01*
X66315Y78253D01*
X66480Y78142D01*
X66675Y78103D01*
X66870Y78142D01*
X67035Y78253D01*
X67146Y78418D01*
X67185Y78613D01*
X67146Y78808D01*
X67035Y78973D01*
X66969Y79018D01*
X66969Y79145D01*
X66969Y79145D01*
Y80545D01*
D02*
G37*
G36*
X31547Y77933D02*
X31263Y77896D01*
X30998Y77786D01*
X30770Y77612D01*
X30596Y77384D01*
X30587Y77363D01*
X27630D01*
X27621Y77384D01*
X27447Y77612D01*
X27219Y77786D01*
X26954Y77896D01*
X26670Y77933D01*
X26386Y77896D01*
X26121Y77786D01*
X25893Y77612D01*
X25719Y77384D01*
X25609Y77119D01*
X25572Y76835D01*
X25609Y76551D01*
X25719Y76286D01*
X25893Y76058D01*
X26121Y75884D01*
X26386Y75774D01*
X26670Y75737D01*
X26954Y75774D01*
X27219Y75884D01*
X27447Y76058D01*
X27621Y76286D01*
X27630Y76307D01*
X30587D01*
X30596Y76286D01*
X30770Y76058D01*
X30998Y75884D01*
X31263Y75774D01*
X31547Y75737D01*
X31831Y75774D01*
X32096Y75884D01*
X32323Y76058D01*
X32498Y76286D01*
X32608Y76551D01*
X32645Y76835D01*
X32608Y77119D01*
X32498Y77384D01*
X32323Y77612D01*
X32096Y77786D01*
X31831Y77896D01*
X31547Y77933D01*
D02*
G37*
G36*
X11430D02*
X11146Y77896D01*
X10881Y77786D01*
X10653Y77612D01*
X10479Y77384D01*
X10470Y77363D01*
X7513D01*
X7504Y77384D01*
X7330Y77612D01*
X7102Y77786D01*
X6837Y77896D01*
X6553Y77933D01*
X6269Y77896D01*
X6004Y77786D01*
X5777Y77612D01*
X5602Y77384D01*
X5492Y77119D01*
X5455Y76835D01*
X5492Y76551D01*
X5602Y76286D01*
X5777Y76058D01*
X6004Y75884D01*
X6269Y75774D01*
X6553Y75737D01*
X6837Y75774D01*
X7102Y75884D01*
X7330Y76058D01*
X7504Y76286D01*
X7513Y76307D01*
X10470D01*
X10479Y76286D01*
X10653Y76058D01*
X10881Y75884D01*
X11146Y75774D01*
X11430Y75737D01*
X11714Y75774D01*
X11979Y75884D01*
X12207Y76058D01*
X12381Y76286D01*
X12471Y76502D01*
X13324D01*
X18209Y71617D01*
X18209Y42924D01*
X18182Y42905D01*
X18071Y42740D01*
X18032Y42545D01*
X18071Y42350D01*
X18182Y42185D01*
X18347Y42074D01*
X18542Y42035D01*
X18737Y42074D01*
X18902Y42185D01*
X19013Y42350D01*
X19052Y42545D01*
X19013Y42740D01*
X18902Y42905D01*
X18875Y42924D01*
X18875Y71755D01*
X18850Y71883D01*
X18778Y71991D01*
X13698Y77071D01*
X13590Y77143D01*
X13462Y77168D01*
X12471D01*
X12381Y77384D01*
X12207Y77612D01*
X11979Y77786D01*
X11714Y77896D01*
X11430Y77933D01*
D02*
G37*
G36*
X69804Y77606D02*
X69351D01*
Y77152D01*
X69804D01*
Y77606D01*
D02*
G37*
G36*
X69096D02*
X68643D01*
Y77152D01*
X69096D01*
Y77606D01*
D02*
G37*
G36*
X69804Y76898D02*
X69351D01*
Y76444D01*
X69804D01*
Y76898D01*
D02*
G37*
G36*
X69096D02*
X68643D01*
Y76444D01*
X69096D01*
Y76898D01*
D02*
G37*
G36*
X31953Y75393D02*
X31669Y75356D01*
X31404Y75246D01*
X31177Y75072D01*
X31002Y74844D01*
X30993Y74823D01*
X27630D01*
X27621Y74844D01*
X27447Y75072D01*
X27219Y75246D01*
X26954Y75356D01*
X26670Y75393D01*
X26386Y75356D01*
X26121Y75246D01*
X25893Y75072D01*
X25719Y74844D01*
X25609Y74579D01*
X25572Y74295D01*
X25609Y74011D01*
X25719Y73746D01*
X25893Y73518D01*
X26121Y73344D01*
X26386Y73234D01*
X26670Y73197D01*
X26954Y73234D01*
X27219Y73344D01*
X27447Y73518D01*
X27621Y73746D01*
X27630Y73767D01*
X30993D01*
X31002Y73746D01*
X31177Y73518D01*
X31404Y73344D01*
X31669Y73234D01*
X31953Y73197D01*
X32237Y73234D01*
X32502Y73344D01*
X32730Y73518D01*
X32904Y73746D01*
X33014Y74011D01*
X33052Y74295D01*
X33014Y74579D01*
X32904Y74844D01*
X32730Y75072D01*
X32502Y75246D01*
X32237Y75356D01*
X31953Y75393D01*
D02*
G37*
G36*
X11430D02*
X11146Y75356D01*
X10881Y75246D01*
X10653Y75072D01*
X10479Y74844D01*
X10470Y74823D01*
X7107D01*
X7098Y74844D01*
X6923Y75072D01*
X6696Y75246D01*
X6431Y75356D01*
X6147Y75393D01*
X5863Y75356D01*
X5598Y75246D01*
X5370Y75072D01*
X5196Y74844D01*
X5086Y74579D01*
X5048Y74295D01*
X5086Y74011D01*
X5196Y73746D01*
X5370Y73518D01*
X5598Y73344D01*
X5863Y73234D01*
X6147Y73197D01*
X6431Y73234D01*
X6696Y73344D01*
X6923Y73518D01*
X7098Y73746D01*
X7107Y73767D01*
X10470D01*
X10479Y73746D01*
X10653Y73518D01*
X10881Y73344D01*
X11146Y73234D01*
X11430Y73197D01*
X11714Y73234D01*
X11979Y73344D01*
X12207Y73518D01*
X12381Y73746D01*
X12471Y73962D01*
X13324D01*
X17066Y70220D01*
Y35304D01*
X17039Y35285D01*
X16928Y35120D01*
X16889Y34925D01*
X16928Y34730D01*
X17039Y34565D01*
X17204Y34454D01*
X17399Y34415D01*
X17594Y34454D01*
X17759Y34565D01*
X17870Y34730D01*
X17909Y34925D01*
X17870Y35120D01*
X17759Y35285D01*
X17732Y35304D01*
Y70358D01*
X17707Y70486D01*
X17635Y70594D01*
X13698Y74531D01*
X13590Y74603D01*
X13462Y74628D01*
X12471D01*
X12381Y74844D01*
X12207Y75072D01*
X11979Y75246D01*
X11714Y75356D01*
X11430Y75393D01*
D02*
G37*
G36*
X31547Y72853D02*
X31263Y72816D01*
X30998Y72706D01*
X30770Y72532D01*
X30596Y72304D01*
X30587Y72283D01*
X27630D01*
X27621Y72304D01*
X27447Y72532D01*
X27219Y72706D01*
X26954Y72816D01*
X26670Y72853D01*
X26386Y72816D01*
X26121Y72706D01*
X25893Y72532D01*
X25719Y72304D01*
X25609Y72039D01*
X25572Y71755D01*
X25609Y71471D01*
X25719Y71206D01*
X25893Y70978D01*
X26121Y70804D01*
X26386Y70694D01*
X26670Y70657D01*
X26954Y70694D01*
X27219Y70804D01*
X27447Y70978D01*
X27621Y71206D01*
X27630Y71227D01*
X30587D01*
X30596Y71206D01*
X30770Y70978D01*
X30998Y70804D01*
X31263Y70694D01*
X31547Y70657D01*
X31831Y70694D01*
X32096Y70804D01*
X32323Y70978D01*
X32498Y71206D01*
X32608Y71471D01*
X32645Y71755D01*
X32608Y72039D01*
X32498Y72304D01*
X32323Y72532D01*
X32096Y72706D01*
X31831Y72816D01*
X31547Y72853D01*
D02*
G37*
G36*
X11430D02*
X11146Y72816D01*
X10881Y72706D01*
X10653Y72532D01*
X10479Y72304D01*
X10470Y72283D01*
X7513D01*
X7504Y72304D01*
X7330Y72532D01*
X7102Y72706D01*
X6837Y72816D01*
X6553Y72853D01*
X6269Y72816D01*
X6004Y72706D01*
X5777Y72532D01*
X5602Y72304D01*
X5492Y72039D01*
X5455Y71755D01*
X5492Y71471D01*
X5602Y71206D01*
X5777Y70978D01*
X6004Y70804D01*
X6269Y70694D01*
X6553Y70657D01*
X6837Y70694D01*
X7102Y70804D01*
X7330Y70978D01*
X7504Y71206D01*
X7513Y71227D01*
X10470D01*
X10479Y71206D01*
X10653Y70978D01*
X10881Y70804D01*
X11146Y70694D01*
X11430Y70657D01*
X11714Y70694D01*
X11979Y70804D01*
X12207Y70978D01*
X12381Y71206D01*
X12471Y71422D01*
X13451D01*
X15923Y68950D01*
X15923Y32764D01*
X15896Y32745D01*
X15785Y32580D01*
X15746Y32385D01*
X15785Y32190D01*
X15896Y32025D01*
X16061Y31914D01*
X16256Y31875D01*
X16451Y31914D01*
X16616Y32025D01*
X16727Y32190D01*
X16766Y32385D01*
X16727Y32580D01*
X16616Y32745D01*
X16589Y32764D01*
X16589Y69088D01*
X16564Y69216D01*
X16492Y69324D01*
X13825Y71991D01*
X13717Y72063D01*
X13589Y72088D01*
X12471D01*
X12381Y72304D01*
X12207Y72532D01*
X11979Y72706D01*
X11714Y72816D01*
X11430Y72853D01*
D02*
G37*
G36*
X31953Y70313D02*
X31669Y70276D01*
X31404Y70166D01*
X31177Y69992D01*
X31002Y69764D01*
X30993Y69743D01*
X27630D01*
X27621Y69764D01*
X27447Y69992D01*
X27219Y70166D01*
X26954Y70276D01*
X26670Y70313D01*
X26386Y70276D01*
X26121Y70166D01*
X25893Y69992D01*
X25719Y69764D01*
X25609Y69499D01*
X25572Y69215D01*
X25609Y68931D01*
X25719Y68666D01*
X25893Y68438D01*
X26121Y68264D01*
X26386Y68154D01*
X26670Y68117D01*
X26954Y68154D01*
X27219Y68264D01*
X27447Y68438D01*
X27621Y68666D01*
X27630Y68687D01*
X30993D01*
X31002Y68666D01*
X31177Y68438D01*
X31404Y68264D01*
X31669Y68154D01*
X31953Y68117D01*
X32237Y68154D01*
X32502Y68264D01*
X32730Y68438D01*
X32904Y68666D01*
X33014Y68931D01*
X33052Y69215D01*
X33014Y69499D01*
X32904Y69764D01*
X32730Y69992D01*
X32502Y70166D01*
X32237Y70276D01*
X31953Y70313D01*
D02*
G37*
G36*
X11430D02*
X11146Y70276D01*
X10881Y70166D01*
X10653Y69992D01*
X10479Y69764D01*
X10470Y69743D01*
X7107D01*
X7098Y69764D01*
X6923Y69992D01*
X6696Y70166D01*
X6431Y70276D01*
X6147Y70313D01*
X5863Y70276D01*
X5598Y70166D01*
X5370Y69992D01*
X5196Y69764D01*
X5086Y69499D01*
X5048Y69215D01*
X5086Y68931D01*
X5196Y68666D01*
X5370Y68438D01*
X5598Y68264D01*
X5863Y68154D01*
X6147Y68117D01*
X6431Y68154D01*
X6696Y68264D01*
X6923Y68438D01*
X7098Y68666D01*
X7107Y68687D01*
X10470D01*
X10479Y68666D01*
X10653Y68438D01*
X10881Y68264D01*
X11146Y68154D01*
X11430Y68117D01*
X11714Y68154D01*
X11979Y68264D01*
X12207Y68438D01*
X12381Y68666D01*
X12471Y68882D01*
X13324D01*
X14780Y67426D01*
X14780Y30097D01*
X14753Y30078D01*
X14642Y29913D01*
X14603Y29718D01*
X14642Y29523D01*
X14753Y29358D01*
X14918Y29247D01*
X15113Y29208D01*
X15308Y29247D01*
X15473Y29358D01*
X15584Y29523D01*
X15623Y29718D01*
X15584Y29913D01*
X15473Y30078D01*
X15446Y30097D01*
X15446Y67564D01*
X15421Y67692D01*
X15349Y67800D01*
X13698Y69451D01*
X13590Y69523D01*
X13462Y69548D01*
X12471D01*
X12381Y69764D01*
X12207Y69992D01*
X11979Y70166D01*
X11714Y70276D01*
X11430Y70313D01*
D02*
G37*
G36*
X31547Y67773D02*
X31263Y67736D01*
X30998Y67626D01*
X30770Y67452D01*
X30596Y67224D01*
X30587Y67203D01*
X27630D01*
X27621Y67224D01*
X27447Y67452D01*
X27219Y67626D01*
X26954Y67736D01*
X26670Y67773D01*
X26386Y67736D01*
X26121Y67626D01*
X25893Y67452D01*
X25719Y67224D01*
X25609Y66959D01*
X25572Y66675D01*
X25609Y66391D01*
X25719Y66126D01*
X25893Y65898D01*
X26121Y65724D01*
X26386Y65614D01*
X26670Y65577D01*
X26954Y65614D01*
X27219Y65724D01*
X27447Y65898D01*
X27621Y66126D01*
X27630Y66147D01*
X30587D01*
X30596Y66126D01*
X30770Y65898D01*
X30998Y65724D01*
X31263Y65614D01*
X31547Y65577D01*
X31831Y65614D01*
X32096Y65724D01*
X32323Y65898D01*
X32498Y66126D01*
X32608Y66391D01*
X32645Y66675D01*
X32608Y66959D01*
X32498Y67224D01*
X32323Y67452D01*
X32096Y67626D01*
X31831Y67736D01*
X31547Y67773D01*
D02*
G37*
G36*
X11430D02*
X11146Y67736D01*
X10881Y67626D01*
X10653Y67452D01*
X10479Y67224D01*
X10470Y67203D01*
X7513D01*
X7504Y67224D01*
X7330Y67452D01*
X7102Y67626D01*
X6837Y67736D01*
X6553Y67773D01*
X6269Y67736D01*
X6004Y67626D01*
X5777Y67452D01*
X5602Y67224D01*
X5492Y66959D01*
X5455Y66675D01*
X5492Y66391D01*
X5602Y66126D01*
X5777Y65898D01*
X6004Y65724D01*
X6269Y65614D01*
X6553Y65577D01*
X6837Y65614D01*
X7102Y65724D01*
X7330Y65898D01*
X7504Y66126D01*
X7513Y66147D01*
X10470D01*
X10479Y66126D01*
X10653Y65898D01*
X10881Y65724D01*
X11146Y65614D01*
X11430Y65577D01*
X11714Y65614D01*
X11979Y65724D01*
X12207Y65898D01*
X12381Y66126D01*
X12491Y66391D01*
X12528Y66675D01*
X12491Y66959D01*
X12381Y67224D01*
X12207Y67452D01*
X11979Y67626D01*
X11714Y67736D01*
X11430Y67773D01*
D02*
G37*
G36*
X62010Y86140D02*
X59910D01*
Y84040D01*
X60627D01*
Y83196D01*
X57168Y79738D01*
X57096Y79630D01*
X57071Y79502D01*
Y67054D01*
X57044Y67035D01*
X56933Y66870D01*
X56894Y66675D01*
X56933Y66480D01*
X57044Y66315D01*
X57209Y66204D01*
X57404Y66165D01*
X57599Y66204D01*
X57764Y66315D01*
X57875Y66480D01*
X57914Y66675D01*
X57875Y66870D01*
X57764Y67035D01*
X57737Y67054D01*
Y79364D01*
X61196Y82822D01*
X61268Y82930D01*
X61293Y83058D01*
Y84040D01*
X62010D01*
Y86140D01*
D02*
G37*
G36*
X24257Y83695D02*
X24062Y83656D01*
X23897Y83545D01*
X23786Y83380D01*
X23747Y83185D01*
X23786Y82990D01*
X23897Y82825D01*
X23924Y82806D01*
Y67054D01*
X23897Y67035D01*
X23786Y66870D01*
X23747Y66675D01*
X23786Y66480D01*
X23897Y66315D01*
X24062Y66204D01*
X24257Y66165D01*
X24452Y66204D01*
X24617Y66315D01*
X24728Y66480D01*
X24767Y66675D01*
X24728Y66870D01*
X24617Y67035D01*
X24590Y67054D01*
Y82806D01*
X24617Y82825D01*
X24728Y82990D01*
X24767Y83185D01*
X24728Y83380D01*
X24617Y83545D01*
X24452Y83656D01*
X24257Y83695D01*
D02*
G37*
G36*
X23114Y84965D02*
X22919Y84926D01*
X22754Y84815D01*
X22643Y84650D01*
X22604Y84455D01*
X22643Y84260D01*
X22754Y84095D01*
X22781Y84076D01*
Y65784D01*
X22754Y65765D01*
X22643Y65600D01*
X22604Y65405D01*
X22643Y65210D01*
X22754Y65045D01*
X22919Y64934D01*
X23114Y64895D01*
X23309Y64934D01*
X23474Y65045D01*
X23585Y65210D01*
X23624Y65405D01*
X23585Y65600D01*
X23474Y65765D01*
X23447Y65784D01*
Y84076D01*
X23474Y84095D01*
X23585Y84260D01*
X23624Y84455D01*
X23585Y84650D01*
X23474Y84815D01*
X23309Y84926D01*
X23114Y84965D01*
D02*
G37*
G36*
X32144Y65208D02*
Y64326D01*
X33027D01*
X33014Y64419D01*
X32904Y64684D01*
X32730Y64912D01*
X32502Y65086D01*
X32237Y65196D01*
X32144Y65208D01*
D02*
G37*
G36*
X31763D02*
X31669Y65196D01*
X31404Y65086D01*
X31177Y64912D01*
X31002Y64684D01*
X30892Y64419D01*
X30880Y64326D01*
X31763D01*
Y65208D01*
D02*
G37*
G36*
X26861D02*
Y64326D01*
X27743D01*
X27731Y64419D01*
X27621Y64684D01*
X27447Y64912D01*
X27219Y65086D01*
X26954Y65196D01*
X26861Y65208D01*
D02*
G37*
G36*
X26479D02*
X26386Y65196D01*
X26121Y65086D01*
X25893Y64912D01*
X25719Y64684D01*
X25609Y64419D01*
X25597Y64326D01*
X26479D01*
Y65208D01*
D02*
G37*
G36*
X11621D02*
Y64325D01*
X12503D01*
X12491Y64419D01*
X12381Y64684D01*
X12207Y64912D01*
X11979Y65086D01*
X11714Y65196D01*
X11621Y65208D01*
D02*
G37*
G36*
X6337D02*
Y64325D01*
X7220D01*
X7208Y64419D01*
X7098Y64684D01*
X6923Y64912D01*
X6696Y65086D01*
X6431Y65196D01*
X6337Y65208D01*
D02*
G37*
G36*
X11240D02*
X11146Y65196D01*
X10881Y65086D01*
X10653Y64912D01*
X10479Y64684D01*
X10369Y64419D01*
X10357Y64325D01*
X11240D01*
Y65208D01*
D02*
G37*
G36*
X5956D02*
X5863Y65196D01*
X5598Y65086D01*
X5370Y64912D01*
X5196Y64684D01*
X5086Y64419D01*
X5073Y64325D01*
X5956D01*
Y65208D01*
D02*
G37*
G36*
X68015Y64325D02*
X67792D01*
Y63902D01*
X68015D01*
Y64325D01*
D02*
G37*
G36*
X72307Y64025D02*
X71559D01*
Y63502D01*
X72307D01*
Y64025D01*
D02*
G37*
G36*
X71305D02*
X70557D01*
Y63502D01*
X71305D01*
Y64025D01*
D02*
G37*
G36*
X12503Y63944D02*
X11621D01*
Y63062D01*
X11714Y63074D01*
X11979Y63184D01*
X12207Y63358D01*
X12381Y63586D01*
X12491Y63851D01*
X12503Y63944D01*
D02*
G37*
G36*
X7220D02*
X6337D01*
Y63062D01*
X6431Y63074D01*
X6696Y63184D01*
X6923Y63358D01*
X7098Y63586D01*
X7208Y63851D01*
X7220Y63944D01*
D02*
G37*
G36*
X33027Y63944D02*
X32144D01*
Y63062D01*
X32237Y63074D01*
X32502Y63184D01*
X32730Y63358D01*
X32904Y63586D01*
X33014Y63851D01*
X33027Y63944D01*
D02*
G37*
G36*
X31763D02*
X30880D01*
X30892Y63851D01*
X31002Y63586D01*
X31177Y63358D01*
X31404Y63184D01*
X31669Y63074D01*
X31763Y63062D01*
Y63944D01*
D02*
G37*
G36*
X27743D02*
X26861D01*
Y63062D01*
X26954Y63074D01*
X27219Y63184D01*
X27447Y63358D01*
X27621Y63586D01*
X27731Y63851D01*
X27743Y63944D01*
D02*
G37*
G36*
X26479D02*
X25597D01*
X25609Y63851D01*
X25719Y63586D01*
X25893Y63358D01*
X26121Y63184D01*
X26386Y63074D01*
X26479Y63062D01*
Y63944D01*
D02*
G37*
G36*
X11240Y63944D02*
X10357D01*
X10369Y63851D01*
X10479Y63586D01*
X10653Y63358D01*
X10881Y63184D01*
X11146Y63074D01*
X11240Y63062D01*
Y63944D01*
D02*
G37*
G36*
X5956D02*
X5073D01*
X5086Y63851D01*
X5196Y63586D01*
X5370Y63358D01*
X5598Y63184D01*
X5863Y63074D01*
X5956Y63062D01*
Y63944D01*
D02*
G37*
G36*
X73700Y63500D02*
X73302D01*
Y63027D01*
X73700D01*
Y63500D01*
D02*
G37*
G36*
X73048D02*
X72650D01*
Y63027D01*
X73048D01*
Y63500D01*
D02*
G37*
G36*
X53340Y86149D02*
X53066Y86113D01*
X52810Y86007D01*
X52591Y85839D01*
X52423Y85620D01*
X52317Y85364D01*
X52281Y85090D01*
X52317Y84816D01*
X52423Y84560D01*
X52591Y84341D01*
X52810Y84173D01*
X53007Y84092D01*
Y81915D01*
X53032Y81787D01*
X53104Y81679D01*
X54277Y80507D01*
Y62943D01*
X54150Y62900D01*
X54089Y62979D01*
X53870Y63147D01*
X53614Y63253D01*
X53340Y63289D01*
X53066Y63253D01*
X52810Y63147D01*
X52591Y62979D01*
X52530Y62900D01*
X52403Y62943D01*
Y80645D01*
X52378Y80773D01*
X52306Y80881D01*
X51133Y82053D01*
Y84092D01*
X51330Y84173D01*
X51549Y84341D01*
X51717Y84560D01*
X51823Y84816D01*
X51859Y85090D01*
X51823Y85364D01*
X51717Y85620D01*
X51549Y85839D01*
X51330Y86007D01*
X51074Y86113D01*
X50800Y86149D01*
X50526Y86113D01*
X50270Y86007D01*
X50051Y85839D01*
X49883Y85620D01*
X49777Y85364D01*
X49741Y85090D01*
X49777Y84816D01*
X49883Y84560D01*
X50051Y84341D01*
X50270Y84173D01*
X50467Y84092D01*
Y81915D01*
X50492Y81787D01*
X50564Y81679D01*
X51737Y80507D01*
Y62943D01*
X51610Y62900D01*
X51549Y62979D01*
X51330Y63147D01*
X51133Y63228D01*
Y68650D01*
X51325D01*
Y69723D01*
X51325Y69850D01*
X51325Y69977D01*
Y71050D01*
X51133D01*
Y72634D01*
X51160Y72653D01*
X51271Y72818D01*
X51310Y73013D01*
X51271Y73208D01*
X51160Y73373D01*
X50995Y73484D01*
X50800Y73523D01*
X50605Y73484D01*
X50440Y73373D01*
X50329Y73208D01*
X50290Y73013D01*
X50329Y72818D01*
X50440Y72653D01*
X50467Y72634D01*
Y71050D01*
X50275D01*
Y69977D01*
X50275Y69850D01*
X50275Y69723D01*
Y68650D01*
X50467D01*
Y63228D01*
X50270Y63147D01*
X50051Y62979D01*
X49990Y62900D01*
X49863Y62943D01*
Y80645D01*
X49838Y80773D01*
X49766Y80881D01*
X48593Y82053D01*
Y84092D01*
X48790Y84173D01*
X49009Y84341D01*
X49177Y84560D01*
X49283Y84816D01*
X49319Y85090D01*
X49283Y85364D01*
X49177Y85620D01*
X49009Y85839D01*
X48790Y86007D01*
X48534Y86113D01*
X48260Y86149D01*
X47986Y86113D01*
X47730Y86007D01*
X47511Y85839D01*
X47343Y85620D01*
X47237Y85364D01*
X47201Y85090D01*
X47237Y84816D01*
X47343Y84560D01*
X47511Y84341D01*
X47730Y84173D01*
X47927Y84092D01*
Y81915D01*
X47952Y81787D01*
X48024Y81679D01*
X49197Y80507D01*
Y62943D01*
X49070Y62900D01*
X49009Y62979D01*
X48790Y63147D01*
X48593Y63228D01*
Y68650D01*
X48785D01*
Y69723D01*
X48785Y69850D01*
X48785Y69977D01*
Y71050D01*
X48593D01*
Y72634D01*
X48620Y72653D01*
X48731Y72818D01*
X48770Y73013D01*
X48731Y73208D01*
X48620Y73373D01*
X48455Y73484D01*
X48260Y73523D01*
X48065Y73484D01*
X47900Y73373D01*
X47789Y73208D01*
X47750Y73013D01*
X47789Y72818D01*
X47900Y72653D01*
X47927Y72634D01*
Y71050D01*
X47735D01*
Y69977D01*
X47735Y69850D01*
X47735Y69723D01*
Y68650D01*
X47927D01*
Y63228D01*
X47730Y63147D01*
X47511Y62979D01*
X47343Y62760D01*
X47237Y62504D01*
X47201Y62230D01*
X47237Y61956D01*
X47343Y61700D01*
X47511Y61481D01*
X47730Y61313D01*
X47927Y61232D01*
Y58939D01*
X46754Y57767D01*
X46682Y57659D01*
X46657Y57531D01*
Y56593D01*
X46530Y56550D01*
X46469Y56629D01*
X46250Y56797D01*
X45994Y56903D01*
X45720Y56939D01*
X45446Y56903D01*
X45190Y56797D01*
X44971Y56629D01*
X44803Y56410D01*
X44697Y56154D01*
X44661Y55880D01*
X44697Y55606D01*
X44803Y55350D01*
X44971Y55131D01*
X45190Y54963D01*
X45446Y54857D01*
X45720Y54821D01*
X45994Y54857D01*
X46250Y54963D01*
X46469Y55131D01*
X46530Y55210D01*
X46657Y55167D01*
Y45464D01*
X46630Y45445D01*
X46519Y45280D01*
X46480Y45085D01*
X46519Y44890D01*
X46630Y44725D01*
X46657Y44706D01*
Y38735D01*
X46682Y38607D01*
X46754Y38499D01*
X47927Y37327D01*
Y34018D01*
X47730Y33937D01*
X47511Y33769D01*
X47343Y33550D01*
X47237Y33294D01*
X47201Y33020D01*
X47237Y32746D01*
X47343Y32490D01*
X47511Y32271D01*
X47730Y32103D01*
X47927Y32022D01*
Y30872D01*
X46754Y29700D01*
X46682Y29592D01*
X46657Y29464D01*
Y27383D01*
X46530Y27340D01*
X46469Y27419D01*
X46250Y27587D01*
X45994Y27693D01*
X45720Y27729D01*
X45446Y27693D01*
X45190Y27587D01*
X44971Y27419D01*
X44803Y27200D01*
X44697Y26944D01*
X44661Y26670D01*
X44697Y26396D01*
X44803Y26140D01*
X44971Y25921D01*
X45190Y25753D01*
X45446Y25647D01*
X45720Y25611D01*
X45994Y25647D01*
X46250Y25753D01*
X46469Y25921D01*
X46530Y26000D01*
X46657Y25957D01*
Y22860D01*
X46682Y22732D01*
X46754Y22624D01*
X47927Y21452D01*
Y4808D01*
X47730Y4727D01*
X47511Y4559D01*
X47343Y4340D01*
X47237Y4084D01*
X47201Y3810D01*
X47237Y3536D01*
X47343Y3280D01*
X47511Y3061D01*
X47730Y2893D01*
X47986Y2787D01*
X48260Y2751D01*
X48534Y2787D01*
X48790Y2893D01*
X49009Y3061D01*
X49177Y3280D01*
X49283Y3536D01*
X49319Y3810D01*
X49283Y4084D01*
X49177Y4340D01*
X49009Y4559D01*
X48790Y4727D01*
X48593Y4808D01*
Y21590D01*
X48568Y21718D01*
X48496Y21826D01*
X47323Y22998D01*
Y25957D01*
X47450Y26000D01*
X47511Y25921D01*
X47730Y25753D01*
X47986Y25647D01*
X48260Y25611D01*
X48534Y25647D01*
X48790Y25753D01*
X49009Y25921D01*
X49070Y26000D01*
X49197Y25957D01*
Y22860D01*
X49222Y22732D01*
X49294Y22624D01*
X50467Y21452D01*
Y4808D01*
X50270Y4727D01*
X50051Y4559D01*
X49883Y4340D01*
X49777Y4084D01*
X49741Y3810D01*
X49777Y3536D01*
X49883Y3280D01*
X50051Y3061D01*
X50270Y2893D01*
X50526Y2787D01*
X50800Y2751D01*
X51074Y2787D01*
X51330Y2893D01*
X51549Y3061D01*
X51717Y3280D01*
X51823Y3536D01*
X51859Y3810D01*
X51823Y4084D01*
X51717Y4340D01*
X51549Y4559D01*
X51330Y4727D01*
X51133Y4808D01*
Y21590D01*
X51108Y21718D01*
X51036Y21826D01*
X49863Y22998D01*
Y25957D01*
X49990Y26000D01*
X50051Y25921D01*
X50270Y25753D01*
X50526Y25647D01*
X50800Y25611D01*
X51074Y25647D01*
X51330Y25753D01*
X51549Y25921D01*
X51717Y26140D01*
X51823Y26396D01*
X51859Y26670D01*
X51823Y26944D01*
X51717Y27200D01*
X51549Y27419D01*
X51330Y27587D01*
X51133Y27668D01*
Y29326D01*
X52306Y30498D01*
X52378Y30606D01*
X52403Y30734D01*
Y32307D01*
X52530Y32350D01*
X52591Y32271D01*
X52810Y32103D01*
X53066Y31997D01*
X53340Y31961D01*
X53614Y31997D01*
X53870Y32103D01*
X54089Y32271D01*
X54150Y32350D01*
X54277Y32307D01*
Y30872D01*
X53104Y29700D01*
X53032Y29592D01*
X53007Y29464D01*
Y27668D01*
X52810Y27587D01*
X52591Y27419D01*
X52423Y27200D01*
X52317Y26944D01*
X52281Y26670D01*
X52317Y26396D01*
X52423Y26140D01*
X52591Y25921D01*
X52810Y25753D01*
X53066Y25647D01*
X53340Y25611D01*
X53614Y25647D01*
X53870Y25753D01*
X54089Y25921D01*
X54257Y26140D01*
X54363Y26396D01*
X54399Y26670D01*
X54363Y26944D01*
X54257Y27200D01*
X54089Y27419D01*
X53870Y27587D01*
X53673Y27668D01*
Y29326D01*
X54846Y30498D01*
X54918Y30606D01*
X54943Y30734D01*
Y32307D01*
X55070Y32350D01*
X55131Y32271D01*
X55350Y32103D01*
X55606Y31997D01*
X55880Y31961D01*
X56154Y31997D01*
X56410Y32103D01*
X56629Y32271D01*
X56690Y32350D01*
X56817Y32307D01*
Y27383D01*
X56690Y27340D01*
X56629Y27419D01*
X56410Y27587D01*
X56154Y27693D01*
X55880Y27729D01*
X55606Y27693D01*
X55350Y27587D01*
X55131Y27419D01*
X54963Y27200D01*
X54857Y26944D01*
X54821Y26670D01*
X54857Y26396D01*
X54963Y26140D01*
X55131Y25921D01*
X55350Y25753D01*
X55606Y25647D01*
X55880Y25611D01*
X56154Y25647D01*
X56410Y25753D01*
X56629Y25921D01*
X56690Y26000D01*
X56817Y25957D01*
Y22998D01*
X53104Y19286D01*
X53032Y19178D01*
X53007Y19050D01*
Y4808D01*
X52810Y4727D01*
X52591Y4559D01*
X52423Y4340D01*
X52317Y4084D01*
X52281Y3810D01*
X52317Y3536D01*
X52423Y3280D01*
X52591Y3061D01*
X52810Y2893D01*
X53066Y2787D01*
X53340Y2751D01*
X53614Y2787D01*
X53870Y2893D01*
X54089Y3061D01*
X54257Y3280D01*
X54363Y3536D01*
X54399Y3810D01*
X54363Y4084D01*
X54257Y4340D01*
X54089Y4559D01*
X53870Y4727D01*
X53673Y4808D01*
Y18912D01*
X57386Y22624D01*
X57458Y22732D01*
X57483Y22860D01*
Y25957D01*
X57610Y26000D01*
X57671Y25921D01*
X57890Y25753D01*
X58146Y25647D01*
X58420Y25611D01*
X58694Y25647D01*
X58950Y25753D01*
X59169Y25921D01*
X59230Y26000D01*
X59357Y25957D01*
Y22998D01*
X55644Y19286D01*
X55572Y19178D01*
X55547Y19050D01*
Y4808D01*
X55350Y4727D01*
X55131Y4559D01*
X54963Y4340D01*
X54857Y4084D01*
X54821Y3810D01*
X54857Y3536D01*
X54963Y3280D01*
X55131Y3061D01*
X55350Y2893D01*
X55606Y2787D01*
X55880Y2751D01*
X56154Y2787D01*
X56410Y2893D01*
X56629Y3061D01*
X56797Y3280D01*
X56903Y3536D01*
X56939Y3810D01*
X56903Y4084D01*
X56797Y4340D01*
X56629Y4559D01*
X56410Y4727D01*
X56213Y4808D01*
Y18912D01*
X59926Y22624D01*
X59998Y22732D01*
X60023Y22860D01*
Y25620D01*
X62010D01*
Y27720D01*
X61293D01*
Y28107D01*
X64244Y31057D01*
X64316Y31165D01*
X64341Y31293D01*
Y51691D01*
X64368Y51710D01*
X64479Y51875D01*
X64518Y52070D01*
X64479Y52265D01*
X64368Y52430D01*
X64341Y52449D01*
X64341Y69000D01*
Y69977D01*
X64316Y70105D01*
X64244Y70213D01*
X62733Y71723D01*
X62740Y71755D01*
X62701Y71950D01*
X62590Y72115D01*
X62425Y72226D01*
X62230Y72265D01*
X62035Y72226D01*
X61870Y72115D01*
X61759Y71950D01*
X61720Y71755D01*
X61759Y71560D01*
X61870Y71395D01*
X62035Y71284D01*
X62230Y71245D01*
X62262Y71252D01*
X63675Y69839D01*
Y69000D01*
X63675Y52449D01*
X63648Y52430D01*
X63537Y52265D01*
X63498Y52070D01*
X63537Y51875D01*
X63648Y51710D01*
X63675Y51691D01*
Y31431D01*
X60724Y28481D01*
X60652Y28373D01*
X60627Y28245D01*
Y27720D01*
X60023D01*
Y31970D01*
X62010D01*
Y34070D01*
X61293D01*
Y47881D01*
X61320Y47900D01*
X61431Y48065D01*
X61470Y48260D01*
X61431Y48455D01*
X61320Y48620D01*
X61155Y48731D01*
X60960Y48770D01*
X60928Y48763D01*
X60023Y49668D01*
Y54830D01*
X62010D01*
Y56930D01*
X61293D01*
Y57522D01*
X62847Y59075D01*
X62919Y59183D01*
X62944Y59311D01*
Y68836D01*
X62971Y68855D01*
X63082Y69020D01*
X63121Y69215D01*
X63082Y69410D01*
X62971Y69575D01*
X62806Y69686D01*
X62611Y69725D01*
X62416Y69686D01*
X62251Y69575D01*
X62140Y69410D01*
X62101Y69215D01*
X62140Y69020D01*
X62251Y68855D01*
X62278Y68836D01*
Y59449D01*
X60724Y57896D01*
X60652Y57787D01*
X60627Y57660D01*
Y56930D01*
X60023D01*
Y61180D01*
X62010D01*
Y63280D01*
X61293D01*
Y73916D01*
X61320Y73935D01*
X61431Y74100D01*
X61470Y74295D01*
X61431Y74490D01*
X61320Y74655D01*
X61155Y74766D01*
X60960Y74805D01*
X60765Y74766D01*
X60600Y74655D01*
X60489Y74490D01*
X60450Y74295D01*
X60489Y74100D01*
X60600Y73935D01*
X60627Y73916D01*
Y63280D01*
X60023D01*
Y76456D01*
X60050Y76475D01*
X60161Y76640D01*
X60200Y76835D01*
X60161Y77030D01*
X60050Y77195D01*
X59885Y77306D01*
X59690Y77345D01*
X59495Y77306D01*
X59330Y77195D01*
X59219Y77030D01*
X59180Y76835D01*
X59219Y76640D01*
X59330Y76475D01*
X59357Y76456D01*
Y62943D01*
X59230Y62900D01*
X59169Y62979D01*
X58950Y63147D01*
X58753Y63228D01*
Y77967D01*
X62198Y81412D01*
X62230Y81405D01*
X62425Y81444D01*
X62590Y81555D01*
X62701Y81720D01*
X62740Y81915D01*
X62701Y82110D01*
X62590Y82275D01*
X62425Y82386D01*
X62230Y82425D01*
X62035Y82386D01*
X61870Y82275D01*
X61759Y82110D01*
X61720Y81915D01*
X61727Y81883D01*
X58184Y78341D01*
X58112Y78233D01*
X58087Y78105D01*
Y63228D01*
X57890Y63147D01*
X57671Y62979D01*
X57503Y62760D01*
X57397Y62504D01*
X57361Y62230D01*
X57397Y61956D01*
X57503Y61700D01*
X57671Y61481D01*
X57890Y61313D01*
X58146Y61207D01*
X58420Y61171D01*
X58694Y61207D01*
X58950Y61313D01*
X59169Y61481D01*
X59230Y61560D01*
X59357Y61517D01*
Y56593D01*
X59230Y56550D01*
X59169Y56629D01*
X58950Y56797D01*
X58694Y56903D01*
X58420Y56939D01*
X58146Y56903D01*
X57890Y56797D01*
X57671Y56629D01*
X57610Y56550D01*
X57483Y56593D01*
Y57523D01*
X57458Y57651D01*
X57386Y57759D01*
X56213Y58931D01*
Y61232D01*
X56410Y61313D01*
X56629Y61481D01*
X56797Y61700D01*
X56903Y61956D01*
X56939Y62230D01*
X56903Y62504D01*
X56797Y62760D01*
X56629Y62979D01*
X56410Y63147D01*
X56154Y63253D01*
X55880Y63289D01*
X55606Y63253D01*
X55350Y63147D01*
X55131Y62979D01*
X55070Y62900D01*
X54943Y62943D01*
Y80645D01*
X54918Y80773D01*
X54846Y80881D01*
X53673Y82053D01*
Y84092D01*
X53870Y84173D01*
X54089Y84341D01*
X54257Y84560D01*
X54363Y84816D01*
X54399Y85090D01*
X54363Y85364D01*
X54257Y85620D01*
X54089Y85839D01*
X53870Y86007D01*
X53614Y86113D01*
X53340Y86149D01*
D02*
G37*
G36*
X72307Y63248D02*
X71559D01*
Y62725D01*
X72307D01*
Y63248D01*
D02*
G37*
G36*
X71305D02*
X70557D01*
Y62725D01*
X71305D01*
Y63248D01*
D02*
G37*
G36*
X69992Y64325D02*
X68269D01*
Y63775D01*
X68142D01*
Y63648D01*
X67792D01*
Y63290D01*
X67792D01*
X67792Y63225D01*
X67892Y63160D01*
X67892Y63098D01*
Y62452D01*
X68892D01*
X69892D01*
X69892Y63160D01*
X69992Y63225D01*
Y63290D01*
X69992Y63290D01*
Y64325D01*
D02*
G37*
G36*
X43370Y63264D02*
Y62421D01*
X44214D01*
X44203Y62504D01*
X44097Y62760D01*
X43929Y62979D01*
X43710Y63147D01*
X43454Y63253D01*
X43370Y63264D01*
D02*
G37*
G36*
X42989Y63264D02*
X42906Y63253D01*
X42650Y63147D01*
X42431Y62979D01*
X42263Y62760D01*
X42157Y62504D01*
X42146Y62421D01*
X42989D01*
Y63264D01*
D02*
G37*
G36*
X21971Y82425D02*
X21776Y82386D01*
X21611Y82275D01*
X21500Y82110D01*
X21461Y81915D01*
X21500Y81720D01*
X21611Y81555D01*
X21638Y81536D01*
Y63244D01*
X21611Y63225D01*
X21500Y63060D01*
X21461Y62865D01*
X21500Y62670D01*
X21611Y62505D01*
X21776Y62394D01*
X21971Y62355D01*
X22166Y62394D01*
X22331Y62505D01*
X22442Y62670D01*
X22481Y62865D01*
X22442Y63060D01*
X22331Y63225D01*
X22304Y63244D01*
Y81536D01*
X22331Y81555D01*
X22442Y81720D01*
X22481Y81915D01*
X22442Y82110D01*
X22331Y82275D01*
X22166Y82386D01*
X21971Y82425D01*
D02*
G37*
G36*
X31547Y62693D02*
X31263Y62656D01*
X30998Y62546D01*
X30770Y62372D01*
X30596Y62144D01*
X30587Y62123D01*
X27630D01*
X27621Y62144D01*
X27447Y62372D01*
X27219Y62546D01*
X26954Y62656D01*
X26670Y62693D01*
X26386Y62656D01*
X26121Y62546D01*
X25893Y62372D01*
X25719Y62144D01*
X25609Y61879D01*
X25572Y61595D01*
X25609Y61311D01*
X25719Y61046D01*
X25893Y60818D01*
X26121Y60644D01*
X26386Y60534D01*
X26670Y60497D01*
X26954Y60534D01*
X27219Y60644D01*
X27447Y60818D01*
X27621Y61046D01*
X27630Y61067D01*
X30587D01*
X30596Y61046D01*
X30770Y60818D01*
X30998Y60644D01*
X31263Y60534D01*
X31547Y60497D01*
X31831Y60534D01*
X32096Y60644D01*
X32323Y60818D01*
X32498Y61046D01*
X32587Y61262D01*
X34025D01*
X35608Y59679D01*
Y46734D01*
X35581Y46715D01*
X35470Y46550D01*
X35431Y46355D01*
X35470Y46160D01*
X35581Y45995D01*
X35608Y45976D01*
Y22350D01*
X35581Y22331D01*
X35470Y22166D01*
X35431Y21971D01*
X35470Y21776D01*
X35581Y21611D01*
X35746Y21500D01*
X35941Y21461D01*
X36136Y21500D01*
X36301Y21611D01*
X36412Y21776D01*
X36451Y21971D01*
X36412Y22166D01*
X36301Y22331D01*
X36274Y22350D01*
Y45976D01*
X36301Y45995D01*
X36412Y46160D01*
X36451Y46355D01*
X36412Y46550D01*
X36301Y46715D01*
X36274Y46734D01*
Y59817D01*
X36249Y59945D01*
X36177Y60053D01*
X34399Y61831D01*
X34291Y61903D01*
X34163Y61928D01*
X32587D01*
X32498Y62144D01*
X32323Y62372D01*
X32096Y62546D01*
X31831Y62656D01*
X31547Y62693D01*
D02*
G37*
G36*
X11430D02*
X11146Y62656D01*
X10881Y62546D01*
X10653Y62372D01*
X10479Y62144D01*
X10470Y62123D01*
X7513D01*
X7504Y62144D01*
X7330Y62372D01*
X7102Y62546D01*
X6837Y62656D01*
X6553Y62693D01*
X6269Y62656D01*
X6004Y62546D01*
X5777Y62372D01*
X5602Y62144D01*
X5492Y61879D01*
X5455Y61595D01*
X5492Y61311D01*
X5602Y61046D01*
X5777Y60818D01*
X6004Y60644D01*
X6269Y60534D01*
X6553Y60497D01*
X6837Y60534D01*
X7102Y60644D01*
X7330Y60818D01*
X7504Y61046D01*
X7513Y61067D01*
X10470D01*
X10479Y61046D01*
X10653Y60818D01*
X10881Y60644D01*
X11146Y60534D01*
X11430Y60497D01*
X11714Y60534D01*
X11979Y60644D01*
X12207Y60818D01*
X12381Y61046D01*
X12491Y61311D01*
X12528Y61595D01*
X12491Y61879D01*
X12381Y62144D01*
X12207Y62372D01*
X11979Y62546D01*
X11714Y62656D01*
X11430Y62693D01*
D02*
G37*
G36*
X73700Y62773D02*
X73175D01*
X72650D01*
Y62427D01*
X72650Y62300D01*
X72650Y62173D01*
Y61808D01*
X72307D01*
Y61925D01*
X70557D01*
Y61608D01*
X70551D01*
X70423Y61583D01*
X70315Y61511D01*
X70119Y61315D01*
X69992Y61368D01*
Y61425D01*
X69892Y61490D01*
X69892Y61552D01*
Y62198D01*
X68892D01*
X67892D01*
X67892Y61490D01*
X67792Y61425D01*
Y61360D01*
X67792Y61360D01*
Y61208D01*
X67379D01*
X67360Y61235D01*
X67195Y61346D01*
X67000Y61385D01*
X66805Y61346D01*
X66640Y61235D01*
X66529Y61070D01*
X66490Y60875D01*
X66529Y60680D01*
X66640Y60515D01*
X66805Y60404D01*
X67000Y60365D01*
X67195Y60404D01*
X67360Y60515D01*
X67379Y60542D01*
X67792D01*
Y60325D01*
X67809D01*
Y59825D01*
X67675D01*
Y58775D01*
X68748D01*
X68875Y58775D01*
X69002Y58775D01*
X69142D01*
Y58638D01*
X67836Y57333D01*
X67764Y57225D01*
X67739Y57097D01*
Y56930D01*
X67022D01*
Y54830D01*
X69122D01*
Y56930D01*
X68556D01*
X68504Y57057D01*
X69711Y58264D01*
X69783Y58372D01*
X69808Y58500D01*
Y58775D01*
X70075D01*
Y59825D01*
X69002D01*
X68875Y59825D01*
X68748Y59825D01*
X68476D01*
Y60325D01*
X69992D01*
Y60542D01*
X70151D01*
X70278Y60567D01*
X70386Y60639D01*
X70440Y60693D01*
X70557Y60644D01*
Y60625D01*
X72307D01*
Y61142D01*
X72650D01*
Y61100D01*
X73700D01*
Y62173D01*
X73700Y62300D01*
X73700Y62427D01*
Y62773D01*
D02*
G37*
G36*
X42989Y62040D02*
X42146D01*
X42157Y61956D01*
X42263Y61700D01*
X42431Y61481D01*
X42650Y61313D01*
X42906Y61207D01*
X42989Y61196D01*
Y62040D01*
D02*
G37*
G36*
X44214D02*
X43370D01*
Y61196D01*
X43454Y61207D01*
X43710Y61313D01*
X43929Y61481D01*
X44097Y61700D01*
X44203Y61956D01*
X44214Y62040D01*
D02*
G37*
G36*
X38625Y88471D02*
X36625D01*
Y86979D01*
X38625D01*
Y87266D01*
X38911D01*
Y67240D01*
X38845D01*
Y67099D01*
X38100D01*
X37924Y67064D01*
X37776Y66964D01*
X36887Y66075D01*
X36787Y65927D01*
X36752Y65751D01*
Y37430D01*
Y30748D01*
X36787Y30572D01*
X36887Y30423D01*
X38911Y28399D01*
Y8820D01*
X38845D01*
Y8679D01*
X37465D01*
X37289Y8644D01*
X37141Y8544D01*
X36542Y7946D01*
X35513D01*
X35495Y7958D01*
X35300Y7997D01*
X35105Y7958D01*
X34940Y7847D01*
X34829Y7682D01*
X34790Y7487D01*
X34829Y7292D01*
X34940Y7127D01*
X35105Y7016D01*
X35300Y6977D01*
X35495Y7016D01*
X35513Y7028D01*
X36732D01*
X36908Y7063D01*
X37056Y7163D01*
X37655Y7761D01*
X38755D01*
X38845Y7671D01*
Y7620D01*
X38845Y7493D01*
Y6420D01*
X39895D01*
Y6561D01*
X44225D01*
X45261Y5525D01*
Y4756D01*
X45190Y4727D01*
X44971Y4559D01*
X44803Y4340D01*
X44697Y4084D01*
X44661Y3810D01*
X44697Y3536D01*
X44803Y3280D01*
X44971Y3061D01*
X45190Y2893D01*
X45446Y2787D01*
X45720Y2751D01*
X45994Y2787D01*
X46250Y2893D01*
X46469Y3061D01*
X46637Y3280D01*
X46743Y3536D01*
X46779Y3810D01*
X46743Y4084D01*
X46637Y4340D01*
X46469Y4559D01*
X46250Y4727D01*
X46179Y4756D01*
Y5715D01*
X46144Y5891D01*
X46044Y6039D01*
X44739Y7344D01*
X44591Y7444D01*
X44415Y7479D01*
X39985D01*
X39895Y7569D01*
Y7620D01*
X39895Y7747D01*
Y8820D01*
X39829D01*
Y28589D01*
X39794Y28764D01*
X39694Y28913D01*
X37670Y30938D01*
Y36971D01*
X38755D01*
X38845Y36881D01*
Y36830D01*
X38845Y36703D01*
Y35630D01*
X39895D01*
Y35771D01*
X44225D01*
X45261Y34735D01*
Y33966D01*
X45190Y33937D01*
X44971Y33769D01*
X44803Y33550D01*
X44697Y33294D01*
X44661Y33020D01*
X44697Y32746D01*
X44803Y32490D01*
X44971Y32271D01*
X45190Y32103D01*
X45446Y31997D01*
X45720Y31961D01*
X45994Y31997D01*
X46250Y32103D01*
X46469Y32271D01*
X46637Y32490D01*
X46743Y32746D01*
X46779Y33020D01*
X46743Y33294D01*
X46637Y33550D01*
X46469Y33769D01*
X46250Y33937D01*
X46179Y33966D01*
Y34925D01*
X46144Y35101D01*
X46044Y35249D01*
X44739Y36554D01*
X44591Y36654D01*
X44415Y36689D01*
X39985D01*
X39895Y36779D01*
Y36830D01*
X39895Y36957D01*
Y38030D01*
X38845D01*
Y37889D01*
X37670D01*
Y65561D01*
X38290Y66181D01*
X38755D01*
X38845Y66091D01*
Y66040D01*
X38845Y65913D01*
Y64840D01*
X39895D01*
Y64981D01*
X44225D01*
X45261Y63945D01*
Y63176D01*
X45190Y63147D01*
X44971Y62979D01*
X44803Y62760D01*
X44697Y62504D01*
X44661Y62230D01*
X44697Y61956D01*
X44803Y61700D01*
X44971Y61481D01*
X45190Y61313D01*
X45446Y61207D01*
X45720Y61171D01*
X45994Y61207D01*
X46250Y61313D01*
X46469Y61481D01*
X46637Y61700D01*
X46743Y61956D01*
X46779Y62230D01*
X46743Y62504D01*
X46637Y62760D01*
X46469Y62979D01*
X46250Y63147D01*
X46179Y63176D01*
Y64135D01*
X46144Y64311D01*
X46044Y64459D01*
X44739Y65764D01*
X44591Y65864D01*
X44415Y65899D01*
X39985D01*
X39895Y65989D01*
Y66040D01*
X39895Y66167D01*
Y67240D01*
X39829D01*
Y87664D01*
X39841Y87725D01*
X39802Y87920D01*
X39692Y88085D01*
X39526Y88196D01*
X39331Y88235D01*
X39136Y88196D01*
X39118Y88184D01*
X38625D01*
Y88471D01*
D02*
G37*
G36*
X20828Y91315D02*
X20633Y91276D01*
X20468Y91165D01*
X20357Y91000D01*
X20318Y90805D01*
X20357Y90610D01*
X20468Y90445D01*
X20495Y90426D01*
X20495Y61974D01*
X20468Y61955D01*
X20357Y61790D01*
X20318Y61595D01*
X20357Y61400D01*
X20468Y61235D01*
X20633Y61124D01*
X20828Y61085D01*
X21023Y61124D01*
X21188Y61235D01*
X21299Y61400D01*
X21338Y61595D01*
X21299Y61790D01*
X21188Y61955D01*
X21161Y61974D01*
X21161Y90426D01*
X21188Y90445D01*
X21299Y90610D01*
X21338Y90805D01*
X21299Y91000D01*
X21188Y91165D01*
X21023Y91276D01*
X20828Y91315D01*
D02*
G37*
G36*
X31953Y60153D02*
X31669Y60116D01*
X31404Y60006D01*
X31177Y59832D01*
X31002Y59604D01*
X30993Y59583D01*
X27630D01*
X27621Y59604D01*
X27447Y59832D01*
X27219Y60006D01*
X26954Y60116D01*
X26670Y60153D01*
X26386Y60116D01*
X26121Y60006D01*
X25893Y59832D01*
X25719Y59604D01*
X25609Y59339D01*
X25572Y59055D01*
X25609Y58771D01*
X25719Y58506D01*
X25893Y58278D01*
X26121Y58104D01*
X26386Y57994D01*
X26670Y57957D01*
X26954Y57994D01*
X27219Y58104D01*
X27447Y58278D01*
X27621Y58506D01*
X27630Y58527D01*
X30993D01*
X31002Y58506D01*
X31177Y58278D01*
X31404Y58104D01*
X31669Y57994D01*
X31953Y57957D01*
X32237Y57994D01*
X32502Y58104D01*
X32730Y58278D01*
X32904Y58506D01*
X33014Y58771D01*
X33052Y59055D01*
X33014Y59339D01*
X32904Y59604D01*
X32730Y59832D01*
X32502Y60006D01*
X32237Y60116D01*
X31953Y60153D01*
D02*
G37*
G36*
X11430D02*
X11146Y60116D01*
X10881Y60006D01*
X10653Y59832D01*
X10479Y59604D01*
X10470Y59583D01*
X7107D01*
X7098Y59604D01*
X6923Y59832D01*
X6696Y60006D01*
X6431Y60116D01*
X6147Y60153D01*
X5863Y60116D01*
X5598Y60006D01*
X5370Y59832D01*
X5196Y59604D01*
X5086Y59339D01*
X5048Y59055D01*
X5086Y58771D01*
X5196Y58506D01*
X5370Y58278D01*
X5598Y58104D01*
X5863Y57994D01*
X6147Y57957D01*
X6431Y57994D01*
X6696Y58104D01*
X6923Y58278D01*
X7098Y58506D01*
X7107Y58527D01*
X10470D01*
X10479Y58506D01*
X10653Y58278D01*
X10881Y58104D01*
X11146Y57994D01*
X11430Y57957D01*
X11714Y57994D01*
X11979Y58104D01*
X12207Y58278D01*
X12381Y58506D01*
X12491Y58771D01*
X12528Y59055D01*
X12491Y59339D01*
X12381Y59604D01*
X12207Y59832D01*
X11979Y60006D01*
X11714Y60116D01*
X11430Y60153D01*
D02*
G37*
G36*
X31547Y57613D02*
X31263Y57576D01*
X30998Y57466D01*
X30770Y57292D01*
X30596Y57064D01*
X30587Y57043D01*
X27630D01*
X27621Y57064D01*
X27447Y57292D01*
X27219Y57466D01*
X26954Y57576D01*
X26670Y57613D01*
X26386Y57576D01*
X26121Y57466D01*
X25893Y57292D01*
X25719Y57064D01*
X25609Y56799D01*
X25572Y56515D01*
X25609Y56231D01*
X25719Y55966D01*
X25893Y55738D01*
X26121Y55564D01*
X26386Y55454D01*
X26670Y55417D01*
X26954Y55454D01*
X27219Y55564D01*
X27447Y55738D01*
X27621Y55966D01*
X27630Y55987D01*
X30587D01*
X30596Y55966D01*
X30770Y55738D01*
X30998Y55564D01*
X31263Y55454D01*
X31547Y55417D01*
X31831Y55454D01*
X32096Y55564D01*
X32323Y55738D01*
X32498Y55966D01*
X32587Y56182D01*
X33517D01*
X34338Y55361D01*
Y50544D01*
X34311Y50525D01*
X34200Y50360D01*
X34161Y50165D01*
X34200Y49970D01*
X34311Y49805D01*
X34465Y49702D01*
Y21334D01*
X34438Y21315D01*
X34327Y21150D01*
X34288Y20955D01*
X34327Y20760D01*
X34438Y20595D01*
X34603Y20484D01*
X34798Y20445D01*
X34993Y20484D01*
X35158Y20595D01*
X35269Y20760D01*
X35308Y20955D01*
X35269Y21150D01*
X35158Y21315D01*
X35131Y21334D01*
Y49954D01*
X35142Y49970D01*
X35181Y50165D01*
X35142Y50360D01*
X35031Y50525D01*
X35004Y50544D01*
Y55499D01*
X34979Y55627D01*
X34907Y55735D01*
X33891Y56751D01*
X33783Y56823D01*
X33655Y56848D01*
X32587D01*
X32498Y57064D01*
X32323Y57292D01*
X32096Y57466D01*
X31831Y57576D01*
X31547Y57613D01*
D02*
G37*
G36*
X11430D02*
X11146Y57576D01*
X10881Y57466D01*
X10653Y57292D01*
X10479Y57064D01*
X10470Y57043D01*
X7513D01*
X7504Y57064D01*
X7330Y57292D01*
X7102Y57466D01*
X6837Y57576D01*
X6553Y57613D01*
X6269Y57576D01*
X6004Y57466D01*
X5777Y57292D01*
X5602Y57064D01*
X5492Y56799D01*
X5455Y56515D01*
X5492Y56231D01*
X5602Y55966D01*
X5777Y55738D01*
X6004Y55564D01*
X6269Y55454D01*
X6553Y55417D01*
X6837Y55454D01*
X7102Y55564D01*
X7330Y55738D01*
X7504Y55966D01*
X7513Y55987D01*
X10470D01*
X10479Y55966D01*
X10653Y55738D01*
X10881Y55564D01*
X11146Y55454D01*
X11430Y55417D01*
X11714Y55454D01*
X11979Y55564D01*
X12207Y55738D01*
X12381Y55966D01*
X12471Y56182D01*
X13145D01*
X13637Y55690D01*
Y48004D01*
X13610Y47985D01*
X13499Y47820D01*
X13460Y47625D01*
X13499Y47430D01*
X13610Y47265D01*
X13775Y47154D01*
X13970Y47115D01*
X14165Y47154D01*
X14330Y47265D01*
X14441Y47430D01*
X14480Y47625D01*
X14441Y47820D01*
X14330Y47985D01*
X14303Y48004D01*
Y55828D01*
X14278Y55956D01*
X14206Y56064D01*
X13519Y56751D01*
X13411Y56823D01*
X13283Y56848D01*
X12471D01*
X12381Y57064D01*
X12207Y57292D01*
X11979Y57466D01*
X11714Y57576D01*
X11430Y57613D01*
D02*
G37*
G36*
X43370Y56914D02*
Y56071D01*
X44214D01*
X44203Y56154D01*
X44097Y56410D01*
X43929Y56629D01*
X43710Y56797D01*
X43454Y56903D01*
X43370Y56914D01*
D02*
G37*
G36*
X42989Y56914D02*
X42906Y56903D01*
X42650Y56797D01*
X42431Y56629D01*
X42263Y56410D01*
X42157Y56154D01*
X42146Y56071D01*
X42989D01*
Y56914D01*
D02*
G37*
G36*
X70802Y56914D02*
Y56070D01*
X71646D01*
X71635Y56154D01*
X71529Y56410D01*
X71361Y56629D01*
X71142Y56797D01*
X70886Y56903D01*
X70802Y56914D01*
D02*
G37*
G36*
X70421Y56914D02*
X70338Y56903D01*
X70082Y56797D01*
X69863Y56629D01*
X69695Y56410D01*
X69589Y56154D01*
X69578Y56070D01*
X70421D01*
Y56914D01*
D02*
G37*
G36*
X42989Y55690D02*
X42146D01*
X42157Y55606D01*
X42263Y55350D01*
X42431Y55131D01*
X42650Y54963D01*
X42906Y54857D01*
X42989Y54846D01*
Y55690D01*
D02*
G37*
G36*
X70421Y55689D02*
X69578D01*
X69589Y55606D01*
X69695Y55350D01*
X69863Y55131D01*
X70082Y54963D01*
X70338Y54857D01*
X70421Y54846D01*
Y55689D01*
D02*
G37*
G36*
X71646D02*
X70802D01*
Y54846D01*
X70886Y54857D01*
X71142Y54963D01*
X71361Y55131D01*
X71529Y55350D01*
X71635Y55606D01*
X71646Y55689D01*
D02*
G37*
G36*
X44214Y55690D02*
X43370D01*
Y54846D01*
X43454Y54857D01*
X43710Y54963D01*
X43929Y55131D01*
X44097Y55350D01*
X44203Y55606D01*
X44214Y55690D01*
D02*
G37*
G36*
X31953Y55073D02*
X31669Y55036D01*
X31404Y54926D01*
X31177Y54752D01*
X31002Y54524D01*
X30993Y54503D01*
X27630D01*
X27621Y54524D01*
X27447Y54752D01*
X27219Y54926D01*
X26954Y55036D01*
X26670Y55073D01*
X26386Y55036D01*
X26121Y54926D01*
X25893Y54752D01*
X25719Y54524D01*
X25609Y54259D01*
X25572Y53975D01*
X25609Y53691D01*
X25719Y53426D01*
X25893Y53198D01*
X26121Y53024D01*
X26386Y52914D01*
X26670Y52877D01*
X26954Y52914D01*
X27219Y53024D01*
X27447Y53198D01*
X27621Y53426D01*
X27630Y53447D01*
X30993D01*
X31002Y53426D01*
X31177Y53198D01*
X31404Y53024D01*
X31669Y52914D01*
X31953Y52877D01*
X32237Y52914D01*
X32502Y53024D01*
X32730Y53198D01*
X32904Y53426D01*
X32946Y53525D01*
X33095Y53555D01*
X33317Y53334D01*
X33317Y5466D01*
X33342Y5338D01*
X33414Y5230D01*
X36975Y1669D01*
X36975Y1669D01*
X37083Y1597D01*
X37211Y1572D01*
X57658Y1572D01*
X57786Y1597D01*
X57894Y1669D01*
X58656Y2431D01*
X58728Y2539D01*
X58753Y2667D01*
Y2812D01*
X58950Y2893D01*
X59169Y3061D01*
X59337Y3280D01*
X59443Y3536D01*
X59479Y3810D01*
X59443Y4084D01*
X59337Y4340D01*
X59169Y4559D01*
X58950Y4727D01*
X58694Y4833D01*
X58420Y4869D01*
X58146Y4833D01*
X57890Y4727D01*
X57671Y4559D01*
X57503Y4340D01*
X57397Y4084D01*
X57361Y3810D01*
X57397Y3536D01*
X57503Y3280D01*
X57671Y3061D01*
X57890Y2893D01*
X57964Y2862D01*
X57994Y2712D01*
X57520Y2238D01*
X37349Y2238D01*
X33983Y5604D01*
X33983Y53472D01*
X33958Y53600D01*
X33886Y53708D01*
X33383Y54211D01*
X33275Y54283D01*
X33147Y54308D01*
X32994D01*
X32904Y54524D01*
X32730Y54752D01*
X32502Y54926D01*
X32237Y55036D01*
X31953Y55073D01*
D02*
G37*
G36*
X11430D02*
X11146Y55036D01*
X10881Y54926D01*
X10653Y54752D01*
X10479Y54524D01*
X10470Y54503D01*
X7107D01*
X7098Y54524D01*
X6923Y54752D01*
X6696Y54926D01*
X6431Y55036D01*
X6147Y55073D01*
X5863Y55036D01*
X5598Y54926D01*
X5370Y54752D01*
X5196Y54524D01*
X5086Y54259D01*
X5048Y53975D01*
X5086Y53691D01*
X5196Y53426D01*
X5370Y53198D01*
X5598Y53024D01*
X5863Y52914D01*
X6147Y52877D01*
X6431Y52914D01*
X6696Y53024D01*
X6923Y53198D01*
X7098Y53426D01*
X7107Y53447D01*
X10470D01*
X10479Y53426D01*
X10653Y53198D01*
X10881Y53024D01*
X11146Y52914D01*
X11430Y52877D01*
X11714Y52914D01*
X11979Y53024D01*
X12207Y53198D01*
X12381Y53426D01*
X12491Y53691D01*
X12528Y53975D01*
X12491Y54259D01*
X12381Y54524D01*
X12207Y54752D01*
X11979Y54926D01*
X11714Y55036D01*
X11430Y55073D01*
D02*
G37*
G36*
X70612Y54399D02*
X70338Y54363D01*
X70082Y54257D01*
X69863Y54089D01*
X69695Y53870D01*
X69589Y53614D01*
X69553Y53340D01*
X69589Y53066D01*
X69695Y52810D01*
X69863Y52591D01*
X70082Y52423D01*
X70338Y52317D01*
X70612Y52281D01*
X70886Y52317D01*
X71142Y52423D01*
X71361Y52591D01*
X71529Y52810D01*
X71635Y53066D01*
X71671Y53340D01*
X71635Y53614D01*
X71529Y53870D01*
X71361Y54089D01*
X71142Y54257D01*
X70886Y54363D01*
X70612Y54399D01*
D02*
G37*
G36*
X68072D02*
X67798Y54363D01*
X67542Y54257D01*
X67323Y54089D01*
X67155Y53870D01*
X67049Y53614D01*
X67013Y53340D01*
X67049Y53066D01*
X67155Y52810D01*
X67323Y52591D01*
X67542Y52423D01*
X67798Y52317D01*
X68072Y52281D01*
X68346Y52317D01*
X68602Y52423D01*
X68821Y52591D01*
X68989Y52810D01*
X69095Y53066D01*
X69131Y53340D01*
X69095Y53614D01*
X68989Y53870D01*
X68821Y54089D01*
X68602Y54257D01*
X68346Y54363D01*
X68072Y54399D01*
D02*
G37*
G36*
X31547Y52533D02*
X31263Y52496D01*
X30998Y52386D01*
X30770Y52212D01*
X30596Y51984D01*
X30587Y51963D01*
X27630D01*
X27621Y51984D01*
X27447Y52212D01*
X27219Y52386D01*
X26954Y52496D01*
X26670Y52533D01*
X26386Y52496D01*
X26121Y52386D01*
X25893Y52212D01*
X25719Y51984D01*
X25609Y51719D01*
X25572Y51435D01*
X25609Y51151D01*
X25719Y50886D01*
X25893Y50658D01*
X26121Y50484D01*
X26386Y50374D01*
X26670Y50337D01*
X26954Y50374D01*
X27219Y50484D01*
X27447Y50658D01*
X27621Y50886D01*
X27630Y50907D01*
X30587D01*
X30596Y50886D01*
X30770Y50658D01*
X30998Y50484D01*
X31263Y50374D01*
X31547Y50337D01*
X31831Y50374D01*
X32096Y50484D01*
X32323Y50658D01*
X32498Y50886D01*
X32608Y51151D01*
X32645Y51435D01*
X32608Y51719D01*
X32498Y51984D01*
X32323Y52212D01*
X32096Y52386D01*
X31831Y52496D01*
X31547Y52533D01*
D02*
G37*
G36*
X11430D02*
X11146Y52496D01*
X10881Y52386D01*
X10653Y52212D01*
X10479Y51984D01*
X10470Y51963D01*
X7513D01*
X7504Y51984D01*
X7330Y52212D01*
X7102Y52386D01*
X6837Y52496D01*
X6553Y52533D01*
X6269Y52496D01*
X6004Y52386D01*
X5777Y52212D01*
X5602Y51984D01*
X5492Y51719D01*
X5455Y51435D01*
X5492Y51151D01*
X5602Y50886D01*
X5777Y50658D01*
X6004Y50484D01*
X6269Y50374D01*
X6553Y50337D01*
X6837Y50374D01*
X7102Y50484D01*
X7330Y50658D01*
X7504Y50886D01*
X7513Y50907D01*
X10470D01*
X10479Y50886D01*
X10653Y50658D01*
X10881Y50484D01*
X11146Y50374D01*
X11430Y50337D01*
X11714Y50374D01*
X11979Y50484D01*
X12207Y50658D01*
X12381Y50886D01*
X12491Y51151D01*
X12528Y51435D01*
X12491Y51719D01*
X12381Y51984D01*
X12207Y52212D01*
X11979Y52386D01*
X11714Y52496D01*
X11430Y52533D01*
D02*
G37*
G36*
X70612Y51859D02*
X70338Y51823D01*
X70082Y51717D01*
X69863Y51549D01*
X69695Y51330D01*
X69589Y51074D01*
X69553Y50800D01*
X69589Y50526D01*
X69695Y50270D01*
X69863Y50051D01*
X70082Y49883D01*
X70338Y49777D01*
X70612Y49741D01*
X70886Y49777D01*
X71142Y49883D01*
X71361Y50051D01*
X71529Y50270D01*
X71635Y50526D01*
X71671Y50800D01*
X71635Y51074D01*
X71529Y51330D01*
X71361Y51549D01*
X71142Y51717D01*
X70886Y51823D01*
X70612Y51859D01*
D02*
G37*
G36*
X68072D02*
X67798Y51823D01*
X67542Y51717D01*
X67323Y51549D01*
X67155Y51330D01*
X67049Y51074D01*
X67013Y50800D01*
X67049Y50526D01*
X67155Y50270D01*
X67323Y50051D01*
X67542Y49883D01*
X67798Y49777D01*
X68072Y49741D01*
X68346Y49777D01*
X68602Y49883D01*
X68821Y50051D01*
X68989Y50270D01*
X69095Y50526D01*
X69131Y50800D01*
X69095Y51074D01*
X68989Y51330D01*
X68821Y51549D01*
X68602Y51717D01*
X68346Y51823D01*
X68072Y51859D01*
D02*
G37*
G36*
X31953Y49993D02*
X31669Y49956D01*
X31404Y49846D01*
X31177Y49672D01*
X31002Y49444D01*
X30993Y49423D01*
X27630D01*
X27621Y49444D01*
X27447Y49672D01*
X27219Y49846D01*
X26954Y49956D01*
X26670Y49993D01*
X26386Y49956D01*
X26121Y49846D01*
X25893Y49672D01*
X25719Y49444D01*
X25609Y49179D01*
X25572Y48895D01*
X25609Y48611D01*
X25719Y48346D01*
X25893Y48118D01*
X26121Y47944D01*
X26386Y47834D01*
X26670Y47797D01*
X26954Y47834D01*
X27219Y47944D01*
X27447Y48118D01*
X27621Y48346D01*
X27630Y48367D01*
X30993D01*
X31002Y48346D01*
X31177Y48118D01*
X31404Y47944D01*
X31669Y47834D01*
X31953Y47797D01*
X32237Y47834D01*
X32502Y47944D01*
X32730Y48118D01*
X32904Y48346D01*
X33014Y48611D01*
X33052Y48895D01*
X33014Y49179D01*
X32904Y49444D01*
X32730Y49672D01*
X32502Y49846D01*
X32237Y49956D01*
X31953Y49993D01*
D02*
G37*
G36*
X11430D02*
X11146Y49956D01*
X10881Y49846D01*
X10653Y49672D01*
X10479Y49444D01*
X10470Y49423D01*
X7107D01*
X7098Y49444D01*
X6923Y49672D01*
X6696Y49846D01*
X6431Y49956D01*
X6147Y49993D01*
X5863Y49956D01*
X5598Y49846D01*
X5370Y49672D01*
X5196Y49444D01*
X5086Y49179D01*
X5048Y48895D01*
X5086Y48611D01*
X5196Y48346D01*
X5370Y48118D01*
X5598Y47944D01*
X5863Y47834D01*
X6147Y47797D01*
X6431Y47834D01*
X6696Y47944D01*
X6923Y48118D01*
X7098Y48346D01*
X7107Y48367D01*
X10470D01*
X10479Y48346D01*
X10653Y48118D01*
X10881Y47944D01*
X11146Y47834D01*
X11430Y47797D01*
X11714Y47834D01*
X11979Y47944D01*
X12207Y48118D01*
X12381Y48346D01*
X12491Y48611D01*
X12528Y48895D01*
X12491Y49179D01*
X12381Y49444D01*
X12207Y49672D01*
X11979Y49846D01*
X11714Y49956D01*
X11430Y49993D01*
D02*
G37*
G36*
X70612Y49319D02*
X70338Y49283D01*
X70082Y49177D01*
X69863Y49009D01*
X69695Y48790D01*
X69589Y48534D01*
X69553Y48260D01*
X69589Y47986D01*
X69695Y47730D01*
X69863Y47511D01*
X70082Y47343D01*
X70338Y47237D01*
X70612Y47201D01*
X70886Y47237D01*
X71142Y47343D01*
X71361Y47511D01*
X71529Y47730D01*
X71635Y47986D01*
X71671Y48260D01*
X71635Y48534D01*
X71529Y48790D01*
X71361Y49009D01*
X71142Y49177D01*
X70886Y49283D01*
X70612Y49319D01*
D02*
G37*
G36*
X68072D02*
X67798Y49283D01*
X67542Y49177D01*
X67323Y49009D01*
X67155Y48790D01*
X67049Y48534D01*
X67013Y48260D01*
X67049Y47986D01*
X67155Y47730D01*
X67323Y47511D01*
X67542Y47343D01*
X67798Y47237D01*
X68072Y47201D01*
X68346Y47237D01*
X68602Y47343D01*
X68821Y47511D01*
X68989Y47730D01*
X69095Y47986D01*
X69131Y48260D01*
X69095Y48534D01*
X68989Y48790D01*
X68821Y49009D01*
X68602Y49177D01*
X68346Y49283D01*
X68072Y49319D01*
D02*
G37*
G36*
X31547Y47453D02*
X31263Y47416D01*
X30998Y47306D01*
X30770Y47132D01*
X30596Y46904D01*
X30587Y46883D01*
X27630D01*
X27621Y46904D01*
X27447Y47132D01*
X27219Y47306D01*
X26954Y47416D01*
X26670Y47453D01*
X26386Y47416D01*
X26121Y47306D01*
X25893Y47132D01*
X25719Y46904D01*
X25609Y46639D01*
X25572Y46355D01*
X25609Y46071D01*
X25719Y45806D01*
X25893Y45578D01*
X26121Y45404D01*
X26386Y45294D01*
X26670Y45257D01*
X26954Y45294D01*
X27219Y45404D01*
X27447Y45578D01*
X27621Y45806D01*
X27630Y45827D01*
X30587D01*
X30596Y45806D01*
X30770Y45578D01*
X30998Y45404D01*
X31263Y45294D01*
X31547Y45257D01*
X31831Y45294D01*
X32096Y45404D01*
X32323Y45578D01*
X32498Y45806D01*
X32608Y46071D01*
X32645Y46355D01*
X32608Y46639D01*
X32498Y46904D01*
X32323Y47132D01*
X32096Y47306D01*
X31831Y47416D01*
X31547Y47453D01*
D02*
G37*
G36*
X11430D02*
X11146Y47416D01*
X10881Y47306D01*
X10653Y47132D01*
X10479Y46904D01*
X10470Y46883D01*
X7513D01*
X7504Y46904D01*
X7330Y47132D01*
X7102Y47306D01*
X6837Y47416D01*
X6553Y47453D01*
X6269Y47416D01*
X6004Y47306D01*
X5777Y47132D01*
X5602Y46904D01*
X5492Y46639D01*
X5455Y46355D01*
X5492Y46071D01*
X5602Y45806D01*
X5777Y45578D01*
X6004Y45404D01*
X6269Y45294D01*
X6553Y45257D01*
X6837Y45294D01*
X7102Y45404D01*
X7330Y45578D01*
X7504Y45806D01*
X7513Y45827D01*
X10470D01*
X10479Y45806D01*
X10653Y45578D01*
X10881Y45404D01*
X11146Y45294D01*
X11430Y45257D01*
X11714Y45294D01*
X11979Y45404D01*
X12207Y45578D01*
X12381Y45806D01*
X12491Y46071D01*
X12528Y46355D01*
X12491Y46639D01*
X12381Y46904D01*
X12207Y47132D01*
X11979Y47306D01*
X11714Y47416D01*
X11430Y47453D01*
D02*
G37*
G36*
X70612Y46779D02*
X70338Y46743D01*
X70082Y46637D01*
X69863Y46469D01*
X69695Y46250D01*
X69589Y45994D01*
X69553Y45720D01*
X69589Y45446D01*
X69695Y45190D01*
X69863Y44971D01*
X70082Y44803D01*
X70338Y44697D01*
X70612Y44661D01*
X70886Y44697D01*
X71142Y44803D01*
X71361Y44971D01*
X71529Y45190D01*
X71635Y45446D01*
X71671Y45720D01*
X71635Y45994D01*
X71529Y46250D01*
X71361Y46469D01*
X71142Y46637D01*
X70886Y46743D01*
X70612Y46779D01*
D02*
G37*
G36*
X68072D02*
X67798Y46743D01*
X67542Y46637D01*
X67323Y46469D01*
X67155Y46250D01*
X67049Y45994D01*
X67013Y45720D01*
X67049Y45446D01*
X67155Y45190D01*
X67323Y44971D01*
X67542Y44803D01*
X67798Y44697D01*
X68072Y44661D01*
X68346Y44697D01*
X68602Y44803D01*
X68821Y44971D01*
X68989Y45190D01*
X69095Y45446D01*
X69131Y45720D01*
X69095Y45994D01*
X68989Y46250D01*
X68821Y46469D01*
X68602Y46637D01*
X68346Y46743D01*
X68072Y46779D01*
D02*
G37*
G36*
X31953Y44913D02*
X31669Y44876D01*
X31404Y44766D01*
X31177Y44592D01*
X31002Y44364D01*
X30993Y44343D01*
X27630D01*
X27621Y44364D01*
X27447Y44592D01*
X27219Y44766D01*
X26954Y44876D01*
X26670Y44913D01*
X26386Y44876D01*
X26121Y44766D01*
X25893Y44592D01*
X25719Y44364D01*
X25609Y44099D01*
X25572Y43815D01*
X25609Y43531D01*
X25719Y43266D01*
X25893Y43038D01*
X26121Y42864D01*
X26386Y42754D01*
X26670Y42717D01*
X26954Y42754D01*
X27219Y42864D01*
X27447Y43038D01*
X27621Y43266D01*
X27630Y43287D01*
X30993D01*
X31002Y43266D01*
X31177Y43038D01*
X31404Y42864D01*
X31669Y42754D01*
X31953Y42717D01*
X32237Y42754D01*
X32502Y42864D01*
X32730Y43038D01*
X32904Y43266D01*
X33014Y43531D01*
X33052Y43815D01*
X33014Y44099D01*
X32904Y44364D01*
X32730Y44592D01*
X32502Y44766D01*
X32237Y44876D01*
X31953Y44913D01*
D02*
G37*
G36*
X11430D02*
X11146Y44876D01*
X10881Y44766D01*
X10653Y44592D01*
X10479Y44364D01*
X10470Y44343D01*
X7107D01*
X7098Y44364D01*
X6923Y44592D01*
X6696Y44766D01*
X6431Y44876D01*
X6147Y44913D01*
X5863Y44876D01*
X5598Y44766D01*
X5370Y44592D01*
X5196Y44364D01*
X5086Y44099D01*
X5048Y43815D01*
X5086Y43531D01*
X5196Y43266D01*
X5370Y43038D01*
X5598Y42864D01*
X5863Y42754D01*
X6147Y42717D01*
X6431Y42754D01*
X6696Y42864D01*
X6923Y43038D01*
X7098Y43266D01*
X7107Y43287D01*
X10470D01*
X10479Y43266D01*
X10653Y43038D01*
X10881Y42864D01*
X11146Y42754D01*
X11430Y42717D01*
X11714Y42754D01*
X11979Y42864D01*
X12207Y43038D01*
X12381Y43266D01*
X12491Y43531D01*
X12528Y43815D01*
X12491Y44099D01*
X12381Y44364D01*
X12207Y44592D01*
X11979Y44766D01*
X11714Y44876D01*
X11430Y44913D01*
D02*
G37*
G36*
X70612Y44239D02*
X70338Y44203D01*
X70082Y44097D01*
X69863Y43929D01*
X69695Y43710D01*
X69589Y43454D01*
X69553Y43180D01*
X69589Y42906D01*
X69695Y42650D01*
X69863Y42431D01*
X70082Y42263D01*
X70338Y42157D01*
X70612Y42121D01*
X70886Y42157D01*
X71142Y42263D01*
X71361Y42431D01*
X71529Y42650D01*
X71635Y42906D01*
X71671Y43180D01*
X71635Y43454D01*
X71529Y43710D01*
X71361Y43929D01*
X71142Y44097D01*
X70886Y44203D01*
X70612Y44239D01*
D02*
G37*
G36*
X68072D02*
X67798Y44203D01*
X67542Y44097D01*
X67323Y43929D01*
X67155Y43710D01*
X67049Y43454D01*
X67013Y43180D01*
X67049Y42906D01*
X67155Y42650D01*
X67323Y42431D01*
X67542Y42263D01*
X67798Y42157D01*
X68072Y42121D01*
X68346Y42157D01*
X68602Y42263D01*
X68821Y42431D01*
X68989Y42650D01*
X69095Y42906D01*
X69131Y43180D01*
X69095Y43454D01*
X68989Y43710D01*
X68821Y43929D01*
X68602Y44097D01*
X68346Y44203D01*
X68072Y44239D01*
D02*
G37*
G36*
X11621Y42348D02*
Y41465D01*
X12503D01*
X12491Y41559D01*
X12381Y41824D01*
X12207Y42052D01*
X11979Y42226D01*
X11714Y42336D01*
X11621Y42348D01*
D02*
G37*
G36*
X6744D02*
Y41465D01*
X7627D01*
X7614Y41559D01*
X7504Y41824D01*
X7330Y42052D01*
X7102Y42226D01*
X6837Y42336D01*
X6744Y42348D01*
D02*
G37*
G36*
X31737D02*
Y41465D01*
X32620D01*
X32608Y41559D01*
X32498Y41824D01*
X32323Y42052D01*
X32096Y42226D01*
X31831Y42336D01*
X31737Y42348D01*
D02*
G37*
G36*
X26861D02*
Y41465D01*
X27743D01*
X27731Y41559D01*
X27621Y41824D01*
X27447Y42052D01*
X27219Y42226D01*
X26954Y42336D01*
X26861Y42348D01*
D02*
G37*
G36*
X11240D02*
X11146Y42336D01*
X10881Y42226D01*
X10653Y42052D01*
X10479Y41824D01*
X10369Y41559D01*
X10357Y41465D01*
X11240D01*
Y42348D01*
D02*
G37*
G36*
X6363D02*
X6269Y42336D01*
X6004Y42226D01*
X5777Y42052D01*
X5602Y41824D01*
X5492Y41559D01*
X5480Y41465D01*
X6363D01*
Y42348D01*
D02*
G37*
G36*
X31356D02*
X31263Y42336D01*
X30998Y42226D01*
X30770Y42052D01*
X30596Y41824D01*
X30486Y41559D01*
X30473Y41465D01*
X31356D01*
Y42348D01*
D02*
G37*
G36*
X26480D02*
X26386Y42336D01*
X26121Y42226D01*
X25893Y42052D01*
X25719Y41824D01*
X25609Y41559D01*
X25597Y41465D01*
X26480D01*
Y42348D01*
D02*
G37*
G36*
X32620Y41084D02*
X31737D01*
Y40202D01*
X31831Y40214D01*
X32096Y40324D01*
X32323Y40498D01*
X32498Y40726D01*
X32608Y40991D01*
X32620Y41084D01*
D02*
G37*
G36*
X27743D02*
X26861D01*
Y40202D01*
X26954Y40214D01*
X27219Y40324D01*
X27447Y40498D01*
X27621Y40726D01*
X27731Y40991D01*
X27743Y41084D01*
D02*
G37*
G36*
X12503D02*
X11621D01*
Y40202D01*
X11714Y40214D01*
X11979Y40324D01*
X12207Y40498D01*
X12381Y40726D01*
X12491Y40991D01*
X12503Y41084D01*
D02*
G37*
G36*
X7627D02*
X6744D01*
Y40202D01*
X6837Y40214D01*
X7102Y40324D01*
X7330Y40498D01*
X7504Y40726D01*
X7614Y40991D01*
X7627Y41084D01*
D02*
G37*
G36*
X31356D02*
X30473D01*
X30486Y40991D01*
X30596Y40726D01*
X30770Y40498D01*
X30998Y40324D01*
X31263Y40214D01*
X31356Y40202D01*
Y41084D01*
D02*
G37*
G36*
X26480D02*
X25597D01*
X25609Y40991D01*
X25719Y40726D01*
X25893Y40498D01*
X26121Y40324D01*
X26386Y40214D01*
X26480Y40202D01*
Y41084D01*
D02*
G37*
G36*
X11240D02*
X10357D01*
X10369Y40991D01*
X10479Y40726D01*
X10653Y40498D01*
X10881Y40324D01*
X11146Y40214D01*
X11240Y40202D01*
Y41084D01*
D02*
G37*
G36*
X6363D02*
X5480D01*
X5492Y40991D01*
X5602Y40726D01*
X5777Y40498D01*
X6004Y40324D01*
X6269Y40214D01*
X6363Y40202D01*
Y41084D01*
D02*
G37*
G36*
X70612Y41699D02*
X70338Y41663D01*
X70082Y41557D01*
X69863Y41389D01*
X69695Y41170D01*
X69589Y40914D01*
X69553Y40640D01*
X69589Y40366D01*
X69695Y40110D01*
X69863Y39891D01*
X70082Y39723D01*
X70338Y39617D01*
X70612Y39581D01*
X70886Y39617D01*
X71142Y39723D01*
X71361Y39891D01*
X71529Y40110D01*
X71635Y40366D01*
X71671Y40640D01*
X71635Y40914D01*
X71529Y41170D01*
X71361Y41389D01*
X71142Y41557D01*
X70886Y41663D01*
X70612Y41699D01*
D02*
G37*
G36*
X68072D02*
X67798Y41663D01*
X67542Y41557D01*
X67323Y41389D01*
X67155Y41170D01*
X67049Y40914D01*
X67013Y40640D01*
X67049Y40366D01*
X67155Y40110D01*
X67323Y39891D01*
X67542Y39723D01*
X67798Y39617D01*
X68072Y39581D01*
X68346Y39617D01*
X68602Y39723D01*
X68821Y39891D01*
X68989Y40110D01*
X69095Y40366D01*
X69131Y40640D01*
X69095Y40914D01*
X68989Y41170D01*
X68821Y41389D01*
X68602Y41557D01*
X68346Y41663D01*
X68072Y41699D01*
D02*
G37*
G36*
X31953Y39833D02*
X31669Y39796D01*
X31404Y39686D01*
X31177Y39512D01*
X31002Y39284D01*
X30993Y39263D01*
X27630D01*
X27621Y39284D01*
X27447Y39512D01*
X27219Y39686D01*
X26954Y39796D01*
X26670Y39833D01*
X26386Y39796D01*
X26121Y39686D01*
X25893Y39512D01*
X25719Y39284D01*
X25609Y39019D01*
X25572Y38735D01*
X25609Y38451D01*
X25719Y38186D01*
X25893Y37958D01*
X26121Y37784D01*
X26386Y37674D01*
X26670Y37637D01*
X26954Y37674D01*
X27219Y37784D01*
X27447Y37958D01*
X27621Y38186D01*
X27630Y38207D01*
X30993D01*
X31002Y38186D01*
X31177Y37958D01*
X31404Y37784D01*
X31669Y37674D01*
X31953Y37637D01*
X32237Y37674D01*
X32502Y37784D01*
X32730Y37958D01*
X32904Y38186D01*
X33014Y38451D01*
X33052Y38735D01*
X33014Y39019D01*
X32904Y39284D01*
X32730Y39512D01*
X32502Y39686D01*
X32237Y39796D01*
X31953Y39833D01*
D02*
G37*
G36*
X11430D02*
X11146Y39796D01*
X10881Y39686D01*
X10653Y39512D01*
X10479Y39284D01*
X10470Y39263D01*
X7107D01*
X7098Y39284D01*
X6923Y39512D01*
X6696Y39686D01*
X6431Y39796D01*
X6147Y39833D01*
X5863Y39796D01*
X5598Y39686D01*
X5370Y39512D01*
X5196Y39284D01*
X5086Y39019D01*
X5048Y38735D01*
X5086Y38451D01*
X5196Y38186D01*
X5370Y37958D01*
X5598Y37784D01*
X5863Y37674D01*
X6147Y37637D01*
X6431Y37674D01*
X6696Y37784D01*
X6923Y37958D01*
X7098Y38186D01*
X7107Y38207D01*
X10470D01*
X10479Y38186D01*
X10653Y37958D01*
X10881Y37784D01*
X11146Y37674D01*
X11430Y37637D01*
X11714Y37674D01*
X11979Y37784D01*
X12207Y37958D01*
X12381Y38186D01*
X12491Y38451D01*
X12528Y38735D01*
X12491Y39019D01*
X12381Y39284D01*
X12207Y39512D01*
X11979Y39686D01*
X11714Y39796D01*
X11430Y39833D01*
D02*
G37*
G36*
X70612Y39159D02*
X70338Y39123D01*
X70082Y39017D01*
X69863Y38849D01*
X69695Y38630D01*
X69589Y38374D01*
X69553Y38100D01*
X69589Y37826D01*
X69695Y37570D01*
X69863Y37351D01*
X70082Y37183D01*
X70338Y37077D01*
X70612Y37041D01*
X70886Y37077D01*
X71142Y37183D01*
X71361Y37351D01*
X71529Y37570D01*
X71635Y37826D01*
X71671Y38100D01*
X71635Y38374D01*
X71529Y38630D01*
X71361Y38849D01*
X71142Y39017D01*
X70886Y39123D01*
X70612Y39159D01*
D02*
G37*
G36*
X68072D02*
X67798Y39123D01*
X67542Y39017D01*
X67323Y38849D01*
X67155Y38630D01*
X67049Y38374D01*
X67013Y38100D01*
X67049Y37826D01*
X67155Y37570D01*
X67323Y37351D01*
X67542Y37183D01*
X67798Y37077D01*
X68072Y37041D01*
X68346Y37077D01*
X68602Y37183D01*
X68821Y37351D01*
X68989Y37570D01*
X69095Y37826D01*
X69131Y38100D01*
X69095Y38374D01*
X68989Y38630D01*
X68821Y38849D01*
X68602Y39017D01*
X68346Y39123D01*
X68072Y39159D01*
D02*
G37*
G36*
X31547Y37293D02*
X31263Y37256D01*
X30998Y37146D01*
X30770Y36972D01*
X30596Y36744D01*
X30587Y36723D01*
X27630D01*
X27621Y36744D01*
X27447Y36972D01*
X27219Y37146D01*
X26954Y37256D01*
X26670Y37293D01*
X26386Y37256D01*
X26121Y37146D01*
X25893Y36972D01*
X25719Y36744D01*
X25609Y36479D01*
X25572Y36195D01*
X25609Y35911D01*
X25719Y35646D01*
X25893Y35418D01*
X26121Y35244D01*
X26386Y35134D01*
X26670Y35097D01*
X26954Y35134D01*
X27219Y35244D01*
X27447Y35418D01*
X27621Y35646D01*
X27630Y35667D01*
X30587D01*
X30596Y35646D01*
X30770Y35418D01*
X30998Y35244D01*
X31263Y35134D01*
X31547Y35097D01*
X31831Y35134D01*
X32096Y35244D01*
X32323Y35418D01*
X32498Y35646D01*
X32608Y35911D01*
X32645Y36195D01*
X32608Y36479D01*
X32498Y36744D01*
X32323Y36972D01*
X32096Y37146D01*
X31831Y37256D01*
X31547Y37293D01*
D02*
G37*
G36*
X11430D02*
X11146Y37256D01*
X10881Y37146D01*
X10653Y36972D01*
X10479Y36744D01*
X10470Y36723D01*
X7513D01*
X7504Y36744D01*
X7330Y36972D01*
X7102Y37146D01*
X6837Y37256D01*
X6553Y37293D01*
X6269Y37256D01*
X6004Y37146D01*
X5777Y36972D01*
X5602Y36744D01*
X5492Y36479D01*
X5455Y36195D01*
X5492Y35911D01*
X5602Y35646D01*
X5777Y35418D01*
X6004Y35244D01*
X6269Y35134D01*
X6553Y35097D01*
X6837Y35134D01*
X7102Y35244D01*
X7330Y35418D01*
X7504Y35646D01*
X7513Y35667D01*
X10470D01*
X10479Y35646D01*
X10653Y35418D01*
X10881Y35244D01*
X11146Y35134D01*
X11430Y35097D01*
X11714Y35134D01*
X11979Y35244D01*
X12207Y35418D01*
X12381Y35646D01*
X12491Y35911D01*
X12528Y36195D01*
X12491Y36479D01*
X12381Y36744D01*
X12207Y36972D01*
X11979Y37146D01*
X11714Y37256D01*
X11430Y37293D01*
D02*
G37*
G36*
X70612Y36619D02*
X70338Y36583D01*
X70082Y36477D01*
X69863Y36309D01*
X69695Y36090D01*
X69589Y35834D01*
X69553Y35560D01*
X69589Y35286D01*
X69695Y35030D01*
X69863Y34811D01*
X70082Y34643D01*
X70338Y34537D01*
X70612Y34501D01*
X70886Y34537D01*
X71142Y34643D01*
X71361Y34811D01*
X71529Y35030D01*
X71635Y35286D01*
X71671Y35560D01*
X71635Y35834D01*
X71529Y36090D01*
X71361Y36309D01*
X71142Y36477D01*
X70886Y36583D01*
X70612Y36619D01*
D02*
G37*
G36*
X68072D02*
X67798Y36583D01*
X67542Y36477D01*
X67323Y36309D01*
X67155Y36090D01*
X67049Y35834D01*
X67013Y35560D01*
X67049Y35286D01*
X67155Y35030D01*
X67323Y34811D01*
X67542Y34643D01*
X67798Y34537D01*
X68072Y34501D01*
X68346Y34537D01*
X68602Y34643D01*
X68821Y34811D01*
X68989Y35030D01*
X69095Y35286D01*
X69131Y35560D01*
X69095Y35834D01*
X68989Y36090D01*
X68821Y36309D01*
X68602Y36477D01*
X68346Y36583D01*
X68072Y36619D01*
D02*
G37*
G36*
X31953Y34753D02*
X31669Y34716D01*
X31404Y34606D01*
X31177Y34432D01*
X31002Y34204D01*
X30993Y34183D01*
X27630D01*
X27621Y34204D01*
X27447Y34432D01*
X27219Y34606D01*
X26954Y34716D01*
X26670Y34753D01*
X26386Y34716D01*
X26121Y34606D01*
X25893Y34432D01*
X25719Y34204D01*
X25609Y33939D01*
X25572Y33655D01*
X25609Y33371D01*
X25719Y33106D01*
X25893Y32878D01*
X26121Y32704D01*
X26386Y32594D01*
X26670Y32557D01*
X26954Y32594D01*
X27219Y32704D01*
X27447Y32878D01*
X27621Y33106D01*
X27630Y33127D01*
X30993D01*
X31002Y33106D01*
X31177Y32878D01*
X31404Y32704D01*
X31669Y32594D01*
X31953Y32557D01*
X32237Y32594D01*
X32502Y32704D01*
X32730Y32878D01*
X32904Y33106D01*
X33014Y33371D01*
X33052Y33655D01*
X33014Y33939D01*
X32904Y34204D01*
X32730Y34432D01*
X32502Y34606D01*
X32237Y34716D01*
X31953Y34753D01*
D02*
G37*
G36*
X11430D02*
X11146Y34716D01*
X10881Y34606D01*
X10653Y34432D01*
X10479Y34204D01*
X10470Y34183D01*
X7107D01*
X7098Y34204D01*
X6923Y34432D01*
X6696Y34606D01*
X6431Y34716D01*
X6147Y34753D01*
X5863Y34716D01*
X5598Y34606D01*
X5370Y34432D01*
X5196Y34204D01*
X5086Y33939D01*
X5048Y33655D01*
X5086Y33371D01*
X5196Y33106D01*
X5370Y32878D01*
X5598Y32704D01*
X5863Y32594D01*
X6147Y32557D01*
X6431Y32594D01*
X6696Y32704D01*
X6923Y32878D01*
X7098Y33106D01*
X7107Y33127D01*
X10470D01*
X10479Y33106D01*
X10653Y32878D01*
X10881Y32704D01*
X11146Y32594D01*
X11430Y32557D01*
X11714Y32594D01*
X11979Y32704D01*
X12207Y32878D01*
X12381Y33106D01*
X12491Y33371D01*
X12528Y33655D01*
X12491Y33939D01*
X12381Y34204D01*
X12207Y34432D01*
X11979Y34606D01*
X11714Y34716D01*
X11430Y34753D01*
D02*
G37*
G36*
X43370Y34054D02*
Y33211D01*
X44214D01*
X44203Y33294D01*
X44097Y33550D01*
X43929Y33769D01*
X43710Y33937D01*
X43454Y34043D01*
X43370Y34054D01*
D02*
G37*
G36*
X42989Y34054D02*
X42906Y34043D01*
X42650Y33937D01*
X42431Y33769D01*
X42263Y33550D01*
X42157Y33294D01*
X42146Y33211D01*
X42989D01*
Y34054D01*
D02*
G37*
G36*
X68262Y34054D02*
Y33210D01*
X69106D01*
X69095Y33294D01*
X68989Y33550D01*
X68821Y33769D01*
X68602Y33937D01*
X68346Y34043D01*
X68262Y34054D01*
D02*
G37*
G36*
X67881Y34054D02*
X67798Y34043D01*
X67542Y33937D01*
X67323Y33769D01*
X67155Y33550D01*
X67049Y33294D01*
X67038Y33210D01*
X67881D01*
Y34054D01*
D02*
G37*
G36*
X42989Y32830D02*
X42146D01*
X42157Y32746D01*
X42263Y32490D01*
X42431Y32271D01*
X42650Y32103D01*
X42906Y31997D01*
X42989Y31986D01*
Y32830D01*
D02*
G37*
G36*
X67881Y32829D02*
X67038D01*
X67049Y32746D01*
X67155Y32490D01*
X67323Y32271D01*
X67542Y32103D01*
X67798Y31997D01*
X67881Y31986D01*
Y32829D01*
D02*
G37*
G36*
X69106D02*
X68262D01*
Y31986D01*
X68346Y31997D01*
X68602Y32103D01*
X68821Y32271D01*
X68989Y32490D01*
X69095Y32746D01*
X69106Y32829D01*
D02*
G37*
G36*
X44214Y32830D02*
X43370D01*
Y31986D01*
X43454Y31997D01*
X43710Y32103D01*
X43929Y32271D01*
X44097Y32490D01*
X44203Y32746D01*
X44214Y32830D01*
D02*
G37*
G36*
X70612Y34079D02*
X70338Y34043D01*
X70082Y33937D01*
X69863Y33769D01*
X69695Y33550D01*
X69589Y33294D01*
X69553Y33020D01*
X69589Y32746D01*
X69695Y32490D01*
X69863Y32271D01*
X70082Y32103D01*
X70338Y31997D01*
X70612Y31961D01*
X70886Y31997D01*
X71142Y32103D01*
X71361Y32271D01*
X71529Y32490D01*
X71635Y32746D01*
X71671Y33020D01*
X71635Y33294D01*
X71529Y33550D01*
X71361Y33769D01*
X71142Y33937D01*
X70886Y34043D01*
X70612Y34079D01*
D02*
G37*
G36*
X31547Y32213D02*
X31263Y32176D01*
X30998Y32066D01*
X30770Y31892D01*
X30596Y31664D01*
X30587Y31643D01*
X27630D01*
X27621Y31664D01*
X27447Y31892D01*
X27219Y32066D01*
X26954Y32176D01*
X26670Y32213D01*
X26386Y32176D01*
X26121Y32066D01*
X25893Y31892D01*
X25719Y31664D01*
X25609Y31399D01*
X25572Y31115D01*
X25609Y30831D01*
X25719Y30566D01*
X25893Y30338D01*
X26121Y30164D01*
X26386Y30054D01*
X26670Y30017D01*
X26954Y30054D01*
X27219Y30164D01*
X27447Y30338D01*
X27621Y30566D01*
X27630Y30587D01*
X30587D01*
X30596Y30566D01*
X30770Y30338D01*
X30998Y30164D01*
X31263Y30054D01*
X31547Y30017D01*
X31831Y30054D01*
X32096Y30164D01*
X32323Y30338D01*
X32498Y30566D01*
X32608Y30831D01*
X32645Y31115D01*
X32608Y31399D01*
X32498Y31664D01*
X32323Y31892D01*
X32096Y32066D01*
X31831Y32176D01*
X31547Y32213D01*
D02*
G37*
G36*
X11430D02*
X11146Y32176D01*
X10881Y32066D01*
X10653Y31892D01*
X10479Y31664D01*
X10470Y31643D01*
X7513D01*
X7504Y31664D01*
X7330Y31892D01*
X7102Y32066D01*
X6837Y32176D01*
X6553Y32213D01*
X6269Y32176D01*
X6004Y32066D01*
X5777Y31892D01*
X5602Y31664D01*
X5492Y31399D01*
X5455Y31115D01*
X5492Y30831D01*
X5602Y30566D01*
X5777Y30338D01*
X6004Y30164D01*
X6269Y30054D01*
X6553Y30017D01*
X6837Y30054D01*
X7102Y30164D01*
X7330Y30338D01*
X7504Y30566D01*
X7513Y30587D01*
X10470D01*
X10479Y30566D01*
X10653Y30338D01*
X10881Y30164D01*
X11146Y30054D01*
X11430Y30017D01*
X11714Y30054D01*
X11979Y30164D01*
X12207Y30338D01*
X12381Y30566D01*
X12491Y30831D01*
X12528Y31115D01*
X12491Y31399D01*
X12381Y31664D01*
X12207Y31892D01*
X11979Y32066D01*
X11714Y32176D01*
X11430Y32213D01*
D02*
G37*
G36*
X43370Y27704D02*
Y26861D01*
X44214D01*
X44203Y26944D01*
X44097Y27200D01*
X43929Y27419D01*
X43710Y27587D01*
X43454Y27693D01*
X43370Y27704D01*
D02*
G37*
G36*
X42989Y27704D02*
X42906Y27693D01*
X42650Y27587D01*
X42431Y27419D01*
X42263Y27200D01*
X42157Y26944D01*
X42146Y26861D01*
X42989D01*
Y27704D01*
D02*
G37*
G36*
Y26480D02*
X42146D01*
X42157Y26396D01*
X42263Y26140D01*
X42431Y25921D01*
X42650Y25753D01*
X42906Y25647D01*
X42989Y25636D01*
Y26480D01*
D02*
G37*
G36*
X44214D02*
X43370D01*
Y25636D01*
X43454Y25647D01*
X43710Y25753D01*
X43929Y25921D01*
X44097Y26140D01*
X44203Y26396D01*
X44214Y26480D01*
D02*
G37*
G36*
X43370Y4844D02*
Y4001D01*
X44214D01*
X44203Y4084D01*
X44097Y4340D01*
X43929Y4559D01*
X43710Y4727D01*
X43454Y4833D01*
X43370Y4844D01*
D02*
G37*
G36*
X42989Y4844D02*
X42906Y4833D01*
X42650Y4727D01*
X42431Y4559D01*
X42263Y4340D01*
X42157Y4084D01*
X42146Y4001D01*
X42989D01*
Y4844D01*
D02*
G37*
G36*
Y3620D02*
X42146D01*
X42157Y3536D01*
X42263Y3280D01*
X42431Y3061D01*
X42650Y2893D01*
X42906Y2787D01*
X42989Y2776D01*
Y3620D01*
D02*
G37*
G36*
X44214D02*
X43370D01*
Y2776D01*
X43454Y2787D01*
X43710Y2893D01*
X43929Y3061D01*
X44097Y3280D01*
X44203Y3536D01*
X44214Y3620D01*
D02*
G37*
G36*
X64389Y80520D02*
X64194Y80481D01*
X64029Y80370D01*
X63918Y80205D01*
X63879Y80010D01*
X63918Y79815D01*
X64029Y79650D01*
X64056Y79631D01*
Y72358D01*
X64081Y72230D01*
X64153Y72122D01*
X64691Y71585D01*
X64691Y47625D01*
Y47369D01*
X64664Y47350D01*
X64553Y47185D01*
X64514Y46990D01*
X64553Y46795D01*
X64664Y46630D01*
X64691Y46611D01*
Y23252D01*
X60724Y19286D01*
X60652Y19178D01*
X60627Y19050D01*
Y4860D01*
X59910D01*
Y2760D01*
X62010D01*
Y4860D01*
X61293D01*
Y18912D01*
X65260Y22878D01*
X65332Y22986D01*
X65357Y23114D01*
Y46611D01*
X65384Y46630D01*
X65495Y46795D01*
X65534Y46990D01*
X65495Y47185D01*
X65384Y47350D01*
X65357Y47369D01*
Y47625D01*
X65357Y71723D01*
X65357Y71723D01*
X65332Y71851D01*
X65260Y71959D01*
X64722Y72496D01*
Y79631D01*
X64749Y79650D01*
X64860Y79815D01*
X64899Y80010D01*
X64860Y80205D01*
X64749Y80370D01*
X64584Y80481D01*
X64389Y80520D01*
D02*
G37*
G36*
X24791Y3059D02*
Y2215D01*
X25634D01*
X25623Y2299D01*
X25517Y2555D01*
X25349Y2774D01*
X25130Y2942D01*
X24874Y3048D01*
X24791Y3059D01*
D02*
G37*
G36*
X24410D02*
X24326Y3048D01*
X24070Y2942D01*
X23851Y2774D01*
X23683Y2555D01*
X23577Y2299D01*
X23566Y2215D01*
X24410D01*
Y3059D01*
D02*
G37*
G36*
X11090Y3034D02*
Y2191D01*
X11934D01*
X11923Y2274D01*
X11817Y2530D01*
X11649Y2749D01*
X11430Y2917D01*
X11174Y3023D01*
X11090Y3034D01*
D02*
G37*
G36*
X10710D02*
X10626Y3023D01*
X10370Y2917D01*
X10151Y2749D01*
X9983Y2530D01*
X9877Y2274D01*
X9866Y2191D01*
X10710D01*
Y3034D01*
D02*
G37*
G36*
X21775Y2550D02*
X21302D01*
Y2077D01*
X21775D01*
Y2550D01*
D02*
G37*
G36*
X21048D02*
X20575D01*
Y2077D01*
X21048D01*
Y2550D01*
D02*
G37*
G36*
X21775Y1823D02*
X21302D01*
Y1350D01*
X21775D01*
Y1823D01*
D02*
G37*
G36*
X21048D02*
X20575D01*
Y1350D01*
X21048D01*
Y1823D01*
D02*
G37*
G36*
X14490Y3050D02*
X12390D01*
Y950D01*
X14490D01*
Y1667D01*
X15500D01*
Y1425D01*
X16573D01*
X16700Y1425D01*
X16827Y1425D01*
X17900D01*
Y1617D01*
X19075D01*
Y1350D01*
X20275D01*
Y2550D01*
X19075D01*
Y2283D01*
X17900D01*
Y2475D01*
X16827D01*
X16700Y2475D01*
X16573Y2475D01*
X15500D01*
Y2333D01*
X14490D01*
Y3050D01*
D02*
G37*
G36*
X25634Y1834D02*
X24791D01*
Y991D01*
X24874Y1002D01*
X25130Y1108D01*
X25349Y1276D01*
X25517Y1495D01*
X25623Y1751D01*
X25634Y1834D01*
D02*
G37*
G36*
X24410D02*
X23566D01*
X23577Y1751D01*
X23683Y1495D01*
X23851Y1276D01*
X24070Y1108D01*
X24326Y1002D01*
X24410Y991D01*
Y1834D01*
D02*
G37*
G36*
X28190Y3075D02*
X26090D01*
Y975D01*
X28190D01*
Y3075D01*
D02*
G37*
G36*
X11934Y1810D02*
X11090D01*
Y966D01*
X11174Y977D01*
X11430Y1083D01*
X11649Y1251D01*
X11817Y1470D01*
X11923Y1726D01*
X11934Y1810D01*
D02*
G37*
G36*
X10710D02*
X9866D01*
X9877Y1726D01*
X9983Y1470D01*
X10151Y1251D01*
X10370Y1083D01*
X10626Y977D01*
X10710Y966D01*
Y1810D01*
D02*
G37*
%LPD*%
G36*
X54330Y101560D02*
X56332D01*
Y100945D01*
X56321Y100935D01*
X56235Y100805D01*
X56205Y100653D01*
Y100220D01*
X55880D01*
X55753Y100220D01*
Y100220D01*
X55753D01*
Y100220D01*
X54553D01*
Y100028D01*
X54413D01*
Y100220D01*
X53340D01*
X53213Y100220D01*
X53086Y100220D01*
X52740D01*
Y99695D01*
Y99170D01*
X53086D01*
X53213Y99170D01*
X53340Y99170D01*
X54413D01*
Y99362D01*
X54553D01*
Y99170D01*
X54570D01*
Y97014D01*
X54244D01*
Y96139D01*
X54117D01*
Y96012D01*
X53467D01*
Y95595D01*
X53350Y95547D01*
X53068Y95829D01*
Y98152D01*
X53095Y98170D01*
X53206Y98335D01*
X53244Y98530D01*
X53206Y98725D01*
X53095Y98891D01*
X52930Y99001D01*
X52735Y99040D01*
X52539Y99001D01*
X52374Y98891D01*
X52327Y98820D01*
X52163Y98803D01*
X51940Y99027D01*
X51979Y99163D01*
X52013Y99170D01*
X52022Y99170D01*
X52486D01*
Y99695D01*
Y100220D01*
X52034D01*
X51959Y100325D01*
X52258Y100624D01*
X52697D01*
X52825Y100649D01*
X52933Y100721D01*
X53156Y100944D01*
X53228Y101052D01*
X53253Y101180D01*
Y101560D01*
X53620D01*
Y101902D01*
X54330D01*
Y101560D01*
D02*
G37*
G36*
X55626Y92440D02*
X54991D01*
X54991Y92710D01*
X54610Y93091D01*
X54340D01*
Y93714D01*
X54352Y93726D01*
X55626D01*
Y92440D01*
D02*
G37*
G36*
X56910Y91169D02*
Y91131D01*
X57785D01*
Y91004D01*
X57912D01*
Y90354D01*
X58500D01*
Y90200D01*
X57400D01*
X55900Y88700D01*
X53718D01*
X53696Y88827D01*
X53713Y88841D01*
Y89475D01*
X53967D01*
Y88928D01*
X53977Y88930D01*
X54090Y89006D01*
X54203Y88930D01*
X54213Y88928D01*
Y89475D01*
X54340D01*
Y89602D01*
X54697D01*
Y89690D01*
X54738Y89740D01*
X54940D01*
X55040Y89840D01*
Y90042D01*
X55090Y90083D01*
X55178D01*
Y90440D01*
X55305D01*
Y90567D01*
X55947D01*
X55975Y90600D01*
X56175D01*
X56793Y91218D01*
X56910Y91169D01*
D02*
G37*
%LPC*%
G36*
X53990Y97014D02*
X53467D01*
Y96266D01*
X53990D01*
Y97014D01*
D02*
G37*
G36*
X57658Y90877D02*
X56910D01*
Y90354D01*
X57658D01*
Y90877D01*
D02*
G37*
G36*
X55852Y90313D02*
X55432D01*
Y90083D01*
X55520D01*
X55657Y90110D01*
X55772Y90188D01*
X55850Y90303D01*
X55852Y90313D01*
D02*
G37*
G36*
X54697Y89348D02*
X54467D01*
Y88928D01*
X54477Y88930D01*
X54592Y89008D01*
X54670Y89123D01*
X54697Y89260D01*
Y89348D01*
D02*
G37*
%LPD*%
G36*
X37447Y92675D02*
X37711D01*
Y90981D01*
X35937D01*
X35931Y90987D01*
Y92184D01*
X36085D01*
Y92684D01*
X36339D01*
Y92184D01*
X36687D01*
Y92583D01*
X36770Y92675D01*
X37193D01*
Y93000D01*
X37447D01*
Y92675D01*
D02*
G37*
G36*
X40212Y97129D02*
X40212Y95452D01*
X40085Y95325D01*
X39670D01*
Y94175D01*
Y94127D01*
X40220D01*
Y93873D01*
X39670D01*
Y93627D01*
X40220D01*
Y93373D01*
X39670D01*
Y92958D01*
X39625Y92850D01*
X39275Y92500D01*
X39275Y90981D01*
X38270D01*
Y90982D01*
X38270D01*
X38270Y92448D01*
X38218Y92500D01*
X37893Y92825D01*
X37880Y92838D01*
X37870Y92961D01*
Y94175D01*
Y95325D01*
X37642D01*
Y95458D01*
X37697Y95495D01*
X37807Y95660D01*
X37846Y95855D01*
X37807Y96050D01*
X37697Y96216D01*
X37532Y96326D01*
X37336Y96365D01*
X37141Y96326D01*
X36976Y96216D01*
X36866Y96050D01*
X36837Y95906D01*
X36710Y95918D01*
Y96152D01*
X36362D01*
Y95652D01*
X36108D01*
Y96152D01*
X35978D01*
X35888Y96241D01*
X35888Y97137D01*
X36001Y97250D01*
X40090Y97250D01*
X40212Y97129D01*
D02*
G37*
G36*
X40347Y92675D02*
X40770D01*
X40852Y92593D01*
Y89282D01*
X39894Y89282D01*
X39804Y89372D01*
Y92625D01*
X39820D01*
Y92675D01*
X40093D01*
Y93000D01*
X40347D01*
Y92675D01*
D02*
G37*
G36*
X43937Y94493D02*
X43937Y89652D01*
X43561Y89276D01*
X42999Y89276D01*
X42999Y89282D01*
X41778Y89282D01*
X41404Y89656D01*
X41404Y92297D01*
X42107D01*
Y93459D01*
X41378D01*
X41120Y93716D01*
X41027Y93778D01*
X41027Y94352D01*
X40770D01*
Y94373D01*
X40220D01*
Y94627D01*
X40770D01*
Y94659D01*
X43770D01*
X43937Y94493D01*
D02*
G37*
G36*
X72517Y83545D02*
X70485D01*
Y84746D01*
X70268Y84963D01*
X69571D01*
Y85979D01*
X72517D01*
Y83545D01*
D02*
G37*
G36*
X69742Y83646D02*
Y83446D01*
X69267Y83446D01*
Y82971D01*
X68067D01*
X68067Y83309D01*
X67992Y83421D01*
X67992Y83646D01*
X69742Y83646D01*
D02*
G37*
G36*
X51737Y55167D02*
Y53211D01*
X51710Y53192D01*
X51599Y53027D01*
X51560Y52832D01*
X51599Y52637D01*
X51710Y52472D01*
X51875Y52361D01*
X52070Y52322D01*
X52265Y52361D01*
X52430Y52472D01*
X52541Y52637D01*
X52580Y52832D01*
X52541Y53027D01*
X52430Y53192D01*
X52403Y53211D01*
Y55167D01*
X52530Y55210D01*
X52591Y55131D01*
X52810Y54963D01*
X53007Y54882D01*
Y49657D01*
X53032Y49529D01*
X53104Y49421D01*
X54277Y48249D01*
Y35431D01*
X54250Y35412D01*
X54139Y35247D01*
X54100Y35052D01*
X54139Y34857D01*
X54250Y34692D01*
X54277Y34673D01*
Y33733D01*
X54150Y33690D01*
X54089Y33769D01*
X53870Y33937D01*
X53673Y34018D01*
Y39001D01*
X53700Y39020D01*
X53811Y39185D01*
X53850Y39380D01*
X53811Y39575D01*
X53700Y39740D01*
X53535Y39851D01*
X53340Y39890D01*
X53145Y39851D01*
X52980Y39740D01*
X52869Y39575D01*
X52830Y39380D01*
X52869Y39185D01*
X52980Y39020D01*
X53007Y39001D01*
Y34018D01*
X52810Y33937D01*
X52591Y33769D01*
X52530Y33690D01*
X52403Y33733D01*
Y35562D01*
X52430Y35581D01*
X52541Y35746D01*
X52580Y35941D01*
X52541Y36136D01*
X52430Y36301D01*
X52403Y36320D01*
Y37465D01*
X52378Y37593D01*
X52306Y37701D01*
X51133Y38873D01*
Y54882D01*
X51330Y54963D01*
X51549Y55131D01*
X51610Y55210D01*
X51737Y55167D01*
D02*
G37*
D10*
X68580Y67395D02*
X68600Y67375D01*
X68580Y67395D02*
Y69758D01*
X68592Y69770D01*
D11*
X70076Y87425D02*
X70102Y87400D01*
X50800Y38735D02*
Y55880D01*
Y38735D02*
X52070Y37465D01*
X41301Y94500D02*
Y95784D01*
Y94500D02*
X41526Y94275D01*
X52735Y95690D02*
X53340Y95085D01*
X52735Y95690D02*
Y98530D01*
X52070Y95377D02*
X52840Y94607D01*
X51562Y98933D02*
X52070Y98425D01*
Y95377D02*
Y98425D01*
X40220Y90561D02*
X40254Y90526D01*
X64389Y72358D02*
Y80010D01*
X65024Y71723D02*
X65024Y47625D01*
X64389Y72358D02*
X65024Y71723D01*
X60960Y26670D02*
Y28245D01*
X64008Y31293D01*
Y52070D01*
X62230Y71755D02*
X64008Y69977D01*
Y69000D02*
Y69977D01*
X60960Y57660D02*
X62611Y59311D01*
X60960Y55880D02*
Y57660D01*
X62611Y59311D02*
Y69215D01*
X55880Y49954D02*
Y55880D01*
X57658Y38100D02*
Y48176D01*
X55880Y49954D02*
X57658Y48176D01*
X57150Y50393D02*
Y57523D01*
X60198Y36195D02*
Y47345D01*
X57150Y50393D02*
X60198Y47345D01*
X35941Y21971D02*
Y46355D01*
X34163Y61595D02*
X35941Y59817D01*
Y46355D02*
Y59817D01*
X34798Y20955D02*
Y50038D01*
X34671Y50165D02*
X34798Y50038D01*
X49530Y42545D02*
Y57541D01*
Y38735D02*
Y42545D01*
X17399Y34925D02*
Y70358D01*
X21971Y62865D02*
Y81915D01*
X20828Y90805D02*
X20828Y61595D01*
X24224Y83185D02*
X24257D01*
X24130Y83091D02*
X24224Y83185D01*
X24257Y66675D02*
Y83185D01*
X23114Y65405D02*
Y84455D01*
X13462Y79375D02*
X19685Y73152D01*
Y45085D02*
Y73152D01*
X18542Y71755D02*
X18542Y42545D01*
X13589Y71755D02*
X16256Y69088D01*
X16256Y32385D02*
X16256Y69088D01*
X15113Y29718D02*
X15113Y67564D01*
X13462Y69215D02*
X15113Y67564D01*
X13283Y56515D02*
X13970Y55828D01*
Y47625D02*
Y55828D01*
X46990Y45085D02*
Y57531D01*
Y38735D02*
Y45085D01*
X52826Y104740D02*
X53062Y104976D01*
X50125Y103575D02*
X51290Y104740D01*
X50125Y98800D02*
Y103575D01*
X51290Y104740D02*
X52826D01*
X58420Y78105D02*
X62230Y81915D01*
X58420Y62230D02*
Y78105D01*
X69475Y58500D02*
Y59300D01*
X68072Y57097D02*
X69475Y58500D01*
X68072Y55880D02*
Y57097D01*
X67000Y60875D02*
X68142D01*
Y59433D02*
X68275Y59300D01*
X68142Y59433D02*
Y60875D01*
X71375Y63432D02*
X71432Y63375D01*
X71375Y63432D02*
Y64525D01*
X70062Y82320D02*
X70112Y82370D01*
X71225Y63375D02*
X71432D01*
X70175Y62325D02*
X71225Y63375D01*
X68892Y62325D02*
X70175D01*
X71432Y63375D02*
X72700D01*
X73175Y62900D01*
X71632Y61475D02*
X73225D01*
X24525Y1950D02*
X24600Y2025D01*
X21175Y1950D02*
X24525D01*
X17300D02*
X19675D01*
X13440Y2000D02*
X16050D01*
X68142Y63075D02*
X68892Y62325D01*
X68142Y63075D02*
Y63775D01*
X70067Y82321D02*
X70117Y82371D01*
Y83821D01*
X70067Y82321D02*
X70637D01*
X71120Y82804D01*
X53062Y105750D02*
X55050D01*
X53062Y104976D02*
Y105750D01*
X53340Y93405D02*
Y95085D01*
X51375Y92440D02*
Y93624D01*
X48133Y96866D02*
X51375Y93624D01*
X51943Y94234D02*
X52340Y93837D01*
X50927Y95250D02*
X51943Y94234D01*
X33650Y5466D02*
X37211Y1905D01*
X33650Y53472D02*
X33650Y5466D01*
X33147Y53975D02*
X33650Y53472D01*
X54610Y49784D02*
X56675Y47719D01*
Y36162D02*
Y47719D01*
Y36162D02*
X57150Y35687D01*
X59690Y49530D02*
X60960Y48260D01*
X59690Y49530D02*
Y76835D01*
X60960Y33020D02*
Y48260D01*
X58420Y50800D02*
Y55880D01*
X54903Y94990D02*
Y99695D01*
X53840Y93927D02*
X54903Y94990D01*
X53840Y93405D02*
Y93927D01*
X70151Y60875D02*
X70551Y61275D01*
X69781Y60875D02*
X70151D01*
X70551Y61275D02*
X71432D01*
X71632Y61475D01*
X56132Y91107D02*
Y91440D01*
X55965Y90940D02*
X56132Y91107D01*
X55305Y90940D02*
X55965D01*
X56132Y91440D02*
Y91940D01*
X55305Y91440D02*
X56132D01*
X55305Y91940D02*
X56132D01*
X67843Y81026D02*
X68117Y81024D01*
X68117Y80028D02*
X68305D01*
X68117D02*
Y81021D01*
X68305Y80028D02*
X68617Y80340D01*
Y81021D01*
X11430Y74295D02*
X13462D01*
X50559Y92189D02*
Y93410D01*
X45847Y98122D02*
X50559Y93410D01*
X45847Y98122D02*
Y100230D01*
X50038Y91948D02*
Y92964D01*
X43561Y99441D02*
X50038Y92964D01*
X43561Y99441D02*
Y100230D01*
X51562Y98933D02*
Y100399D01*
X52120Y100957D01*
X52697D01*
X54903Y99695D02*
X55153D01*
X53813D02*
X54903D01*
X53813Y99695D02*
X53813Y99695D01*
X52697Y100957D02*
X52920Y101180D01*
X50927Y95250D02*
Y95504D01*
X52920Y102235D02*
X55030D01*
X52920Y101180D02*
Y102235D01*
X48133Y96866D02*
Y100230D01*
X52840Y93405D02*
Y94607D01*
X31750Y97155D02*
X34544D01*
X37211Y99822D02*
X38520D01*
X34544Y97155D02*
X37211Y99822D01*
X67467Y81021D02*
X67843Y81026D01*
X67043Y81445D02*
X67467Y81021D01*
X66294Y81445D02*
X67043D01*
X52340Y93405D02*
Y93837D01*
X31750Y53975D02*
X33147D01*
X31750Y56515D02*
X33655D01*
X31750Y61595D02*
X34163D01*
X34671Y50165D02*
Y55499D01*
X33655Y56515D02*
X34671Y55499D01*
X70485Y79502D02*
Y79858D01*
X70112Y80231D02*
X70485Y79858D01*
X70112Y80231D02*
Y80820D01*
X66294Y78994D02*
X66675Y78613D01*
X66294Y78994D02*
Y79845D01*
X67183Y85471D02*
X68365D01*
X69723Y78994D02*
Y79883D01*
X69612Y79994D02*
X69723Y79883D01*
X69612Y79994D02*
Y80820D01*
X69112Y80034D02*
Y80820D01*
X68961Y79883D02*
X69112Y80034D01*
X68961Y79502D02*
Y79883D01*
X69342Y78613D02*
X69723Y78994D01*
X67818Y78613D02*
X69342D01*
X65024Y46990D02*
Y47625D01*
Y23114D02*
Y46990D01*
X59690Y22860D02*
Y35687D01*
X57150Y22860D02*
Y35687D01*
X50808Y91940D02*
X51375D01*
X50559Y92189D02*
X50808Y91940D01*
X50546Y91440D02*
X51375D01*
X52840Y88832D02*
Y89475D01*
X48260Y62230D02*
Y69250D01*
X50800Y62230D02*
Y69250D01*
X48260Y26670D02*
Y29464D01*
X49530Y30734D01*
X48260Y58801D02*
Y62230D01*
X46990Y57531D02*
X48260Y58801D01*
Y30734D02*
Y33020D01*
X46990Y29464D02*
X48260Y30734D01*
X50800Y58811D02*
Y62230D01*
X49530Y57541D02*
X50800Y58811D01*
Y29464D02*
X52070Y30734D01*
X50800Y26670D02*
Y29464D01*
X53340Y26670D02*
Y29464D01*
X54610Y30734D01*
X50800Y55880D02*
Y57531D01*
X52070Y58801D01*
X48260Y57531D02*
X49530Y58801D01*
X48260Y55880D02*
Y57531D01*
X53340D02*
X54610Y58801D01*
X53340Y55880D02*
Y57531D01*
X49530Y30734D02*
Y36830D01*
X11430Y69215D02*
X13462D01*
X11430Y71755D02*
X13589D01*
X11430Y76835D02*
X13462D01*
X11430Y79375D02*
X13462D01*
X48260Y81915D02*
Y85090D01*
Y81915D02*
X49530Y80645D01*
Y58801D02*
Y80645D01*
X50800Y81915D02*
Y85090D01*
Y81915D02*
X52070Y80645D01*
Y58801D02*
Y80645D01*
X53340Y81915D02*
Y85090D01*
Y81915D02*
X54610Y80645D01*
Y58801D02*
Y80645D01*
X43561Y101730D02*
Y103290D01*
X45847Y101730D02*
Y103290D01*
X48133Y101730D02*
Y103290D01*
X50038Y91948D02*
X50546Y91440D01*
X53340Y88392D02*
Y89475D01*
Y58793D02*
Y62230D01*
X52070Y57523D02*
X53340Y58793D01*
X55880D02*
Y62230D01*
Y58793D02*
X57150Y57523D01*
X52070Y52832D02*
Y57523D01*
Y30734D02*
Y35941D01*
X54610Y30734D02*
Y35052D01*
X13462Y74295D02*
X17399Y70358D01*
X13462Y76835D02*
X18542Y71755D01*
X55880Y3810D02*
Y19050D01*
X59690Y22860D01*
X53340Y3810D02*
Y19050D01*
X57150Y22860D01*
X46990D02*
Y29464D01*
Y22860D02*
X48260Y21590D01*
Y3810D02*
Y21590D01*
X60960Y3810D02*
Y19050D01*
X57658Y1905D02*
X58420Y2667D01*
Y3810D01*
X11430Y56515D02*
X13283D01*
X46990Y38735D02*
X48260Y37465D01*
Y33020D02*
Y37465D01*
Y38735D02*
Y55880D01*
Y38735D02*
X49530Y37465D01*
Y36830D02*
Y37465D01*
Y38735D02*
X50800Y37465D01*
Y33020D02*
Y37465D01*
X52070Y35941D02*
Y37465D01*
X55880Y33020D02*
Y41402D01*
X53340Y33020D02*
Y39380D01*
X50800Y30734D02*
Y33020D01*
X49530Y29464D02*
X50800Y30734D01*
X49530Y22860D02*
Y29464D01*
Y22860D02*
X50800Y21590D01*
Y3810D02*
Y21590D01*
X48260Y70450D02*
Y73013D01*
X50800Y70450D02*
Y73013D01*
X60960Y62230D02*
Y74295D01*
Y19050D02*
X65024Y23114D01*
X64008Y69000D02*
X64008Y52070D01*
X58420Y33020D02*
Y35763D01*
X54610Y49784D02*
Y52832D01*
X53340Y49657D02*
Y55880D01*
Y49657D02*
X54610Y48387D01*
Y35052D02*
Y48387D01*
X59690Y35687D02*
X60198Y36195D01*
X58420Y35763D02*
X59055Y36398D01*
Y45720D01*
X57404Y66675D02*
Y79502D01*
X60960Y83058D01*
Y85090D01*
X37211Y1905D02*
X57658Y1905D01*
X46902Y87376D02*
X52324D01*
X53340Y88392D01*
X48299Y88011D02*
X52019D01*
X52840Y88832D01*
X49196Y90940D02*
X51375D01*
X49149Y90893D02*
X49196Y90940D01*
X47117Y89193D02*
X48299Y88011D01*
X45085Y89193D02*
X46902Y87376D01*
D16*
X37320Y95000D02*
X37336Y95016D01*
Y95855D01*
X40236Y94516D02*
X41285D01*
X40236D02*
Y94998D01*
X40904Y93500D02*
X41526Y92878D01*
X40220Y93500D02*
X40904D01*
X39270D02*
X40220D01*
X38770Y94000D02*
X40220D01*
X36223Y93695D02*
Y94640D01*
X36212Y93659D02*
X36370Y93500D01*
X37320D01*
X40220Y90561D02*
Y93000D01*
D20*
X71498Y87400D02*
D03*
X70102D02*
D03*
X67826Y77025D02*
D03*
X69224D02*
D03*
X38726Y91526D02*
D03*
X37329D02*
D03*
D21*
X37625Y89757D02*
D03*
Y87725D02*
D03*
X43137Y93947D02*
D03*
Y95979D02*
D03*
D22*
X55305Y92440D02*
D03*
Y91940D02*
D03*
Y91440D02*
D03*
Y90940D02*
D03*
Y90440D02*
D03*
X51375D02*
D03*
Y90940D02*
D03*
Y91440D02*
D03*
Y91940D02*
D03*
Y92440D02*
D03*
D23*
X54340Y89475D02*
D03*
X53840D02*
D03*
X53340D02*
D03*
X52840D02*
D03*
X52340D02*
D03*
Y93405D02*
D03*
X52840D02*
D03*
X53340D02*
D03*
X53840D02*
D03*
X54340D02*
D03*
D24*
X41526Y94275D02*
D03*
Y92878D02*
D03*
D25*
X36212Y93684D02*
D03*
Y92684D02*
D03*
X36235Y94652D02*
D03*
Y95652D02*
D03*
D26*
X42554Y90526D02*
D03*
X40254D02*
D03*
D27*
X40220Y93500D02*
D03*
Y95000D02*
D03*
Y94500D02*
D03*
Y94000D02*
D03*
Y93000D02*
D03*
X37320D02*
D03*
Y95000D02*
D03*
Y94500D02*
D03*
Y94000D02*
D03*
Y93500D02*
D03*
D29*
X60661Y100203D02*
D03*
Y105703D02*
D03*
X63161Y100203D02*
D03*
X65661D02*
D03*
X63161Y105703D02*
D03*
X65661D02*
D03*
D30*
X68117Y81021D02*
D03*
X68617D02*
D03*
D31*
X68667Y81884D02*
D03*
D32*
X68117Y83821D02*
D03*
X68617D02*
D03*
X69117Y80821D02*
D03*
X69617D02*
D03*
X70117D02*
D03*
X70617D02*
D03*
X69117Y83821D02*
D03*
X69617D02*
D03*
X70117D02*
D03*
X70617D02*
D03*
D34*
X68142Y60875D02*
D03*
Y63775D02*
D03*
X68642Y60875D02*
D03*
X69142D02*
D03*
X69642D02*
D03*
X68642Y63775D02*
D03*
X69142D02*
D03*
X69642D02*
D03*
D36*
X19675Y1950D02*
D03*
X21175D02*
D03*
D37*
X55030Y105730D02*
D03*
X56730D02*
D03*
X51362Y105730D02*
D03*
X53062D02*
D03*
X61150Y96329D02*
D03*
X62850D02*
D03*
X51220Y102235D02*
D03*
X52920D02*
D03*
X55030D02*
D03*
X56730D02*
D03*
D38*
X17300Y1950D02*
D03*
X16100D02*
D03*
X38770Y99822D02*
D03*
X39970D02*
D03*
X68275Y59300D02*
D03*
X69475D02*
D03*
X68615Y85471D02*
D03*
X69815D02*
D03*
X52613Y99695D02*
D03*
X53813D02*
D03*
X55153Y99695D02*
D03*
X56353D02*
D03*
D39*
X57785Y88904D02*
D03*
Y91004D02*
D03*
X71432Y61275D02*
D03*
Y63375D02*
D03*
D40*
X66294Y79845D02*
D03*
Y81445D02*
D03*
D41*
X49149Y89443D02*
D03*
Y90643D02*
D03*
X39370Y7020D02*
D03*
Y8220D02*
D03*
Y36230D02*
D03*
Y37430D02*
D03*
Y65440D02*
D03*
Y66640D02*
D03*
X68600Y66175D02*
D03*
Y67375D02*
D03*
X68580Y69758D02*
D03*
Y70958D02*
D03*
X73175Y61700D02*
D03*
Y62900D02*
D03*
X45085Y89443D02*
D03*
Y90643D02*
D03*
X47117Y89443D02*
D03*
Y90643D02*
D03*
X48133Y103540D02*
D03*
Y104740D02*
D03*
X50800Y69250D02*
D03*
Y70450D02*
D03*
X48260Y69250D02*
D03*
Y70450D02*
D03*
X45847Y103540D02*
D03*
Y104740D02*
D03*
X43561Y103540D02*
D03*
Y104740D02*
D03*
X50927Y95504D02*
D03*
Y96704D02*
D03*
D42*
X54117Y96139D02*
D03*
X56217D02*
D03*
D43*
X48133Y100230D02*
D03*
Y101730D02*
D03*
X45847Y100230D02*
D03*
Y101730D02*
D03*
X43561Y100230D02*
D03*
Y101730D02*
D03*
D77*
X53340Y91440D02*
D03*
D78*
X38770Y94000D02*
D03*
D79*
X70067Y82321D02*
D03*
D80*
X68892Y62325D02*
D03*
D81*
X68762Y87412D02*
X70064D01*
X70076Y87425D01*
X68750D02*
X68762Y87412D01*
X71501Y85471D02*
Y87104D01*
D82*
X6350Y99695D02*
X11430D01*
X6350Y97155D02*
X11430D01*
X6350Y94615D02*
X11430D01*
X6350Y92075D02*
X11430D01*
X6350Y89535D02*
X11430D01*
X6350Y86995D02*
X11430D01*
X6350Y84455D02*
X11430D01*
X6350Y81915D02*
X11430D01*
X6350Y79375D02*
X11430D01*
X6350Y76835D02*
X11430D01*
X6350Y74295D02*
X11430D01*
X6350Y71755D02*
X11430D01*
X6350Y69215D02*
X11430D01*
X6350Y66675D02*
X11430D01*
X6350Y64135D02*
X11430D01*
X6350Y61595D02*
X11430D01*
X6350Y59055D02*
X11430D01*
X6350Y56515D02*
X11430D01*
X6350Y53975D02*
X11430D01*
X6350Y51435D02*
X11430D01*
X6350Y48895D02*
X11430D01*
X6350Y46355D02*
X11430D01*
X6350Y43815D02*
X11430D01*
X6350Y41275D02*
X11430D01*
X6350Y38735D02*
X11430D01*
X6350Y36195D02*
X11430D01*
X6350Y33655D02*
X11430D01*
X6350Y31115D02*
X11430D01*
X26670D02*
X31750D01*
X26670Y33655D02*
X31750D01*
X26670Y36195D02*
X31750D01*
X26670Y38735D02*
X31750D01*
X26670Y41275D02*
X31750D01*
X26670Y43815D02*
X31750D01*
X26670Y46355D02*
X31750D01*
X26670Y48895D02*
X31750D01*
X26670Y51435D02*
X31750D01*
X26670Y53975D02*
X31750D01*
X26670Y56515D02*
X31750D01*
X26670Y59055D02*
X31750D01*
X26670Y61595D02*
X31750D01*
X26670Y64135D02*
X31750D01*
X26670Y66675D02*
X31750D01*
X26670Y69215D02*
X31750D01*
X26670Y71755D02*
X31750D01*
X26670Y74295D02*
X31750D01*
X26670Y76835D02*
X31750D01*
X26670Y79375D02*
X31750D01*
X26670Y81915D02*
X31750D01*
X26670Y84455D02*
X31750D01*
X26670Y86995D02*
X31750D01*
X26670Y89535D02*
X31750D01*
X26670Y92075D02*
X31750D01*
X26670Y94615D02*
X31750D01*
X26670Y97155D02*
X31750D01*
X26670Y99695D02*
X31750D01*
D83*
X37329Y90053D02*
X37625Y89757D01*
X37329Y90053D02*
Y91526D01*
X37625Y89757D02*
X37625D01*
Y87725D02*
X39331D01*
X39370Y66640D02*
Y87686D01*
X43137Y95979D02*
X44923D01*
X39370Y8220D02*
Y28589D01*
X37211Y30748D02*
Y37430D01*
Y30748D02*
X39370Y28589D01*
X37211Y65751D02*
X38100Y66640D01*
X37211Y37430D02*
Y65751D01*
X38100Y66640D02*
X39370D01*
Y65440D02*
X44415D01*
X45720Y64135D01*
X37211Y37430D02*
X39370D01*
Y36230D02*
X44415D01*
X45720Y34925D01*
X39370Y7020D02*
X44415D01*
X45720Y5715D01*
X35300Y7487D02*
X36732D01*
X37465Y8220D01*
X39370D01*
X66900Y65250D02*
X67825Y66175D01*
X68600D01*
X16050Y2000D02*
X16100Y1950D01*
X56642Y92450D02*
Y98044D01*
X35825Y65225D02*
Y85333D01*
X34163Y86995D02*
X35825Y85333D01*
X56922Y91004D02*
X57785D01*
X56793Y90875D02*
X56922Y91004D01*
X56132Y91940D02*
X56642Y92450D01*
X67818Y79728D02*
X68117Y80028D01*
X67818Y78613D02*
Y79728D01*
X57785Y91004D02*
X59873D01*
X61126Y92257D01*
Y97282D01*
X62826Y93622D02*
X63373Y93075D01*
X62826Y93622D02*
Y97282D01*
X63161Y100203D02*
Y105703D01*
X60661Y100203D02*
Y105703D01*
X62826Y97282D02*
Y99188D01*
X63161Y99523D01*
Y100203D01*
X61126Y97282D02*
Y98988D01*
X60661Y99453D02*
X61126Y98988D01*
X60661Y99453D02*
Y100203D01*
X45720Y62230D02*
Y64135D01*
Y33020D02*
Y34925D01*
X67818Y73787D02*
X68580Y73025D01*
X67818Y73787D02*
Y77089D01*
Y78613D01*
X68580Y71208D02*
Y73025D01*
X31750Y86995D02*
X34163D01*
X45720Y3810D02*
Y5715D01*
D84*
X55245Y93396D02*
Y94107D01*
D85*
X65975Y81764D02*
X66294Y81445D01*
X65975Y81764D02*
Y90100D01*
X43561Y104740D02*
X45847D01*
X42418D02*
X43561D01*
X45847D02*
X48133D01*
D86*
X52340Y89475D02*
Y90440D01*
X51375D02*
X52340D01*
X53340Y91440D01*
X51070Y90440D02*
X51375D01*
D87*
X56730Y105730D02*
X56750Y105750D01*
X56730Y102235D02*
Y105730D01*
X56603Y99695D02*
Y100653D01*
X56730Y100780D02*
Y102235D01*
X56603Y100653D02*
X56730Y100780D01*
X56642Y98044D02*
Y99656D01*
X56603Y99695D02*
X56642Y99656D01*
D88*
X55880Y105730D02*
D03*
X55880Y102235D02*
D03*
D89*
X6147Y43815D02*
D03*
X31547Y61595D02*
D03*
X31953Y64135D02*
D03*
X31547Y66675D02*
D03*
X31953Y69215D02*
D03*
X31547Y71755D02*
D03*
X31953Y74295D02*
D03*
X31547Y76835D02*
D03*
X31953Y79375D02*
D03*
X31547Y81915D02*
D03*
X31953Y84455D02*
D03*
X31547Y86995D02*
D03*
X31953Y89535D02*
D03*
X31547Y92075D02*
D03*
X31953Y94615D02*
D03*
Y59055D02*
D03*
X31547Y56515D02*
D03*
X31953Y53975D02*
D03*
X31547Y51435D02*
D03*
X31953Y48895D02*
D03*
X31547Y46355D02*
D03*
X31953Y43815D02*
D03*
X31547Y41275D02*
D03*
X31953Y38735D02*
D03*
X31547Y36195D02*
D03*
X31953Y33655D02*
D03*
X31547Y31115D02*
D03*
X31953Y99695D02*
D03*
X31547Y97155D02*
D03*
X6553D02*
D03*
X6147Y94615D02*
D03*
X6553Y92075D02*
D03*
X6147Y89535D02*
D03*
X6553Y86995D02*
D03*
X6147Y84455D02*
D03*
X6553Y81915D02*
D03*
X6147Y79375D02*
D03*
X6553Y76835D02*
D03*
X6147Y74295D02*
D03*
X6553Y71755D02*
D03*
X6147Y69215D02*
D03*
X6553Y66675D02*
D03*
X6147Y64135D02*
D03*
X6553Y61595D02*
D03*
X6147Y59055D02*
D03*
X6553Y56515D02*
D03*
X6147Y33655D02*
D03*
X6553Y36195D02*
D03*
X6147Y38735D02*
D03*
X6553Y41275D02*
D03*
Y46355D02*
D03*
X6147Y48895D02*
D03*
X6553Y51435D02*
D03*
X6147Y53975D02*
D03*
X6553Y31115D02*
D03*
X6147Y99695D02*
D03*
X26670Y97155D02*
D03*
Y99695D02*
D03*
X11430Y31115D02*
D03*
X26670D02*
D03*
Y33655D02*
D03*
Y36195D02*
D03*
Y38735D02*
D03*
Y41275D02*
D03*
Y43815D02*
D03*
Y46355D02*
D03*
Y48895D02*
D03*
X11430Y53975D02*
D03*
Y51435D02*
D03*
Y48895D02*
D03*
Y46355D02*
D03*
Y43815D02*
D03*
Y41275D02*
D03*
Y38735D02*
D03*
Y36195D02*
D03*
Y33655D02*
D03*
X26670Y51435D02*
D03*
Y53975D02*
D03*
Y56515D02*
D03*
Y59055D02*
D03*
X11430Y56515D02*
D03*
Y59055D02*
D03*
Y61595D02*
D03*
Y64135D02*
D03*
Y99695D02*
D03*
X26670Y94615D02*
D03*
Y92075D02*
D03*
Y89535D02*
D03*
Y86995D02*
D03*
Y84455D02*
D03*
Y81915D02*
D03*
Y79375D02*
D03*
Y76835D02*
D03*
Y74295D02*
D03*
Y71755D02*
D03*
Y69215D02*
D03*
Y66675D02*
D03*
Y64135D02*
D03*
Y61595D02*
D03*
X11430Y66675D02*
D03*
Y69215D02*
D03*
Y71755D02*
D03*
Y74295D02*
D03*
Y76835D02*
D03*
Y79375D02*
D03*
Y81915D02*
D03*
Y84455D02*
D03*
Y86995D02*
D03*
Y89535D02*
D03*
Y92075D02*
D03*
Y94615D02*
D03*
Y97155D02*
D03*
D90*
Y104775D02*
D03*
X26670D02*
D03*
X3175D02*
D03*
X71755Y104775D02*
D03*
X3175Y3175D02*
D03*
X71755Y3175D02*
D03*
D91*
X26670Y33655D02*
D03*
Y31115D02*
D03*
Y36195D02*
D03*
Y46355D02*
D03*
Y43815D02*
D03*
Y38735D02*
D03*
Y41275D02*
D03*
Y56515D02*
D03*
Y53975D02*
D03*
Y48895D02*
D03*
Y51435D02*
D03*
Y66675D02*
D03*
Y64135D02*
D03*
Y59055D02*
D03*
Y61595D02*
D03*
Y76835D02*
D03*
Y74295D02*
D03*
Y69215D02*
D03*
Y71755D02*
D03*
Y86995D02*
D03*
Y84455D02*
D03*
Y79375D02*
D03*
Y81915D02*
D03*
Y92075D02*
D03*
Y89535D02*
D03*
Y94615D02*
D03*
Y97155D02*
D03*
X11430Y33655D02*
D03*
Y31115D02*
D03*
Y36195D02*
D03*
Y46355D02*
D03*
Y43815D02*
D03*
Y38735D02*
D03*
Y41275D02*
D03*
Y56515D02*
D03*
Y53975D02*
D03*
Y48895D02*
D03*
Y51435D02*
D03*
Y66675D02*
D03*
Y64135D02*
D03*
Y59055D02*
D03*
Y61595D02*
D03*
Y76835D02*
D03*
Y74295D02*
D03*
Y69215D02*
D03*
Y71755D02*
D03*
Y86995D02*
D03*
Y84455D02*
D03*
Y79375D02*
D03*
Y81915D02*
D03*
Y92075D02*
D03*
Y89535D02*
D03*
Y94615D02*
D03*
Y97155D02*
D03*
X24600Y2025D02*
D03*
X43180Y55880D02*
D03*
X45720D02*
D03*
X48260D02*
D03*
X50800D02*
D03*
X58420D02*
D03*
X53340D02*
D03*
X55880D02*
D03*
X68072Y35560D02*
D03*
Y43180D02*
D03*
Y38100D02*
D03*
Y40640D02*
D03*
X70612Y33020D02*
D03*
X68072D02*
D03*
Y45720D02*
D03*
Y48260D02*
D03*
Y50800D02*
D03*
Y53340D02*
D03*
X70612Y55880D02*
D03*
Y35560D02*
D03*
Y38100D02*
D03*
Y40640D02*
D03*
Y43180D02*
D03*
Y45720D02*
D03*
Y48260D02*
D03*
Y50800D02*
D03*
Y53340D02*
D03*
X10900Y2000D02*
D03*
X43180Y85090D02*
D03*
X45720D02*
D03*
X48260D02*
D03*
X50800D02*
D03*
X58420D02*
D03*
X53340D02*
D03*
X55880D02*
D03*
X43180Y3810D02*
D03*
X45720D02*
D03*
X48260D02*
D03*
X50800D02*
D03*
X58420D02*
D03*
X53340D02*
D03*
X55880D02*
D03*
X43180Y62230D02*
D03*
X45720D02*
D03*
X48260D02*
D03*
X50800D02*
D03*
X58420D02*
D03*
X53340D02*
D03*
X55880D02*
D03*
X43180Y26670D02*
D03*
X45720D02*
D03*
X48260D02*
D03*
X50800D02*
D03*
X58420D02*
D03*
X53340D02*
D03*
X55880D02*
D03*
X43180Y33020D02*
D03*
X45720D02*
D03*
X48260D02*
D03*
X50800D02*
D03*
X58420D02*
D03*
X53340D02*
D03*
X55880D02*
D03*
X34255Y104775D02*
D03*
D92*
X26670Y99695D02*
D03*
X11430D02*
D03*
X68072Y55880D02*
D03*
D93*
X27140Y2025D02*
D03*
X60960Y55880D02*
D03*
X13440Y2000D02*
D03*
X60960Y85090D02*
D03*
Y3810D02*
D03*
Y62230D02*
D03*
Y26670D02*
D03*
Y33020D02*
D03*
X36795Y104775D02*
D03*
D94*
X63373Y91075D02*
D03*
D95*
Y93075D02*
D03*
D96*
X68750Y87425D02*
D03*
X71501Y85471D02*
D03*
X63050Y84900D02*
D03*
X4950Y60200D02*
D03*
X24275Y46400D02*
D03*
X24450Y31075D02*
D03*
X13775Y38750D02*
D03*
X66175Y41350D02*
D03*
X65650Y77450D02*
D03*
X63200Y72575D02*
D03*
X52700Y40450D02*
D03*
X52525Y43675D02*
D03*
X52450Y48625D02*
D03*
X33575Y85525D02*
D03*
X12900Y83150D02*
D03*
X12950Y34950D02*
D03*
X12875Y47600D02*
D03*
Y55100D02*
D03*
X12900Y60250D02*
D03*
X12875Y67775D02*
D03*
X12925Y70325D02*
D03*
X12900Y72975D02*
D03*
X12875Y75525D02*
D03*
X12925Y78025D02*
D03*
X32875Y50150D02*
D03*
X33650Y55025D02*
D03*
X33725Y60250D02*
D03*
X36000Y61925D02*
D03*
X34700Y57725D02*
D03*
X40975Y87625D02*
D03*
X39331Y87725D02*
D03*
X59250Y89375D02*
D03*
X38754Y96704D02*
D03*
X50038Y96144D02*
D03*
X45994Y95164D02*
D03*
X41301Y95784D02*
D03*
X37336Y95855D02*
D03*
X51943Y94234D02*
D03*
X55245Y94107D02*
D03*
X52735Y98530D02*
D03*
X44923Y95979D02*
D03*
X38726Y92325D02*
D03*
X4064Y39751D02*
D03*
X64389Y80010D02*
D03*
X66675Y59055D02*
D03*
Y62865D02*
D03*
X37465Y67945D02*
D03*
Y73025D02*
D03*
X37447Y78105D02*
D03*
X37465Y85725D02*
D03*
Y83185D02*
D03*
X64135Y29845D02*
D03*
X52070Y28575D02*
D03*
X55880Y29845D02*
D03*
X60960D02*
D03*
X73660Y33655D02*
D03*
Y38735D02*
D03*
Y43815D02*
D03*
Y48895D02*
D03*
Y53975D02*
D03*
Y59055D02*
D03*
Y64135D02*
D03*
Y69215D02*
D03*
Y74295D02*
D03*
Y79375D02*
D03*
Y84455D02*
D03*
Y89535D02*
D03*
X22225Y104775D02*
D03*
X15875D02*
D03*
X43561Y68065D02*
D03*
X62230Y71755D02*
D03*
X60960Y59055D02*
D03*
X58420D02*
D03*
X53340Y67945D02*
D03*
X56116D02*
D03*
X60960Y75565D02*
D03*
X55880D02*
D03*
X53340D02*
D03*
X50800D02*
D03*
X48260D02*
D03*
X43180D02*
D03*
X62230Y40386D02*
D03*
Y46990D02*
D03*
X41021Y48641D02*
D03*
X54610Y8255D02*
D03*
X52070D02*
D03*
X49530D02*
D03*
X41275D02*
D03*
X46355D02*
D03*
Y13335D02*
D03*
Y18415D02*
D03*
X41275D02*
D03*
Y13335D02*
D03*
X31750Y23495D02*
D03*
Y28575D02*
D03*
X26670D02*
D03*
X21590D02*
D03*
X16510D02*
D03*
X11430D02*
D03*
X6350D02*
D03*
X11430Y13335D02*
D03*
X16510D02*
D03*
X21590D02*
D03*
X26670D02*
D03*
X31750D02*
D03*
Y18415D02*
D03*
X26670D02*
D03*
X21590D02*
D03*
X16510D02*
D03*
X11430D02*
D03*
X6350Y23495D02*
D03*
Y18415D02*
D03*
Y13335D02*
D03*
X32385Y1905D02*
D03*
X37465Y75565D02*
D03*
Y80645D02*
D03*
Y28575D02*
D03*
Y23495D02*
D03*
X36195Y18415D02*
D03*
Y13335D02*
D03*
X37465Y3175D02*
D03*
X64770D02*
D03*
X49530Y13335D02*
D03*
Y18415D02*
D03*
X52070D02*
D03*
Y13335D02*
D03*
X54610D02*
D03*
Y18415D02*
D03*
X62230Y23495D02*
D03*
X58420Y18415D02*
D03*
Y13335D02*
D03*
X64770Y18415D02*
D03*
Y13335D02*
D03*
Y8255D02*
D03*
X71120Y28575D02*
D03*
Y23495D02*
D03*
Y18415D02*
D03*
Y13335D02*
D03*
Y8255D02*
D03*
X17780Y79375D02*
D03*
X1270Y99695D02*
D03*
Y94615D02*
D03*
Y89535D02*
D03*
Y84455D02*
D03*
Y79375D02*
D03*
Y74295D02*
D03*
Y69215D02*
D03*
Y64135D02*
D03*
Y59055D02*
D03*
Y53975D02*
D03*
Y48895D02*
D03*
Y43815D02*
D03*
Y38735D02*
D03*
Y33655D02*
D03*
Y28575D02*
D03*
Y23495D02*
D03*
Y18415D02*
D03*
Y13335D02*
D03*
Y8255D02*
D03*
X35941Y46355D02*
D03*
Y21971D02*
D03*
X34798Y20955D02*
D03*
X21971Y81915D02*
D03*
X20828Y90805D02*
D03*
X23114Y84455D02*
D03*
X24257Y83185D02*
D03*
Y66675D02*
D03*
X23114Y65405D02*
D03*
X21971Y62865D02*
D03*
X19685Y45085D02*
D03*
X18542Y42545D02*
D03*
X17399Y34925D02*
D03*
X16256Y32385D02*
D03*
X15113Y29718D02*
D03*
X13970Y47625D02*
D03*
X20828Y61595D02*
D03*
X46990Y45085D02*
D03*
X17780Y83185D02*
D03*
X15600Y89525D02*
D03*
Y94625D02*
D03*
Y99700D02*
D03*
X22479Y89535D02*
D03*
X22500Y94625D02*
D03*
Y99700D02*
D03*
Y59050D02*
D03*
X24275Y53850D02*
D03*
Y48875D02*
D03*
X24350Y33550D02*
D03*
Y43750D02*
D03*
X24400Y38675D02*
D03*
X24375Y36150D02*
D03*
X51575Y103375D02*
D03*
X50124Y105730D02*
D03*
X35300Y7487D02*
D03*
X65975Y90100D02*
D03*
X50125Y98800D02*
D03*
X53875Y98125D02*
D03*
X68551Y68575D02*
D03*
X67000Y60875D02*
D03*
X66900Y65250D02*
D03*
X71375Y64525D02*
D03*
X50850Y89350D02*
D03*
X61925Y53000D02*
D03*
X41975Y38350D02*
D03*
X41050Y43815D02*
D03*
X50927Y98044D02*
D03*
X71120Y81661D02*
D03*
Y82804D02*
D03*
X72136Y81661D02*
D03*
Y82804D02*
D03*
Y77724D02*
D03*
Y76581D02*
D03*
X60960Y48260D02*
D03*
X35825Y65225D02*
D03*
X56642Y98044D02*
D03*
X34671Y50165D02*
D03*
X66675Y78613D02*
D03*
X70485Y79502D02*
D03*
X68961D02*
D03*
X49530Y36830D02*
D03*
X52070Y35941D02*
D03*
X54610Y35052D02*
D03*
X62230Y81915D02*
D03*
X59690Y76835D02*
D03*
X62611Y69215D02*
D03*
X52070Y52832D02*
D03*
X54610D02*
D03*
X49530Y42545D02*
D03*
X58420Y50800D02*
D03*
X55880Y41402D02*
D03*
X53340Y39380D02*
D03*
X48260Y73013D02*
D03*
X50800D02*
D03*
X67183Y85471D02*
D03*
X60960Y74295D02*
D03*
X65024Y46990D02*
D03*
X64008Y52070D02*
D03*
X57658Y38100D02*
D03*
X59055Y45720D02*
D03*
X57404Y66675D02*
D03*
X42418Y104740D02*
D03*
M02*
