G04*
G04 #@! TF.GenerationSoftware,Altium Limited,Altium Designer,20.2.8 (258)*
G04*
G04 Layer_Physical_Order=4*
G04 Layer_Color=16711680*
%FSLAX43Y43*%
%MOMM*%
G71*
G04*
G04 #@! TF.SameCoordinates,2C7AC1C0-F562-43BB-A571-7E62E4670D11*
G04*
G04*
G04 #@! TF.FilePolarity,Positive*
G04*
G01*
G75*
%ADD11C,0.254*%
%ADD37R,1.000X0.950*%
%ADD81C,0.508*%
%ADD83C,0.500*%
%ADD85C,0.559*%
%ADD88R,0.900X0.300*%
%ADD89C,1.778*%
%ADD90C,3.600*%
%ADD91C,1.700*%
%ADD92R,1.700X1.700*%
%ADD93R,1.700X1.700*%
%ADD94C,1.400*%
G04:AMPARAMS|DCode=95|XSize=1.4mm|YSize=1.4mm|CornerRadius=0.35mm|HoleSize=0mm|Usage=FLASHONLY|Rotation=270.000|XOffset=0mm|YOffset=0mm|HoleType=Round|Shape=RoundedRectangle|*
%AMROUNDEDRECTD95*
21,1,1.400,0.700,0,0,270.0*
21,1,0.700,1.400,0,0,270.0*
1,1,0.700,-0.350,-0.350*
1,1,0.700,-0.350,0.350*
1,1,0.700,0.350,0.350*
1,1,0.700,0.350,-0.350*
%
%ADD95ROUNDEDRECTD95*%
%ADD96C,0.600*%
%ADD103R,1.092X1.600*%
G36*
X71755Y107695D02*
X71946D01*
X72326Y107645D01*
X72696Y107546D01*
X73049Y107400D01*
X73381Y107208D01*
X73684Y106975D01*
X73955Y106704D01*
X74188Y106401D01*
X74380Y106069D01*
X74526Y105716D01*
X74625Y105346D01*
X74675Y104966D01*
Y104775D01*
Y99645D01*
X74656Y99547D01*
X74617Y99455D01*
X74562Y99372D01*
X74491Y99301D01*
X74408Y99246D01*
X74316Y99207D01*
X74218Y99188D01*
X70485Y99188D01*
X70479Y99187D01*
X70472Y99188D01*
X70398Y99184D01*
X70379Y99179D01*
X70361D01*
X70214Y99150D01*
X70191Y99141D01*
X70166Y99136D01*
X70028Y99079D01*
X70007Y99065D01*
X69984Y99055D01*
X69860Y98972D01*
X69842Y98954D01*
X69821Y98940D01*
X69716Y98835D01*
X69702Y98814D01*
X69684Y98796D01*
X69601Y98672D01*
X69591Y98649D01*
X69577Y98628D01*
X69520Y98490D01*
X69515Y98465D01*
X69506Y98442D01*
X69477Y98295D01*
Y98277D01*
X69472Y98258D01*
X69468Y98184D01*
X69469Y98177D01*
X69468Y98171D01*
Y92710D01*
X69470Y92702D01*
X69469Y92693D01*
X69479Y92537D01*
X69485Y92512D01*
X69487Y92487D01*
X69568Y92185D01*
X69583Y92155D01*
X69594Y92123D01*
X69750Y91852D01*
X69772Y91827D01*
X69791Y91799D01*
X70012Y91578D01*
X70040Y91559D01*
X70065Y91537D01*
X70336Y91381D01*
X70368Y91370D01*
X70398Y91355D01*
X70700Y91274D01*
X70734Y91272D01*
X70766Y91265D01*
X71080D01*
X71112Y91272D01*
X71146Y91274D01*
X71448Y91355D01*
X71478Y91370D01*
X71510Y91381D01*
X71781Y91537D01*
X71806Y91559D01*
X71834Y91578D01*
X72055Y91799D01*
X72074Y91827D01*
X72096Y91852D01*
X72252Y92123D01*
X72263Y92155D01*
X72278Y92185D01*
X72359Y92487D01*
X72361Y92512D01*
X72367Y92537D01*
X72377Y92693D01*
X72376Y92702D01*
X72378Y92710D01*
Y95821D01*
X72397Y95919D01*
X72436Y96011D01*
X72491Y96094D01*
X72562Y96165D01*
X72645Y96220D01*
X72737Y96259D01*
X72835Y96278D01*
X72885Y96278D01*
X72885Y96278D01*
X72885Y96278D01*
X74218D01*
X74316Y96259D01*
X74408Y96220D01*
X74491Y96165D01*
X74562Y96094D01*
X74617Y96011D01*
X74656Y95919D01*
X74675Y95821D01*
Y95771D01*
X74675Y3175D01*
X74675Y2984D01*
X74625Y2604D01*
X74526Y2234D01*
X74380Y1881D01*
X74188Y1549D01*
X73955Y1245D01*
X73684Y975D01*
X73381Y742D01*
X73049Y550D01*
X72696Y404D01*
X72326Y305D01*
X71946Y255D01*
X71755Y255D01*
X2984D01*
X2604Y305D01*
X2234Y404D01*
X1881Y550D01*
X1549Y742D01*
X1245Y975D01*
X975Y1246D01*
X742Y1549D01*
X550Y1881D01*
X404Y2234D01*
X305Y2604D01*
X255Y2984D01*
X255Y3175D01*
Y104775D01*
Y104966D01*
X305Y105346D01*
X404Y105716D01*
X550Y106069D01*
X742Y106401D01*
X975Y106704D01*
X1246Y106975D01*
X1549Y107208D01*
X1881Y107400D01*
X2234Y107546D01*
X2604Y107645D01*
X2984Y107695D01*
X3175Y107695D01*
X71755Y107695D01*
D02*
G37*
%LPC*%
G36*
X34445Y105809D02*
Y104965D01*
X35289D01*
X35278Y105049D01*
X35172Y105305D01*
X35004Y105524D01*
X34785Y105692D01*
X34529Y105798D01*
X34445Y105809D01*
D02*
G37*
G36*
X34064Y105809D02*
X33981Y105798D01*
X33725Y105692D01*
X33506Y105524D01*
X33338Y105305D01*
X33232Y105049D01*
X33221Y104965D01*
X34064D01*
Y105809D01*
D02*
G37*
G36*
X35289Y104584D02*
X34445D01*
Y103741D01*
X34529Y103752D01*
X34785Y103858D01*
X35004Y104026D01*
X35172Y104245D01*
X35278Y104501D01*
X35289Y104584D01*
D02*
G37*
G36*
X34064D02*
X33221D01*
X33232Y104501D01*
X33338Y104245D01*
X33506Y104026D01*
X33725Y103858D01*
X33981Y103752D01*
X34064Y103741D01*
Y104584D01*
D02*
G37*
G36*
X37845Y105825D02*
X35745D01*
Y103725D01*
X36291D01*
Y100370D01*
X36050D01*
Y100049D01*
X35750D01*
Y100370D01*
X34350D01*
Y100154D01*
X32942D01*
X32904Y100244D01*
X32730Y100472D01*
X32502Y100646D01*
X32237Y100756D01*
X31953Y100793D01*
X31669Y100756D01*
X31404Y100646D01*
X31177Y100472D01*
X31002Y100244D01*
X30892Y99979D01*
X30855Y99695D01*
X30892Y99411D01*
X31002Y99146D01*
X31177Y98918D01*
X31404Y98744D01*
X31669Y98634D01*
X31953Y98597D01*
X32237Y98634D01*
X32502Y98744D01*
X32730Y98918D01*
X32904Y99146D01*
X32942Y99236D01*
X34350D01*
Y99020D01*
X35750D01*
Y99341D01*
X36050D01*
Y99020D01*
X37450D01*
Y99236D01*
X37973D01*
X38149Y99271D01*
X38297Y99371D01*
X38671Y99744D01*
X54307D01*
X56163Y97888D01*
X56171Y97849D01*
X56282Y97684D01*
X56447Y97573D01*
X56642Y97534D01*
X56837Y97573D01*
X57002Y97684D01*
X57113Y97849D01*
X57152Y98044D01*
X57113Y98239D01*
X57002Y98404D01*
X56837Y98515D01*
X56833Y98516D01*
X54821Y100527D01*
X54673Y100627D01*
X54497Y100662D01*
X38481D01*
X38305Y100627D01*
X38157Y100527D01*
X37783Y100154D01*
X37450D01*
Y100370D01*
X37209D01*
Y103725D01*
X37845D01*
Y105825D01*
D02*
G37*
G36*
X26670Y100793D02*
X26386Y100756D01*
X26359Y100745D01*
X25620D01*
Y100006D01*
X25609Y99979D01*
X25572Y99695D01*
X25609Y99411D01*
X25620Y99384D01*
Y98645D01*
X26359D01*
X26386Y98634D01*
X26670Y98597D01*
X26954Y98634D01*
X26981Y98645D01*
X27720D01*
Y99384D01*
X27731Y99411D01*
X27768Y99695D01*
X27731Y99979D01*
X27720Y100006D01*
Y100745D01*
X26981D01*
X26954Y100756D01*
X26670Y100793D01*
D02*
G37*
G36*
X11430D02*
X11146Y100756D01*
X11119Y100745D01*
X10380D01*
Y100006D01*
X10369Y99979D01*
X10332Y99695D01*
X10369Y99411D01*
X10380Y99384D01*
Y98645D01*
X11119D01*
X11146Y98634D01*
X11430Y98597D01*
X11714Y98634D01*
X11741Y98645D01*
X12480D01*
Y99384D01*
X12491Y99411D01*
X12528Y99695D01*
X12491Y99979D01*
X12480Y100006D01*
Y100745D01*
X11741D01*
X11714Y100756D01*
X11430Y100793D01*
D02*
G37*
G36*
X6147D02*
X5863Y100756D01*
X5598Y100646D01*
X5370Y100472D01*
X5196Y100244D01*
X5086Y99979D01*
X5048Y99695D01*
X5086Y99411D01*
X5196Y99146D01*
X5370Y98918D01*
X5598Y98744D01*
X5863Y98634D01*
X6147Y98597D01*
X6431Y98634D01*
X6696Y98744D01*
X6923Y98918D01*
X7098Y99146D01*
X7208Y99411D01*
X7245Y99695D01*
X7208Y99979D01*
X7098Y100244D01*
X6923Y100472D01*
X6696Y100646D01*
X6431Y100756D01*
X6147Y100793D01*
D02*
G37*
G36*
X50125Y99310D02*
X49930Y99271D01*
X49765Y99160D01*
X49654Y98995D01*
X49615Y98800D01*
X49654Y98605D01*
X49765Y98440D01*
X49930Y98329D01*
X50125Y98290D01*
X50320Y98329D01*
X50485Y98440D01*
X50504Y98467D01*
X52237D01*
X52264Y98335D01*
X52374Y98170D01*
X52539Y98059D01*
X52735Y98020D01*
X52930Y98059D01*
X53095Y98170D01*
X53206Y98335D01*
X53244Y98530D01*
X53206Y98725D01*
X53095Y98891D01*
X52930Y99001D01*
X52735Y99040D01*
X52703Y99034D01*
X52701Y99036D01*
X52592Y99108D01*
X52465Y99133D01*
X50504D01*
X50485Y99160D01*
X50320Y99271D01*
X50125Y99310D01*
D02*
G37*
G36*
X31547Y98253D02*
X31263Y98216D01*
X30998Y98106D01*
X30770Y97932D01*
X30596Y97704D01*
X30486Y97439D01*
X30448Y97155D01*
X30486Y96871D01*
X30596Y96606D01*
X30770Y96378D01*
X30998Y96204D01*
X31263Y96094D01*
X31547Y96057D01*
X31831Y96094D01*
X32096Y96204D01*
X32323Y96378D01*
X32498Y96606D01*
X32608Y96871D01*
X32645Y97155D01*
X32608Y97439D01*
X32498Y97704D01*
X32323Y97932D01*
X32096Y98106D01*
X31831Y98216D01*
X31547Y98253D01*
D02*
G37*
G36*
X26670D02*
X26386Y98216D01*
X26121Y98106D01*
X25893Y97932D01*
X25719Y97704D01*
X25609Y97439D01*
X25572Y97155D01*
X25609Y96871D01*
X25719Y96606D01*
X25893Y96378D01*
X26121Y96204D01*
X26386Y96094D01*
X26670Y96057D01*
X26954Y96094D01*
X27219Y96204D01*
X27447Y96378D01*
X27621Y96606D01*
X27731Y96871D01*
X27768Y97155D01*
X27731Y97439D01*
X27621Y97704D01*
X27447Y97932D01*
X27219Y98106D01*
X26954Y98216D01*
X26670Y98253D01*
D02*
G37*
G36*
X11430D02*
X11146Y98216D01*
X10881Y98106D01*
X10653Y97932D01*
X10479Y97704D01*
X10369Y97439D01*
X10332Y97155D01*
X10369Y96871D01*
X10458Y96655D01*
X9064Y95261D01*
X8992Y95153D01*
X8967Y95025D01*
Y81550D01*
X8992Y81422D01*
X9064Y81314D01*
X9939Y80439D01*
X10047Y80367D01*
X10175Y80342D01*
X10692D01*
X10735Y80215D01*
X10653Y80152D01*
X10479Y79924D01*
X10369Y79659D01*
X10332Y79375D01*
X10369Y79091D01*
X10479Y78826D01*
X10653Y78598D01*
X10881Y78424D01*
X11146Y78314D01*
X11430Y78277D01*
X11714Y78314D01*
X11979Y78424D01*
X12207Y78598D01*
X12381Y78826D01*
X12491Y79091D01*
X12528Y79375D01*
X12491Y79659D01*
X12381Y79924D01*
X12207Y80152D01*
X12125Y80215D01*
X12168Y80342D01*
X14387D01*
X24464Y70264D01*
X24572Y70192D01*
X24700Y70167D01*
X25913D01*
X25956Y70040D01*
X25893Y69992D01*
X25719Y69764D01*
X25609Y69499D01*
X25572Y69215D01*
X25609Y68931D01*
X25719Y68666D01*
X25893Y68438D01*
X26121Y68264D01*
X26386Y68154D01*
X26670Y68117D01*
X26954Y68154D01*
X27219Y68264D01*
X27447Y68438D01*
X27621Y68666D01*
X27731Y68931D01*
X27768Y69215D01*
X27731Y69499D01*
X27621Y69764D01*
X27447Y69992D01*
X27384Y70040D01*
X27427Y70167D01*
X31196D01*
X31239Y70040D01*
X31177Y69992D01*
X31002Y69764D01*
X30892Y69499D01*
X30855Y69215D01*
X30892Y68931D01*
X31002Y68666D01*
X31177Y68438D01*
X31404Y68264D01*
X31669Y68154D01*
X31953Y68117D01*
X32237Y68154D01*
X32502Y68264D01*
X32730Y68438D01*
X32904Y68666D01*
X32994Y68882D01*
X62232D01*
X62251Y68855D01*
X62416Y68744D01*
X62611Y68705D01*
X62806Y68744D01*
X62971Y68855D01*
X63082Y69020D01*
X63121Y69215D01*
X63082Y69410D01*
X62971Y69575D01*
X62806Y69686D01*
X62611Y69725D01*
X62416Y69686D01*
X62251Y69575D01*
X62232Y69548D01*
X32994D01*
X32904Y69764D01*
X32730Y69992D01*
X32667Y70040D01*
X32711Y70167D01*
X64062D01*
X67717Y66512D01*
Y62063D01*
X67032Y61378D01*
X67000Y61385D01*
X66805Y61346D01*
X66640Y61235D01*
X66529Y61070D01*
X66490Y60875D01*
X66529Y60680D01*
X66640Y60515D01*
X66805Y60404D01*
X67000Y60365D01*
X67195Y60404D01*
X67360Y60515D01*
X67471Y60680D01*
X67510Y60875D01*
X67503Y60907D01*
X68286Y61689D01*
X68358Y61797D01*
X68383Y61925D01*
Y66650D01*
X68358Y66778D01*
X68286Y66886D01*
X64436Y70736D01*
X64328Y70808D01*
X64200Y70833D01*
X32332D01*
X32291Y70954D01*
X32323Y70978D01*
X32498Y71206D01*
X32587Y71422D01*
X46482Y71422D01*
X46482Y71422D01*
X61851D01*
X61870Y71395D01*
X62035Y71284D01*
X62230Y71245D01*
X62425Y71284D01*
X62590Y71395D01*
X62701Y71560D01*
X62740Y71755D01*
X62701Y71950D01*
X62590Y72115D01*
X62425Y72226D01*
X62230Y72265D01*
X62035Y72226D01*
X61870Y72115D01*
X61851Y72088D01*
X46482D01*
X46482Y72088D01*
X32587Y72088D01*
X32498Y72304D01*
X32323Y72532D01*
X32096Y72706D01*
X31831Y72816D01*
X31547Y72853D01*
X31263Y72816D01*
X30998Y72706D01*
X30770Y72532D01*
X30596Y72304D01*
X30486Y72039D01*
X30448Y71755D01*
X30486Y71471D01*
X30596Y71206D01*
X30770Y70978D01*
X30802Y70954D01*
X30761Y70833D01*
X27455D01*
X27415Y70954D01*
X27447Y70978D01*
X27621Y71206D01*
X27731Y71471D01*
X27768Y71755D01*
X27731Y72039D01*
X27621Y72304D01*
X27447Y72532D01*
X27219Y72706D01*
X26954Y72816D01*
X26670Y72853D01*
X26386Y72816D01*
X26121Y72706D01*
X25893Y72532D01*
X25719Y72304D01*
X25609Y72039D01*
X25572Y71755D01*
X25609Y71471D01*
X25719Y71206D01*
X25893Y70978D01*
X25925Y70954D01*
X25885Y70833D01*
X24838D01*
X14761Y80911D01*
X14653Y80983D01*
X14525Y81008D01*
X12235D01*
X12194Y81129D01*
X12207Y81138D01*
X12381Y81366D01*
X12471Y81582D01*
X21592D01*
X21611Y81555D01*
X21776Y81444D01*
X21971Y81405D01*
X22166Y81444D01*
X22331Y81555D01*
X22442Y81720D01*
X22481Y81915D01*
X22442Y82110D01*
X22331Y82275D01*
X22166Y82386D01*
X21971Y82425D01*
X21776Y82386D01*
X21611Y82275D01*
X21592Y82248D01*
X12471D01*
X12381Y82464D01*
X12207Y82692D01*
X11979Y82866D01*
X11714Y82976D01*
X11430Y83013D01*
X11146Y82976D01*
X10881Y82866D01*
X10653Y82692D01*
X10479Y82464D01*
X10369Y82199D01*
X10332Y81915D01*
X10369Y81631D01*
X10479Y81366D01*
X10653Y81138D01*
X10666Y81129D01*
X10625Y81008D01*
X10313D01*
X9633Y81688D01*
Y94887D01*
X10930Y96183D01*
X11146Y96094D01*
X11430Y96057D01*
X11714Y96094D01*
X11979Y96204D01*
X12207Y96378D01*
X12381Y96606D01*
X12491Y96871D01*
X12528Y97155D01*
X12491Y97439D01*
X12381Y97704D01*
X12207Y97932D01*
X11979Y98106D01*
X11714Y98216D01*
X11430Y98253D01*
D02*
G37*
G36*
X6553D02*
X6269Y98216D01*
X6004Y98106D01*
X5777Y97932D01*
X5602Y97704D01*
X5492Y97439D01*
X5455Y97155D01*
X5492Y96871D01*
X5602Y96606D01*
X5777Y96378D01*
X6004Y96204D01*
X6269Y96094D01*
X6553Y96057D01*
X6837Y96094D01*
X7102Y96204D01*
X7330Y96378D01*
X7504Y96606D01*
X7614Y96871D01*
X7652Y97155D01*
X7614Y97439D01*
X7504Y97704D01*
X7330Y97932D01*
X7102Y98106D01*
X6837Y98216D01*
X6553Y98253D01*
D02*
G37*
G36*
X37336Y96365D02*
X37141Y96326D01*
X36976Y96216D01*
X36866Y96050D01*
X36827Y95855D01*
X36866Y95660D01*
X36976Y95495D01*
X37141Y95384D01*
X37336Y95345D01*
X37532Y95384D01*
X37697Y95495D01*
X37715Y95522D01*
X40874D01*
X40940Y95423D01*
X41106Y95313D01*
X41301Y95274D01*
X41496Y95313D01*
X41661Y95423D01*
X41772Y95588D01*
X41811Y95784D01*
X41772Y95979D01*
X41661Y96144D01*
X41496Y96255D01*
X41301Y96293D01*
X41106Y96255D01*
X41007Y96189D01*
X37715D01*
X37697Y96216D01*
X37532Y96326D01*
X37336Y96365D01*
D02*
G37*
G36*
X51943Y94744D02*
X51748Y94705D01*
X51583Y94594D01*
X51472Y94429D01*
X51433Y94234D01*
X51440Y94202D01*
X48376Y91138D01*
X32313Y91138D01*
X32272Y91259D01*
X32323Y91298D01*
X32498Y91526D01*
X32608Y91791D01*
X32645Y92075D01*
X32608Y92359D01*
X32498Y92624D01*
X32323Y92852D01*
X32096Y93026D01*
X31831Y93136D01*
X31547Y93173D01*
X31263Y93136D01*
X30998Y93026D01*
X30770Y92852D01*
X30596Y92624D01*
X30486Y92359D01*
X30448Y92075D01*
X30486Y91791D01*
X30596Y91526D01*
X30770Y91298D01*
X30822Y91259D01*
X30781Y91138D01*
X27436D01*
X27395Y91259D01*
X27447Y91298D01*
X27621Y91526D01*
X27731Y91791D01*
X27768Y92075D01*
X27731Y92359D01*
X27621Y92624D01*
X27447Y92852D01*
X27219Y93026D01*
X26954Y93136D01*
X26670Y93173D01*
X26386Y93136D01*
X26121Y93026D01*
X25893Y92852D01*
X25719Y92624D01*
X25609Y92359D01*
X25572Y92075D01*
X25609Y91791D01*
X25719Y91526D01*
X25893Y91298D01*
X25945Y91259D01*
X25904Y91138D01*
X21207D01*
X21188Y91165D01*
X21023Y91276D01*
X20828Y91315D01*
X20633Y91276D01*
X20468Y91165D01*
X20357Y91000D01*
X20318Y90805D01*
X20357Y90610D01*
X20468Y90445D01*
X20633Y90334D01*
X20828Y90295D01*
X21023Y90334D01*
X21188Y90445D01*
X21207Y90472D01*
X25904D01*
X25945Y90351D01*
X25893Y90312D01*
X25719Y90084D01*
X25609Y89819D01*
X25597Y89726D01*
X27743D01*
X27731Y89819D01*
X27621Y90084D01*
X27447Y90312D01*
X27395Y90351D01*
X27436Y90472D01*
X31187D01*
X31228Y90351D01*
X31177Y90312D01*
X31002Y90084D01*
X30892Y89819D01*
X30880Y89726D01*
X33027D01*
X33014Y89819D01*
X32904Y90084D01*
X32730Y90312D01*
X32678Y90351D01*
X32719Y90472D01*
X48514Y90472D01*
X48642Y90497D01*
X48750Y90569D01*
X51911Y93731D01*
X51943Y93724D01*
X52138Y93763D01*
X52303Y93874D01*
X52414Y94039D01*
X52453Y94234D01*
X52414Y94429D01*
X52303Y94594D01*
X52138Y94705D01*
X51943Y94744D01*
D02*
G37*
G36*
X52383Y97428D02*
X45913D01*
X45737Y97393D01*
X45589Y97293D01*
X44749Y96454D01*
X44728Y96450D01*
X44562Y96339D01*
X44452Y96174D01*
X44413Y95979D01*
X44452Y95784D01*
X44562Y95618D01*
X44728Y95508D01*
X44923Y95469D01*
X45118Y95508D01*
X45283Y95618D01*
X45394Y95784D01*
X45398Y95805D01*
X46103Y96510D01*
X52193D01*
X54770Y93933D01*
X54774Y93912D01*
X54885Y93747D01*
X55050Y93636D01*
X55245Y93597D01*
X55440Y93636D01*
X55605Y93747D01*
X55716Y93912D01*
X55755Y94107D01*
X55716Y94302D01*
X55605Y94467D01*
X55440Y94578D01*
X55419Y94582D01*
X52708Y97293D01*
X52559Y97393D01*
X52383Y97428D01*
D02*
G37*
G36*
X31953Y95713D02*
X31669Y95676D01*
X31404Y95566D01*
X31177Y95392D01*
X31002Y95164D01*
X30892Y94899D01*
X30855Y94615D01*
X30892Y94331D01*
X31002Y94066D01*
X31177Y93838D01*
X31404Y93664D01*
X31669Y93554D01*
X31953Y93517D01*
X32237Y93554D01*
X32502Y93664D01*
X32730Y93838D01*
X32904Y94066D01*
X33014Y94331D01*
X33052Y94615D01*
X33014Y94899D01*
X32904Y95164D01*
X32730Y95392D01*
X32502Y95566D01*
X32237Y95676D01*
X31953Y95713D01*
D02*
G37*
G36*
X26670D02*
X26386Y95676D01*
X26121Y95566D01*
X25893Y95392D01*
X25719Y95164D01*
X25609Y94899D01*
X25572Y94615D01*
X25609Y94331D01*
X25719Y94066D01*
X25893Y93838D01*
X26121Y93664D01*
X26386Y93554D01*
X26670Y93517D01*
X26954Y93554D01*
X27219Y93664D01*
X27447Y93838D01*
X27621Y94066D01*
X27731Y94331D01*
X27768Y94615D01*
X27731Y94899D01*
X27621Y95164D01*
X27447Y95392D01*
X27219Y95566D01*
X26954Y95676D01*
X26670Y95713D01*
D02*
G37*
G36*
X11430D02*
X11146Y95676D01*
X10881Y95566D01*
X10653Y95392D01*
X10479Y95164D01*
X10369Y94899D01*
X10332Y94615D01*
X10369Y94331D01*
X10479Y94066D01*
X10653Y93838D01*
X10881Y93664D01*
X11146Y93554D01*
X11430Y93517D01*
X11714Y93554D01*
X11979Y93664D01*
X12207Y93838D01*
X12381Y94066D01*
X12491Y94331D01*
X12528Y94615D01*
X12491Y94899D01*
X12381Y95164D01*
X12207Y95392D01*
X11979Y95566D01*
X11714Y95676D01*
X11430Y95713D01*
D02*
G37*
G36*
X6147D02*
X5863Y95676D01*
X5598Y95566D01*
X5370Y95392D01*
X5196Y95164D01*
X5086Y94899D01*
X5048Y94615D01*
X5086Y94331D01*
X5196Y94066D01*
X5370Y93838D01*
X5598Y93664D01*
X5863Y93554D01*
X6147Y93517D01*
X6431Y93554D01*
X6696Y93664D01*
X6923Y93838D01*
X7098Y94066D01*
X7208Y94331D01*
X7245Y94615D01*
X7208Y94899D01*
X7098Y95164D01*
X6923Y95392D01*
X6696Y95566D01*
X6431Y95676D01*
X6147Y95713D01*
D02*
G37*
G36*
X63723Y93986D02*
X63023D01*
X62808Y93943D01*
X62626Y93822D01*
X62505Y93640D01*
X62462Y93425D01*
Y92725D01*
X62505Y92510D01*
X62626Y92328D01*
X62808Y92207D01*
X63023Y92164D01*
X63723D01*
X63938Y92207D01*
X64120Y92328D01*
X64241Y92510D01*
X64284Y92725D01*
Y93425D01*
X64241Y93640D01*
X64120Y93822D01*
X63938Y93943D01*
X63723Y93986D01*
D02*
G37*
G36*
X63564Y91958D02*
Y91265D01*
X64256D01*
X64250Y91310D01*
X64159Y91529D01*
X64015Y91717D01*
X63827Y91861D01*
X63608Y91952D01*
X63564Y91958D01*
D02*
G37*
G36*
X63183Y91958D02*
X63138Y91952D01*
X62919Y91861D01*
X62731Y91717D01*
X62587Y91529D01*
X62496Y91310D01*
X62490Y91265D01*
X63183D01*
Y91958D01*
D02*
G37*
G36*
X11430Y93173D02*
X11146Y93136D01*
X10881Y93026D01*
X10653Y92852D01*
X10479Y92624D01*
X10369Y92359D01*
X10332Y92075D01*
X10369Y91791D01*
X10479Y91526D01*
X10653Y91298D01*
X10881Y91124D01*
X11146Y91014D01*
X11430Y90977D01*
X11714Y91014D01*
X11979Y91124D01*
X12207Y91298D01*
X12381Y91526D01*
X12491Y91791D01*
X12528Y92075D01*
X12491Y92359D01*
X12381Y92624D01*
X12207Y92852D01*
X11979Y93026D01*
X11714Y93136D01*
X11430Y93173D01*
D02*
G37*
G36*
X6553D02*
X6269Y93136D01*
X6004Y93026D01*
X5777Y92852D01*
X5602Y92624D01*
X5492Y92359D01*
X5455Y92075D01*
X5492Y91791D01*
X5602Y91526D01*
X5777Y91298D01*
X6004Y91124D01*
X6269Y91014D01*
X6553Y90977D01*
X6837Y91014D01*
X7102Y91124D01*
X7330Y91298D01*
X7504Y91526D01*
X7614Y91791D01*
X7652Y92075D01*
X7614Y92359D01*
X7504Y92624D01*
X7330Y92852D01*
X7102Y93026D01*
X6837Y93136D01*
X6553Y93173D01*
D02*
G37*
G36*
X64256Y90884D02*
X63564D01*
Y90192D01*
X63608Y90198D01*
X63827Y90289D01*
X64015Y90433D01*
X64159Y90621D01*
X64250Y90840D01*
X64256Y90884D01*
D02*
G37*
G36*
X63183D02*
X62490D01*
X62496Y90840D01*
X62587Y90621D01*
X62731Y90433D01*
X62919Y90289D01*
X63138Y90198D01*
X63183Y90192D01*
Y90884D01*
D02*
G37*
G36*
X42418Y105250D02*
X42223Y105211D01*
X42058Y105100D01*
X41947Y104935D01*
X41908Y104740D01*
X41947Y104545D01*
X42058Y104380D01*
X42223Y104269D01*
X42418Y104230D01*
X42524Y104251D01*
X55058D01*
X65486Y93823D01*
Y90206D01*
X65465Y90100D01*
X65504Y89905D01*
X65615Y89740D01*
X65629Y89730D01*
X65629Y89729D01*
X65788Y89623D01*
X65975Y89586D01*
X66162Y89623D01*
X66321Y89729D01*
X66321Y89730D01*
X66335Y89740D01*
X66446Y89905D01*
X66485Y90100D01*
X66464Y90206D01*
Y94025D01*
X66427Y94212D01*
X66321Y94371D01*
X55606Y105086D01*
X55447Y105192D01*
X55260Y105229D01*
X42524D01*
X42418Y105250D01*
D02*
G37*
G36*
X33027Y89344D02*
X32144D01*
Y88462D01*
X32237Y88474D01*
X32502Y88584D01*
X32730Y88758D01*
X32904Y88986D01*
X33014Y89251D01*
X33027Y89344D01*
D02*
G37*
G36*
X31763D02*
X30880D01*
X30892Y89251D01*
X31002Y88986D01*
X31177Y88758D01*
X31404Y88584D01*
X31669Y88474D01*
X31763Y88462D01*
Y89344D01*
D02*
G37*
G36*
X27743D02*
X26861D01*
Y88462D01*
X26954Y88474D01*
X27219Y88584D01*
X27447Y88758D01*
X27621Y88986D01*
X27731Y89251D01*
X27743Y89344D01*
D02*
G37*
G36*
X26479D02*
X25597D01*
X25609Y89251D01*
X25719Y88986D01*
X25893Y88758D01*
X26121Y88584D01*
X26386Y88474D01*
X26479Y88462D01*
Y89344D01*
D02*
G37*
G36*
X11430Y90633D02*
X11146Y90596D01*
X10881Y90486D01*
X10653Y90312D01*
X10479Y90084D01*
X10369Y89819D01*
X10332Y89535D01*
X10369Y89251D01*
X10479Y88986D01*
X10653Y88758D01*
X10881Y88584D01*
X11146Y88474D01*
X11430Y88437D01*
X11714Y88474D01*
X11979Y88584D01*
X12207Y88758D01*
X12381Y88986D01*
X12491Y89251D01*
X12528Y89535D01*
X12491Y89819D01*
X12381Y90084D01*
X12207Y90312D01*
X11979Y90486D01*
X11714Y90596D01*
X11430Y90633D01*
D02*
G37*
G36*
X6147D02*
X5863Y90596D01*
X5598Y90486D01*
X5370Y90312D01*
X5196Y90084D01*
X5086Y89819D01*
X5048Y89535D01*
X5086Y89251D01*
X5196Y88986D01*
X5370Y88758D01*
X5598Y88584D01*
X5863Y88474D01*
X6147Y88437D01*
X6431Y88474D01*
X6696Y88584D01*
X6923Y88758D01*
X7098Y88986D01*
X7208Y89251D01*
X7245Y89535D01*
X7208Y89819D01*
X7098Y90084D01*
X6923Y90312D01*
X6696Y90486D01*
X6431Y90596D01*
X6147Y90633D01*
D02*
G37*
G36*
X31547Y88093D02*
X31263Y88056D01*
X30998Y87946D01*
X30770Y87772D01*
X30596Y87544D01*
X30486Y87279D01*
X30448Y86995D01*
X30486Y86711D01*
X30596Y86446D01*
X30770Y86218D01*
X30998Y86044D01*
X31263Y85934D01*
X31547Y85897D01*
X31831Y85934D01*
X32096Y86044D01*
X32323Y86218D01*
X32498Y86446D01*
X32608Y86711D01*
X32645Y86995D01*
X32608Y87279D01*
X32498Y87544D01*
X32323Y87772D01*
X32096Y87946D01*
X31831Y88056D01*
X31547Y88093D01*
D02*
G37*
G36*
X26670D02*
X26386Y88056D01*
X26121Y87946D01*
X25893Y87772D01*
X25719Y87544D01*
X25609Y87279D01*
X25572Y86995D01*
X25609Y86711D01*
X25719Y86446D01*
X25893Y86218D01*
X26121Y86044D01*
X26386Y85934D01*
X26670Y85897D01*
X26954Y85934D01*
X27219Y86044D01*
X27447Y86218D01*
X27621Y86446D01*
X27731Y86711D01*
X27768Y86995D01*
X27731Y87279D01*
X27621Y87544D01*
X27447Y87772D01*
X27219Y87946D01*
X26954Y88056D01*
X26670Y88093D01*
D02*
G37*
G36*
X11430D02*
X11146Y88056D01*
X10881Y87946D01*
X10653Y87772D01*
X10479Y87544D01*
X10369Y87279D01*
X10332Y86995D01*
X10369Y86711D01*
X10479Y86446D01*
X10653Y86218D01*
X10881Y86044D01*
X11146Y85934D01*
X11430Y85897D01*
X11714Y85934D01*
X11979Y86044D01*
X12207Y86218D01*
X12381Y86446D01*
X12491Y86711D01*
X12528Y86995D01*
X12491Y87279D01*
X12381Y87544D01*
X12207Y87772D01*
X11979Y87946D01*
X11714Y88056D01*
X11430Y88093D01*
D02*
G37*
G36*
X6553D02*
X6269Y88056D01*
X6004Y87946D01*
X5777Y87772D01*
X5602Y87544D01*
X5492Y87279D01*
X5455Y86995D01*
X5492Y86711D01*
X5602Y86446D01*
X5777Y86218D01*
X6004Y86044D01*
X6269Y85934D01*
X6553Y85897D01*
X6837Y85934D01*
X7102Y86044D01*
X7330Y86218D01*
X7504Y86446D01*
X7614Y86711D01*
X7652Y86995D01*
X7614Y87279D01*
X7504Y87544D01*
X7330Y87772D01*
X7102Y87946D01*
X6837Y88056D01*
X6553Y88093D01*
D02*
G37*
G36*
X43370Y86124D02*
Y85280D01*
X44214D01*
X44203Y85364D01*
X44097Y85620D01*
X43929Y85839D01*
X43710Y86007D01*
X43454Y86113D01*
X43370Y86124D01*
D02*
G37*
G36*
X42989Y86124D02*
X42906Y86113D01*
X42650Y86007D01*
X42431Y85839D01*
X42263Y85620D01*
X42157Y85364D01*
X42146Y85280D01*
X42989D01*
Y86124D01*
D02*
G37*
G36*
X40031Y88888D02*
X39854Y88853D01*
X39704Y88752D01*
X39704Y88752D01*
X39150Y88199D01*
X39136Y88196D01*
X38971Y88085D01*
X38860Y87920D01*
X38821Y87725D01*
X38860Y87530D01*
X38910Y87455D01*
X38842Y87328D01*
X36677D01*
X36549Y87303D01*
X36441Y87231D01*
X33999Y84788D01*
X32994D01*
X32904Y85004D01*
X32730Y85232D01*
X32502Y85406D01*
X32237Y85516D01*
X31953Y85553D01*
X31669Y85516D01*
X31404Y85406D01*
X31177Y85232D01*
X31002Y85004D01*
X30892Y84739D01*
X30855Y84455D01*
X30892Y84171D01*
X31002Y83906D01*
X31177Y83678D01*
X31228Y83639D01*
X31187Y83518D01*
X27436D01*
X27395Y83639D01*
X27447Y83678D01*
X27621Y83906D01*
X27731Y84171D01*
X27768Y84455D01*
X27731Y84739D01*
X27621Y85004D01*
X27447Y85232D01*
X27219Y85406D01*
X26954Y85516D01*
X26670Y85553D01*
X26386Y85516D01*
X26121Y85406D01*
X25893Y85232D01*
X25719Y85004D01*
X25609Y84739D01*
X25572Y84455D01*
X25609Y84171D01*
X25719Y83906D01*
X25893Y83678D01*
X25945Y83639D01*
X25904Y83518D01*
X24636D01*
X24617Y83545D01*
X24452Y83656D01*
X24257Y83695D01*
X24062Y83656D01*
X23897Y83545D01*
X23786Y83380D01*
X23747Y83185D01*
X23786Y82990D01*
X23897Y82825D01*
X24062Y82714D01*
X24257Y82675D01*
X24452Y82714D01*
X24617Y82825D01*
X24636Y82852D01*
X25904D01*
X25945Y82731D01*
X25893Y82692D01*
X25719Y82464D01*
X25609Y82199D01*
X25572Y81915D01*
X25609Y81631D01*
X25719Y81366D01*
X25893Y81138D01*
X26121Y80964D01*
X26386Y80854D01*
X26670Y80817D01*
X26954Y80854D01*
X27219Y80964D01*
X27447Y81138D01*
X27621Y81366D01*
X27731Y81631D01*
X27768Y81915D01*
X27731Y82199D01*
X27621Y82464D01*
X27447Y82692D01*
X27395Y82731D01*
X27436Y82852D01*
X30781D01*
X30822Y82731D01*
X30770Y82692D01*
X30596Y82464D01*
X30486Y82199D01*
X30448Y81915D01*
X30486Y81631D01*
X30596Y81366D01*
X30770Y81138D01*
X30998Y80964D01*
X31263Y80854D01*
X31547Y80817D01*
X31831Y80854D01*
X32096Y80964D01*
X32323Y81138D01*
X32498Y81366D01*
X32587Y81582D01*
X61851Y81582D01*
X61870Y81555D01*
X62035Y81444D01*
X62230Y81405D01*
X62425Y81444D01*
X62590Y81555D01*
X62701Y81720D01*
X62740Y81915D01*
X62701Y82110D01*
X62590Y82275D01*
X62425Y82386D01*
X62230Y82425D01*
X62035Y82386D01*
X61870Y82275D01*
X61851Y82248D01*
X32587Y82248D01*
X32498Y82464D01*
X32323Y82692D01*
X32272Y82731D01*
X32313Y82852D01*
X34373D01*
X34500Y82877D01*
X34609Y82949D01*
X35781Y84122D01*
X39486D01*
X40658Y82949D01*
X40766Y82877D01*
X40894Y82852D01*
X55245D01*
X55373Y82877D01*
X55481Y82949D01*
X56116Y83584D01*
X56188Y83692D01*
X56213Y83820D01*
Y84092D01*
X56410Y84173D01*
X56629Y84341D01*
X56797Y84560D01*
X56903Y84816D01*
X56939Y85090D01*
X56903Y85364D01*
X56797Y85620D01*
X56629Y85839D01*
X56410Y86007D01*
X56154Y86113D01*
X55880Y86149D01*
X55606Y86113D01*
X55350Y86007D01*
X55131Y85839D01*
X54963Y85620D01*
X54857Y85364D01*
X54821Y85090D01*
X54857Y84816D01*
X54963Y84560D01*
X55131Y84341D01*
X55350Y84173D01*
X55547Y84092D01*
Y83958D01*
X55107Y83518D01*
X41032D01*
X39860Y84691D01*
X39752Y84763D01*
X39624Y84788D01*
X35643D01*
X35515Y84763D01*
X35407Y84691D01*
X34235Y83518D01*
X32719D01*
X32678Y83639D01*
X32730Y83678D01*
X32904Y83906D01*
X32994Y84122D01*
X34137D01*
X34265Y84147D01*
X34373Y84219D01*
X36815Y86662D01*
X57647D01*
X58087Y86222D01*
Y86088D01*
X57890Y86007D01*
X57671Y85839D01*
X57503Y85620D01*
X57397Y85364D01*
X57361Y85090D01*
X57397Y84816D01*
X57503Y84560D01*
X57671Y84341D01*
X57890Y84173D01*
X58146Y84067D01*
X58420Y84031D01*
X58694Y84067D01*
X58950Y84173D01*
X59169Y84341D01*
X59337Y84560D01*
X59443Y84816D01*
X59479Y85090D01*
X59443Y85364D01*
X59337Y85620D01*
X59169Y85839D01*
X58950Y86007D01*
X58753Y86088D01*
Y86360D01*
X58728Y86488D01*
X58656Y86596D01*
X58021Y87231D01*
X57913Y87303D01*
X57785Y87328D01*
X39820D01*
X39752Y87455D01*
X39802Y87530D01*
X39805Y87544D01*
X40223Y87962D01*
X61958Y87962D01*
X63673Y86248D01*
X63673Y86248D01*
X63823Y86147D01*
X64000Y86112D01*
X68158D01*
X69127Y85144D01*
X69127Y85144D01*
X69277Y85043D01*
X69454Y85008D01*
X71294D01*
X71306Y85000D01*
X71501Y84961D01*
X71696Y85000D01*
X71861Y85111D01*
X71972Y85276D01*
X72011Y85471D01*
X71972Y85666D01*
X71861Y85831D01*
X71696Y85942D01*
X71501Y85981D01*
X71306Y85942D01*
X71294Y85934D01*
X69646D01*
X68677Y86902D01*
X68527Y87003D01*
X68350Y87038D01*
X68350Y87038D01*
X64192D01*
X62477Y88752D01*
X62327Y88853D01*
X62150Y88888D01*
X62150Y88888D01*
X40031Y88888D01*
X40031Y88888D01*
D02*
G37*
G36*
X42989Y84899D02*
X42146D01*
X42157Y84816D01*
X42263Y84560D01*
X42431Y84341D01*
X42650Y84173D01*
X42906Y84067D01*
X42989Y84056D01*
Y84899D01*
D02*
G37*
G36*
X44214D02*
X43370D01*
Y84056D01*
X43454Y84067D01*
X43710Y84173D01*
X43929Y84341D01*
X44097Y84560D01*
X44203Y84816D01*
X44214Y84899D01*
D02*
G37*
G36*
X62010Y86140D02*
X59910D01*
Y84040D01*
X62010D01*
Y86140D01*
D02*
G37*
G36*
X53340Y86149D02*
X53066Y86113D01*
X52810Y86007D01*
X52591Y85839D01*
X52423Y85620D01*
X52317Y85364D01*
X52281Y85090D01*
X52317Y84816D01*
X52423Y84560D01*
X52591Y84341D01*
X52810Y84173D01*
X53066Y84067D01*
X53340Y84031D01*
X53614Y84067D01*
X53870Y84173D01*
X54089Y84341D01*
X54257Y84560D01*
X54363Y84816D01*
X54399Y85090D01*
X54363Y85364D01*
X54257Y85620D01*
X54089Y85839D01*
X53870Y86007D01*
X53614Y86113D01*
X53340Y86149D01*
D02*
G37*
G36*
X50800D02*
X50526Y86113D01*
X50270Y86007D01*
X50051Y85839D01*
X49883Y85620D01*
X49777Y85364D01*
X49741Y85090D01*
X49777Y84816D01*
X49883Y84560D01*
X50051Y84341D01*
X50270Y84173D01*
X50526Y84067D01*
X50800Y84031D01*
X51074Y84067D01*
X51330Y84173D01*
X51549Y84341D01*
X51717Y84560D01*
X51823Y84816D01*
X51859Y85090D01*
X51823Y85364D01*
X51717Y85620D01*
X51549Y85839D01*
X51330Y86007D01*
X51074Y86113D01*
X50800Y86149D01*
D02*
G37*
G36*
X48260D02*
X47986Y86113D01*
X47730Y86007D01*
X47511Y85839D01*
X47343Y85620D01*
X47237Y85364D01*
X47201Y85090D01*
X47237Y84816D01*
X47343Y84560D01*
X47511Y84341D01*
X47730Y84173D01*
X47986Y84067D01*
X48260Y84031D01*
X48534Y84067D01*
X48790Y84173D01*
X49009Y84341D01*
X49177Y84560D01*
X49283Y84816D01*
X49319Y85090D01*
X49283Y85364D01*
X49177Y85620D01*
X49009Y85839D01*
X48790Y86007D01*
X48534Y86113D01*
X48260Y86149D01*
D02*
G37*
G36*
X45720D02*
X45446Y86113D01*
X45190Y86007D01*
X44971Y85839D01*
X44803Y85620D01*
X44697Y85364D01*
X44661Y85090D01*
X44697Y84816D01*
X44803Y84560D01*
X44971Y84341D01*
X45190Y84173D01*
X45446Y84067D01*
X45720Y84031D01*
X45994Y84067D01*
X46250Y84173D01*
X46469Y84341D01*
X46637Y84560D01*
X46743Y84816D01*
X46779Y85090D01*
X46743Y85364D01*
X46637Y85620D01*
X46469Y85839D01*
X46250Y86007D01*
X45994Y86113D01*
X45720Y86149D01*
D02*
G37*
G36*
X11430Y85553D02*
X11146Y85516D01*
X10881Y85406D01*
X10653Y85232D01*
X10479Y85004D01*
X10369Y84739D01*
X10332Y84455D01*
X10369Y84171D01*
X10479Y83906D01*
X10653Y83678D01*
X10881Y83504D01*
X11146Y83394D01*
X11430Y83357D01*
X11714Y83394D01*
X11979Y83504D01*
X12207Y83678D01*
X12381Y83906D01*
X12471Y84122D01*
X22735D01*
X22754Y84095D01*
X22919Y83984D01*
X23114Y83945D01*
X23309Y83984D01*
X23474Y84095D01*
X23585Y84260D01*
X23624Y84455D01*
X23585Y84650D01*
X23474Y84815D01*
X23309Y84926D01*
X23114Y84965D01*
X22919Y84926D01*
X22754Y84815D01*
X22735Y84788D01*
X12471D01*
X12381Y85004D01*
X12207Y85232D01*
X11979Y85406D01*
X11714Y85516D01*
X11430Y85553D01*
D02*
G37*
G36*
X6147D02*
X5863Y85516D01*
X5598Y85406D01*
X5370Y85232D01*
X5196Y85004D01*
X5086Y84739D01*
X5048Y84455D01*
X5086Y84171D01*
X5196Y83906D01*
X5370Y83678D01*
X5598Y83504D01*
X5863Y83394D01*
X6147Y83357D01*
X6431Y83394D01*
X6696Y83504D01*
X6923Y83678D01*
X7098Y83906D01*
X7208Y84171D01*
X7245Y84455D01*
X7208Y84739D01*
X7098Y85004D01*
X6923Y85232D01*
X6696Y85406D01*
X6431Y85516D01*
X6147Y85553D01*
D02*
G37*
G36*
X6553Y83013D02*
X6269Y82976D01*
X6004Y82866D01*
X5777Y82692D01*
X5602Y82464D01*
X5492Y82199D01*
X5455Y81915D01*
X5492Y81631D01*
X5602Y81366D01*
X5777Y81138D01*
X6004Y80964D01*
X6269Y80854D01*
X6553Y80817D01*
X6837Y80854D01*
X7102Y80964D01*
X7330Y81138D01*
X7504Y81366D01*
X7614Y81631D01*
X7652Y81915D01*
X7614Y82199D01*
X7504Y82464D01*
X7330Y82692D01*
X7102Y82866D01*
X6837Y82976D01*
X6553Y83013D01*
D02*
G37*
G36*
X64389Y80520D02*
X64194Y80481D01*
X64029Y80370D01*
X63918Y80205D01*
X63879Y80010D01*
X63886Y79978D01*
X63616Y79708D01*
X62125D01*
X32994Y79708D01*
X32904Y79924D01*
X32730Y80152D01*
X32502Y80326D01*
X32237Y80436D01*
X31953Y80473D01*
X31669Y80436D01*
X31404Y80326D01*
X31177Y80152D01*
X31002Y79924D01*
X30892Y79659D01*
X30855Y79375D01*
X30892Y79091D01*
X31002Y78826D01*
X31177Y78598D01*
X31404Y78424D01*
X31669Y78314D01*
X31953Y78277D01*
X32237Y78314D01*
X32502Y78424D01*
X32730Y78598D01*
X32904Y78826D01*
X32994Y79042D01*
X62125Y79042D01*
X63754D01*
X63882Y79067D01*
X63990Y79139D01*
X64357Y79507D01*
X64389Y79500D01*
X64584Y79539D01*
X64749Y79650D01*
X64860Y79815D01*
X64899Y80010D01*
X64860Y80205D01*
X64749Y80370D01*
X64584Y80481D01*
X64389Y80520D01*
D02*
G37*
G36*
X67183Y85981D02*
X66988Y85942D01*
X66823Y85831D01*
X66712Y85666D01*
X66673Y85471D01*
X66712Y85276D01*
X66823Y85111D01*
X66850Y85092D01*
Y83236D01*
X66875Y83108D01*
X66947Y83000D01*
X68628Y81320D01*
Y79881D01*
X68601Y79862D01*
X68490Y79697D01*
X68451Y79502D01*
X68490Y79307D01*
X68601Y79142D01*
X68766Y79031D01*
X68961Y78992D01*
X69156Y79031D01*
X69321Y79142D01*
X69432Y79307D01*
X69471Y79502D01*
X69432Y79697D01*
X69321Y79862D01*
X69294Y79881D01*
Y81458D01*
X69269Y81586D01*
X69197Y81694D01*
X67516Y83374D01*
Y85092D01*
X67543Y85111D01*
X67654Y85276D01*
X67693Y85471D01*
X67654Y85666D01*
X67543Y85831D01*
X67378Y85942D01*
X67183Y85981D01*
D02*
G37*
G36*
X70485Y80012D02*
X70290Y79973D01*
X70125Y79862D01*
X70014Y79697D01*
X69975Y79502D01*
X70014Y79307D01*
X70125Y79142D01*
X70152Y79123D01*
Y78624D01*
X69966Y78438D01*
X67321D01*
X67178Y78581D01*
X67185Y78613D01*
X67146Y78808D01*
X67035Y78973D01*
X66870Y79084D01*
X66675Y79123D01*
X66480Y79084D01*
X66315Y78973D01*
X66204Y78808D01*
X66165Y78613D01*
X66204Y78418D01*
X66315Y78253D01*
X66480Y78142D01*
X66675Y78103D01*
X66707Y78110D01*
X66947Y77869D01*
X67055Y77797D01*
X67183Y77772D01*
X70104D01*
X70232Y77797D01*
X70340Y77869D01*
X70721Y78250D01*
X70793Y78358D01*
X70818Y78486D01*
Y79123D01*
X70845Y79142D01*
X70956Y79307D01*
X70995Y79502D01*
X70956Y79697D01*
X70845Y79862D01*
X70680Y79973D01*
X70485Y80012D01*
D02*
G37*
G36*
X26670Y80473D02*
X26386Y80436D01*
X26121Y80326D01*
X25893Y80152D01*
X25719Y79924D01*
X25609Y79659D01*
X25572Y79375D01*
X25609Y79091D01*
X25719Y78826D01*
X25893Y78598D01*
X26121Y78424D01*
X26386Y78314D01*
X26670Y78277D01*
X26954Y78314D01*
X27219Y78424D01*
X27447Y78598D01*
X27621Y78826D01*
X27731Y79091D01*
X27768Y79375D01*
X27731Y79659D01*
X27621Y79924D01*
X27447Y80152D01*
X27219Y80326D01*
X26954Y80436D01*
X26670Y80473D01*
D02*
G37*
G36*
X6147D02*
X5863Y80436D01*
X5598Y80326D01*
X5370Y80152D01*
X5196Y79924D01*
X5086Y79659D01*
X5048Y79375D01*
X5086Y79091D01*
X5196Y78826D01*
X5370Y78598D01*
X5598Y78424D01*
X5863Y78314D01*
X6147Y78277D01*
X6431Y78314D01*
X6696Y78424D01*
X6923Y78598D01*
X7098Y78826D01*
X7208Y79091D01*
X7245Y79375D01*
X7208Y79659D01*
X7098Y79924D01*
X6923Y80152D01*
X6696Y80326D01*
X6431Y80436D01*
X6147Y80473D01*
D02*
G37*
G36*
X31547Y77933D02*
X31263Y77896D01*
X30998Y77786D01*
X30770Y77612D01*
X30596Y77384D01*
X30486Y77119D01*
X30448Y76835D01*
X30486Y76551D01*
X30596Y76286D01*
X30770Y76058D01*
X30998Y75884D01*
X31263Y75774D01*
X31547Y75737D01*
X31831Y75774D01*
X32096Y75884D01*
X32323Y76058D01*
X32498Y76286D01*
X32587Y76502D01*
X59311Y76502D01*
X59330Y76475D01*
X59495Y76364D01*
X59690Y76325D01*
X59885Y76364D01*
X60050Y76475D01*
X60161Y76640D01*
X60200Y76835D01*
X60161Y77030D01*
X60050Y77195D01*
X59885Y77306D01*
X59690Y77345D01*
X59495Y77306D01*
X59330Y77195D01*
X59311Y77168D01*
X32587Y77168D01*
X32498Y77384D01*
X32323Y77612D01*
X32096Y77786D01*
X31831Y77896D01*
X31547Y77933D01*
D02*
G37*
G36*
X26670D02*
X26386Y77896D01*
X26121Y77786D01*
X25893Y77612D01*
X25719Y77384D01*
X25609Y77119D01*
X25572Y76835D01*
X25609Y76551D01*
X25719Y76286D01*
X25893Y76058D01*
X26121Y75884D01*
X26386Y75774D01*
X26670Y75737D01*
X26954Y75774D01*
X27219Y75884D01*
X27447Y76058D01*
X27621Y76286D01*
X27731Y76551D01*
X27768Y76835D01*
X27731Y77119D01*
X27621Y77384D01*
X27447Y77612D01*
X27219Y77786D01*
X26954Y77896D01*
X26670Y77933D01*
D02*
G37*
G36*
X11430D02*
X11146Y77896D01*
X10881Y77786D01*
X10653Y77612D01*
X10479Y77384D01*
X10369Y77119D01*
X10332Y76835D01*
X10369Y76551D01*
X10479Y76286D01*
X10653Y76058D01*
X10881Y75884D01*
X11146Y75774D01*
X11430Y75737D01*
X11714Y75774D01*
X11979Y75884D01*
X12207Y76058D01*
X12381Y76286D01*
X12491Y76551D01*
X12528Y76835D01*
X12491Y77119D01*
X12381Y77384D01*
X12207Y77612D01*
X11979Y77786D01*
X11714Y77896D01*
X11430Y77933D01*
D02*
G37*
G36*
X6553D02*
X6269Y77896D01*
X6004Y77786D01*
X5777Y77612D01*
X5602Y77384D01*
X5492Y77119D01*
X5455Y76835D01*
X5492Y76551D01*
X5602Y76286D01*
X5777Y76058D01*
X6004Y75884D01*
X6269Y75774D01*
X6553Y75737D01*
X6837Y75774D01*
X7102Y75884D01*
X7330Y76058D01*
X7504Y76286D01*
X7614Y76551D01*
X7652Y76835D01*
X7614Y77119D01*
X7504Y77384D01*
X7330Y77612D01*
X7102Y77786D01*
X6837Y77896D01*
X6553Y77933D01*
D02*
G37*
G36*
X31953Y75393D02*
X31669Y75356D01*
X31404Y75246D01*
X31177Y75072D01*
X31002Y74844D01*
X30892Y74579D01*
X30855Y74295D01*
X30892Y74011D01*
X31002Y73746D01*
X31177Y73518D01*
X31404Y73344D01*
X31669Y73234D01*
X31953Y73197D01*
X32237Y73234D01*
X32502Y73344D01*
X32730Y73518D01*
X32904Y73746D01*
X32994Y73962D01*
X60581Y73962D01*
X60600Y73935D01*
X60765Y73824D01*
X60960Y73785D01*
X61155Y73824D01*
X61320Y73935D01*
X61431Y74100D01*
X61470Y74295D01*
X61431Y74490D01*
X61320Y74655D01*
X61155Y74766D01*
X60960Y74805D01*
X60765Y74766D01*
X60600Y74655D01*
X60581Y74628D01*
X32994Y74628D01*
X32904Y74844D01*
X32730Y75072D01*
X32502Y75246D01*
X32237Y75356D01*
X31953Y75393D01*
D02*
G37*
G36*
X26670D02*
X26386Y75356D01*
X26121Y75246D01*
X25893Y75072D01*
X25719Y74844D01*
X25609Y74579D01*
X25572Y74295D01*
X25609Y74011D01*
X25719Y73746D01*
X25893Y73518D01*
X26121Y73344D01*
X26386Y73234D01*
X26670Y73197D01*
X26954Y73234D01*
X27219Y73344D01*
X27447Y73518D01*
X27621Y73746D01*
X27731Y74011D01*
X27768Y74295D01*
X27731Y74579D01*
X27621Y74844D01*
X27447Y75072D01*
X27219Y75246D01*
X26954Y75356D01*
X26670Y75393D01*
D02*
G37*
G36*
X11430D02*
X11146Y75356D01*
X10881Y75246D01*
X10653Y75072D01*
X10479Y74844D01*
X10369Y74579D01*
X10332Y74295D01*
X10369Y74011D01*
X10479Y73746D01*
X10653Y73518D01*
X10881Y73344D01*
X11146Y73234D01*
X11430Y73197D01*
X11714Y73234D01*
X11979Y73344D01*
X12207Y73518D01*
X12381Y73746D01*
X12491Y74011D01*
X12528Y74295D01*
X12491Y74579D01*
X12381Y74844D01*
X12207Y75072D01*
X11979Y75246D01*
X11714Y75356D01*
X11430Y75393D01*
D02*
G37*
G36*
X6147D02*
X5863Y75356D01*
X5598Y75246D01*
X5370Y75072D01*
X5196Y74844D01*
X5086Y74579D01*
X5048Y74295D01*
X5086Y74011D01*
X5196Y73746D01*
X5370Y73518D01*
X5598Y73344D01*
X5863Y73234D01*
X6147Y73197D01*
X6431Y73234D01*
X6696Y73344D01*
X6923Y73518D01*
X7098Y73746D01*
X7208Y74011D01*
X7245Y74295D01*
X7208Y74579D01*
X7098Y74844D01*
X6923Y75072D01*
X6696Y75246D01*
X6431Y75356D01*
X6147Y75393D01*
D02*
G37*
G36*
X50800Y73523D02*
X50605Y73484D01*
X50440Y73373D01*
X50329Y73208D01*
X50290Y73013D01*
X50329Y72818D01*
X50440Y72653D01*
X50605Y72542D01*
X50800Y72503D01*
X50995Y72542D01*
X51160Y72653D01*
X51271Y72818D01*
X51310Y73013D01*
X51271Y73208D01*
X51160Y73373D01*
X50995Y73484D01*
X50800Y73523D01*
D02*
G37*
G36*
X48260D02*
X48065Y73484D01*
X47900Y73373D01*
X47789Y73208D01*
X47750Y73013D01*
X47789Y72818D01*
X47900Y72653D01*
X48065Y72542D01*
X48260Y72503D01*
X48455Y72542D01*
X48620Y72653D01*
X48731Y72818D01*
X48770Y73013D01*
X48731Y73208D01*
X48620Y73373D01*
X48455Y73484D01*
X48260Y73523D01*
D02*
G37*
G36*
X11430Y72853D02*
X11146Y72816D01*
X10881Y72706D01*
X10653Y72532D01*
X10479Y72304D01*
X10369Y72039D01*
X10332Y71755D01*
X10369Y71471D01*
X10479Y71206D01*
X10653Y70978D01*
X10881Y70804D01*
X11146Y70694D01*
X11430Y70657D01*
X11714Y70694D01*
X11979Y70804D01*
X12207Y70978D01*
X12381Y71206D01*
X12491Y71471D01*
X12528Y71755D01*
X12491Y72039D01*
X12381Y72304D01*
X12207Y72532D01*
X11979Y72706D01*
X11714Y72816D01*
X11430Y72853D01*
D02*
G37*
G36*
X6553D02*
X6269Y72816D01*
X6004Y72706D01*
X5777Y72532D01*
X5602Y72304D01*
X5492Y72039D01*
X5455Y71755D01*
X5492Y71471D01*
X5602Y71206D01*
X5777Y70978D01*
X6004Y70804D01*
X6269Y70694D01*
X6553Y70657D01*
X6837Y70694D01*
X7102Y70804D01*
X7330Y70978D01*
X7504Y71206D01*
X7614Y71471D01*
X7652Y71755D01*
X7614Y72039D01*
X7504Y72304D01*
X7330Y72532D01*
X7102Y72706D01*
X6837Y72816D01*
X6553Y72853D01*
D02*
G37*
G36*
X11430Y70313D02*
X11146Y70276D01*
X10881Y70166D01*
X10653Y69992D01*
X10479Y69764D01*
X10369Y69499D01*
X10332Y69215D01*
X10369Y68931D01*
X10479Y68666D01*
X10653Y68438D01*
X10881Y68264D01*
X11146Y68154D01*
X11430Y68117D01*
X11714Y68154D01*
X11979Y68264D01*
X12207Y68438D01*
X12381Y68666D01*
X12491Y68931D01*
X12528Y69215D01*
X12491Y69499D01*
X12381Y69764D01*
X12207Y69992D01*
X11979Y70166D01*
X11714Y70276D01*
X11430Y70313D01*
D02*
G37*
G36*
X6147D02*
X5863Y70276D01*
X5598Y70166D01*
X5370Y69992D01*
X5196Y69764D01*
X5086Y69499D01*
X5048Y69215D01*
X5086Y68931D01*
X5196Y68666D01*
X5370Y68438D01*
X5598Y68264D01*
X5863Y68154D01*
X6147Y68117D01*
X6431Y68154D01*
X6696Y68264D01*
X6923Y68438D01*
X7098Y68666D01*
X7208Y68931D01*
X7245Y69215D01*
X7208Y69499D01*
X7098Y69764D01*
X6923Y69992D01*
X6696Y70166D01*
X6431Y70276D01*
X6147Y70313D01*
D02*
G37*
G36*
X68551Y69085D02*
X68356Y69046D01*
X68191Y68935D01*
X68080Y68770D01*
X68041Y68575D01*
X68080Y68380D01*
X68191Y68215D01*
X68356Y68104D01*
X68551Y68065D01*
X68746Y68104D01*
X68911Y68215D01*
X69022Y68380D01*
X69061Y68575D01*
X69022Y68770D01*
X68911Y68935D01*
X68746Y69046D01*
X68551Y69085D01*
D02*
G37*
G36*
X11430Y67773D02*
X11146Y67736D01*
X10881Y67626D01*
X10653Y67452D01*
X10479Y67224D01*
X10369Y66959D01*
X10332Y66675D01*
X10369Y66391D01*
X10479Y66126D01*
X10653Y65898D01*
X10881Y65724D01*
X11146Y65614D01*
X11430Y65577D01*
X11714Y65614D01*
X11979Y65724D01*
X12207Y65898D01*
X12381Y66126D01*
X12471Y66342D01*
X23878D01*
X23897Y66315D01*
X24062Y66204D01*
X24257Y66165D01*
X24452Y66204D01*
X24617Y66315D01*
X24728Y66480D01*
X24767Y66675D01*
X24728Y66870D01*
X24617Y67035D01*
X24452Y67146D01*
X24257Y67185D01*
X24062Y67146D01*
X23897Y67035D01*
X23878Y67008D01*
X12471D01*
X12381Y67224D01*
X12207Y67452D01*
X11979Y67626D01*
X11714Y67736D01*
X11430Y67773D01*
D02*
G37*
G36*
X31547D02*
X31263Y67736D01*
X30998Y67626D01*
X30770Y67452D01*
X30596Y67224D01*
X30486Y66959D01*
X30448Y66675D01*
X30486Y66391D01*
X30596Y66126D01*
X30770Y65898D01*
X30822Y65859D01*
X30781Y65738D01*
X27436D01*
X27395Y65859D01*
X27447Y65898D01*
X27621Y66126D01*
X27731Y66391D01*
X27768Y66675D01*
X27731Y66959D01*
X27621Y67224D01*
X27447Y67452D01*
X27219Y67626D01*
X26954Y67736D01*
X26670Y67773D01*
X26386Y67736D01*
X26121Y67626D01*
X25893Y67452D01*
X25719Y67224D01*
X25609Y66959D01*
X25572Y66675D01*
X25609Y66391D01*
X25719Y66126D01*
X25893Y65898D01*
X25945Y65859D01*
X25904Y65738D01*
X23493D01*
X23474Y65765D01*
X23309Y65876D01*
X23114Y65915D01*
X22919Y65876D01*
X22754Y65765D01*
X22643Y65600D01*
X22604Y65405D01*
X22643Y65210D01*
X22754Y65045D01*
X22919Y64934D01*
X23114Y64895D01*
X23309Y64934D01*
X23474Y65045D01*
X23493Y65072D01*
X25904D01*
X25945Y64951D01*
X25893Y64912D01*
X25719Y64684D01*
X25609Y64419D01*
X25597Y64326D01*
X27743D01*
X27731Y64419D01*
X27621Y64684D01*
X27447Y64912D01*
X27395Y64951D01*
X27436Y65072D01*
X31187D01*
X31228Y64951D01*
X31177Y64912D01*
X31002Y64684D01*
X30892Y64419D01*
X30880Y64326D01*
X33027D01*
X33014Y64419D01*
X32904Y64684D01*
X32730Y64912D01*
X32678Y64951D01*
X32719Y65072D01*
X33644D01*
X38726Y59989D01*
X38834Y59917D01*
X38962Y59892D01*
X52478D01*
X52606Y59917D01*
X52714Y59989D01*
X53576Y60851D01*
X53648Y60959D01*
X53673Y61087D01*
Y61232D01*
X53870Y61313D01*
X54089Y61481D01*
X54257Y61700D01*
X54363Y61956D01*
X54399Y62230D01*
X54363Y62504D01*
X54257Y62760D01*
X54089Y62979D01*
X53870Y63147D01*
X53614Y63253D01*
X53340Y63289D01*
X53066Y63253D01*
X52810Y63147D01*
X52591Y62979D01*
X52423Y62760D01*
X52317Y62504D01*
X52281Y62230D01*
X52317Y61956D01*
X52423Y61700D01*
X52591Y61481D01*
X52810Y61313D01*
X52884Y61282D01*
X52914Y61132D01*
X52340Y60558D01*
X39100D01*
X34018Y65641D01*
X33910Y65713D01*
X33782Y65738D01*
X33777Y65737D01*
X33772Y65738D01*
X32313D01*
X32272Y65859D01*
X32323Y65898D01*
X32498Y66126D01*
X32587Y66342D01*
X57025D01*
X57044Y66315D01*
X57209Y66204D01*
X57404Y66165D01*
X57599Y66204D01*
X57764Y66315D01*
X57875Y66480D01*
X57914Y66675D01*
X57875Y66870D01*
X57764Y67035D01*
X57599Y67146D01*
X57404Y67185D01*
X57209Y67146D01*
X57044Y67035D01*
X57025Y67008D01*
X32587D01*
X32498Y67224D01*
X32323Y67452D01*
X32096Y67626D01*
X31831Y67736D01*
X31547Y67773D01*
D02*
G37*
G36*
X66900Y65760D02*
X66705Y65721D01*
X66649Y65684D01*
X36038D01*
X36020Y65696D01*
X35825Y65735D01*
X35630Y65696D01*
X35465Y65585D01*
X35354Y65420D01*
X35315Y65225D01*
X35354Y65030D01*
X35465Y64865D01*
X35630Y64754D01*
X35825Y64715D01*
X36020Y64754D01*
X36038Y64766D01*
X66769D01*
X66900Y64740D01*
X67095Y64779D01*
X67260Y64890D01*
X67371Y65055D01*
X67410Y65250D01*
X67371Y65445D01*
X67260Y65610D01*
X67095Y65721D01*
X66900Y65760D01*
D02*
G37*
G36*
X6553Y67773D02*
X6269Y67736D01*
X6004Y67626D01*
X5777Y67452D01*
X5602Y67224D01*
X5492Y66959D01*
X5455Y66675D01*
X5492Y66391D01*
X5602Y66126D01*
X5777Y65898D01*
X6004Y65724D01*
X6269Y65614D01*
X6553Y65577D01*
X6837Y65614D01*
X7102Y65724D01*
X7330Y65898D01*
X7504Y66126D01*
X7614Y66391D01*
X7652Y66675D01*
X7614Y66959D01*
X7504Y67224D01*
X7330Y67452D01*
X7102Y67626D01*
X6837Y67736D01*
X6553Y67773D01*
D02*
G37*
G36*
X11621Y65208D02*
Y64325D01*
X12503D01*
X12491Y64419D01*
X12381Y64684D01*
X12207Y64912D01*
X11979Y65086D01*
X11714Y65196D01*
X11621Y65208D01*
D02*
G37*
G36*
X6337D02*
Y64325D01*
X7220D01*
X7208Y64419D01*
X7098Y64684D01*
X6923Y64912D01*
X6696Y65086D01*
X6431Y65196D01*
X6337Y65208D01*
D02*
G37*
G36*
X11240D02*
X11146Y65196D01*
X10881Y65086D01*
X10653Y64912D01*
X10479Y64684D01*
X10369Y64419D01*
X10357Y64325D01*
X11240D01*
Y65208D01*
D02*
G37*
G36*
X5956D02*
X5863Y65196D01*
X5598Y65086D01*
X5370Y64912D01*
X5196Y64684D01*
X5086Y64419D01*
X5073Y64325D01*
X5956D01*
Y65208D01*
D02*
G37*
G36*
X33027Y63944D02*
X30880D01*
X30892Y63851D01*
X31002Y63586D01*
X31177Y63358D01*
X31228Y63319D01*
X31187Y63198D01*
X27436Y63198D01*
X27395Y63319D01*
X27447Y63358D01*
X27621Y63586D01*
X27731Y63851D01*
X27743Y63944D01*
X25597D01*
X25609Y63851D01*
X25719Y63586D01*
X25893Y63358D01*
X25945Y63319D01*
X25904Y63198D01*
X22350D01*
X22331Y63225D01*
X22166Y63336D01*
X21971Y63375D01*
X21776Y63336D01*
X21611Y63225D01*
X21500Y63060D01*
X21461Y62865D01*
X21500Y62670D01*
X21611Y62505D01*
X21776Y62394D01*
X21971Y62355D01*
X22166Y62394D01*
X22331Y62505D01*
X22350Y62532D01*
X25904D01*
X25945Y62411D01*
X25893Y62372D01*
X25719Y62144D01*
X25609Y61879D01*
X25572Y61595D01*
X25609Y61311D01*
X25719Y61046D01*
X25893Y60818D01*
X26121Y60644D01*
X26386Y60534D01*
X26670Y60497D01*
X26954Y60534D01*
X27219Y60644D01*
X27447Y60818D01*
X27621Y61046D01*
X27731Y61311D01*
X27768Y61595D01*
X27731Y61879D01*
X27621Y62144D01*
X27447Y62372D01*
X27395Y62411D01*
X27436Y62532D01*
X30781Y62532D01*
X30822Y62411D01*
X30770Y62372D01*
X30596Y62144D01*
X30486Y61879D01*
X30448Y61595D01*
X30486Y61311D01*
X30596Y61046D01*
X30770Y60818D01*
X30998Y60644D01*
X31263Y60534D01*
X31547Y60497D01*
X31831Y60534D01*
X32096Y60644D01*
X32323Y60818D01*
X32498Y61046D01*
X32608Y61311D01*
X32645Y61595D01*
X32608Y61879D01*
X32498Y62144D01*
X32323Y62372D01*
X32272Y62411D01*
X32313Y62532D01*
X33880D01*
X37447Y58964D01*
X37555Y58892D01*
X37683Y58867D01*
X54120Y58867D01*
X54248Y58892D01*
X54356Y58964D01*
X56116Y60724D01*
X56188Y60832D01*
X56213Y60960D01*
Y61232D01*
X56410Y61313D01*
X56629Y61481D01*
X56797Y61700D01*
X56903Y61956D01*
X56939Y62230D01*
X56903Y62504D01*
X56797Y62760D01*
X56629Y62979D01*
X56410Y63147D01*
X56154Y63253D01*
X55880Y63289D01*
X55606Y63253D01*
X55350Y63147D01*
X55131Y62979D01*
X54963Y62760D01*
X54857Y62504D01*
X54821Y62230D01*
X54857Y61956D01*
X54963Y61700D01*
X55131Y61481D01*
X55350Y61313D01*
X55547Y61232D01*
Y61098D01*
X53982Y59533D01*
X37821Y59533D01*
X34254Y63101D01*
X34145Y63173D01*
X34018Y63198D01*
X32719D01*
X32678Y63319D01*
X32730Y63358D01*
X32904Y63586D01*
X33014Y63851D01*
X33027Y63944D01*
D02*
G37*
G36*
X12503Y63944D02*
X11621D01*
Y63062D01*
X11714Y63074D01*
X11979Y63184D01*
X12207Y63358D01*
X12381Y63586D01*
X12491Y63851D01*
X12503Y63944D01*
D02*
G37*
G36*
X7220D02*
X6337D01*
Y63062D01*
X6431Y63074D01*
X6696Y63184D01*
X6923Y63358D01*
X7098Y63586D01*
X7208Y63851D01*
X7220Y63944D01*
D02*
G37*
G36*
X11240D02*
X10357D01*
X10369Y63851D01*
X10479Y63586D01*
X10653Y63358D01*
X10881Y63184D01*
X11146Y63074D01*
X11240Y63062D01*
Y63944D01*
D02*
G37*
G36*
X5956D02*
X5073D01*
X5086Y63851D01*
X5196Y63586D01*
X5370Y63358D01*
X5598Y63184D01*
X5863Y63074D01*
X5956Y63062D01*
Y63944D01*
D02*
G37*
G36*
X43370Y63264D02*
Y62421D01*
X44214D01*
X44203Y62504D01*
X44097Y62760D01*
X43929Y62979D01*
X43710Y63147D01*
X43454Y63253D01*
X43370Y63264D01*
D02*
G37*
G36*
X42989Y63264D02*
X42906Y63253D01*
X42650Y63147D01*
X42431Y62979D01*
X42263Y62760D01*
X42157Y62504D01*
X42146Y62421D01*
X42989D01*
Y63264D01*
D02*
G37*
G36*
Y62040D02*
X42146D01*
X42157Y61956D01*
X42263Y61700D01*
X42431Y61481D01*
X42650Y61313D01*
X42906Y61207D01*
X42989Y61196D01*
Y62040D01*
D02*
G37*
G36*
X44214D02*
X43370D01*
Y61196D01*
X43454Y61207D01*
X43710Y61313D01*
X43929Y61481D01*
X44097Y61700D01*
X44203Y61956D01*
X44214Y62040D01*
D02*
G37*
G36*
X62010Y63280D02*
X59910D01*
Y61180D01*
X62010D01*
Y63280D01*
D02*
G37*
G36*
X58420Y63289D02*
X58146Y63253D01*
X57890Y63147D01*
X57671Y62979D01*
X57503Y62760D01*
X57397Y62504D01*
X57361Y62230D01*
X57397Y61956D01*
X57503Y61700D01*
X57671Y61481D01*
X57890Y61313D01*
X58146Y61207D01*
X58420Y61171D01*
X58694Y61207D01*
X58950Y61313D01*
X59169Y61481D01*
X59337Y61700D01*
X59443Y61956D01*
X59479Y62230D01*
X59443Y62504D01*
X59337Y62760D01*
X59169Y62979D01*
X58950Y63147D01*
X58694Y63253D01*
X58420Y63289D01*
D02*
G37*
G36*
X50800D02*
X50526Y63253D01*
X50270Y63147D01*
X50051Y62979D01*
X49883Y62760D01*
X49777Y62504D01*
X49741Y62230D01*
X49777Y61956D01*
X49883Y61700D01*
X50051Y61481D01*
X50270Y61313D01*
X50526Y61207D01*
X50800Y61171D01*
X51074Y61207D01*
X51330Y61313D01*
X51549Y61481D01*
X51717Y61700D01*
X51823Y61956D01*
X51859Y62230D01*
X51823Y62504D01*
X51717Y62760D01*
X51549Y62979D01*
X51330Y63147D01*
X51074Y63253D01*
X50800Y63289D01*
D02*
G37*
G36*
X48260D02*
X47986Y63253D01*
X47730Y63147D01*
X47511Y62979D01*
X47343Y62760D01*
X47237Y62504D01*
X47201Y62230D01*
X47237Y61956D01*
X47343Y61700D01*
X47511Y61481D01*
X47730Y61313D01*
X47986Y61207D01*
X48260Y61171D01*
X48534Y61207D01*
X48790Y61313D01*
X49009Y61481D01*
X49177Y61700D01*
X49283Y61956D01*
X49319Y62230D01*
X49283Y62504D01*
X49177Y62760D01*
X49009Y62979D01*
X48790Y63147D01*
X48534Y63253D01*
X48260Y63289D01*
D02*
G37*
G36*
X45720D02*
X45446Y63253D01*
X45190Y63147D01*
X44971Y62979D01*
X44803Y62760D01*
X44697Y62504D01*
X44661Y62230D01*
X44697Y61956D01*
X44803Y61700D01*
X44971Y61481D01*
X45190Y61313D01*
X45446Y61207D01*
X45720Y61171D01*
X45994Y61207D01*
X46250Y61313D01*
X46469Y61481D01*
X46637Y61700D01*
X46743Y61956D01*
X46779Y62230D01*
X46743Y62504D01*
X46637Y62760D01*
X46469Y62979D01*
X46250Y63147D01*
X45994Y63253D01*
X45720Y63289D01*
D02*
G37*
G36*
X11430Y62693D02*
X11146Y62656D01*
X10881Y62546D01*
X10653Y62372D01*
X10479Y62144D01*
X10369Y61879D01*
X10332Y61595D01*
X10369Y61311D01*
X10479Y61046D01*
X10653Y60818D01*
X10881Y60644D01*
X11146Y60534D01*
X11430Y60497D01*
X11714Y60534D01*
X11979Y60644D01*
X12207Y60818D01*
X12381Y61046D01*
X12491Y61311D01*
X12528Y61595D01*
X12491Y61879D01*
X12381Y62144D01*
X12207Y62372D01*
X11979Y62546D01*
X11714Y62656D01*
X11430Y62693D01*
D02*
G37*
G36*
X6553D02*
X6269Y62656D01*
X6004Y62546D01*
X5777Y62372D01*
X5602Y62144D01*
X5513Y61928D01*
X4953D01*
X4825Y61903D01*
X4717Y61831D01*
X2939Y60053D01*
X2867Y59945D01*
X2842Y59817D01*
Y39243D01*
X2867Y39115D01*
X2939Y39007D01*
X4717Y37229D01*
X4825Y37157D01*
X4953Y37132D01*
X5787D01*
X5828Y37011D01*
X5777Y36972D01*
X5602Y36744D01*
X5492Y36479D01*
X5455Y36195D01*
X5492Y35911D01*
X5602Y35646D01*
X5777Y35418D01*
X6004Y35244D01*
X6269Y35134D01*
X6553Y35097D01*
X6837Y35134D01*
X7102Y35244D01*
X7330Y35418D01*
X7504Y35646D01*
X7614Y35911D01*
X7652Y36195D01*
X7614Y36479D01*
X7504Y36744D01*
X7330Y36972D01*
X7278Y37011D01*
X7319Y37132D01*
X10664D01*
X10705Y37011D01*
X10653Y36972D01*
X10479Y36744D01*
X10369Y36479D01*
X10332Y36195D01*
X10369Y35911D01*
X10479Y35646D01*
X10653Y35418D01*
X10881Y35244D01*
X11146Y35134D01*
X11430Y35097D01*
X11714Y35134D01*
X11979Y35244D01*
X12207Y35418D01*
X12381Y35646D01*
X12491Y35911D01*
X12528Y36195D01*
X12491Y36479D01*
X12381Y36744D01*
X12207Y36972D01*
X12155Y37011D01*
X12196Y37132D01*
X25904D01*
X25945Y37011D01*
X25893Y36972D01*
X25719Y36744D01*
X25609Y36479D01*
X25572Y36195D01*
X25609Y35911D01*
X25719Y35646D01*
X25893Y35418D01*
X25945Y35379D01*
X25904Y35258D01*
X17778D01*
X17759Y35285D01*
X17594Y35396D01*
X17399Y35435D01*
X17204Y35396D01*
X17039Y35285D01*
X16928Y35120D01*
X16889Y34925D01*
X16928Y34730D01*
X17039Y34565D01*
X17204Y34454D01*
X17399Y34415D01*
X17594Y34454D01*
X17759Y34565D01*
X17778Y34592D01*
X25904D01*
X25945Y34471D01*
X25893Y34432D01*
X25719Y34204D01*
X25609Y33939D01*
X25572Y33655D01*
X25609Y33371D01*
X25719Y33106D01*
X25893Y32878D01*
X25945Y32839D01*
X25904Y32718D01*
X16635Y32718D01*
X16616Y32745D01*
X16451Y32856D01*
X16256Y32895D01*
X16061Y32856D01*
X15896Y32745D01*
X15785Y32580D01*
X15746Y32385D01*
X15785Y32190D01*
X15896Y32025D01*
X16061Y31914D01*
X16256Y31875D01*
X16451Y31914D01*
X16616Y32025D01*
X16635Y32052D01*
X25904Y32052D01*
X25945Y31931D01*
X25893Y31892D01*
X25719Y31664D01*
X25609Y31399D01*
X25572Y31115D01*
X25609Y30831D01*
X25719Y30566D01*
X25893Y30338D01*
X26102Y30178D01*
X26093Y30106D01*
X26067Y30051D01*
X15492Y30051D01*
X15473Y30078D01*
X15308Y30189D01*
X15113Y30228D01*
X14918Y30189D01*
X14753Y30078D01*
X14642Y29913D01*
X14603Y29718D01*
X14642Y29523D01*
X14753Y29358D01*
X14918Y29247D01*
X15113Y29208D01*
X15308Y29247D01*
X15473Y29358D01*
X15492Y29385D01*
X33909Y29385D01*
X34037Y29410D01*
X34145Y29482D01*
X39381Y34719D01*
X54231D01*
X54250Y34692D01*
X54415Y34581D01*
X54610Y34542D01*
X54805Y34581D01*
X54970Y34692D01*
X54989Y34719D01*
X64886D01*
X65550Y34054D01*
X65658Y33982D01*
X65786Y33957D01*
X67359D01*
X67402Y33830D01*
X67323Y33769D01*
X67155Y33550D01*
X67049Y33294D01*
X67038Y33210D01*
X68072D01*
X69106D01*
X69095Y33294D01*
X68989Y33550D01*
X68821Y33769D01*
X68742Y33830D01*
X68785Y33957D01*
X69342D01*
X69470Y33982D01*
X69578Y34054D01*
X70142Y34618D01*
X70338Y34537D01*
X70612Y34501D01*
X70886Y34537D01*
X71142Y34643D01*
X71361Y34811D01*
X71529Y35030D01*
X71635Y35286D01*
X71671Y35560D01*
X71635Y35834D01*
X71529Y36090D01*
X71361Y36309D01*
X71142Y36477D01*
X70886Y36583D01*
X70612Y36619D01*
X70338Y36583D01*
X70082Y36477D01*
X69863Y36309D01*
X69695Y36090D01*
X69589Y35834D01*
X69553Y35560D01*
X69589Y35286D01*
X69670Y35090D01*
X69204Y34623D01*
X68785D01*
X68742Y34750D01*
X68821Y34811D01*
X68989Y35030D01*
X69095Y35286D01*
X69131Y35560D01*
X69095Y35834D01*
X68989Y36090D01*
X68821Y36309D01*
X68742Y36370D01*
X68785Y36497D01*
X69342D01*
X69470Y36522D01*
X69578Y36594D01*
X70142Y37158D01*
X70338Y37077D01*
X70612Y37041D01*
X70886Y37077D01*
X71142Y37183D01*
X71361Y37351D01*
X71529Y37570D01*
X71635Y37826D01*
X71671Y38100D01*
X71635Y38374D01*
X71529Y38630D01*
X71361Y38849D01*
X71142Y39017D01*
X70886Y39123D01*
X70612Y39159D01*
X70338Y39123D01*
X70082Y39017D01*
X69863Y38849D01*
X69695Y38630D01*
X69589Y38374D01*
X69553Y38100D01*
X69589Y37826D01*
X69670Y37630D01*
X69204Y37163D01*
X68785D01*
X68742Y37290D01*
X68821Y37351D01*
X68989Y37570D01*
X69095Y37826D01*
X69131Y38100D01*
X69095Y38374D01*
X68989Y38630D01*
X68821Y38849D01*
X68729Y38920D01*
X68772Y39047D01*
X69352D01*
X69480Y39072D01*
X69588Y39144D01*
X70142Y39698D01*
X70338Y39617D01*
X70612Y39581D01*
X70886Y39617D01*
X71142Y39723D01*
X71361Y39891D01*
X71529Y40110D01*
X71635Y40366D01*
X71671Y40640D01*
X71635Y40914D01*
X71529Y41170D01*
X71361Y41389D01*
X71142Y41557D01*
X70886Y41663D01*
X70612Y41699D01*
X70338Y41663D01*
X70082Y41557D01*
X69863Y41389D01*
X69695Y41170D01*
X69589Y40914D01*
X69553Y40640D01*
X69589Y40366D01*
X69670Y40170D01*
X69214Y39713D01*
X68798D01*
X68755Y39840D01*
X68821Y39891D01*
X68989Y40110D01*
X69095Y40366D01*
X69131Y40640D01*
X69095Y40914D01*
X68989Y41170D01*
X68821Y41389D01*
X68742Y41450D01*
X68785Y41577D01*
X69342D01*
X69470Y41602D01*
X69578Y41674D01*
X70142Y42238D01*
X70338Y42157D01*
X70612Y42121D01*
X70886Y42157D01*
X71142Y42263D01*
X71361Y42431D01*
X71529Y42650D01*
X71635Y42906D01*
X71671Y43180D01*
X71635Y43454D01*
X71529Y43710D01*
X71361Y43929D01*
X71142Y44097D01*
X70886Y44203D01*
X70612Y44239D01*
X70338Y44203D01*
X70082Y44097D01*
X69863Y43929D01*
X69695Y43710D01*
X69589Y43454D01*
X69553Y43180D01*
X69589Y42906D01*
X69670Y42710D01*
X69204Y42243D01*
X68785D01*
X68742Y42370D01*
X68821Y42431D01*
X68989Y42650D01*
X69095Y42906D01*
X69131Y43180D01*
X69095Y43454D01*
X68989Y43710D01*
X68821Y43929D01*
X68742Y43990D01*
X68785Y44117D01*
X69342D01*
X69470Y44142D01*
X69578Y44214D01*
X70142Y44778D01*
X70338Y44697D01*
X70612Y44661D01*
X70886Y44697D01*
X71142Y44803D01*
X71361Y44971D01*
X71529Y45190D01*
X71635Y45446D01*
X71671Y45720D01*
X71635Y45994D01*
X71529Y46250D01*
X71361Y46469D01*
X71142Y46637D01*
X70886Y46743D01*
X70612Y46779D01*
X70338Y46743D01*
X70082Y46637D01*
X69863Y46469D01*
X69695Y46250D01*
X69589Y45994D01*
X69553Y45720D01*
X69589Y45446D01*
X69670Y45250D01*
X69204Y44783D01*
X68785D01*
X68742Y44910D01*
X68821Y44971D01*
X68989Y45190D01*
X69095Y45446D01*
X69131Y45720D01*
X69095Y45994D01*
X68989Y46250D01*
X68821Y46469D01*
X68742Y46530D01*
X68785Y46657D01*
X69342D01*
X69470Y46682D01*
X69578Y46754D01*
X70142Y47318D01*
X70338Y47237D01*
X70612Y47201D01*
X70886Y47237D01*
X71142Y47343D01*
X71361Y47511D01*
X71529Y47730D01*
X71635Y47986D01*
X71671Y48260D01*
X71635Y48534D01*
X71529Y48790D01*
X71361Y49009D01*
X71142Y49177D01*
X70886Y49283D01*
X70612Y49319D01*
X70338Y49283D01*
X70082Y49177D01*
X69863Y49009D01*
X69695Y48790D01*
X69589Y48534D01*
X69553Y48260D01*
X69589Y47986D01*
X69670Y47790D01*
X69204Y47323D01*
X68785D01*
X68742Y47450D01*
X68821Y47511D01*
X68989Y47730D01*
X69095Y47986D01*
X69131Y48260D01*
X69095Y48534D01*
X68989Y48790D01*
X68821Y49009D01*
X68742Y49070D01*
X68785Y49197D01*
X69342D01*
X69470Y49222D01*
X69578Y49294D01*
X70142Y49858D01*
X70338Y49777D01*
X70612Y49741D01*
X70886Y49777D01*
X71142Y49883D01*
X71361Y50051D01*
X71529Y50270D01*
X71635Y50526D01*
X71671Y50800D01*
X71635Y51074D01*
X71529Y51330D01*
X71361Y51549D01*
X71142Y51717D01*
X70886Y51823D01*
X70612Y51859D01*
X70338Y51823D01*
X70082Y51717D01*
X69863Y51549D01*
X69695Y51330D01*
X69589Y51074D01*
X69553Y50800D01*
X69589Y50526D01*
X69670Y50330D01*
X69204Y49863D01*
X68785D01*
X68742Y49990D01*
X68821Y50051D01*
X68989Y50270D01*
X69095Y50526D01*
X69131Y50800D01*
X69095Y51074D01*
X68989Y51330D01*
X68821Y51549D01*
X68742Y51610D01*
X68785Y51737D01*
X69342D01*
X69470Y51762D01*
X69578Y51834D01*
X70142Y52398D01*
X70338Y52317D01*
X70612Y52281D01*
X70886Y52317D01*
X71142Y52423D01*
X71361Y52591D01*
X71529Y52810D01*
X71635Y53066D01*
X71671Y53340D01*
X71635Y53614D01*
X71529Y53870D01*
X71361Y54089D01*
X71142Y54257D01*
X70886Y54363D01*
X70612Y54399D01*
X70338Y54363D01*
X70082Y54257D01*
X69863Y54089D01*
X69695Y53870D01*
X69589Y53614D01*
X69553Y53340D01*
X69589Y53066D01*
X69670Y52870D01*
X69204Y52403D01*
X68785D01*
X68742Y52530D01*
X68821Y52591D01*
X68989Y52810D01*
X69095Y53066D01*
X69131Y53340D01*
X69095Y53614D01*
X68989Y53870D01*
X68821Y54089D01*
X68602Y54257D01*
X68346Y54363D01*
X68072Y54399D01*
X67798Y54363D01*
X67542Y54257D01*
X67323Y54089D01*
X67155Y53870D01*
X67074Y53673D01*
X65924D01*
X63482Y56116D01*
X63374Y56188D01*
X63246Y56213D01*
X62010D01*
Y56930D01*
X59910D01*
Y54830D01*
X62010D01*
Y55547D01*
X63108D01*
X65550Y53104D01*
X65658Y53032D01*
X65786Y53007D01*
X67074D01*
X67155Y52810D01*
X67323Y52591D01*
X67402Y52530D01*
X67359Y52403D01*
X64387D01*
X64368Y52430D01*
X64203Y52541D01*
X64008Y52580D01*
X63813Y52541D01*
X63648Y52430D01*
X63537Y52265D01*
X63498Y52070D01*
X63537Y51875D01*
X63648Y51710D01*
X63813Y51599D01*
X64008Y51560D01*
X64203Y51599D01*
X64368Y51710D01*
X64387Y51737D01*
X67359D01*
X67402Y51610D01*
X67323Y51549D01*
X67155Y51330D01*
X67074Y51133D01*
X58799D01*
X58780Y51160D01*
X58615Y51271D01*
X58420Y51310D01*
X58225Y51271D01*
X58060Y51160D01*
X58041Y51133D01*
X36393D01*
X34586Y52941D01*
X34478Y53013D01*
X34350Y53038D01*
X32719D01*
X32678Y53159D01*
X32730Y53198D01*
X32904Y53426D01*
X33014Y53691D01*
X33052Y53975D01*
X33014Y54259D01*
X32904Y54524D01*
X32730Y54752D01*
X32502Y54926D01*
X32237Y55036D01*
X31953Y55073D01*
X31669Y55036D01*
X31404Y54926D01*
X31177Y54752D01*
X31002Y54524D01*
X30892Y54259D01*
X30855Y53975D01*
X30892Y53691D01*
X31002Y53426D01*
X31177Y53198D01*
X31228Y53159D01*
X31187Y53038D01*
X27436D01*
X27395Y53159D01*
X27447Y53198D01*
X27621Y53426D01*
X27731Y53691D01*
X27768Y53975D01*
X27731Y54259D01*
X27621Y54524D01*
X27447Y54752D01*
X27219Y54926D01*
X26954Y55036D01*
X26670Y55073D01*
X26386Y55036D01*
X26121Y54926D01*
X25893Y54752D01*
X25719Y54524D01*
X25609Y54259D01*
X25572Y53975D01*
X25609Y53691D01*
X25719Y53426D01*
X25893Y53198D01*
X25945Y53159D01*
X25904Y53038D01*
X22363D01*
X21191Y54211D01*
X21083Y54283D01*
X20955Y54308D01*
X12471D01*
X12381Y54524D01*
X12207Y54752D01*
X11979Y54926D01*
X11714Y55036D01*
X11430Y55073D01*
X11146Y55036D01*
X10881Y54926D01*
X10653Y54752D01*
X10479Y54524D01*
X10369Y54259D01*
X10332Y53975D01*
X10369Y53691D01*
X10479Y53426D01*
X10653Y53198D01*
X10881Y53024D01*
X11146Y52914D01*
X11430Y52877D01*
X11714Y52914D01*
X11979Y53024D01*
X12207Y53198D01*
X12381Y53426D01*
X12471Y53642D01*
X20817D01*
X21989Y52469D01*
X22097Y52397D01*
X22225Y52372D01*
X25904D01*
X25945Y52251D01*
X25893Y52212D01*
X25719Y51984D01*
X25609Y51719D01*
X25572Y51435D01*
X25609Y51151D01*
X25719Y50886D01*
X25893Y50658D01*
X26121Y50484D01*
X26386Y50374D01*
X26670Y50337D01*
X26954Y50374D01*
X27219Y50484D01*
X27447Y50658D01*
X27621Y50886D01*
X27731Y51151D01*
X27768Y51435D01*
X27731Y51719D01*
X27621Y51984D01*
X27447Y52212D01*
X27395Y52251D01*
X27436Y52372D01*
X30781D01*
X30822Y52251D01*
X30770Y52212D01*
X30596Y51984D01*
X30486Y51719D01*
X30448Y51435D01*
X30486Y51151D01*
X30596Y50886D01*
X30770Y50658D01*
X30998Y50484D01*
X31263Y50374D01*
X31547Y50337D01*
X31831Y50374D01*
X32096Y50484D01*
X32323Y50658D01*
X32498Y50886D01*
X32608Y51151D01*
X32645Y51435D01*
X32608Y51719D01*
X32498Y51984D01*
X32323Y52212D01*
X32272Y52251D01*
X32313Y52372D01*
X34212D01*
X36019Y50564D01*
X36127Y50492D01*
X36255Y50467D01*
X58041D01*
X58060Y50440D01*
X58225Y50329D01*
X58420Y50290D01*
X58615Y50329D01*
X58780Y50440D01*
X58799Y50467D01*
X67074D01*
X67155Y50270D01*
X67323Y50051D01*
X67402Y49990D01*
X67359Y49863D01*
X35444D01*
X35174Y50133D01*
X35181Y50165D01*
X35142Y50360D01*
X35031Y50525D01*
X34866Y50636D01*
X34671Y50675D01*
X34476Y50636D01*
X34311Y50525D01*
X34200Y50360D01*
X34161Y50165D01*
X34200Y49970D01*
X34311Y49805D01*
X34476Y49694D01*
X34671Y49655D01*
X34703Y49662D01*
X35070Y49294D01*
X35178Y49222D01*
X35306Y49197D01*
X67359D01*
X67402Y49070D01*
X67323Y49009D01*
X67155Y48790D01*
X67074Y48593D01*
X61339D01*
X61320Y48620D01*
X61155Y48731D01*
X60960Y48770D01*
X60765Y48731D01*
X60600Y48620D01*
X60489Y48455D01*
X60450Y48260D01*
X60489Y48065D01*
X60600Y47900D01*
X60765Y47789D01*
X60960Y47750D01*
X61155Y47789D01*
X61320Y47900D01*
X61339Y47927D01*
X67074D01*
X67155Y47730D01*
X67323Y47511D01*
X67402Y47450D01*
X67359Y47323D01*
X65403D01*
X65384Y47350D01*
X65219Y47461D01*
X65024Y47500D01*
X64829Y47461D01*
X64664Y47350D01*
X64553Y47185D01*
X64514Y46990D01*
X64553Y46795D01*
X64664Y46630D01*
X64829Y46519D01*
X65024Y46480D01*
X65219Y46519D01*
X65384Y46630D01*
X65403Y46657D01*
X67359D01*
X67402Y46530D01*
X67323Y46469D01*
X67155Y46250D01*
X67074Y46053D01*
X59434D01*
X59415Y46080D01*
X59250Y46191D01*
X59055Y46230D01*
X59023Y46223D01*
X57386Y47861D01*
X57278Y47933D01*
X57150Y47958D01*
X44069D01*
X32719D01*
X32678Y48079D01*
X32730Y48118D01*
X32904Y48346D01*
X33014Y48611D01*
X33052Y48895D01*
X33014Y49179D01*
X32904Y49444D01*
X32730Y49672D01*
X32502Y49846D01*
X32237Y49956D01*
X31953Y49993D01*
X31669Y49956D01*
X31404Y49846D01*
X31177Y49672D01*
X31002Y49444D01*
X30892Y49179D01*
X30855Y48895D01*
X30892Y48611D01*
X31002Y48346D01*
X31177Y48118D01*
X31228Y48079D01*
X31187Y47958D01*
X27436Y47958D01*
X27395Y48079D01*
X27447Y48118D01*
X27621Y48346D01*
X27731Y48611D01*
X27768Y48895D01*
X27731Y49179D01*
X27621Y49444D01*
X27447Y49672D01*
X27219Y49846D01*
X26954Y49956D01*
X26670Y49993D01*
X26386Y49956D01*
X26121Y49846D01*
X25893Y49672D01*
X25719Y49444D01*
X25609Y49179D01*
X25572Y48895D01*
X25609Y48611D01*
X25719Y48346D01*
X25893Y48118D01*
X25945Y48079D01*
X25904Y47958D01*
X14349D01*
X14330Y47985D01*
X14165Y48096D01*
X13970Y48135D01*
X13775Y48096D01*
X13610Y47985D01*
X13499Y47820D01*
X13460Y47625D01*
X13499Y47430D01*
X13610Y47265D01*
X13775Y47154D01*
X13970Y47115D01*
X14165Y47154D01*
X14330Y47265D01*
X14349Y47292D01*
X25904D01*
X25945Y47171D01*
X25893Y47132D01*
X25719Y46904D01*
X25609Y46639D01*
X25572Y46355D01*
X25609Y46071D01*
X25719Y45806D01*
X25893Y45578D01*
X25945Y45539D01*
X25904Y45418D01*
X20064D01*
X20045Y45445D01*
X19880Y45556D01*
X19685Y45595D01*
X19490Y45556D01*
X19325Y45445D01*
X19278Y45376D01*
X19195Y45321D01*
X19123Y45213D01*
X19098Y45085D01*
X19123Y44957D01*
X19195Y44849D01*
X19278Y44794D01*
X19325Y44725D01*
X19490Y44614D01*
X19685Y44575D01*
X19880Y44614D01*
X20045Y44725D01*
X20064Y44752D01*
X25904D01*
X25945Y44631D01*
X25893Y44592D01*
X25719Y44364D01*
X25609Y44099D01*
X25572Y43815D01*
X25609Y43531D01*
X25719Y43266D01*
X25893Y43038D01*
X25945Y42999D01*
X25904Y42878D01*
X18921D01*
X18902Y42905D01*
X18737Y43016D01*
X18542Y43055D01*
X18347Y43016D01*
X18182Y42905D01*
X18071Y42740D01*
X18032Y42545D01*
X18071Y42350D01*
X18182Y42185D01*
X18347Y42074D01*
X18542Y42035D01*
X18737Y42074D01*
X18902Y42185D01*
X18921Y42212D01*
X25904D01*
X25945Y42091D01*
X25893Y42052D01*
X25719Y41824D01*
X25609Y41559D01*
X25597Y41465D01*
X26670D01*
X27743D01*
X27731Y41559D01*
X27621Y41824D01*
X27447Y42052D01*
X27395Y42091D01*
X27436Y42212D01*
X30781D01*
X30822Y42091D01*
X30770Y42052D01*
X30596Y41824D01*
X30486Y41559D01*
X30473Y41465D01*
X31547D01*
X32620D01*
X32608Y41559D01*
X32498Y41824D01*
X32323Y42052D01*
X32272Y42091D01*
X32313Y42212D01*
X34550D01*
X36675D01*
X36675Y42212D01*
X49151D01*
X49170Y42185D01*
X49335Y42074D01*
X49530Y42035D01*
X49725Y42074D01*
X49890Y42185D01*
X49909Y42212D01*
X66029D01*
X66566Y41674D01*
X66674Y41602D01*
X66802Y41577D01*
X67359D01*
X67402Y41450D01*
X67323Y41389D01*
X67155Y41170D01*
X67074Y40973D01*
X64998D01*
X64334Y41638D01*
X64226Y41710D01*
X64098Y41735D01*
X56259D01*
X56240Y41762D01*
X56075Y41873D01*
X55880Y41912D01*
X55685Y41873D01*
X55520Y41762D01*
X55501Y41735D01*
X35306D01*
X35178Y41710D01*
X35070Y41638D01*
X33771Y40338D01*
X32313D01*
X32272Y40459D01*
X32323Y40498D01*
X32498Y40726D01*
X32608Y40991D01*
X32620Y41084D01*
X31547D01*
X30473D01*
X30486Y40991D01*
X30596Y40726D01*
X30770Y40498D01*
X30822Y40459D01*
X30781Y40338D01*
X27436D01*
X27395Y40459D01*
X27447Y40498D01*
X27621Y40726D01*
X27731Y40991D01*
X27743Y41084D01*
X26670D01*
X25597D01*
X25609Y40991D01*
X25719Y40726D01*
X25893Y40498D01*
X25945Y40459D01*
X25904Y40338D01*
X12196D01*
X12155Y40459D01*
X12207Y40498D01*
X12381Y40726D01*
X12491Y40991D01*
X12503Y41084D01*
X11430D01*
X10357D01*
X10369Y40991D01*
X10479Y40726D01*
X10653Y40498D01*
X10705Y40459D01*
X10664Y40338D01*
X7319D01*
X7278Y40459D01*
X7330Y40498D01*
X7504Y40726D01*
X7614Y40991D01*
X7627Y41084D01*
X6553D01*
X5480D01*
X5492Y40991D01*
X5602Y40726D01*
X5777Y40498D01*
X5828Y40459D01*
X5787Y40338D01*
X5218D01*
X4651Y40905D01*
Y58155D01*
X5058Y58562D01*
X5183Y58537D01*
X5196Y58506D01*
X5370Y58278D01*
X5598Y58104D01*
X5863Y57994D01*
X6147Y57957D01*
X6431Y57994D01*
X6696Y58104D01*
X6923Y58278D01*
X7098Y58506D01*
X7208Y58771D01*
X7245Y59055D01*
X7208Y59339D01*
X7098Y59604D01*
X6923Y59832D01*
X6696Y60006D01*
X6431Y60116D01*
X6147Y60153D01*
X5863Y60116D01*
X5598Y60006D01*
X5370Y59832D01*
X5196Y59604D01*
X5106Y59388D01*
X5080D01*
X4952Y59363D01*
X4844Y59291D01*
X4082Y58529D01*
X4010Y58421D01*
X3985Y58293D01*
Y40767D01*
X4010Y40639D01*
X4082Y40531D01*
X4844Y39769D01*
X4952Y39697D01*
X5080Y39672D01*
X5381D01*
X5422Y39551D01*
X5370Y39512D01*
X5196Y39284D01*
X5086Y39019D01*
X5048Y38735D01*
X5086Y38451D01*
X5196Y38186D01*
X5370Y37958D01*
X5422Y37919D01*
X5381Y37798D01*
X5091D01*
X3508Y39381D01*
Y59679D01*
X5091Y61262D01*
X5513D01*
X5602Y61046D01*
X5777Y60818D01*
X6004Y60644D01*
X6269Y60534D01*
X6553Y60497D01*
X6837Y60534D01*
X7102Y60644D01*
X7330Y60818D01*
X7504Y61046D01*
X7614Y61311D01*
X7652Y61595D01*
X7614Y61879D01*
X7504Y62144D01*
X7330Y62372D01*
X7102Y62546D01*
X6837Y62656D01*
X6553Y62693D01*
D02*
G37*
G36*
X18780Y61325D02*
X18161D01*
Y60452D01*
X18780D01*
Y61325D01*
D02*
G37*
G36*
X17907D02*
X17288D01*
Y60452D01*
X17907D01*
Y61325D01*
D02*
G37*
G36*
X20828Y62105D02*
X20633Y62066D01*
X20468Y61955D01*
X20357Y61790D01*
X20318Y61595D01*
X20325Y61563D01*
X20210Y61449D01*
X20138Y61341D01*
X20135Y61325D01*
X19320D01*
Y59325D01*
X20812D01*
Y61072D01*
X20828Y61085D01*
X21023Y61124D01*
X21188Y61235D01*
X21299Y61400D01*
X21338Y61595D01*
X21299Y61790D01*
X21188Y61955D01*
X21023Y62066D01*
X20828Y62105D01*
D02*
G37*
G36*
X18780Y60198D02*
X18161D01*
Y59325D01*
X18780D01*
Y60198D01*
D02*
G37*
G36*
X17907D02*
X17288D01*
Y59325D01*
X17907D01*
Y60198D01*
D02*
G37*
G36*
X26670Y60153D02*
X26386Y60116D01*
X26121Y60006D01*
X25893Y59832D01*
X25719Y59604D01*
X25609Y59339D01*
X25572Y59055D01*
X25609Y58771D01*
X25719Y58506D01*
X25893Y58278D01*
X26121Y58104D01*
X26386Y57994D01*
X26670Y57957D01*
X26954Y57994D01*
X27219Y58104D01*
X27447Y58278D01*
X27621Y58506D01*
X27731Y58771D01*
X27768Y59055D01*
X27731Y59339D01*
X27621Y59604D01*
X27447Y59832D01*
X27219Y60006D01*
X26954Y60116D01*
X26670Y60153D01*
D02*
G37*
G36*
X11430D02*
X11146Y60116D01*
X10881Y60006D01*
X10653Y59832D01*
X10479Y59604D01*
X10369Y59339D01*
X10332Y59055D01*
X10369Y58771D01*
X10479Y58506D01*
X10653Y58278D01*
X10881Y58104D01*
X11146Y57994D01*
X11430Y57957D01*
X11714Y57994D01*
X11979Y58104D01*
X12207Y58278D01*
X12381Y58506D01*
X12491Y58771D01*
X12528Y59055D01*
X12491Y59339D01*
X12381Y59604D01*
X12207Y59832D01*
X11979Y60006D01*
X11714Y60116D01*
X11430Y60153D01*
D02*
G37*
G36*
X43370Y56914D02*
Y56071D01*
X44214D01*
X44203Y56154D01*
X44097Y56410D01*
X43929Y56629D01*
X43710Y56797D01*
X43454Y56903D01*
X43370Y56914D01*
D02*
G37*
G36*
X42989Y56914D02*
X42906Y56903D01*
X42650Y56797D01*
X42431Y56629D01*
X42263Y56410D01*
X42157Y56154D01*
X42146Y56071D01*
X42989D01*
Y56914D01*
D02*
G37*
G36*
X70802Y56914D02*
Y56070D01*
X71646D01*
X71635Y56154D01*
X71529Y56410D01*
X71361Y56629D01*
X71142Y56797D01*
X70886Y56903D01*
X70802Y56914D01*
D02*
G37*
G36*
X70421Y56914D02*
X70338Y56903D01*
X70082Y56797D01*
X69863Y56629D01*
X69695Y56410D01*
X69589Y56154D01*
X69578Y56070D01*
X70421D01*
Y56914D01*
D02*
G37*
G36*
X31547Y57613D02*
X31263Y57576D01*
X30998Y57466D01*
X30770Y57292D01*
X30596Y57064D01*
X30486Y56799D01*
X30448Y56515D01*
X30486Y56231D01*
X30596Y55966D01*
X30770Y55738D01*
X30998Y55564D01*
X31263Y55454D01*
X31547Y55417D01*
X31831Y55454D01*
X32096Y55564D01*
X32323Y55738D01*
X32498Y55966D01*
X32608Y56231D01*
X32645Y56515D01*
X32608Y56799D01*
X32498Y57064D01*
X32323Y57292D01*
X32096Y57466D01*
X31831Y57576D01*
X31547Y57613D01*
D02*
G37*
G36*
X26670D02*
X26386Y57576D01*
X26121Y57466D01*
X25893Y57292D01*
X25719Y57064D01*
X25609Y56799D01*
X25572Y56515D01*
X25609Y56231D01*
X25719Y55966D01*
X25893Y55738D01*
X26121Y55564D01*
X26386Y55454D01*
X26670Y55417D01*
X26954Y55454D01*
X27219Y55564D01*
X27447Y55738D01*
X27621Y55966D01*
X27731Y56231D01*
X27768Y56515D01*
X27731Y56799D01*
X27621Y57064D01*
X27447Y57292D01*
X27219Y57466D01*
X26954Y57576D01*
X26670Y57613D01*
D02*
G37*
G36*
X11430D02*
X11146Y57576D01*
X10881Y57466D01*
X10653Y57292D01*
X10479Y57064D01*
X10369Y56799D01*
X10332Y56515D01*
X10369Y56231D01*
X10479Y55966D01*
X10653Y55738D01*
X10881Y55564D01*
X11146Y55454D01*
X11430Y55417D01*
X11714Y55454D01*
X11979Y55564D01*
X12207Y55738D01*
X12381Y55966D01*
X12491Y56231D01*
X12528Y56515D01*
X12491Y56799D01*
X12381Y57064D01*
X12207Y57292D01*
X11979Y57466D01*
X11714Y57576D01*
X11430Y57613D01*
D02*
G37*
G36*
X6553D02*
X6269Y57576D01*
X6004Y57466D01*
X5777Y57292D01*
X5602Y57064D01*
X5492Y56799D01*
X5455Y56515D01*
X5492Y56231D01*
X5602Y55966D01*
X5777Y55738D01*
X6004Y55564D01*
X6269Y55454D01*
X6553Y55417D01*
X6837Y55454D01*
X7102Y55564D01*
X7330Y55738D01*
X7504Y55966D01*
X7614Y56231D01*
X7652Y56515D01*
X7614Y56799D01*
X7504Y57064D01*
X7330Y57292D01*
X7102Y57466D01*
X6837Y57576D01*
X6553Y57613D01*
D02*
G37*
G36*
X42989Y55690D02*
X42146D01*
X42157Y55606D01*
X42263Y55350D01*
X42431Y55131D01*
X42650Y54963D01*
X42906Y54857D01*
X42989Y54846D01*
Y55690D01*
D02*
G37*
G36*
X70421Y55689D02*
X69578D01*
X69589Y55606D01*
X69695Y55350D01*
X69863Y55131D01*
X70082Y54963D01*
X70338Y54857D01*
X70421Y54846D01*
Y55689D01*
D02*
G37*
G36*
X71646D02*
X70802D01*
Y54846D01*
X70886Y54857D01*
X71142Y54963D01*
X71361Y55131D01*
X71529Y55350D01*
X71635Y55606D01*
X71646Y55689D01*
D02*
G37*
G36*
X44214Y55690D02*
X43370D01*
Y54846D01*
X43454Y54857D01*
X43710Y54963D01*
X43929Y55131D01*
X44097Y55350D01*
X44203Y55606D01*
X44214Y55690D01*
D02*
G37*
G36*
X69122Y56930D02*
X67022D01*
Y54830D01*
X69122D01*
Y56930D01*
D02*
G37*
G36*
X58420Y56939D02*
X58146Y56903D01*
X57890Y56797D01*
X57671Y56629D01*
X57503Y56410D01*
X57397Y56154D01*
X57361Y55880D01*
X57397Y55606D01*
X57503Y55350D01*
X57671Y55131D01*
X57890Y54963D01*
X58146Y54857D01*
X58420Y54821D01*
X58694Y54857D01*
X58950Y54963D01*
X59169Y55131D01*
X59337Y55350D01*
X59443Y55606D01*
X59479Y55880D01*
X59443Y56154D01*
X59337Y56410D01*
X59169Y56629D01*
X58950Y56797D01*
X58694Y56903D01*
X58420Y56939D01*
D02*
G37*
G36*
X31953Y60153D02*
X31669Y60116D01*
X31404Y60006D01*
X31177Y59832D01*
X31002Y59604D01*
X30892Y59339D01*
X30855Y59055D01*
X30892Y58771D01*
X31002Y58506D01*
X31177Y58278D01*
X31404Y58104D01*
X31669Y57994D01*
X31953Y57957D01*
X32237Y57994D01*
X32502Y58104D01*
X32730Y58278D01*
X32904Y58506D01*
X32994Y58722D01*
X35212D01*
X36019Y57914D01*
X36127Y57842D01*
X36255Y57817D01*
X54742D01*
X55547Y57012D01*
Y56878D01*
X55350Y56797D01*
X55131Y56629D01*
X54963Y56410D01*
X54857Y56154D01*
X54821Y55880D01*
X54857Y55606D01*
X54963Y55350D01*
X55131Y55131D01*
X55350Y54963D01*
X55606Y54857D01*
X55880Y54821D01*
X56154Y54857D01*
X56410Y54963D01*
X56629Y55131D01*
X56797Y55350D01*
X56903Y55606D01*
X56939Y55880D01*
X56903Y56154D01*
X56797Y56410D01*
X56629Y56629D01*
X56410Y56797D01*
X56213Y56878D01*
Y57150D01*
X56188Y57278D01*
X56116Y57386D01*
X55116Y58386D01*
X55008Y58458D01*
X54880Y58483D01*
X36393D01*
X35586Y59291D01*
X35478Y59363D01*
X35350Y59388D01*
X32994D01*
X32904Y59604D01*
X32730Y59832D01*
X32502Y60006D01*
X32237Y60116D01*
X31953Y60153D01*
D02*
G37*
G36*
X53340Y56939D02*
X53066Y56903D01*
X52810Y56797D01*
X52591Y56629D01*
X52423Y56410D01*
X52317Y56154D01*
X52281Y55880D01*
X52317Y55606D01*
X52423Y55350D01*
X52591Y55131D01*
X52810Y54963D01*
X53066Y54857D01*
X53340Y54821D01*
X53614Y54857D01*
X53870Y54963D01*
X54089Y55131D01*
X54257Y55350D01*
X54363Y55606D01*
X54399Y55880D01*
X54363Y56154D01*
X54257Y56410D01*
X54089Y56629D01*
X53870Y56797D01*
X53614Y56903D01*
X53340Y56939D01*
D02*
G37*
G36*
X50800D02*
X50526Y56903D01*
X50270Y56797D01*
X50051Y56629D01*
X49883Y56410D01*
X49777Y56154D01*
X49741Y55880D01*
X49777Y55606D01*
X49883Y55350D01*
X50051Y55131D01*
X50270Y54963D01*
X50526Y54857D01*
X50800Y54821D01*
X51074Y54857D01*
X51330Y54963D01*
X51549Y55131D01*
X51717Y55350D01*
X51823Y55606D01*
X51859Y55880D01*
X51823Y56154D01*
X51717Y56410D01*
X51549Y56629D01*
X51330Y56797D01*
X51074Y56903D01*
X50800Y56939D01*
D02*
G37*
G36*
X48260D02*
X47986Y56903D01*
X47730Y56797D01*
X47511Y56629D01*
X47343Y56410D01*
X47237Y56154D01*
X47201Y55880D01*
X47237Y55606D01*
X47343Y55350D01*
X47511Y55131D01*
X47730Y54963D01*
X47986Y54857D01*
X48260Y54821D01*
X48534Y54857D01*
X48790Y54963D01*
X49009Y55131D01*
X49177Y55350D01*
X49283Y55606D01*
X49319Y55880D01*
X49283Y56154D01*
X49177Y56410D01*
X49009Y56629D01*
X48790Y56797D01*
X48534Y56903D01*
X48260Y56939D01*
D02*
G37*
G36*
X45720D02*
X45446Y56903D01*
X45190Y56797D01*
X44971Y56629D01*
X44803Y56410D01*
X44697Y56154D01*
X44661Y55880D01*
X44697Y55606D01*
X44803Y55350D01*
X44971Y55131D01*
X45190Y54963D01*
X45446Y54857D01*
X45720Y54821D01*
X45994Y54857D01*
X46250Y54963D01*
X46469Y55131D01*
X46637Y55350D01*
X46743Y55606D01*
X46779Y55880D01*
X46743Y56154D01*
X46637Y56410D01*
X46469Y56629D01*
X46250Y56797D01*
X45994Y56903D01*
X45720Y56939D01*
D02*
G37*
G36*
X54610Y53342D02*
X54415Y53303D01*
X54250Y53192D01*
X54231Y53165D01*
X52449D01*
X52430Y53192D01*
X52265Y53303D01*
X52070Y53342D01*
X51875Y53303D01*
X51710Y53192D01*
X51599Y53027D01*
X51560Y52832D01*
X51599Y52637D01*
X51710Y52472D01*
X51875Y52361D01*
X52070Y52322D01*
X52265Y52361D01*
X52430Y52472D01*
X52449Y52499D01*
X54231D01*
X54250Y52472D01*
X54415Y52361D01*
X54610Y52322D01*
X54805Y52361D01*
X54970Y52472D01*
X55081Y52637D01*
X55120Y52832D01*
X55081Y53027D01*
X54970Y53192D01*
X54805Y53303D01*
X54610Y53342D01*
D02*
G37*
G36*
X6147Y55073D02*
X5863Y55036D01*
X5598Y54926D01*
X5370Y54752D01*
X5196Y54524D01*
X5086Y54259D01*
X5048Y53975D01*
X5086Y53691D01*
X5196Y53426D01*
X5370Y53198D01*
X5598Y53024D01*
X5863Y52914D01*
X6147Y52877D01*
X6431Y52914D01*
X6696Y53024D01*
X6923Y53198D01*
X7098Y53426D01*
X7208Y53691D01*
X7245Y53975D01*
X7208Y54259D01*
X7098Y54524D01*
X6923Y54752D01*
X6696Y54926D01*
X6431Y55036D01*
X6147Y55073D01*
D02*
G37*
G36*
X11430Y52533D02*
X11146Y52496D01*
X10881Y52386D01*
X10653Y52212D01*
X10479Y51984D01*
X10369Y51719D01*
X10332Y51435D01*
X10369Y51151D01*
X10479Y50886D01*
X10653Y50658D01*
X10881Y50484D01*
X11146Y50374D01*
X11430Y50337D01*
X11714Y50374D01*
X11979Y50484D01*
X12207Y50658D01*
X12381Y50886D01*
X12491Y51151D01*
X12528Y51435D01*
X12491Y51719D01*
X12381Y51984D01*
X12207Y52212D01*
X11979Y52386D01*
X11714Y52496D01*
X11430Y52533D01*
D02*
G37*
G36*
X6553D02*
X6269Y52496D01*
X6004Y52386D01*
X5777Y52212D01*
X5602Y51984D01*
X5492Y51719D01*
X5455Y51435D01*
X5492Y51151D01*
X5602Y50886D01*
X5777Y50658D01*
X6004Y50484D01*
X6269Y50374D01*
X6553Y50337D01*
X6837Y50374D01*
X7102Y50484D01*
X7330Y50658D01*
X7504Y50886D01*
X7614Y51151D01*
X7652Y51435D01*
X7614Y51719D01*
X7504Y51984D01*
X7330Y52212D01*
X7102Y52386D01*
X6837Y52496D01*
X6553Y52533D01*
D02*
G37*
G36*
X11430Y49993D02*
X11146Y49956D01*
X10881Y49846D01*
X10653Y49672D01*
X10479Y49444D01*
X10369Y49179D01*
X10332Y48895D01*
X10369Y48611D01*
X10479Y48346D01*
X10653Y48118D01*
X10881Y47944D01*
X11146Y47834D01*
X11430Y47797D01*
X11714Y47834D01*
X11979Y47944D01*
X12207Y48118D01*
X12381Y48346D01*
X12491Y48611D01*
X12528Y48895D01*
X12491Y49179D01*
X12381Y49444D01*
X12207Y49672D01*
X11979Y49846D01*
X11714Y49956D01*
X11430Y49993D01*
D02*
G37*
G36*
X6147D02*
X5863Y49956D01*
X5598Y49846D01*
X5370Y49672D01*
X5196Y49444D01*
X5086Y49179D01*
X5048Y48895D01*
X5086Y48611D01*
X5196Y48346D01*
X5370Y48118D01*
X5598Y47944D01*
X5863Y47834D01*
X6147Y47797D01*
X6431Y47834D01*
X6696Y47944D01*
X6923Y48118D01*
X7098Y48346D01*
X7208Y48611D01*
X7245Y48895D01*
X7208Y49179D01*
X7098Y49444D01*
X6923Y49672D01*
X6696Y49846D01*
X6431Y49956D01*
X6147Y49993D01*
D02*
G37*
G36*
X11430Y47453D02*
X11146Y47416D01*
X10881Y47306D01*
X10653Y47132D01*
X10479Y46904D01*
X10369Y46639D01*
X10332Y46355D01*
X10369Y46071D01*
X10479Y45806D01*
X10653Y45578D01*
X10881Y45404D01*
X11146Y45294D01*
X11430Y45257D01*
X11714Y45294D01*
X11979Y45404D01*
X12207Y45578D01*
X12381Y45806D01*
X12491Y46071D01*
X12528Y46355D01*
X12491Y46639D01*
X12381Y46904D01*
X12207Y47132D01*
X11979Y47306D01*
X11714Y47416D01*
X11430Y47453D01*
D02*
G37*
G36*
X6553D02*
X6269Y47416D01*
X6004Y47306D01*
X5777Y47132D01*
X5602Y46904D01*
X5492Y46639D01*
X5455Y46355D01*
X5492Y46071D01*
X5602Y45806D01*
X5777Y45578D01*
X6004Y45404D01*
X6269Y45294D01*
X6553Y45257D01*
X6837Y45294D01*
X7102Y45404D01*
X7330Y45578D01*
X7504Y45806D01*
X7614Y46071D01*
X7652Y46355D01*
X7614Y46639D01*
X7504Y46904D01*
X7330Y47132D01*
X7102Y47306D01*
X6837Y47416D01*
X6553Y47453D01*
D02*
G37*
G36*
X11430Y44913D02*
X11146Y44876D01*
X10881Y44766D01*
X10653Y44592D01*
X10479Y44364D01*
X10369Y44099D01*
X10332Y43815D01*
X10369Y43531D01*
X10479Y43266D01*
X10653Y43038D01*
X10881Y42864D01*
X11146Y42754D01*
X11430Y42717D01*
X11714Y42754D01*
X11979Y42864D01*
X12207Y43038D01*
X12381Y43266D01*
X12491Y43531D01*
X12528Y43815D01*
X12491Y44099D01*
X12381Y44364D01*
X12207Y44592D01*
X11979Y44766D01*
X11714Y44876D01*
X11430Y44913D01*
D02*
G37*
G36*
X6147D02*
X5863Y44876D01*
X5598Y44766D01*
X5370Y44592D01*
X5196Y44364D01*
X5086Y44099D01*
X5048Y43815D01*
X5086Y43531D01*
X5196Y43266D01*
X5370Y43038D01*
X5598Y42864D01*
X5863Y42754D01*
X6147Y42717D01*
X6431Y42754D01*
X6696Y42864D01*
X6923Y43038D01*
X7098Y43266D01*
X7208Y43531D01*
X7245Y43815D01*
X7208Y44099D01*
X7098Y44364D01*
X6923Y44592D01*
X6696Y44766D01*
X6431Y44876D01*
X6147Y44913D01*
D02*
G37*
G36*
X11621Y42348D02*
Y41465D01*
X12503D01*
X12491Y41559D01*
X12381Y41824D01*
X12207Y42052D01*
X11979Y42226D01*
X11714Y42336D01*
X11621Y42348D01*
D02*
G37*
G36*
X6744D02*
Y41465D01*
X7627D01*
X7614Y41559D01*
X7504Y41824D01*
X7330Y42052D01*
X7102Y42226D01*
X6837Y42336D01*
X6744Y42348D01*
D02*
G37*
G36*
X11240D02*
X11146Y42336D01*
X10881Y42226D01*
X10653Y42052D01*
X10479Y41824D01*
X10369Y41559D01*
X10357Y41465D01*
X11240D01*
Y42348D01*
D02*
G37*
G36*
X6363D02*
X6269Y42336D01*
X6004Y42226D01*
X5777Y42052D01*
X5602Y41824D01*
X5492Y41559D01*
X5480Y41465D01*
X6363D01*
Y42348D01*
D02*
G37*
G36*
X43370Y34054D02*
Y33211D01*
X44214D01*
X44203Y33294D01*
X44097Y33550D01*
X43929Y33769D01*
X43710Y33937D01*
X43454Y34043D01*
X43370Y34054D01*
D02*
G37*
G36*
X42989Y34054D02*
X42906Y34043D01*
X42650Y33937D01*
X42431Y33769D01*
X42263Y33550D01*
X42157Y33294D01*
X42146Y33211D01*
X42989D01*
Y34054D01*
D02*
G37*
G36*
X11430Y34753D02*
X11146Y34716D01*
X10881Y34606D01*
X10653Y34432D01*
X10479Y34204D01*
X10369Y33939D01*
X10332Y33655D01*
X10369Y33371D01*
X10479Y33106D01*
X10653Y32878D01*
X10881Y32704D01*
X11146Y32594D01*
X11430Y32557D01*
X11714Y32594D01*
X11979Y32704D01*
X12207Y32878D01*
X12381Y33106D01*
X12491Y33371D01*
X12528Y33655D01*
X12491Y33939D01*
X12381Y34204D01*
X12207Y34432D01*
X11979Y34606D01*
X11714Y34716D01*
X11430Y34753D01*
D02*
G37*
G36*
X6147D02*
X5863Y34716D01*
X5598Y34606D01*
X5370Y34432D01*
X5196Y34204D01*
X5086Y33939D01*
X5048Y33655D01*
X5086Y33371D01*
X5196Y33106D01*
X5370Y32878D01*
X5598Y32704D01*
X5863Y32594D01*
X6147Y32557D01*
X6431Y32594D01*
X6696Y32704D01*
X6923Y32878D01*
X7098Y33106D01*
X7208Y33371D01*
X7245Y33655D01*
X7208Y33939D01*
X7098Y34204D01*
X6923Y34432D01*
X6696Y34606D01*
X6431Y34716D01*
X6147Y34753D01*
D02*
G37*
G36*
X42989Y32830D02*
X42146D01*
X42157Y32746D01*
X42263Y32490D01*
X42431Y32271D01*
X42650Y32103D01*
X42906Y31997D01*
X42989Y31986D01*
Y32830D01*
D02*
G37*
G36*
X67881Y32829D02*
X67038D01*
X67049Y32746D01*
X67155Y32490D01*
X67323Y32271D01*
X67542Y32103D01*
X67798Y31997D01*
X67881Y31986D01*
Y32829D01*
D02*
G37*
G36*
X69106D02*
X68262D01*
Y31986D01*
X68346Y31997D01*
X68602Y32103D01*
X68821Y32271D01*
X68989Y32490D01*
X69095Y32746D01*
X69106Y32829D01*
D02*
G37*
G36*
X44214Y32830D02*
X43370D01*
Y31986D01*
X43454Y31997D01*
X43710Y32103D01*
X43929Y32271D01*
X44097Y32490D01*
X44203Y32746D01*
X44214Y32830D01*
D02*
G37*
G36*
X62010Y34070D02*
X59910D01*
Y31970D01*
X62010D01*
Y34070D01*
D02*
G37*
G36*
X70612Y34079D02*
X70338Y34043D01*
X70082Y33937D01*
X69863Y33769D01*
X69695Y33550D01*
X69589Y33294D01*
X69553Y33020D01*
X69589Y32746D01*
X69695Y32490D01*
X69863Y32271D01*
X70082Y32103D01*
X70338Y31997D01*
X70612Y31961D01*
X70886Y31997D01*
X71142Y32103D01*
X71361Y32271D01*
X71529Y32490D01*
X71635Y32746D01*
X71671Y33020D01*
X71635Y33294D01*
X71529Y33550D01*
X71361Y33769D01*
X71142Y33937D01*
X70886Y34043D01*
X70612Y34079D01*
D02*
G37*
G36*
X58420D02*
X58146Y34043D01*
X57890Y33937D01*
X57671Y33769D01*
X57503Y33550D01*
X57397Y33294D01*
X57361Y33020D01*
X57397Y32746D01*
X57503Y32490D01*
X57671Y32271D01*
X57890Y32103D01*
X58146Y31997D01*
X58420Y31961D01*
X58694Y31997D01*
X58950Y32103D01*
X59169Y32271D01*
X59337Y32490D01*
X59443Y32746D01*
X59479Y33020D01*
X59443Y33294D01*
X59337Y33550D01*
X59169Y33769D01*
X58950Y33937D01*
X58694Y34043D01*
X58420Y34079D01*
D02*
G37*
G36*
X55880D02*
X55606Y34043D01*
X55350Y33937D01*
X55131Y33769D01*
X54963Y33550D01*
X54857Y33294D01*
X54821Y33020D01*
X54857Y32746D01*
X54963Y32490D01*
X55131Y32271D01*
X55350Y32103D01*
X55606Y31997D01*
X55880Y31961D01*
X56154Y31997D01*
X56410Y32103D01*
X56629Y32271D01*
X56797Y32490D01*
X56903Y32746D01*
X56939Y33020D01*
X56903Y33294D01*
X56797Y33550D01*
X56629Y33769D01*
X56410Y33937D01*
X56154Y34043D01*
X55880Y34079D01*
D02*
G37*
G36*
X53340D02*
X53066Y34043D01*
X52810Y33937D01*
X52591Y33769D01*
X52423Y33550D01*
X52317Y33294D01*
X52281Y33020D01*
X52317Y32746D01*
X52423Y32490D01*
X52591Y32271D01*
X52810Y32103D01*
X53066Y31997D01*
X53340Y31961D01*
X53614Y31997D01*
X53870Y32103D01*
X54089Y32271D01*
X54257Y32490D01*
X54363Y32746D01*
X54399Y33020D01*
X54363Y33294D01*
X54257Y33550D01*
X54089Y33769D01*
X53870Y33937D01*
X53614Y34043D01*
X53340Y34079D01*
D02*
G37*
G36*
X50800D02*
X50526Y34043D01*
X50270Y33937D01*
X50051Y33769D01*
X49883Y33550D01*
X49777Y33294D01*
X49741Y33020D01*
X49777Y32746D01*
X49883Y32490D01*
X50051Y32271D01*
X50270Y32103D01*
X50526Y31997D01*
X50800Y31961D01*
X51074Y31997D01*
X51330Y32103D01*
X51549Y32271D01*
X51717Y32490D01*
X51823Y32746D01*
X51859Y33020D01*
X51823Y33294D01*
X51717Y33550D01*
X51549Y33769D01*
X51330Y33937D01*
X51074Y34043D01*
X50800Y34079D01*
D02*
G37*
G36*
X48260D02*
X47986Y34043D01*
X47730Y33937D01*
X47511Y33769D01*
X47343Y33550D01*
X47237Y33294D01*
X47201Y33020D01*
X47237Y32746D01*
X47343Y32490D01*
X47511Y32271D01*
X47730Y32103D01*
X47986Y31997D01*
X48260Y31961D01*
X48534Y31997D01*
X48790Y32103D01*
X49009Y32271D01*
X49177Y32490D01*
X49283Y32746D01*
X49319Y33020D01*
X49283Y33294D01*
X49177Y33550D01*
X49009Y33769D01*
X48790Y33937D01*
X48534Y34043D01*
X48260Y34079D01*
D02*
G37*
G36*
X45720D02*
X45446Y34043D01*
X45190Y33937D01*
X44971Y33769D01*
X44803Y33550D01*
X44697Y33294D01*
X44661Y33020D01*
X44697Y32746D01*
X44803Y32490D01*
X44971Y32271D01*
X45190Y32103D01*
X45446Y31997D01*
X45720Y31961D01*
X45994Y31997D01*
X46250Y32103D01*
X46469Y32271D01*
X46637Y32490D01*
X46743Y32746D01*
X46779Y33020D01*
X46743Y33294D01*
X46637Y33550D01*
X46469Y33769D01*
X46250Y33937D01*
X45994Y34043D01*
X45720Y34079D01*
D02*
G37*
G36*
X11430Y32213D02*
X11146Y32176D01*
X10881Y32066D01*
X10653Y31892D01*
X10479Y31664D01*
X10369Y31399D01*
X10332Y31115D01*
X10369Y30831D01*
X10479Y30566D01*
X10653Y30338D01*
X10881Y30164D01*
X11146Y30054D01*
X11430Y30017D01*
X11714Y30054D01*
X11979Y30164D01*
X12207Y30338D01*
X12381Y30566D01*
X12491Y30831D01*
X12528Y31115D01*
X12491Y31399D01*
X12381Y31664D01*
X12207Y31892D01*
X11979Y32066D01*
X11714Y32176D01*
X11430Y32213D01*
D02*
G37*
G36*
X6553D02*
X6269Y32176D01*
X6004Y32066D01*
X5777Y31892D01*
X5602Y31664D01*
X5492Y31399D01*
X5455Y31115D01*
X5492Y30831D01*
X5602Y30566D01*
X5777Y30338D01*
X6004Y30164D01*
X6269Y30054D01*
X6553Y30017D01*
X6837Y30054D01*
X7102Y30164D01*
X7330Y30338D01*
X7504Y30566D01*
X7614Y30831D01*
X7652Y31115D01*
X7614Y31399D01*
X7504Y31664D01*
X7330Y31892D01*
X7102Y32066D01*
X6837Y32176D01*
X6553Y32213D01*
D02*
G37*
G36*
X43370Y27704D02*
Y26861D01*
X44214D01*
X44203Y26944D01*
X44097Y27200D01*
X43929Y27419D01*
X43710Y27587D01*
X43454Y27693D01*
X43370Y27704D01*
D02*
G37*
G36*
X42989Y27704D02*
X42906Y27693D01*
X42650Y27587D01*
X42431Y27419D01*
X42263Y27200D01*
X42157Y26944D01*
X42146Y26861D01*
X42989D01*
Y27704D01*
D02*
G37*
G36*
Y26480D02*
X42146D01*
X42157Y26396D01*
X42263Y26140D01*
X42431Y25921D01*
X42650Y25753D01*
X42906Y25647D01*
X42989Y25636D01*
Y26480D01*
D02*
G37*
G36*
X44214D02*
X43370D01*
Y25636D01*
X43454Y25647D01*
X43710Y25753D01*
X43929Y25921D01*
X44097Y26140D01*
X44203Y26396D01*
X44214Y26480D01*
D02*
G37*
G36*
X62010Y27720D02*
X59910D01*
Y25620D01*
X62010D01*
Y27720D01*
D02*
G37*
G36*
X53340Y27729D02*
X53066Y27693D01*
X52810Y27587D01*
X52591Y27419D01*
X52423Y27200D01*
X52317Y26944D01*
X52281Y26670D01*
X52317Y26396D01*
X52423Y26140D01*
X52591Y25921D01*
X52810Y25753D01*
X53066Y25647D01*
X53340Y25611D01*
X53614Y25647D01*
X53870Y25753D01*
X54089Y25921D01*
X54257Y26140D01*
X54363Y26396D01*
X54399Y26670D01*
X54363Y26944D01*
X54257Y27200D01*
X54089Y27419D01*
X53870Y27587D01*
X53614Y27693D01*
X53340Y27729D01*
D02*
G37*
G36*
X50800D02*
X50526Y27693D01*
X50270Y27587D01*
X50051Y27419D01*
X49883Y27200D01*
X49777Y26944D01*
X49741Y26670D01*
X49777Y26396D01*
X49883Y26140D01*
X50051Y25921D01*
X50270Y25753D01*
X50526Y25647D01*
X50800Y25611D01*
X51074Y25647D01*
X51330Y25753D01*
X51549Y25921D01*
X51717Y26140D01*
X51823Y26396D01*
X51859Y26670D01*
X51823Y26944D01*
X51717Y27200D01*
X51549Y27419D01*
X51330Y27587D01*
X51074Y27693D01*
X50800Y27729D01*
D02*
G37*
G36*
X48260D02*
X47986Y27693D01*
X47730Y27587D01*
X47511Y27419D01*
X47343Y27200D01*
X47237Y26944D01*
X47201Y26670D01*
X47237Y26396D01*
X47343Y26140D01*
X47511Y25921D01*
X47730Y25753D01*
X47986Y25647D01*
X48260Y25611D01*
X48534Y25647D01*
X48790Y25753D01*
X49009Y25921D01*
X49177Y26140D01*
X49283Y26396D01*
X49319Y26670D01*
X49283Y26944D01*
X49177Y27200D01*
X49009Y27419D01*
X48790Y27587D01*
X48534Y27693D01*
X48260Y27729D01*
D02*
G37*
G36*
X45720D02*
X45446Y27693D01*
X45190Y27587D01*
X44971Y27419D01*
X44803Y27200D01*
X44697Y26944D01*
X44661Y26670D01*
X44697Y26396D01*
X44803Y26140D01*
X44971Y25921D01*
X45190Y25753D01*
X45446Y25647D01*
X45720Y25611D01*
X45994Y25647D01*
X46250Y25753D01*
X46469Y25921D01*
X46637Y26140D01*
X46743Y26396D01*
X46779Y26670D01*
X46743Y26944D01*
X46637Y27200D01*
X46469Y27419D01*
X46250Y27587D01*
X45994Y27693D01*
X45720Y27729D01*
D02*
G37*
G36*
X55880D02*
X55606Y27693D01*
X55350Y27587D01*
X55131Y27419D01*
X54963Y27200D01*
X54857Y26944D01*
X54821Y26670D01*
X54857Y26396D01*
X54963Y26140D01*
X55131Y25921D01*
X55350Y25753D01*
X55547Y25672D01*
Y24464D01*
X53387Y22304D01*
X36320Y22304D01*
X36301Y22331D01*
X36136Y22442D01*
X35941Y22481D01*
X35746Y22442D01*
X35581Y22331D01*
X35470Y22166D01*
X35431Y21971D01*
X35470Y21776D01*
X35581Y21611D01*
X35746Y21500D01*
X35941Y21461D01*
X36136Y21500D01*
X36301Y21611D01*
X36320Y21638D01*
X53525Y21638D01*
X53653Y21663D01*
X53761Y21735D01*
X56116Y24090D01*
X56188Y24198D01*
X56213Y24326D01*
Y25672D01*
X56410Y25753D01*
X56629Y25921D01*
X56797Y26140D01*
X56903Y26396D01*
X56939Y26670D01*
X56903Y26944D01*
X56797Y27200D01*
X56629Y27419D01*
X56410Y27587D01*
X56154Y27693D01*
X55880Y27729D01*
D02*
G37*
G36*
X58420D02*
X58146Y27693D01*
X57890Y27587D01*
X57671Y27419D01*
X57503Y27200D01*
X57397Y26944D01*
X57361Y26670D01*
X57397Y26396D01*
X57503Y26140D01*
X57671Y25921D01*
X57890Y25753D01*
X58087Y25672D01*
Y24488D01*
X54887Y21288D01*
X35177Y21288D01*
X35158Y21315D01*
X34993Y21426D01*
X34798Y21465D01*
X34603Y21426D01*
X34438Y21315D01*
X34327Y21150D01*
X34288Y20955D01*
X34327Y20760D01*
X34438Y20595D01*
X34603Y20484D01*
X34798Y20445D01*
X34993Y20484D01*
X35158Y20595D01*
X35177Y20622D01*
X55025Y20622D01*
X55153Y20647D01*
X55261Y20719D01*
X58656Y24114D01*
X58728Y24222D01*
X58753Y24350D01*
Y25672D01*
X58950Y25753D01*
X59169Y25921D01*
X59337Y26140D01*
X59443Y26396D01*
X59479Y26670D01*
X59443Y26944D01*
X59337Y27200D01*
X59169Y27419D01*
X58950Y27587D01*
X58694Y27693D01*
X58420Y27729D01*
D02*
G37*
G36*
X43370Y4844D02*
Y4001D01*
X44214D01*
X44203Y4084D01*
X44097Y4340D01*
X43929Y4559D01*
X43710Y4727D01*
X43454Y4833D01*
X43370Y4844D01*
D02*
G37*
G36*
X42989Y4844D02*
X42906Y4833D01*
X42650Y4727D01*
X42431Y4559D01*
X42263Y4340D01*
X42157Y4084D01*
X42146Y4001D01*
X42989D01*
Y4844D01*
D02*
G37*
G36*
Y3620D02*
X42146D01*
X42157Y3536D01*
X42263Y3280D01*
X42431Y3061D01*
X42650Y2893D01*
X42906Y2787D01*
X42989Y2776D01*
Y3620D01*
D02*
G37*
G36*
X44214D02*
X43370D01*
Y2776D01*
X43454Y2787D01*
X43710Y2893D01*
X43929Y3061D01*
X44097Y3280D01*
X44203Y3536D01*
X44214Y3620D01*
D02*
G37*
G36*
X62010Y4860D02*
X59910D01*
Y2760D01*
X62010D01*
Y4860D01*
D02*
G37*
G36*
X58420Y4869D02*
X58146Y4833D01*
X57890Y4727D01*
X57671Y4559D01*
X57503Y4340D01*
X57397Y4084D01*
X57361Y3810D01*
X57397Y3536D01*
X57503Y3280D01*
X57671Y3061D01*
X57890Y2893D01*
X58146Y2787D01*
X58420Y2751D01*
X58694Y2787D01*
X58950Y2893D01*
X59169Y3061D01*
X59337Y3280D01*
X59443Y3536D01*
X59479Y3810D01*
X59443Y4084D01*
X59337Y4340D01*
X59169Y4559D01*
X58950Y4727D01*
X58694Y4833D01*
X58420Y4869D01*
D02*
G37*
G36*
X55880D02*
X55606Y4833D01*
X55350Y4727D01*
X55131Y4559D01*
X54963Y4340D01*
X54857Y4084D01*
X54821Y3810D01*
X54857Y3536D01*
X54963Y3280D01*
X55131Y3061D01*
X55350Y2893D01*
X55606Y2787D01*
X55880Y2751D01*
X56154Y2787D01*
X56410Y2893D01*
X56629Y3061D01*
X56797Y3280D01*
X56903Y3536D01*
X56939Y3810D01*
X56903Y4084D01*
X56797Y4340D01*
X56629Y4559D01*
X56410Y4727D01*
X56154Y4833D01*
X55880Y4869D01*
D02*
G37*
G36*
X53340D02*
X53066Y4833D01*
X52810Y4727D01*
X52591Y4559D01*
X52423Y4340D01*
X52317Y4084D01*
X52281Y3810D01*
X52317Y3536D01*
X52423Y3280D01*
X52591Y3061D01*
X52810Y2893D01*
X53066Y2787D01*
X53340Y2751D01*
X53614Y2787D01*
X53870Y2893D01*
X54089Y3061D01*
X54257Y3280D01*
X54363Y3536D01*
X54399Y3810D01*
X54363Y4084D01*
X54257Y4340D01*
X54089Y4559D01*
X53870Y4727D01*
X53614Y4833D01*
X53340Y4869D01*
D02*
G37*
G36*
X50800D02*
X50526Y4833D01*
X50270Y4727D01*
X50051Y4559D01*
X49883Y4340D01*
X49777Y4084D01*
X49741Y3810D01*
X49777Y3536D01*
X49883Y3280D01*
X50051Y3061D01*
X50270Y2893D01*
X50526Y2787D01*
X50800Y2751D01*
X51074Y2787D01*
X51330Y2893D01*
X51549Y3061D01*
X51717Y3280D01*
X51823Y3536D01*
X51859Y3810D01*
X51823Y4084D01*
X51717Y4340D01*
X51549Y4559D01*
X51330Y4727D01*
X51074Y4833D01*
X50800Y4869D01*
D02*
G37*
G36*
X48260D02*
X47986Y4833D01*
X47730Y4727D01*
X47511Y4559D01*
X47343Y4340D01*
X47237Y4084D01*
X47201Y3810D01*
X47237Y3536D01*
X47343Y3280D01*
X47511Y3061D01*
X47730Y2893D01*
X47986Y2787D01*
X48260Y2751D01*
X48534Y2787D01*
X48790Y2893D01*
X49009Y3061D01*
X49177Y3280D01*
X49283Y3536D01*
X49319Y3810D01*
X49283Y4084D01*
X49177Y4340D01*
X49009Y4559D01*
X48790Y4727D01*
X48534Y4833D01*
X48260Y4869D01*
D02*
G37*
G36*
X45720D02*
X45446Y4833D01*
X45190Y4727D01*
X44971Y4559D01*
X44803Y4340D01*
X44697Y4084D01*
X44661Y3810D01*
X44697Y3536D01*
X44803Y3280D01*
X44971Y3061D01*
X45190Y2893D01*
X45446Y2787D01*
X45720Y2751D01*
X45994Y2787D01*
X46250Y2893D01*
X46469Y3061D01*
X46637Y3280D01*
X46743Y3536D01*
X46779Y3810D01*
X46743Y4084D01*
X46637Y4340D01*
X46469Y4559D01*
X46250Y4727D01*
X45994Y4833D01*
X45720Y4869D01*
D02*
G37*
G36*
X35300Y7997D02*
X35105Y7958D01*
X34940Y7847D01*
X34829Y7682D01*
X34825Y7661D01*
X29648Y2484D01*
X28190D01*
Y3075D01*
X26090D01*
Y975D01*
X28190D01*
Y1566D01*
X29838D01*
X30014Y1601D01*
X30162Y1701D01*
X35474Y7012D01*
X35495Y7016D01*
X35660Y7127D01*
X35771Y7292D01*
X35810Y7487D01*
X35771Y7682D01*
X35660Y7847D01*
X35495Y7958D01*
X35300Y7997D01*
D02*
G37*
G36*
X24791Y3059D02*
Y2215D01*
X25634D01*
X25623Y2299D01*
X25517Y2555D01*
X25349Y2774D01*
X25130Y2942D01*
X24874Y3048D01*
X24791Y3059D01*
D02*
G37*
G36*
X24410D02*
X24326Y3048D01*
X24070Y2942D01*
X23851Y2774D01*
X23683Y2555D01*
X23577Y2299D01*
X23566Y2215D01*
X24410D01*
Y3059D01*
D02*
G37*
G36*
X11090Y3034D02*
Y2191D01*
X11934D01*
X11923Y2274D01*
X11817Y2530D01*
X11649Y2749D01*
X11430Y2917D01*
X11174Y3023D01*
X11090Y3034D01*
D02*
G37*
G36*
X10710D02*
X10626Y3023D01*
X10370Y2917D01*
X10151Y2749D01*
X9983Y2530D01*
X9877Y2274D01*
X9866Y2191D01*
X10710D01*
Y3034D01*
D02*
G37*
G36*
X25634Y1834D02*
X24791D01*
Y991D01*
X24874Y1002D01*
X25130Y1108D01*
X25349Y1276D01*
X25517Y1495D01*
X25623Y1751D01*
X25634Y1834D01*
D02*
G37*
G36*
X24410D02*
X23566D01*
X23577Y1751D01*
X23683Y1495D01*
X23851Y1276D01*
X24070Y1108D01*
X24326Y1002D01*
X24410Y991D01*
Y1834D01*
D02*
G37*
G36*
X11934Y1810D02*
X11090D01*
Y966D01*
X11174Y977D01*
X11430Y1083D01*
X11649Y1251D01*
X11817Y1470D01*
X11923Y1726D01*
X11934Y1810D01*
D02*
G37*
G36*
X10710D02*
X9866D01*
X9877Y1726D01*
X9983Y1470D01*
X10151Y1251D01*
X10370Y1083D01*
X10626Y977D01*
X10710Y966D01*
Y1810D01*
D02*
G37*
G36*
X14490Y3050D02*
X12390D01*
Y950D01*
X14490D01*
Y3050D01*
D02*
G37*
%LPD*%
G36*
X46611Y44752D02*
X46630Y44725D01*
X46795Y44614D01*
X46990Y44575D01*
X47185Y44614D01*
X47350Y44725D01*
X47369Y44752D01*
X53202D01*
X54948Y43005D01*
X54895Y42878D01*
X49909D01*
X49890Y42905D01*
X49725Y43016D01*
X49530Y43055D01*
X49335Y43016D01*
X49170Y42905D01*
X49151Y42878D01*
X36675D01*
X36675Y42878D01*
X34550D01*
X32719D01*
X32678Y42999D01*
X32730Y43038D01*
X32904Y43266D01*
X33014Y43531D01*
X33052Y43815D01*
X33014Y44099D01*
X32904Y44364D01*
X32730Y44592D01*
X32678Y44631D01*
X32719Y44752D01*
X46611Y44752D01*
D02*
G37*
G36*
X64624Y40404D02*
X64732Y40332D01*
X64860Y40307D01*
X67074D01*
X67155Y40110D01*
X67323Y39891D01*
X67389Y39840D01*
X67346Y39713D01*
X53719D01*
X53700Y39740D01*
X53535Y39851D01*
X53340Y39890D01*
X53145Y39851D01*
X52980Y39740D01*
X52961Y39713D01*
X35824D01*
X35696Y39688D01*
X35588Y39616D01*
X33771Y37798D01*
X32719D01*
X32678Y37919D01*
X32730Y37958D01*
X32904Y38186D01*
X33014Y38451D01*
X33052Y38735D01*
X33014Y39019D01*
X32904Y39284D01*
X32730Y39512D01*
X32678Y39551D01*
X32719Y39672D01*
X33909D01*
X34037Y39697D01*
X34145Y39769D01*
X35444Y41069D01*
X55501D01*
X55520Y41042D01*
X55685Y40931D01*
X55880Y40892D01*
X56075Y40931D01*
X56240Y41042D01*
X56259Y41069D01*
X63960D01*
X64624Y40404D01*
D02*
G37*
G36*
X67415Y38920D02*
X67323Y38849D01*
X67155Y38630D01*
X67074Y38433D01*
X58037D01*
X58018Y38460D01*
X57853Y38571D01*
X57658Y38610D01*
X57463Y38571D01*
X57298Y38460D01*
X57187Y38295D01*
X57148Y38100D01*
X57187Y37905D01*
X57298Y37740D01*
X57463Y37629D01*
X57658Y37590D01*
X57853Y37629D01*
X58018Y37740D01*
X58037Y37767D01*
X67074D01*
X67155Y37570D01*
X67323Y37351D01*
X67402Y37290D01*
X67359Y37163D01*
X49909D01*
X49890Y37190D01*
X49725Y37301D01*
X49530Y37340D01*
X49335Y37301D01*
X49170Y37190D01*
X49151Y37163D01*
X35814D01*
X35686Y37138D01*
X35578Y37066D01*
X33771Y35258D01*
X32313D01*
X32272Y35379D01*
X32323Y35418D01*
X32498Y35646D01*
X32608Y35911D01*
X32645Y36195D01*
X32608Y36479D01*
X32498Y36744D01*
X32323Y36972D01*
X32272Y37011D01*
X32313Y37132D01*
X33909D01*
X34037Y37157D01*
X34145Y37229D01*
X35962Y39047D01*
X52961D01*
X52980Y39020D01*
X53145Y38909D01*
X53340Y38870D01*
X53535Y38909D01*
X53700Y39020D01*
X53719Y39047D01*
X67372D01*
X67415Y38920D01*
D02*
G37*
G36*
X25945Y39551D02*
X25893Y39512D01*
X25719Y39284D01*
X25609Y39019D01*
X25572Y38735D01*
X25609Y38451D01*
X25719Y38186D01*
X25893Y37958D01*
X25945Y37919D01*
X25904Y37798D01*
X12196D01*
X12155Y37919D01*
X12207Y37958D01*
X12381Y38186D01*
X12491Y38451D01*
X12528Y38735D01*
X12491Y39019D01*
X12381Y39284D01*
X12207Y39512D01*
X12155Y39551D01*
X12196Y39672D01*
X25904D01*
X25945Y39551D01*
D02*
G37*
D11*
X55880Y41402D02*
X64098D01*
X64860Y40640D02*
X68072D01*
X64098Y41402D02*
X64860Y40640D01*
X69342Y41910D02*
X70612Y43180D01*
X66167Y42545D02*
X66802Y41910D01*
X69342D01*
X49530Y42545D02*
X66167D01*
X41207Y95784D02*
X41301D01*
X37336Y95855D02*
X41136D01*
X41207Y95784D01*
X20701Y90805D02*
X20828D01*
X48514Y90805D02*
X51943Y94234D01*
X20828Y90805D02*
X48514Y90805D01*
X52465Y98800D02*
X52735Y98530D01*
X50125Y98800D02*
X52465D01*
X63754Y79375D02*
X64389Y80010D01*
X62125Y79375D02*
X63754D01*
X40894Y83185D02*
X55245D01*
X24257D02*
X34373D01*
X35643Y84455D01*
X39624D02*
X40894Y83185D01*
X35643Y84455D02*
X39624D01*
X31750D02*
X34137D01*
X36677Y86995D02*
X57785D01*
X34137Y84455D02*
X36677Y86995D01*
X70485Y78486D02*
Y79502D01*
X70104Y78105D02*
X70485Y78486D01*
X66675Y78613D02*
X67183Y78105D01*
X70104D01*
X46482Y71755D02*
X62230D01*
X46482Y71755D02*
X46482Y71755D01*
X3175Y39243D02*
X4953Y37465D01*
X3175Y59817D02*
X4953Y61595D01*
X3175Y39243D02*
Y59817D01*
X35941Y46355D02*
X56710D01*
X56710Y46355D01*
X19685Y45085D02*
X46990Y45085D01*
X19431Y45085D02*
X19685D01*
X20066Y60325D02*
X20446Y60705D01*
Y61213D01*
X20828Y61595D01*
X4318Y40767D02*
X5080Y40005D01*
X33909D01*
X4953Y37465D02*
X33909D01*
X4318Y40767D02*
Y58293D01*
X5080Y59055D01*
X11430Y81915D02*
X21971D01*
Y62865D02*
X34018Y62865D01*
X11460Y84425D02*
X11490Y84455D01*
X23114D01*
X11430Y66675D02*
X24257D01*
X23114Y65405D02*
X33772D01*
X33777Y65400D01*
X33909Y34925D02*
X35814Y36830D01*
X17399Y34925D02*
X33909D01*
X55245Y83185D02*
X55880Y83820D01*
X33782Y65405D02*
X38962Y60225D01*
X52478D01*
X31750Y59055D02*
X35350D01*
X36255Y58150D02*
X54880D01*
X35350Y59055D02*
X36255Y58150D01*
X37683Y59200D02*
X54120Y59200D01*
X34018Y62865D02*
X37683Y59200D01*
X54120Y59200D02*
X55880Y60960D01*
X46990Y45085D02*
X53340D01*
X55245Y43180D01*
X68072D01*
X11430Y81915D02*
X11445Y81900D01*
X11430Y81915D02*
X11430Y81915D01*
X11430D02*
X11430D01*
X11430Y84455D02*
X11460Y84425D01*
X33777Y65400D02*
X33782Y65405D01*
X11430Y66675D02*
X11430Y66675D01*
X14525Y80675D02*
X24700Y70500D01*
X10175Y80675D02*
X14525D01*
X9300Y81550D02*
X10175Y80675D01*
X9300Y81550D02*
Y95025D01*
X24700Y70500D02*
X64200D01*
X9300Y95025D02*
X11430Y97155D01*
X64200Y70500D02*
X68050Y66650D01*
Y61925D02*
Y66650D01*
X67000Y60875D02*
X68050Y61925D01*
X34671Y20955D02*
X55025Y20955D01*
X58420Y24350D01*
Y26670D01*
X35941Y21971D02*
X53525Y21971D01*
X55880Y24326D01*
Y26670D01*
X31750Y69215D02*
X62611D01*
X33909Y37465D02*
X35824Y39380D01*
X53340D02*
X69352D01*
X36675Y42545D02*
X49530D01*
X18542D02*
X34550Y42545D01*
X36675D01*
X36675Y42545D01*
X58615Y44450D02*
X69342D01*
X56710Y46355D02*
X58615Y44450D01*
X57150Y47625D02*
X59055Y45720D01*
X44069Y47625D02*
X57150D01*
X13970Y47625D02*
X44069Y47625D01*
X22225Y52705D02*
X34350D01*
X36255Y50800D02*
X58420D01*
X34350Y52705D02*
X36255Y50800D01*
X35306Y49530D02*
X69342D01*
X34671Y50165D02*
X35306Y49530D01*
X60960Y48260D02*
X68072D01*
X58420Y50800D02*
X68072D01*
X31750Y69215D02*
X31750Y69215D01*
Y66675D02*
X57404D01*
X31750Y66675D02*
X31750Y66675D01*
X69342Y44450D02*
X70612Y45720D01*
X39243Y35052D02*
X54610D01*
X33909Y29718D02*
X39243Y35052D01*
X15113Y29718D02*
X33909Y29718D01*
X37465Y35941D02*
X52070D01*
X33909Y32385D02*
X37465Y35941D01*
X16256Y32385D02*
X33909Y32385D01*
X35814Y36830D02*
X49530D01*
X35824Y39380D02*
X53340D01*
X4953Y61595D02*
X6350D01*
X5080Y59055D02*
X6350D01*
X68961Y79502D02*
Y81458D01*
X67183Y83236D02*
X68961Y81458D01*
X67183Y83236D02*
Y85471D01*
X35306Y41402D02*
X55880D01*
X33909Y40005D02*
X35306Y41402D01*
X54880Y58150D02*
X55880Y57150D01*
X69342Y34290D02*
X70612Y35560D01*
X69342Y36830D02*
X70612Y38100D01*
X66040Y35560D02*
X68072D01*
X52070Y35941D02*
X65659D01*
X66040Y35560D01*
X54610Y35052D02*
X65024D01*
X65786Y34290D01*
X69342D01*
X57785Y86995D02*
X58420Y86360D01*
Y85090D02*
Y86360D01*
X31750Y81915D02*
X62230Y81915D01*
X52070Y52832D02*
X54610D01*
X53340Y61087D02*
Y62230D01*
X52478Y60225D02*
X53340Y61087D01*
X55880Y83820D02*
Y85090D01*
X49530Y36830D02*
X69342D01*
X69352Y39380D02*
X70612Y40640D01*
X11430Y53975D02*
X20955D01*
X22225Y52705D01*
X69342Y46990D02*
X70612Y48260D01*
X65024Y46990D02*
X69342D01*
X65786Y53340D02*
X68072D01*
X63246Y55880D02*
X65786Y53340D01*
X60960Y55880D02*
X63246D01*
X69342Y52070D02*
X70612Y53340D01*
X64008Y52070D02*
X69342D01*
X57658Y38100D02*
X68072D01*
X59055Y45720D02*
X68072D01*
X55880Y60960D02*
Y62230D01*
Y55880D02*
Y57150D01*
X31750Y71755D02*
X46482Y71755D01*
X31750Y74295D02*
X60960Y74295D01*
X31750Y76835D02*
X59690Y76835D01*
X31750Y79375D02*
X62125Y79375D01*
X69342Y49530D02*
X70612Y50800D01*
D37*
X35050Y99695D02*
D03*
X36750D02*
D03*
D81*
X62150Y88425D02*
X64000Y86575D01*
X68350D02*
X69454Y85471D01*
X64000Y86575D02*
X68350D01*
X69454Y85471D02*
X71501D01*
X40031Y88425D02*
X62150Y88425D01*
X39331Y87725D02*
X40031Y88425D01*
D83*
X52383Y96969D02*
X55245Y94107D01*
X45913Y96969D02*
X52383D01*
X44923Y95979D02*
X45913Y96969D01*
X54497Y100203D02*
X56650Y98050D01*
X36750Y99695D02*
X37973D01*
X38481Y100203D01*
X54497D01*
X27140Y2025D02*
X29838D01*
X35300Y7487D01*
X36750Y104730D02*
X36795Y104775D01*
X36750Y99695D02*
Y104730D01*
X35825Y65225D02*
X66875D01*
X66900Y65250D01*
X31750Y99695D02*
X35050D01*
D85*
X65975Y90100D02*
Y94025D01*
Y90075D02*
Y90100D01*
X55260Y104740D02*
X65975Y94025D01*
X42418Y104740D02*
X55260D01*
X16764Y60325D02*
X18034D01*
X12954Y64135D02*
X16764Y60325D01*
X11430Y64135D02*
X12954D01*
X18034Y60325D02*
X18034Y60325D01*
D88*
X35900Y99695D02*
D03*
D89*
X6147Y43815D02*
D03*
X31547Y61595D02*
D03*
X31953Y64135D02*
D03*
X31547Y66675D02*
D03*
X31953Y69215D02*
D03*
X31547Y71755D02*
D03*
X31953Y74295D02*
D03*
X31547Y76835D02*
D03*
X31953Y79375D02*
D03*
X31547Y81915D02*
D03*
X31953Y84455D02*
D03*
X31547Y86995D02*
D03*
X31953Y89535D02*
D03*
X31547Y92075D02*
D03*
X31953Y94615D02*
D03*
Y59055D02*
D03*
X31547Y56515D02*
D03*
X31953Y53975D02*
D03*
X31547Y51435D02*
D03*
X31953Y48895D02*
D03*
X31547Y46355D02*
D03*
X31953Y43815D02*
D03*
X31547Y41275D02*
D03*
X31953Y38735D02*
D03*
X31547Y36195D02*
D03*
X31953Y33655D02*
D03*
X31547Y31115D02*
D03*
X31953Y99695D02*
D03*
X31547Y97155D02*
D03*
X6553D02*
D03*
X6147Y94615D02*
D03*
X6553Y92075D02*
D03*
X6147Y89535D02*
D03*
X6553Y86995D02*
D03*
X6147Y84455D02*
D03*
X6553Y81915D02*
D03*
X6147Y79375D02*
D03*
X6553Y76835D02*
D03*
X6147Y74295D02*
D03*
X6553Y71755D02*
D03*
X6147Y69215D02*
D03*
X6553Y66675D02*
D03*
X6147Y64135D02*
D03*
X6553Y61595D02*
D03*
X6147Y59055D02*
D03*
X6553Y56515D02*
D03*
X6147Y33655D02*
D03*
X6553Y36195D02*
D03*
X6147Y38735D02*
D03*
X6553Y41275D02*
D03*
Y46355D02*
D03*
X6147Y48895D02*
D03*
X6553Y51435D02*
D03*
X6147Y53975D02*
D03*
X6553Y31115D02*
D03*
X6147Y99695D02*
D03*
X26670Y97155D02*
D03*
Y99695D02*
D03*
X11430Y31115D02*
D03*
X26670D02*
D03*
Y33655D02*
D03*
Y36195D02*
D03*
Y38735D02*
D03*
Y41275D02*
D03*
Y43815D02*
D03*
Y46355D02*
D03*
Y48895D02*
D03*
X11430Y53975D02*
D03*
Y51435D02*
D03*
Y48895D02*
D03*
Y46355D02*
D03*
Y43815D02*
D03*
Y41275D02*
D03*
Y38735D02*
D03*
Y36195D02*
D03*
Y33655D02*
D03*
X26670Y51435D02*
D03*
Y53975D02*
D03*
Y56515D02*
D03*
Y59055D02*
D03*
X11430Y56515D02*
D03*
Y59055D02*
D03*
Y61595D02*
D03*
Y64135D02*
D03*
Y99695D02*
D03*
X26670Y94615D02*
D03*
Y92075D02*
D03*
Y89535D02*
D03*
Y86995D02*
D03*
Y84455D02*
D03*
Y81915D02*
D03*
Y79375D02*
D03*
Y76835D02*
D03*
Y74295D02*
D03*
Y71755D02*
D03*
Y69215D02*
D03*
Y66675D02*
D03*
Y64135D02*
D03*
Y61595D02*
D03*
X11430Y66675D02*
D03*
Y69215D02*
D03*
Y71755D02*
D03*
Y74295D02*
D03*
Y76835D02*
D03*
Y79375D02*
D03*
Y81915D02*
D03*
Y84455D02*
D03*
Y86995D02*
D03*
Y89535D02*
D03*
Y92075D02*
D03*
Y94615D02*
D03*
Y97155D02*
D03*
D90*
Y104775D02*
D03*
X26670D02*
D03*
X3175D02*
D03*
X71755Y104775D02*
D03*
X3175Y3175D02*
D03*
X71755Y3175D02*
D03*
D91*
X26670Y33655D02*
D03*
Y31115D02*
D03*
Y36195D02*
D03*
Y46355D02*
D03*
Y43815D02*
D03*
Y38735D02*
D03*
Y41275D02*
D03*
Y56515D02*
D03*
Y53975D02*
D03*
Y48895D02*
D03*
Y51435D02*
D03*
Y66675D02*
D03*
Y64135D02*
D03*
Y59055D02*
D03*
Y61595D02*
D03*
Y76835D02*
D03*
Y74295D02*
D03*
Y69215D02*
D03*
Y71755D02*
D03*
Y86995D02*
D03*
Y84455D02*
D03*
Y79375D02*
D03*
Y81915D02*
D03*
Y92075D02*
D03*
Y89535D02*
D03*
Y94615D02*
D03*
Y97155D02*
D03*
X11430Y33655D02*
D03*
Y31115D02*
D03*
Y36195D02*
D03*
Y46355D02*
D03*
Y43815D02*
D03*
Y38735D02*
D03*
Y41275D02*
D03*
Y56515D02*
D03*
Y53975D02*
D03*
Y48895D02*
D03*
Y51435D02*
D03*
Y66675D02*
D03*
Y64135D02*
D03*
Y59055D02*
D03*
Y61595D02*
D03*
Y76835D02*
D03*
Y74295D02*
D03*
Y69215D02*
D03*
Y71755D02*
D03*
Y86995D02*
D03*
Y84455D02*
D03*
Y79375D02*
D03*
Y81915D02*
D03*
Y92075D02*
D03*
Y89535D02*
D03*
Y94615D02*
D03*
Y97155D02*
D03*
X24600Y2025D02*
D03*
X43180Y55880D02*
D03*
X45720D02*
D03*
X48260D02*
D03*
X50800D02*
D03*
X58420D02*
D03*
X53340D02*
D03*
X55880D02*
D03*
X68072Y35560D02*
D03*
Y43180D02*
D03*
Y38100D02*
D03*
Y40640D02*
D03*
X70612Y33020D02*
D03*
X68072D02*
D03*
Y45720D02*
D03*
Y48260D02*
D03*
Y50800D02*
D03*
Y53340D02*
D03*
X70612Y55880D02*
D03*
Y35560D02*
D03*
Y38100D02*
D03*
Y40640D02*
D03*
Y43180D02*
D03*
Y45720D02*
D03*
Y48260D02*
D03*
Y50800D02*
D03*
Y53340D02*
D03*
X10900Y2000D02*
D03*
X43180Y85090D02*
D03*
X45720D02*
D03*
X48260D02*
D03*
X50800D02*
D03*
X58420D02*
D03*
X53340D02*
D03*
X55880D02*
D03*
X43180Y3810D02*
D03*
X45720D02*
D03*
X48260D02*
D03*
X50800D02*
D03*
X58420D02*
D03*
X53340D02*
D03*
X55880D02*
D03*
X43180Y62230D02*
D03*
X45720D02*
D03*
X48260D02*
D03*
X50800D02*
D03*
X58420D02*
D03*
X53340D02*
D03*
X55880D02*
D03*
X43180Y26670D02*
D03*
X45720D02*
D03*
X48260D02*
D03*
X50800D02*
D03*
X58420D02*
D03*
X53340D02*
D03*
X55880D02*
D03*
X43180Y33020D02*
D03*
X45720D02*
D03*
X48260D02*
D03*
X50800D02*
D03*
X58420D02*
D03*
X53340D02*
D03*
X55880D02*
D03*
X34255Y104775D02*
D03*
D92*
X26670Y99695D02*
D03*
X11430D02*
D03*
X68072Y55880D02*
D03*
D93*
X27140Y2025D02*
D03*
X60960Y55880D02*
D03*
X13440Y2000D02*
D03*
X60960Y85090D02*
D03*
Y3810D02*
D03*
Y62230D02*
D03*
Y26670D02*
D03*
Y33020D02*
D03*
X36795Y104775D02*
D03*
D94*
X63373Y91075D02*
D03*
D95*
Y93075D02*
D03*
D96*
X68750Y87425D02*
D03*
X71501Y85471D02*
D03*
X63050Y84900D02*
D03*
X4950Y60200D02*
D03*
X24275Y46400D02*
D03*
X24450Y31075D02*
D03*
X13775Y38750D02*
D03*
X66175Y41350D02*
D03*
X65650Y77450D02*
D03*
X63200Y72575D02*
D03*
X52700Y40450D02*
D03*
X52525Y43675D02*
D03*
X52450Y48625D02*
D03*
X33575Y85525D02*
D03*
X12900Y83150D02*
D03*
X12950Y34950D02*
D03*
X12875Y47600D02*
D03*
Y55100D02*
D03*
X12900Y60250D02*
D03*
X12875Y67775D02*
D03*
X12925Y70325D02*
D03*
X12900Y72975D02*
D03*
X12875Y75525D02*
D03*
X12925Y78025D02*
D03*
X32875Y50150D02*
D03*
X33650Y55025D02*
D03*
X33725Y60250D02*
D03*
X36000Y61925D02*
D03*
X34700Y57725D02*
D03*
X40975Y87625D02*
D03*
X39331Y87725D02*
D03*
X59250Y89375D02*
D03*
X38754Y96704D02*
D03*
X50038Y96144D02*
D03*
X45994Y95164D02*
D03*
X41301Y95784D02*
D03*
X37336Y95855D02*
D03*
X51943Y94234D02*
D03*
X55245Y94107D02*
D03*
X52735Y98530D02*
D03*
X44923Y95979D02*
D03*
X38726Y92325D02*
D03*
X4064Y39751D02*
D03*
X64389Y80010D02*
D03*
X66675Y59055D02*
D03*
Y62865D02*
D03*
X37465Y67945D02*
D03*
Y73025D02*
D03*
X37447Y78105D02*
D03*
X37465Y85725D02*
D03*
Y83185D02*
D03*
X64135Y29845D02*
D03*
X52070Y28575D02*
D03*
X55880Y29845D02*
D03*
X60960D02*
D03*
X73660Y33655D02*
D03*
Y38735D02*
D03*
Y43815D02*
D03*
Y48895D02*
D03*
Y53975D02*
D03*
Y59055D02*
D03*
Y64135D02*
D03*
Y69215D02*
D03*
Y74295D02*
D03*
Y79375D02*
D03*
Y84455D02*
D03*
Y89535D02*
D03*
X22225Y104775D02*
D03*
X15875D02*
D03*
X43561Y68065D02*
D03*
X62230Y71755D02*
D03*
X60960Y59055D02*
D03*
X58420D02*
D03*
X53340Y67945D02*
D03*
X56116D02*
D03*
X60960Y75565D02*
D03*
X55880D02*
D03*
X53340D02*
D03*
X50800D02*
D03*
X48260D02*
D03*
X43180D02*
D03*
X62230Y40386D02*
D03*
Y46990D02*
D03*
X41021Y48641D02*
D03*
X54610Y8255D02*
D03*
X52070D02*
D03*
X49530D02*
D03*
X41275D02*
D03*
X46355D02*
D03*
Y13335D02*
D03*
Y18415D02*
D03*
X41275D02*
D03*
Y13335D02*
D03*
X31750Y23495D02*
D03*
Y28575D02*
D03*
X26670D02*
D03*
X21590D02*
D03*
X16510D02*
D03*
X11430D02*
D03*
X6350D02*
D03*
X11430Y13335D02*
D03*
X16510D02*
D03*
X21590D02*
D03*
X26670D02*
D03*
X31750D02*
D03*
Y18415D02*
D03*
X26670D02*
D03*
X21590D02*
D03*
X16510D02*
D03*
X11430D02*
D03*
X6350Y23495D02*
D03*
Y18415D02*
D03*
Y13335D02*
D03*
X32385Y1905D02*
D03*
X37465Y75565D02*
D03*
Y80645D02*
D03*
Y28575D02*
D03*
Y23495D02*
D03*
X36195Y18415D02*
D03*
Y13335D02*
D03*
X37465Y3175D02*
D03*
X64770D02*
D03*
X49530Y13335D02*
D03*
Y18415D02*
D03*
X52070D02*
D03*
Y13335D02*
D03*
X54610D02*
D03*
Y18415D02*
D03*
X62230Y23495D02*
D03*
X58420Y18415D02*
D03*
Y13335D02*
D03*
X64770Y18415D02*
D03*
Y13335D02*
D03*
Y8255D02*
D03*
X71120Y28575D02*
D03*
Y23495D02*
D03*
Y18415D02*
D03*
Y13335D02*
D03*
Y8255D02*
D03*
X17780Y79375D02*
D03*
X1270Y99695D02*
D03*
Y94615D02*
D03*
Y89535D02*
D03*
Y84455D02*
D03*
Y79375D02*
D03*
Y74295D02*
D03*
Y69215D02*
D03*
Y64135D02*
D03*
Y59055D02*
D03*
Y53975D02*
D03*
Y48895D02*
D03*
Y43815D02*
D03*
Y38735D02*
D03*
Y33655D02*
D03*
Y28575D02*
D03*
Y23495D02*
D03*
Y18415D02*
D03*
Y13335D02*
D03*
Y8255D02*
D03*
X35941Y46355D02*
D03*
Y21971D02*
D03*
X34798Y20955D02*
D03*
X21971Y81915D02*
D03*
X20828Y90805D02*
D03*
X23114Y84455D02*
D03*
X24257Y83185D02*
D03*
Y66675D02*
D03*
X23114Y65405D02*
D03*
X21971Y62865D02*
D03*
X19685Y45085D02*
D03*
X18542Y42545D02*
D03*
X17399Y34925D02*
D03*
X16256Y32385D02*
D03*
X15113Y29718D02*
D03*
X13970Y47625D02*
D03*
X20828Y61595D02*
D03*
X46990Y45085D02*
D03*
X17780Y83185D02*
D03*
X15600Y89525D02*
D03*
Y94625D02*
D03*
Y99700D02*
D03*
X22479Y89535D02*
D03*
X22500Y94625D02*
D03*
Y99700D02*
D03*
Y59050D02*
D03*
X24275Y53850D02*
D03*
Y48875D02*
D03*
X24350Y33550D02*
D03*
Y43750D02*
D03*
X24400Y38675D02*
D03*
X24375Y36150D02*
D03*
X51575Y103375D02*
D03*
X50124Y105730D02*
D03*
X35300Y7487D02*
D03*
X65975Y90100D02*
D03*
X50125Y98800D02*
D03*
X53875Y98125D02*
D03*
X68551Y68575D02*
D03*
X67000Y60875D02*
D03*
X66900Y65250D02*
D03*
X71375Y64525D02*
D03*
X50850Y89350D02*
D03*
X61925Y53000D02*
D03*
X41975Y38350D02*
D03*
X41050Y43815D02*
D03*
X50927Y98044D02*
D03*
X71120Y81661D02*
D03*
Y82804D02*
D03*
X72136Y81661D02*
D03*
Y82804D02*
D03*
Y77724D02*
D03*
Y76581D02*
D03*
X60960Y48260D02*
D03*
X35825Y65225D02*
D03*
X56642Y98044D02*
D03*
X34671Y50165D02*
D03*
X66675Y78613D02*
D03*
X70485Y79502D02*
D03*
X68961D02*
D03*
X49530Y36830D02*
D03*
X52070Y35941D02*
D03*
X54610Y35052D02*
D03*
X62230Y81915D02*
D03*
X59690Y76835D02*
D03*
X62611Y69215D02*
D03*
X52070Y52832D02*
D03*
X54610D02*
D03*
X49530Y42545D02*
D03*
X58420Y50800D02*
D03*
X55880Y41402D02*
D03*
X53340Y39380D02*
D03*
X48260Y73013D02*
D03*
X50800D02*
D03*
X67183Y85471D02*
D03*
X60960Y74295D02*
D03*
X65024Y46990D02*
D03*
X64008Y52070D02*
D03*
X57658Y38100D02*
D03*
X59055Y45720D02*
D03*
X57404Y66675D02*
D03*
X42418Y104740D02*
D03*
D103*
X18034Y60325D02*
D03*
X20066D02*
D03*
M02*
