G04*
G04 #@! TF.GenerationSoftware,Altium Limited,Altium Designer,20.2.8 (258)*
G04*
G04 Layer_Color=8421504*
%FSLAX43Y43*%
%MOMM*%
G71*
G04*
G04 #@! TF.SameCoordinates,2C7AC1C0-F562-43BB-A571-7E62E4670D11*
G04*
G04*
G04 #@! TF.FilePolarity,Positive*
G04*
G01*
G75*
%ADD17R,2.100X2.100*%
%ADD18R,2.100X2.100*%
%ADD19R,0.700X0.700*%
%ADD20R,0.762X0.762*%
%ADD21R,1.600X1.092*%
%ADD22O,0.730X0.300*%
%ADD23O,0.300X0.730*%
%ADD24R,0.762X0.762*%
%ADD25R,0.550X0.600*%
%ADD26R,0.900X2.500*%
%ADD27R,0.700X0.250*%
%ADD28R,1.200X1.850*%
%ADD29R,1.200X2.500*%
%ADD30R,0.260X1.200*%
%ADD31R,1.200X0.775*%
%ADD32R,0.260X0.800*%
%ADD33R,0.725X1.250*%
%ADD34R,0.300X0.700*%
%ADD35R,1.550X1.350*%
%ADD36R,0.800X0.800*%
%ADD37R,1.000X0.950*%
%ADD38R,0.800X0.650*%
%ADD39R,1.350X0.900*%
%ADD40R,0.950X1.000*%
%ADD41R,0.650X0.800*%
%ADD42R,0.900X1.350*%
%ADD43R,0.800X0.800*%
G36*
X69126Y83496D02*
X69126Y83496D01*
X69121Y83480D01*
X69118Y83463D01*
X69117Y83446D01*
Y83122D01*
X68218D01*
X68218Y83309D01*
X68217Y83311D01*
X68218Y83313D01*
X68217Y83319D01*
X68217Y83326D01*
X68216Y83328D01*
X68216Y83330D01*
X68215Y83336D01*
X68214Y83342D01*
X68213Y83344D01*
X68213Y83346D01*
X68211Y83352D01*
X68209Y83359D01*
X68208Y83360D01*
X68208Y83362D01*
X68205Y83368D01*
X68203Y83374D01*
X68202Y83376D01*
X68201Y83378D01*
X68198Y83383D01*
X68195Y83389D01*
X68193Y83391D01*
X68192Y83392D01*
X68143Y83467D01*
X68143Y83496D01*
X69126Y83496D01*
D02*
G37*
D17*
X26670Y99695D02*
D03*
Y97155D02*
D03*
Y94615D02*
D03*
Y92075D02*
D03*
Y89535D02*
D03*
Y86995D02*
D03*
Y84455D02*
D03*
Y81915D02*
D03*
Y79375D02*
D03*
Y76835D02*
D03*
Y74295D02*
D03*
Y71755D02*
D03*
Y69215D02*
D03*
Y66675D02*
D03*
Y64135D02*
D03*
Y61595D02*
D03*
Y59055D02*
D03*
Y56515D02*
D03*
Y53975D02*
D03*
Y51435D02*
D03*
Y48895D02*
D03*
Y46355D02*
D03*
Y43815D02*
D03*
Y41275D02*
D03*
Y38735D02*
D03*
Y36195D02*
D03*
Y33655D02*
D03*
Y31115D02*
D03*
X11430D02*
D03*
Y33655D02*
D03*
Y36195D02*
D03*
Y38735D02*
D03*
Y41275D02*
D03*
Y43815D02*
D03*
Y46355D02*
D03*
Y48895D02*
D03*
Y51435D02*
D03*
Y53975D02*
D03*
Y56515D02*
D03*
Y59055D02*
D03*
Y61595D02*
D03*
Y64135D02*
D03*
Y66675D02*
D03*
Y69215D02*
D03*
Y71755D02*
D03*
Y74295D02*
D03*
Y76835D02*
D03*
Y79375D02*
D03*
Y81915D02*
D03*
Y84455D02*
D03*
Y86995D02*
D03*
Y89535D02*
D03*
Y92075D02*
D03*
Y94615D02*
D03*
Y97155D02*
D03*
Y99695D02*
D03*
D18*
X43180Y55880D02*
D03*
X45720D02*
D03*
X48260D02*
D03*
X50800D02*
D03*
X53340D02*
D03*
X55880D02*
D03*
X58420D02*
D03*
X60960D02*
D03*
X68072Y33020D02*
D03*
Y35560D02*
D03*
Y38100D02*
D03*
Y40640D02*
D03*
Y43180D02*
D03*
Y45720D02*
D03*
Y48260D02*
D03*
Y50800D02*
D03*
Y55880D02*
D03*
Y53340D02*
D03*
X70612Y33020D02*
D03*
Y35560D02*
D03*
Y40640D02*
D03*
Y38100D02*
D03*
Y45720D02*
D03*
Y48260D02*
D03*
Y43180D02*
D03*
Y50800D02*
D03*
Y53340D02*
D03*
Y55880D02*
D03*
X43180Y85090D02*
D03*
X45720D02*
D03*
X48260D02*
D03*
X50800D02*
D03*
X53340D02*
D03*
X55880D02*
D03*
X58420D02*
D03*
X60960D02*
D03*
X43180Y3810D02*
D03*
X45720D02*
D03*
X48260D02*
D03*
X50800D02*
D03*
X53340D02*
D03*
X55880D02*
D03*
X58420D02*
D03*
X60960D02*
D03*
X43180Y62230D02*
D03*
X45720D02*
D03*
X48260D02*
D03*
X50800D02*
D03*
X53340D02*
D03*
X55880D02*
D03*
X58420D02*
D03*
X60960D02*
D03*
X43180Y26670D02*
D03*
X45720D02*
D03*
X48260D02*
D03*
X50800D02*
D03*
X53340D02*
D03*
X55880D02*
D03*
X58420D02*
D03*
X60960D02*
D03*
X43180Y33020D02*
D03*
X45720D02*
D03*
X48260D02*
D03*
X50800D02*
D03*
X53340D02*
D03*
X55880D02*
D03*
X58420D02*
D03*
X60960D02*
D03*
D19*
X53340Y91440D02*
D03*
X53340Y90590D02*
D03*
X54190Y91440D02*
D03*
X53340Y92290D02*
D03*
X52490Y91440D02*
D03*
X54190Y90590D02*
D03*
X54190Y92290D02*
D03*
X52490Y92290D02*
D03*
X52490Y90590D02*
D03*
D20*
X71498Y87400D02*
D03*
X70102D02*
D03*
X67826Y77025D02*
D03*
X69224D02*
D03*
X38726Y91526D02*
D03*
X37329D02*
D03*
D21*
X37625Y89757D02*
D03*
Y87725D02*
D03*
X43137Y93947D02*
D03*
Y95979D02*
D03*
D22*
X55305Y92440D02*
D03*
Y91940D02*
D03*
Y91440D02*
D03*
Y90940D02*
D03*
Y90440D02*
D03*
X51375D02*
D03*
Y90940D02*
D03*
Y91440D02*
D03*
Y91940D02*
D03*
Y92440D02*
D03*
D23*
X54340Y89475D02*
D03*
X53840D02*
D03*
X53340D02*
D03*
X52840D02*
D03*
X52340D02*
D03*
Y93405D02*
D03*
X52840D02*
D03*
X53340D02*
D03*
X53840D02*
D03*
X54340D02*
D03*
D24*
X41526Y94275D02*
D03*
Y92878D02*
D03*
D25*
X36212Y93684D02*
D03*
Y92684D02*
D03*
X36235Y94652D02*
D03*
Y95652D02*
D03*
D26*
X42554Y90526D02*
D03*
X40254D02*
D03*
D27*
X40220Y93500D02*
D03*
Y95000D02*
D03*
Y94500D02*
D03*
Y94000D02*
D03*
Y93000D02*
D03*
X37320D02*
D03*
Y95000D02*
D03*
Y94500D02*
D03*
Y94000D02*
D03*
Y93500D02*
D03*
D28*
X38770Y94000D02*
D03*
D29*
X60661Y100203D02*
D03*
Y105703D02*
D03*
X63161Y100203D02*
D03*
X65661D02*
D03*
X63161Y105703D02*
D03*
X65661D02*
D03*
D30*
X68117Y81021D02*
D03*
X68617D02*
D03*
D31*
X68667Y81884D02*
D03*
D32*
X68117Y83821D02*
D03*
X68617D02*
D03*
X69117Y80821D02*
D03*
X69617D02*
D03*
X70117D02*
D03*
X70617D02*
D03*
X69117Y83821D02*
D03*
X69617D02*
D03*
X70117D02*
D03*
X70617D02*
D03*
D33*
X70067Y82321D02*
D03*
D34*
X68142Y60875D02*
D03*
Y63775D02*
D03*
X68642Y60875D02*
D03*
X69142D02*
D03*
X69642D02*
D03*
X68642Y63775D02*
D03*
X69142D02*
D03*
X69642D02*
D03*
D35*
X68892Y62325D02*
D03*
D36*
X19675Y1950D02*
D03*
X21175D02*
D03*
D37*
X61150Y96329D02*
D03*
X62850D02*
D03*
D38*
X17300Y1950D02*
D03*
X16100D02*
D03*
X38770Y99822D02*
D03*
X39970D02*
D03*
X68275Y59300D02*
D03*
X69475D02*
D03*
X68615Y85471D02*
D03*
X69815D02*
D03*
X52613Y99695D02*
D03*
X53813D02*
D03*
X55153Y99695D02*
D03*
X56353D02*
D03*
D39*
X57785Y88904D02*
D03*
Y91004D02*
D03*
X71432Y61275D02*
D03*
Y63375D02*
D03*
D40*
X66294Y79845D02*
D03*
Y81445D02*
D03*
D41*
X49149Y89443D02*
D03*
Y90643D02*
D03*
X39370Y7020D02*
D03*
Y8220D02*
D03*
Y36230D02*
D03*
Y37430D02*
D03*
Y65440D02*
D03*
Y66640D02*
D03*
X68600Y66175D02*
D03*
Y67375D02*
D03*
X68580Y69758D02*
D03*
Y70958D02*
D03*
X73175Y61700D02*
D03*
Y62900D02*
D03*
X45085Y89443D02*
D03*
Y90643D02*
D03*
X47117Y89443D02*
D03*
Y90643D02*
D03*
X48133Y103540D02*
D03*
Y104740D02*
D03*
X50800Y69250D02*
D03*
Y70450D02*
D03*
X48260Y69250D02*
D03*
Y70450D02*
D03*
X45847Y103540D02*
D03*
Y104740D02*
D03*
X43561Y103540D02*
D03*
Y104740D02*
D03*
X50927Y95504D02*
D03*
Y96704D02*
D03*
D42*
X54117Y96139D02*
D03*
X56217D02*
D03*
D43*
X48133Y100230D02*
D03*
Y101730D02*
D03*
X45847Y100230D02*
D03*
Y101730D02*
D03*
X43561Y100230D02*
D03*
Y101730D02*
D03*
M02*
