G04*
G04 #@! TF.GenerationSoftware,Altium Limited,Altium Designer,20.2.8 (258)*
G04*
G04 Layer_Color=8388736*
%FSLAX43Y43*%
%MOMM*%
G71*
G04*
G04 #@! TF.SameCoordinates,2C7AC1C0-F562-43BB-A571-7E62E4670D11*
G04*
G04*
G04 #@! TF.FilePolarity,Negative*
G04*
G01*
G75*
%ADD44R,0.900X0.510*%
%ADD45R,1.950X0.850*%
%ADD46R,0.882X0.882*%
%ADD47R,1.720X1.212*%
%ADD48R,2.620X2.620*%
%ADD49O,0.850X0.420*%
%ADD50O,0.420X0.850*%
%ADD51R,0.882X0.882*%
%ADD52R,0.670X0.720*%
%ADD53R,1.020X2.620*%
%ADD54R,0.820X0.370*%
%ADD55R,1.820X2.470*%
%ADD56R,1.120X1.070*%
%ADD57R,1.320X2.620*%
%ADD58R,0.380X1.320*%
%ADD59R,1.320X0.895*%
%ADD60R,0.380X0.920*%
%ADD61R,1.245X1.770*%
%ADD62R,1.750X1.550*%
%ADD63R,0.920X0.920*%
%ADD64R,0.920X0.770*%
%ADD65R,1.470X1.020*%
%ADD66R,1.070X1.120*%
%ADD67R,0.770X0.920*%
%ADD68R,1.020X1.470*%
%ADD69R,0.920X0.920*%
%ADD70C,1.898*%
%ADD71C,3.720*%
%ADD72C,1.820*%
%ADD73R,1.820X1.820*%
%ADD74R,1.820X1.820*%
%ADD75C,1.520*%
G04:AMPARAMS|DCode=76|XSize=1.52mm|YSize=1.52mm|CornerRadius=0.41mm|HoleSize=0mm|Usage=FLASHONLY|Rotation=270.000|XOffset=0mm|YOffset=0mm|HoleType=Round|Shape=RoundedRectangle|*
%AMROUNDEDRECTD76*
21,1,1.520,0.700,0,0,270.0*
21,1,0.700,1.520,0,0,270.0*
1,1,0.820,-0.350,-0.350*
1,1,0.820,-0.350,0.350*
1,1,0.820,0.350,0.350*
1,1,0.820,0.350,-0.350*
%
%ADD76ROUNDEDRECTD76*%
G36*
X69742Y83707D02*
X69752Y83706D01*
X69761Y83704D01*
X69770Y83700D01*
X69778Y83695D01*
X69785Y83689D01*
X69791Y83682D01*
X69796Y83674D01*
X69800Y83665D01*
X69802Y83656D01*
X69803Y83646D01*
Y83446D01*
X69802Y83437D01*
X69800Y83428D01*
X69796Y83419D01*
X69791Y83411D01*
X69785Y83404D01*
X69778Y83398D01*
X69770Y83393D01*
X69761Y83389D01*
X69752Y83387D01*
X69742Y83386D01*
X69328Y83386D01*
Y82971D01*
X69327Y82962D01*
X69325Y82953D01*
X69321Y82944D01*
X69316Y82936D01*
X69310Y82929D01*
X69303Y82923D01*
X69295Y82918D01*
X69286Y82914D01*
X69277Y82912D01*
X69267Y82911D01*
X68067D01*
X68058Y82912D01*
X68054Y82913D01*
X68049Y82914D01*
X68040Y82918D01*
X68040Y82918D01*
X68040D01*
X68032Y82923D01*
X68027Y82927D01*
X68025Y82929D01*
X68025Y82929D01*
X68025Y82929D01*
X68023Y82931D01*
X68019Y82936D01*
X68014Y82944D01*
Y82944D01*
X68014Y82944D01*
X68010Y82953D01*
X68009Y82958D01*
X68008Y82962D01*
X68007Y82971D01*
X68007Y83291D01*
X67942Y83388D01*
X67941Y83391D01*
X67939Y83394D01*
X67938Y83395D01*
X67938Y83396D01*
X67937Y83400D01*
X67935Y83403D01*
X67935Y83404D01*
X67935Y83405D01*
X67934Y83409D01*
X67933Y83412D01*
X67933Y83413D01*
X67933Y83414D01*
X67933Y83418D01*
X67932Y83421D01*
X67932Y83646D01*
Y83646D01*
Y83646D01*
X67932Y83650D01*
X67933Y83656D01*
X67933Y83656D01*
Y83656D01*
X67934Y83659D01*
X67935Y83665D01*
X67935Y83665D01*
X67935Y83665D01*
X67937Y83669D01*
X67939Y83674D01*
X67939Y83674D01*
X67939Y83674D01*
X67940Y83676D01*
X67944Y83682D01*
X67944Y83682D01*
X67944Y83682D01*
X67946Y83685D01*
X67950Y83689D01*
X67950Y83689D01*
X67950Y83689D01*
X67954Y83692D01*
X67957Y83695D01*
X67957Y83695D01*
X67957Y83695D01*
X67962Y83698D01*
X67965Y83700D01*
X67965Y83700D01*
X67965Y83700D01*
X67970Y83702D01*
X67974Y83704D01*
X67974Y83704D01*
X67974Y83704D01*
X67979Y83705D01*
X67983Y83706D01*
X67983D01*
X67983Y83706D01*
X67989Y83706D01*
X67992Y83707D01*
X67992D01*
X67992D01*
X69742Y83707D01*
D02*
G37*
D44*
X55880Y105735D02*
D03*
Y102240D02*
D03*
D45*
X68893Y60875D02*
D03*
X68893Y63775D02*
D03*
D46*
X71498Y87400D02*
D03*
X70102D02*
D03*
X67826Y77025D02*
D03*
X69224D02*
D03*
X38726Y91526D02*
D03*
X37329D02*
D03*
D47*
X37625Y89757D02*
D03*
Y87725D02*
D03*
X43137Y93947D02*
D03*
Y95979D02*
D03*
D48*
X53340Y91440D02*
D03*
D49*
X55305Y92440D02*
D03*
Y91940D02*
D03*
Y91440D02*
D03*
Y90940D02*
D03*
Y90440D02*
D03*
X51375D02*
D03*
Y90940D02*
D03*
Y91440D02*
D03*
Y91940D02*
D03*
Y92440D02*
D03*
D50*
X54340Y89475D02*
D03*
X53840D02*
D03*
X53340D02*
D03*
X52840D02*
D03*
X52340D02*
D03*
Y93405D02*
D03*
X52840D02*
D03*
X53340D02*
D03*
X53840D02*
D03*
X54340D02*
D03*
D51*
X41526Y94275D02*
D03*
Y92878D02*
D03*
D52*
X36212Y93684D02*
D03*
Y92684D02*
D03*
X36235Y94652D02*
D03*
Y95652D02*
D03*
D53*
X42554Y90526D02*
D03*
X40254D02*
D03*
D54*
X40220Y93500D02*
D03*
Y95000D02*
D03*
Y94500D02*
D03*
Y94000D02*
D03*
Y93000D02*
D03*
X37320D02*
D03*
Y95000D02*
D03*
Y94500D02*
D03*
Y94000D02*
D03*
Y93500D02*
D03*
D55*
X38770Y94000D02*
D03*
D56*
X55030Y105730D02*
D03*
X56730D02*
D03*
X51362Y105730D02*
D03*
X53062D02*
D03*
X61150Y96329D02*
D03*
X62850D02*
D03*
X51220Y102235D02*
D03*
X52920D02*
D03*
X55030D02*
D03*
X56730D02*
D03*
D57*
X60661Y100203D02*
D03*
Y105703D02*
D03*
X63161Y100203D02*
D03*
X65661D02*
D03*
X63161Y105703D02*
D03*
X65661D02*
D03*
D58*
X68117Y81021D02*
D03*
X68617D02*
D03*
D59*
X68667Y81884D02*
D03*
D60*
X68117Y83821D02*
D03*
X68617D02*
D03*
X69117Y80821D02*
D03*
X69617D02*
D03*
X70117D02*
D03*
X70617D02*
D03*
X69117Y83821D02*
D03*
X69617D02*
D03*
X70117D02*
D03*
X70617D02*
D03*
D61*
X70067Y82321D02*
D03*
D62*
X68892Y62325D02*
D03*
D63*
X19675Y1950D02*
D03*
X21175D02*
D03*
D64*
X17300D02*
D03*
X16100D02*
D03*
X38770Y99822D02*
D03*
X39970D02*
D03*
X68275Y59300D02*
D03*
X69475D02*
D03*
X68615Y85471D02*
D03*
X69815D02*
D03*
X52613Y99695D02*
D03*
X53813D02*
D03*
X55153Y99695D02*
D03*
X56353D02*
D03*
D65*
X57785Y88904D02*
D03*
Y91004D02*
D03*
X71432Y61275D02*
D03*
Y63375D02*
D03*
D66*
X66294Y79845D02*
D03*
Y81445D02*
D03*
D67*
X49149Y89443D02*
D03*
Y90643D02*
D03*
X39370Y7020D02*
D03*
Y8220D02*
D03*
Y36230D02*
D03*
Y37430D02*
D03*
Y65440D02*
D03*
Y66640D02*
D03*
X68600Y66175D02*
D03*
Y67375D02*
D03*
X68580Y69758D02*
D03*
Y70958D02*
D03*
X73175Y61700D02*
D03*
Y62900D02*
D03*
X45085Y89443D02*
D03*
Y90643D02*
D03*
X47117Y89443D02*
D03*
Y90643D02*
D03*
X48133Y103540D02*
D03*
Y104740D02*
D03*
X50800Y69250D02*
D03*
Y70450D02*
D03*
X48260Y69250D02*
D03*
Y70450D02*
D03*
X45847Y103540D02*
D03*
Y104740D02*
D03*
X43561Y103540D02*
D03*
Y104740D02*
D03*
X50927Y95504D02*
D03*
Y96704D02*
D03*
D68*
X54117Y96139D02*
D03*
X56217D02*
D03*
D69*
X48133Y100230D02*
D03*
Y101730D02*
D03*
X45847Y100230D02*
D03*
Y101730D02*
D03*
X43561Y100230D02*
D03*
Y101730D02*
D03*
D70*
X6147Y43815D02*
D03*
X31547Y61595D02*
D03*
X31953Y64135D02*
D03*
X31547Y66675D02*
D03*
X31953Y69215D02*
D03*
X31547Y71755D02*
D03*
X31953Y74295D02*
D03*
X31547Y76835D02*
D03*
X31953Y79375D02*
D03*
X31547Y81915D02*
D03*
X31953Y84455D02*
D03*
X31547Y86995D02*
D03*
X31953Y89535D02*
D03*
X31547Y92075D02*
D03*
X31953Y94615D02*
D03*
Y59055D02*
D03*
X31547Y56515D02*
D03*
X31953Y53975D02*
D03*
X31547Y51435D02*
D03*
X31953Y48895D02*
D03*
X31547Y46355D02*
D03*
X31953Y43815D02*
D03*
X31547Y41275D02*
D03*
X31953Y38735D02*
D03*
X31547Y36195D02*
D03*
X31953Y33655D02*
D03*
X31547Y31115D02*
D03*
X31953Y99695D02*
D03*
X31547Y97155D02*
D03*
X6553D02*
D03*
X6147Y94615D02*
D03*
X6553Y92075D02*
D03*
X6147Y89535D02*
D03*
X6553Y86995D02*
D03*
X6147Y84455D02*
D03*
X6553Y81915D02*
D03*
X6147Y79375D02*
D03*
X6553Y76835D02*
D03*
X6147Y74295D02*
D03*
X6553Y71755D02*
D03*
X6147Y69215D02*
D03*
X6553Y66675D02*
D03*
X6147Y64135D02*
D03*
X6553Y61595D02*
D03*
X6147Y59055D02*
D03*
X6553Y56515D02*
D03*
X6147Y33655D02*
D03*
X6553Y36195D02*
D03*
X6147Y38735D02*
D03*
X6553Y41275D02*
D03*
Y46355D02*
D03*
X6147Y48895D02*
D03*
X6553Y51435D02*
D03*
X6147Y53975D02*
D03*
X6553Y31115D02*
D03*
X6147Y99695D02*
D03*
X26670Y97155D02*
D03*
Y99695D02*
D03*
X11430Y31115D02*
D03*
X26670D02*
D03*
Y33655D02*
D03*
Y36195D02*
D03*
Y38735D02*
D03*
Y41275D02*
D03*
Y43815D02*
D03*
Y46355D02*
D03*
Y48895D02*
D03*
X11430Y53975D02*
D03*
Y51435D02*
D03*
Y48895D02*
D03*
Y46355D02*
D03*
Y43815D02*
D03*
Y41275D02*
D03*
Y38735D02*
D03*
Y36195D02*
D03*
Y33655D02*
D03*
X26670Y51435D02*
D03*
Y53975D02*
D03*
Y56515D02*
D03*
Y59055D02*
D03*
X11430Y56515D02*
D03*
Y59055D02*
D03*
Y61595D02*
D03*
Y64135D02*
D03*
Y99695D02*
D03*
X26670Y94615D02*
D03*
Y92075D02*
D03*
Y89535D02*
D03*
Y86995D02*
D03*
Y84455D02*
D03*
Y81915D02*
D03*
Y79375D02*
D03*
Y76835D02*
D03*
Y74295D02*
D03*
Y71755D02*
D03*
Y69215D02*
D03*
Y66675D02*
D03*
Y64135D02*
D03*
Y61595D02*
D03*
X11430Y66675D02*
D03*
Y69215D02*
D03*
Y71755D02*
D03*
Y74295D02*
D03*
Y76835D02*
D03*
Y79375D02*
D03*
Y81915D02*
D03*
Y84455D02*
D03*
Y86995D02*
D03*
Y89535D02*
D03*
Y92075D02*
D03*
Y94615D02*
D03*
Y97155D02*
D03*
D71*
Y104775D02*
D03*
X26670D02*
D03*
X3175D02*
D03*
X71755Y104775D02*
D03*
X3175Y3175D02*
D03*
X71755Y3175D02*
D03*
D72*
X26670Y33655D02*
D03*
Y31115D02*
D03*
Y36195D02*
D03*
Y46355D02*
D03*
Y43815D02*
D03*
Y38735D02*
D03*
Y41275D02*
D03*
Y56515D02*
D03*
Y53975D02*
D03*
Y48895D02*
D03*
Y51435D02*
D03*
Y66675D02*
D03*
Y64135D02*
D03*
Y59055D02*
D03*
Y61595D02*
D03*
Y76835D02*
D03*
Y74295D02*
D03*
Y69215D02*
D03*
Y71755D02*
D03*
Y86995D02*
D03*
Y84455D02*
D03*
Y79375D02*
D03*
Y81915D02*
D03*
Y92075D02*
D03*
Y89535D02*
D03*
Y94615D02*
D03*
Y97155D02*
D03*
X11430Y33655D02*
D03*
Y31115D02*
D03*
Y36195D02*
D03*
Y46355D02*
D03*
Y43815D02*
D03*
Y38735D02*
D03*
Y41275D02*
D03*
Y56515D02*
D03*
Y53975D02*
D03*
Y48895D02*
D03*
Y51435D02*
D03*
Y66675D02*
D03*
Y64135D02*
D03*
Y59055D02*
D03*
Y61595D02*
D03*
Y76835D02*
D03*
Y74295D02*
D03*
Y69215D02*
D03*
Y71755D02*
D03*
Y86995D02*
D03*
Y84455D02*
D03*
Y79375D02*
D03*
Y81915D02*
D03*
Y92075D02*
D03*
Y89535D02*
D03*
Y94615D02*
D03*
Y97155D02*
D03*
X24600Y2025D02*
D03*
X43180Y55880D02*
D03*
X45720D02*
D03*
X48260D02*
D03*
X50800D02*
D03*
X58420D02*
D03*
X53340D02*
D03*
X55880D02*
D03*
X68072Y35560D02*
D03*
Y43180D02*
D03*
Y38100D02*
D03*
Y40640D02*
D03*
X70612Y33020D02*
D03*
X68072D02*
D03*
Y45720D02*
D03*
Y48260D02*
D03*
Y50800D02*
D03*
Y53340D02*
D03*
X70612Y55880D02*
D03*
Y35560D02*
D03*
Y38100D02*
D03*
Y40640D02*
D03*
Y43180D02*
D03*
Y45720D02*
D03*
Y48260D02*
D03*
Y50800D02*
D03*
Y53340D02*
D03*
X10900Y2000D02*
D03*
X43180Y85090D02*
D03*
X45720D02*
D03*
X48260D02*
D03*
X50800D02*
D03*
X58420D02*
D03*
X53340D02*
D03*
X55880D02*
D03*
X43180Y3810D02*
D03*
X45720D02*
D03*
X48260D02*
D03*
X50800D02*
D03*
X58420D02*
D03*
X53340D02*
D03*
X55880D02*
D03*
X43180Y62230D02*
D03*
X45720D02*
D03*
X48260D02*
D03*
X50800D02*
D03*
X58420D02*
D03*
X53340D02*
D03*
X55880D02*
D03*
X43180Y26670D02*
D03*
X45720D02*
D03*
X48260D02*
D03*
X50800D02*
D03*
X58420D02*
D03*
X53340D02*
D03*
X55880D02*
D03*
X43180Y33020D02*
D03*
X45720D02*
D03*
X48260D02*
D03*
X50800D02*
D03*
X58420D02*
D03*
X53340D02*
D03*
X55880D02*
D03*
X34255Y104775D02*
D03*
D73*
X26670Y99695D02*
D03*
X11430D02*
D03*
X68072Y55880D02*
D03*
D74*
X27140Y2025D02*
D03*
X60960Y55880D02*
D03*
X13440Y2000D02*
D03*
X60960Y85090D02*
D03*
Y3810D02*
D03*
Y62230D02*
D03*
Y26670D02*
D03*
Y33020D02*
D03*
X36795Y104775D02*
D03*
D75*
X63373Y91075D02*
D03*
D76*
Y93075D02*
D03*
M02*
