M48
;Layer_Color=9474304
;FILE_FORMAT=2:4
INCH,TZ
;TYPE=PLATED
T1F00S00C0.0118
T2F00S00C0.0354
T3F00S00C0.0402
T4F00S00C0.1063
%
T01
X500Y3250
Y5250
X2500
X4500
X6500
X8500
Y7250
X6500
X4500
X2500
Y9250
X500
Y7250
X10500
Y5250
X12500
X14250
X16250
Y3250
X18250
X19500
X20500
X21500
Y5250
X20500
X19500
X18250
Y7250
X19500
X20500
X21500
X23000
Y5250
X16250Y7250
X14250
X14150Y8650
X13700Y8250
X14750Y9250
X12500
Y7250
X13898Y2948
X14750Y1250
X12750Y750
X25500Y1250
Y3250
Y5250
Y7250
X28000
Y9250
X24500
X28000Y5250
Y3250
Y11250
X29000Y13250
Y15250
Y17250
Y19250
Y21250
Y23250
X26250
X26378Y23967
X26250Y24750
X25200Y20500
X24380Y20866
X24500Y18500
X25600Y18500
X26053Y16280
X24500Y15900
X25250Y11750
X24000
X22000
X20500Y11250
X20500Y14150
X19500Y14500
Y16750
X20679Y17195
X20748Y15925
X21000Y15504
X22000Y16300
X22700Y15000
X21500Y13800
X23250Y18000
X24000Y19000
X23000Y20000
X21500Y20800
X20500
X20650Y19144
X18500Y17750
X16161Y17250
X16150Y19150
X14150Y18250
X13650Y19750
X12943Y19744
X13248Y21663
X13661Y22726
X13278Y23720
X14173Y24380
X8858Y23248
X9557Y21201
Y19242
Y18268
X9587Y17224
X9606Y15226
X9596Y14232
X9587Y13209
X9626Y12234
X10500Y11250
X12500
X14750
X16526Y15098
X23000Y23250
X24000
X8200Y24250
X8650Y24750
X5079Y23720
X5069Y21693
Y18740
X5500Y18750
X7750Y17750
X7300Y16750
X5423Y15256
X5098Y13760
X6850Y13750
X6400Y12750
X5950Y11700
X6500Y11250
X8500
X4500
X2500
X500
Y13250
Y15250
X1600Y15650
X500Y17250
Y19250
Y21250
Y23250
X1949Y23701
X500Y25250
Y27250
Y29250
Y31250
Y33250
Y35250
Y37250
Y39250
X6142Y39252
Y37254
Y35246
X8200Y35750
X8650Y32250
X7000Y32750
Y31250
X5089Y30719
X5069Y29734
X5079Y28730
X5089Y27687
X5069Y26683
X5079Y32736
X9550Y32750
X9100Y33250
X8850Y35250
X8858Y37254
Y39252
X14699Y37738
X15258Y38072
X16260Y37710
X17686Y37787
X18108Y37466
X19700Y37852
X19734Y38898
X20050Y38600
X20762Y38791
X21211Y38632
X22300Y38600
X21750Y37050
X20450Y37100
X20020Y35177
X23327Y35187
X23500Y30250
X24000Y29750
X24000Y29250
X22000Y29750
X21000
X20000
X19000
X19000Y28745
X20000
X21000Y26750
X22093
X22600Y26250
X17150Y26797
X14750Y26750
X14104Y25679
X14750Y28750
Y29750
X14743Y30750
X14750Y31750
Y32750
Y33750
X15485Y34537
X16132Y34498
X15246Y36348
X13218Y33671
X17000Y29750
X9550Y26250
X9100Y25750
X24650Y27250
X24500Y28250
X24882Y28573
X25846Y30492
X26250Y30950
X27150Y31300
X27750
X28000Y32150
X28400
Y32600
X28000
X28150Y33650
X29000Y33250
Y31250
X28400Y30600
Y30150
X29000Y29250
Y27250
Y25250
X28100Y25404
X26339Y25689
X26989Y26998
X25350Y31500
X24500Y32250
X24823Y33425
X26450Y33650
X27067Y34419
X25974Y35472
X29000Y35250
X20305Y40699
X19734Y41626
X16700Y41236
X8750Y41250
X6250
T02
X24950Y35856
Y36644
T03
X4291Y787
X5291
X9685Y797
X10685
X17000Y1500
X18000
X19000
X20000
X21000
X22000
X23000
X24000
X26800Y13000
Y14000
Y15000
Y16000
Y17000
Y18000
Y19000
Y20000
Y21000
Y22000
X27800
Y21000
Y20000
Y19000
Y18000
Y17000
Y16000
Y15000
Y14000
Y13000
X24000
X23000
X22000
X21000
X20000
X19000
X18000
X17000
Y10500
X18000
X19000
X20000
X21000
X22000
X23000
X24000
Y22000
X23000
X22000
X21000
X20000
X19000
X18000
X17000
Y24500
X18000
X19000
X20000
X21000
X22000
X23000
X24000
X12420Y24250
X12580Y23250
X12420Y22250
X12580Y21250
X12420Y20250
X12580Y19250
X12420Y18250
X12580Y17250
X12420Y16250
X12580Y15250
X12420Y14250
X12580Y13250
X12420Y12250
X10500
Y13250
Y14250
Y15250
Y16250
Y17250
Y18250
Y19250
Y20250
Y21250
Y22250
Y23250
Y24250
X4500
Y23250
Y22250
Y21250
Y20250
Y19250
Y18250
Y17250
Y16250
Y15250
Y14250
Y13250
Y12250
X2580
X2420Y13250
X2580Y14250
X2420Y15250
X2580Y16250
X2420Y17250
X2580Y18250
X2420Y19250
X2580Y20250
X2420Y21250
X2580Y22250
X2420Y23250
X2580Y24250
X2420Y25250
X2580Y26250
X2420Y27250
X2580Y28250
X2420Y29250
X2580Y30250
X2420Y31250
X2580Y32250
X2420Y33250
X2580Y34250
X2420Y35250
X2580Y36250
X2420Y37250
X2580Y38250
X2420Y39250
X4500
Y38250
Y37250
Y36250
Y35250
Y34250
Y33250
Y32250
Y31250
Y30250
Y29250
Y28250
Y27250
Y26250
Y25250
X10500
Y26250
Y27250
Y28250
Y29250
Y30250
Y31250
Y32250
Y33250
Y34250
Y35250
Y36250
Y37250
Y38250
Y39250
X12580
X12420Y38250
X12580Y37250
X12420Y36250
X12580Y35250
X12420Y34250
X12580Y33250
X12420Y32250
X12580Y31250
X12420Y30250
X12580Y29250
X12420Y28250
X12580Y27250
X12420Y26250
X12580Y25250
X17000Y33500
X18000
X19000
X20000
X21000
X22000
X23000
X24000
X14486Y41250
X13486
T04
X1250Y1250
X28250Y1250
X28250Y41250
X10500Y41250
X4500
X1250
M30
